<?xml version="1.0" standalone="no"?>
<!DOCTYPE svg PUBLIC "-//W3C//DTD SVG 20010904//EN"
 "http://www.w3.org/TR/2001/REC-SVG-20010904/DTD/svg10.dtd">
<svg version="1.0" xmlns="http://www.w3.org/2000/svg"
 width="140pt" height="190pt" viewBox="0 0 638.000000 789.000000"
 preserveAspectRatio="xMidYMid meet">

<g transform="translate(0.000000,789.000000) scale(0.100000,-0.100000)"
fill="#000000" stroke="none">
<path d="M0 3945 l0 -3945 3190 0 3190 0 0 3945 0 3945 -3190 0 -3190 0 0
-3945z m1658 2972 c2 -148 5 -177 17 -177 23 0 18 -19 -7 -29 -59 -22 -68 -23
-68 -6 0 15 -2 15 -22 1 -48 -34 -113 -13 -143 44 -56 109 50 261 146 210 18
-10 19 -7 19 45 0 50 -2 55 -22 55 -12 0 -18 3 -14 8 11 10 69 31 81 28 6 -2
11 -72 13 -179z m1842 -13 c0 -182 0 -185 23 -194 16 -6 2 -9 -53 -9 -53 0
-69 3 -53 9 21 9 22 15 25 163 4 182 3 187 -24 187 -12 0 -18 3 -14 8 11 10
79 30 89 25 4 -2 7 -87 7 -189z m921 186 c24 -13 26 -50 2 -50 -9 0 -27 10
-39 21 -36 34 -54 19 -54 -46 l0 -55 35 0 c19 0 35 -4 35 -10 0 -5 -16 -10
-35 -10 l-36 0 3 -112 c3 -110 3 -112 28 -119 15 -4 -8 -7 -55 -7 -44 0 -73 2
-65 5 33 12 40 37 40 135 0 98 0 98 -25 98 -31 0 -33 17 -2 22 15 2 23 11 25
28 10 86 79 134 143 100z m-3603 -47 c3 -47 -13 -58 -27 -19 -12 30 -29 36
-107 36 l-64 0 0 -70 0 -70 60 0 c55 0 62 2 72 25 19 42 28 28 28 -45 0 -40
-4 -70 -10 -70 -5 0 -10 6 -10 14 0 25 -42 46 -93 46 l-48 0 3 -82 c3 -74 5
-84 25 -94 13 -6 21 -13 19 -15 -2 -2 -42 -2 -88 -1 -79 4 -82 4 -55 18 l27
15 0 164 0 165 -25 6 c-14 3 -25 10 -25 15 0 6 67 8 158 7 l157 -3 3 -42z
m2273 -83 c16 0 29 -4 29 -10 0 -5 -14 -10 -30 -10 l-31 0 3 -102 3 -103 32 1
c37 2 36 -16 -2 -36 -33 -17 -74 -5 -85 26 -6 14 -10 68 -10 120 0 78 -3 94
-16 94 -10 0 -1 17 28 50 l43 50 3 -40 c3 -37 5 -40 33 -40z m-2181 -90 c0
-131 20 -162 81 -130 17 9 19 22 19 106 0 87 -2 96 -20 101 -35 9 -13 18 34
15 l46 -4 0 -109 c0 -88 3 -111 15 -115 25 -10 17 -19 -25 -31 -36 -9 -40 -8
-40 8 0 24 -6 24 -37 -1 -34 -27 -69 -25 -98 5 -23 22 -25 31 -25 125 0 80 -3
102 -15 106 -28 11 -15 20 25 16 l40 -4 0 -88z m300 79 l0 -20 29 20 c37 26
75 27 101 1 17 -17 20 -33 20 -119 0 -92 2 -101 22 -115 12 -9 19 -16 15 -17
-4 0 -32 0 -62 0 -30 0 -58 0 -62 0 -4 1 3 8 15 17 20 14 22 24 22 103 0 91
-8 111 -44 111 -43 0 -56 -27 -56 -116 0 -74 2 -84 22 -98 12 -9 18 -16 13
-17 -10 -1 -116 -1 -125 0 -2 1 6 8 18 17 20 14 22 23 22 110 0 89 -1 95 -22
103 l-23 9 25 10 c71 27 70 27 70 1z m681 2 c22 -17 24 -28 27 -120 4 -94 5
-101 24 -101 20 0 21 -1 3 -20 -22 -24 -61 -26 -73 -4 -8 15 -12 15 -40 0 -60
-31 -112 -9 -112 48 0 39 26 67 93 96 43 19 47 24 47 55 0 29 -4 36 -25 41
-29 7 -59 -12 -51 -32 7 -18 -21 -45 -39 -38 -30 12 -13 59 30 82 32 18 90 14
116 -7z m169 -1 c0 -20 0 -20 33 0 41 25 72 25 97 0 20 -20 20 -20 52 0 42 25
83 25 108 0 17 -17 20 -33 20 -119 0 -92 2 -101 22 -115 12 -9 19 -16 15 -17
-13 -1 -117 0 -124 1 -5 1 2 5 15 10 20 9 22 15 22 99 0 111 -4 121 -44 121
-49 0 -56 -14 -56 -117 0 -88 1 -94 23 -102 16 -7 5 -10 -46 -12 -68 -4 -97 4
-57 14 19 5 21 12 18 109 l-3 103 -27 3 c-15 2 -36 -2 -48 -8 -18 -10 -20 -20
-20 -106 0 -89 1 -95 23 -104 12 -5 19 -9 15 -10 -8 -1 -112 -2 -125 -1 -4 1
3 8 15 17 20 14 22 24 22 99 0 92 -5 115 -26 115 -28 0 -13 17 24 27 53 15 52
15 52 -7z m534 10 c25 -9 56 -56 56 -85 0 -12 -15 -15 -91 -15 l-91 0 7 -32
c11 -57 37 -83 84 -86 36 -3 46 1 71 28 21 23 30 27 30 16 0 -9 -15 -32 -33
-52 -26 -28 -42 -37 -78 -41 -41 -5 -50 -2 -79 24 -60 54 -58 163 4 220 37 35
72 41 120 23z m176 -11 l0 -20 26 20 c34 27 78 27 104 1 17 -17 20 -33 20
-119 0 -92 2 -101 22 -115 12 -9 19 -16 15 -17 -4 0 -29 0 -57 0 -75 0 -76 0
-52 17 20 14 22 24 22 103 0 91 -8 111 -44 111 -43 0 -56 -27 -56 -121 0 -79
2 -88 20 -94 36 -11 13 -20 -47 -18 -32 1 -60 2 -63 3 -2 0 6 7 18 16 20 14
22 23 22 110 0 89 -1 95 -22 103 l-23 9 25 10 c71 27 70 27 70 1z m533 10 c34
-18 37 -28 37 -119 0 -92 5 -106 35 -112 18 -3 18 -5 -7 -22 -30 -19 -68 -14
-68 10 0 11 -8 10 -37 -6 -45 -24 -62 -25 -91 -4 -30 21 -30 73 1 102 12 11
44 30 70 41 47 20 48 22 45 58 -3 36 -5 38 -38 38 -32 0 -35 -3 -38 -32 -3
-27 -7 -33 -28 -33 -19 0 -24 5 -24 25 0 48 90 82 143 54z m422 -2 c7 -9 13
-67 7 -67 -4 0 -15 14 -24 31 -15 25 -23 30 -50 27 -28 -2 -34 -8 -36 -30 -3
-24 4 -32 44 -55 68 -40 84 -58 84 -96 0 -56 -43 -81 -121 -71 l-49 7 0 44 c0
27 4 42 10 38 6 -3 10 -14 10 -24 0 -29 34 -53 72 -49 28 2 34 7 36 30 3 24
-4 32 -52 63 -82 52 -97 95 -50 142 23 22 31 25 72 19 25 -3 46 -7 47 -9z
m400 -1 c70 -30 95 -122 53 -197 -36 -64 -103 -85 -167 -51 -92 47 -93 199 -1
244 43 22 70 22 115 4z m1595 -741 c0 -157 2 -174 18 -177 12 -3 6 -9 -22 -21
-25 -11 -43 -14 -50 -8 -7 6 -17 6 -26 1 -8 -6 -32 -10 -53 -10 -102 0 -141
147 -63 237 21 24 31 27 80 27 60 0 64 5 58 64 -3 21 -10 32 -20 32 -8 0 -12
3 -8 8 11 11 70 30 79 25 4 -2 7 -82 7 -178z m-5032 34 l67 -140 64 140 65
141 58 0 c61 0 73 -9 36 -25 -22 -10 -23 -14 -23 -170 0 -156 1 -160 23 -170
40 -18 23 -25 -58 -25 -47 0 -80 4 -80 10 0 6 7 10 15 10 27 0 35 38 35 167
-1 150 3 152 -90 -55 -30 -68 -59 -123 -64 -123 -4 0 -38 64 -75 143 l-66 143
-3 -124 c-3 -124 3 -151 34 -151 8 0 14 -4 14 -10 0 -6 -30 -10 -70 -10 -69 0
-93 12 -46 24 32 8 36 28 36 179 0 134 -8 167 -40 167 -11 0 -20 5 -20 10 0 6
27 10 60 10 l60 0 68 -141z m3002 133 c0 -4 -10 -12 -22 -17 -20 -9 -23 -19
-26 -77 l-3 -68 91 0 91 0 -3 68 c-3 58 -6 68 -25 77 -40 17 -25 25 51 25 70
0 113 -15 64 -22 -23 -3 -23 -5 -26 -170 l-2 -167 25 -7 c50 -12 23 -24 -55
-24 -81 0 -98 7 -57 25 20 9 22 18 25 88 l3 77 -91 0 -91 0 3 -77 c3 -70 5
-79 26 -88 40 -18 23 -25 -58 -25 -81 0 -98 7 -57 25 21 10 22 16 25 155 3
166 0 190 -28 190 -11 0 -20 5 -20 10 0 6 33 10 80 10 44 0 80 -3 80 -8z
m-1280 -87 c0 -32 2 -35 33 -37 l32 -1 -32 -4 -33 -4 0 -98 c0 -75 4 -101 15
-111 12 -10 18 -10 30 0 9 7 19 10 23 6 14 -14 -40 -47 -72 -44 -44 4 -56 35
-56 151 0 74 -3 97 -13 97 -14 0 51 78 66 79 4 1 7 -15 7 -34z m2173 -37 l32
-1 -32 -4 -33 -4 0 -98 c0 -109 10 -132 49 -111 28 15 27 -5 -1 -24 -32 -22
-64 -20 -82 6 -12 17 -16 48 -16 125 0 80 -3 103 -14 103 -7 0 2 17 23 41 l36
40 3 -35 c3 -33 6 -36 35 -38z m-3363 3 c37 -10 70 -66 70 -118 0 -86 -52
-143 -130 -143 -102 0 -160 108 -113 207 25 54 96 76 173 54z m190 -5 c0 -13
5 -13 37 0 38 16 99 12 105 -7 2 -6 17 -4 40 6 50 20 84 19 108 -5 17 -17 20
-33 20 -109 0 -98 5 -121 26 -121 8 0 14 -4 14 -10 0 -12 -117 -13 -124 -1 -3
5 3 11 14 14 19 5 21 12 18 103 -3 109 -14 126 -65 108 -28 -9 -28 -10 -31
-108 -3 -91 -1 -98 18 -103 41 -11 18 -23 -45 -23 -61 0 -84 11 -50 24 12 4
15 25 15 95 0 107 -4 121 -38 121 -50 0 -62 -24 -62 -122 0 -81 2 -90 20 -95
11 -3 17 -9 14 -14 -7 -12 -124 -11 -124 1 0 6 6 10 14 10 21 0 26 23 26 110
0 89 -5 110 -28 110 -26 0 0 18 33 23 17 2 33 5 38 6 4 0 7 -6 7 -13z m538 8
c23 -7 52 -50 52 -79 0 -12 -15 -15 -84 -15 -47 0 -88 -5 -91 -10 -10 -15 13
-75 36 -96 32 -28 87 -24 116 10 30 35 40 28 19 -13 -20 -38 -63 -61 -113 -61
-68 1 -105 49 -104 137 1 102 70 153 169 127z m172 -8 c0 -13 4 -13 28 0 35
18 72 18 100 -2 20 -14 22 -23 22 -114 0 -74 4 -102 15 -114 23 -23 19 -26
-40 -26 -59 0 -63 3 -40 27 24 23 17 191 -8 207 -13 8 -24 7 -45 -4 -26 -15
-27 -19 -30 -109 -3 -86 -1 -93 18 -98 11 -3 20 -9 20 -14 0 -12 -117 -11
-125 1 -3 6 0 10 8 10 22 0 27 22 27 110 0 89 -5 110 -28 110 -24 0 -7 11 30
20 48 11 48 11 48 -4z m593 5 c4 -1 7 -43 7 -95 0 -103 5 -126 26 -126 28 0
13 -17 -25 -28 -49 -15 -51 -15 -51 3 0 8 -4 15 -9 15 -5 0 -14 -7 -21 -15
-18 -22 -76 -19 -100 5 -17 17 -20 33 -20 118 0 63 -4 102 -12 110 -9 9 -4 12
25 12 l37 0 0 -91 c0 -50 5 -99 10 -110 12 -21 41 -25 71 -9 17 9 19 22 19
105 0 78 -3 95 -15 95 -8 0 -15 3 -15 8 0 6 31 7 73 3z m157 -5 c0 -13 4 -13
35 0 44 18 75 18 102 -1 18 -13 24 -13 53 1 35 18 98 13 112 -8 9 -15 13 -65
9 -132 -3 -61 5 -96 24 -96 8 0 15 -4 15 -10 0 -6 -27 -10 -60 -10 -57 0 -78
11 -45 24 13 5 15 23 13 108 l-3 103 -31 3 c-53 5 -64 -16 -64 -120 0 -81 2
-90 20 -95 41 -11 18 -23 -45 -23 -37 0 -65 4 -65 10 0 6 6 10 14 10 7 0 16
10 20 23 8 29 6 135 -3 167 -8 31 -43 38 -77 16 -23 -15 -24 -22 -24 -107 0
-82 2 -91 20 -96 41 -11 18 -23 -45 -23 -63 0 -86 12 -45 23 18 5 20 14 20
106 0 96 -1 102 -22 110 -22 9 -22 9 7 16 17 4 35 8 40 10 20 7 25 5 25 -9z
m1255 4 c21 -8 55 -60 55 -85 0 -3 -40 -5 -90 -5 -101 0 -105 -4 -75 -75 25
-61 104 -70 145 -18 11 14 23 23 27 19 13 -13 -54 -81 -89 -90 -95 -24 -163
57 -139 164 18 81 89 119 166 90z m243 4 c40 -8 44 -20 51 -134 5 -83 8 -95
24 -92 23 4 22 -15 -2 -28 -28 -15 -59 -12 -69 6 -8 14 -12 14 -45 -2 -47 -22
-87 -11 -101 28 -15 43 9 74 81 109 47 22 63 35 63 50 0 33 -19 59 -44 59 -25
0 -51 -23 -42 -38 3 -5 -1 -18 -9 -28 -13 -18 -15 -18 -31 -2 -16 16 -16 19
-1 42 21 31 66 42 125 30z m745 -13 c7 -7 14 -56 17 -114 4 -90 7 -102 23 -99
20 3 22 -9 5 -26 -18 -18 -56 -15 -67 6 -9 16 -11 16 -39 0 -59 -35 -112 -12
-112 47 0 37 15 53 88 89 44 23 52 30 52 55 0 34 -20 54 -52 49 -18 -2 -24
-10 -26 -35 -3 -33 -28 -51 -46 -33 -16 16 6 63 34 72 34 10 109 3 123 -11z
m162 -11 c1 0 16 7 31 15 37 19 64 19 92 -1 20 -14 22 -23 22 -114 0 -74 4
-102 15 -114 23 -23 19 -26 -40 -26 -53 0 -72 11 -40 24 24 9 17 194 -8 210
-13 8 -24 7 -45 -4 -26 -15 -27 -19 -30 -109 -3 -86 -1 -93 18 -98 36 -10 10
-23 -46 -23 -52 0 -71 11 -39 24 12 4 15 26 15 105 0 85 -3 101 -17 110 -15 8
-16 10 -3 15 32 11 65 10 68 -1 2 -7 5 -13 7 -13z m-1957 -186 c32 -22 29 -65
-8 -104 -39 -42 -51 -32 -15 12 l27 32 -31 8 c-33 9 -41 34 -19 56 15 15 19
15 46 -4z m1402 -4 c11 -11 20 -29 20 -40 0 -21 -69 -104 -70 -84 0 6 9 19 20
29 26 23 26 45 0 45 -29 0 -44 34 -24 54 20 21 30 20 54 -4z m-4036 -493 c33
-73 62 -136 66 -140 4 -4 33 52 65 125 32 73 62 138 66 143 4 6 33 8 65 6 47
-2 54 -5 38 -14 -10 -6 -22 -15 -26 -21 -12 -17 -9 -295 2 -317 6 -10 17 -19
25 -19 8 0 15 -4 15 -10 0 -6 -33 -10 -80 -10 -47 0 -80 4 -80 10 0 6 7 10 15
10 8 0 19 9 25 19 11 22 14 278 3 267 -5 -4 -37 -73 -73 -153 -36 -81 -69
-147 -73 -147 -5 -1 -34 55 -66 124 -31 69 -62 136 -68 150 -10 20 -12 0 -10
-110 2 -129 3 -135 25 -145 39 -17 24 -25 -48 -25 -69 0 -93 12 -46 24 13 3
26 16 30 28 8 33 7 291 -2 304 -4 6 -17 14 -30 18 -39 13 -17 21 45 18 l58 -4
59 -131z m1529 90 c5 -52 -8 -70 -23 -31 -14 36 -26 44 -73 44 l-37 0 2 -167
c3 -166 3 -168 26 -171 12 -2 22 -8 22 -13 0 -5 -38 -9 -85 -9 -47 0 -85 4
-85 9 0 5 10 11 23 13 22 3 22 5 25 171 l2 167 -37 0 c-46 0 -59 -8 -72 -43
-16 -41 -35 -34 -27 11 3 20 6 42 6 49 0 14 72 19 222 15 l106 -3 5 -42z
m1171 47 c18 -7 21 -39 5 -49 -6 -4 -21 3 -34 15 -38 36 -59 24 -63 -38 l-3
-52 35 0 c20 0 36 -4 36 -10 0 -5 -16 -10 -35 -10 l-35 0 0 -110 0 -110 28
-12 c27 -12 27 -12 -16 -16 -23 -2 -59 -2 -80 0 -31 3 -34 5 -17 13 32 14 35
24 35 133 l0 102 -25 0 c-14 0 -25 5 -25 10 0 6 11 10 24 10 20 0 24 6 29 42
9 69 75 107 141 82z m-2173 -140 c15 -13 19 -34 21 -112 3 -92 4 -96 27 -102
23 -5 23 -6 7 -23 -21 -21 -59 -22 -76 -2 -11 13 -15 13 -33 0 -28 -20 -91
-19 -107 1 -19 22 -16 70 4 93 10 11 42 31 72 45 48 23 54 29 54 56 0 19 -7
33 -20 40 -28 15 -60 -4 -60 -36 0 -27 -25 -43 -42 -26 -6 6 -8 22 -4 37 13
51 112 69 157 29z m247 11 c2 -2 2 -20 0 -41 l-4 -39 -11 27 c-24 55 -93 62
-93 10 1 -22 12 -34 63 -67 55 -35 62 -44 65 -75 4 -51 -32 -83 -90 -81 -24 1
-53 2 -65 3 -20 0 -23 5 -23 44 0 51 13 57 29 14 19 -57 101 -61 101 -4 0 18
-9 30 -32 42 -46 24 -98 77 -98 99 0 25 27 63 54 73 18 7 94 3 104 -5z m210 5
c19 0 22 -5 22 -40 0 -22 -4 -40 -10 -40 -5 0 -10 7 -10 15 0 18 -35 55 -53
55 -7 0 -21 -6 -31 -13 -29 -21 -12 -51 54 -91 40 -25 62 -46 66 -62 15 -59
-45 -109 -114 -93 -19 4 -41 5 -48 2 -11 -4 -14 6 -14 41 0 53 11 59 27 16 21
-56 103 -60 103 -5 0 18 -11 31 -45 51 -76 44 -103 95 -71 136 17 23 56 38 81
33 11 -3 30 -5 43 -5z m720 -2 c14 -14 16 -44 3 -53 -5 -3 -21 0 -35 6 -45 21
-56 0 -56 -103 0 -81 2 -90 20 -95 41 -11 18 -23 -45 -23 -37 0 -65 4 -65 10
0 6 7 10 15 10 12 0 15 18 15 105 0 87 -3 105 -15 105 -26 0 -16 16 18 28 44
16 57 15 57 -4 0 -13 5 -12 26 5 30 24 45 26 62 9z m207 -18 c16 -17 21 -38
25 -118 4 -85 7 -97 23 -94 20 3 22 -9 5 -26 -17 -17 -65 -15 -75 3 -8 13 -14
13 -47 -4 -68 -35 -124 8 -100 78 6 18 27 35 71 56 57 27 62 33 62 62 1 62
-74 67 -81 6 -4 -35 -41 -40 -46 -6 -9 61 113 93 163 43z m263 24 c38 -10 52
-53 52 -154 0 -71 3 -92 15 -96 33 -13 12 -24 -45 -24 -57 0 -78 11 -45 24 13
5 15 23 13 102 -3 111 -16 131 -62 101 -25 -17 -26 -21 -26 -112 0 -78 3 -95
15 -95 8 0 15 -4 15 -10 0 -6 -27 -10 -60 -10 -57 0 -78 11 -45 24 23 8 22
201 -1 214 -14 8 -11 11 16 21 44 15 60 14 60 -4 0 -12 6 -11 33 5 36 22 34
22 65 14z m275 -11 c9 -6 9 -73 -1 -73 -4 0 -13 13 -20 30 -15 34 -43 46 -72
30 -36 -19 -24 -48 35 -85 67 -43 88 -73 79 -110 -12 -47 -47 -61 -136 -55
-38 3 -38 4 -38 47 0 23 5 43 10 43 6 0 10 -8 10 -18 0 -37 58 -69 91 -51 35
18 19 51 -43 92 -62 41 -78 71 -62 116 13 35 50 53 99 45 22 -3 43 -8 48 -11z
m695 -21 c-3 -12 -14 -17 -38 -17 -56 0 -60 -7 -60 -107 0 -81 2 -90 20 -95
41 -11 18 -23 -45 -23 -37 0 -65 4 -65 10 0 6 6 10 14 10 17 0 24 32 26 113 1
69 -6 97 -26 97 -28 0 -13 17 25 28 51 16 51 16 51 -10 0 -19 2 -20 13 -6 31
40 93 40 85 0z m-253 6 c15 -14 27 -35 28 -53 l2 -30 -82 0 c-45 0 -85 -3 -88
-7 -3 -3 -1 -24 5 -47 20 -75 84 -93 145 -40 47 42 45 16 -4 -32 -33 -34 -45
-39 -82 -39 -73 1 -109 43 -109 130 0 90 42 140 117 140 29 0 50 -7 68 -22z
m2150 -1690 c4 -475 6 -989 3 -1143 l-4 -280 -2597 -3 -2597 -2 0 1145 0 1145
2594 0 2594 0 7 -862z m-3327 -2330 c-3 -155 -5 -183 -18 -183 -13 0 -15 28
-18 183 -2 178 -2 182 18 182 20 0 20 -4 18 -182z m1527 2 c0 -158 -2 -175
-17 -178 -17 -3 -18 11 -18 178 0 167 1 181 18 178 15 -3 17 -20 17 -178z
m-2565 142 c0 -4 -4 -12 -9 -17 -5 -6 1 -37 14 -75 l23 -65 12 30 c22 54 25
104 6 111 -9 3 -13 10 -10 15 7 12 101 11 109 -1 3 -5 -1 -10 -9 -10 -20 0
-20 -5 0 -66 24 -71 30 -72 48 -11 19 65 20 77 5 77 -5 0 -7 5 -4 10 7 11 48
14 58 3 4 -3 1 -13 -7 -22 -7 -9 -28 -61 -46 -116 -18 -55 -36 -104 -41 -109
-8 -9 -17 7 -54 108 l-18 48 -31 -77 c-18 -42 -37 -77 -42 -77 -5 0 -27 50
-49 110 -22 61 -43 114 -47 118 -18 17 -5 24 42 24 28 0 50 -4 50 -8z m465 -4
c2 -7 5 -66 7 -131 l3 -117 -35 0 -35 0 0 130 0 130 28 0 c15 0 30 -6 32 -12z
m981 -13 c39 -25 28 -92 -18 -107 -7 -3 5 -26 30 -61 23 -31 42 -59 42 -62 0
-3 -17 -5 -37 -3 -33 3 -42 10 -73 55 -19 29 -38 52 -41 53 -11 0 -1 -84 10
-88 6 -2 11 -8 11 -13 0 -5 -27 -9 -60 -9 -57 0 -78 11 -45 24 22 8 22 204 0
212 -8 4 -12 11 -9 16 10 16 162 2 190 -17z m1542 -22 c2 -19 -1 -33 -7 -33
-6 0 -11 6 -11 14 0 21 -40 46 -72 46 -27 0 -28 -2 -28 -50 0 -58 20 -68 44
-22 15 26 15 25 15 -38 1 -59 -1 -63 -12 -40 -7 14 -20 26 -30 28 -14 3 -17
-5 -17 -47 0 -39 4 -51 15 -51 8 0 15 -4 15 -8 0 -4 -27 -8 -60 -7 -59 0 -75
7 -45 19 12 4 15 26 15 105 0 85 -3 102 -17 110 -13 8 11 10 87 8 l105 -2 3
-32z m-2395 -37 l22 -7 -22 -9 c-20 -8 -23 -17 -23 -63 0 -60 6 -72 28 -55 12
10 14 9 11 -6 -6 -27 -31 -40 -62 -32 -26 6 -27 9 -27 74 0 37 -5 73 -10 78
-8 8 -1 22 22 48 l33 38 3 -30 c2 -21 10 -32 25 -36z m2797 33 c0 -12 8 -28
18 -35 16 -13 16 -13 0 -14 -15 0 -18 -10 -18 -65 0 -65 6 -75 28 -53 18 18
14 -3 -5 -24 -21 -23 -59 -23 -72 0 -5 9 -10 49 -12 89 -3 65 -1 74 20 97 30
32 41 33 41 5z m-3027 -46 c8 -10 17 -29 19 -43 3 -23 -1 -25 -39 -28 -34 -2
-43 -7 -43 -21 0 -31 26 -46 56 -32 37 17 40 14 14 -14 -52 -55 -130 -16 -130
65 0 52 32 90 74 90 19 0 40 -8 49 -17z m342 -1 c-3 -11 1 -34 9 -52 l13 -33
12 35 c6 19 9 42 5 51 -5 13 0 17 20 17 26 0 35 -13 17 -24 -5 -3 -23 -45 -41
-94 -41 -115 -54 -134 -88 -130 -17 2 -28 10 -30 22 -5 26 19 38 39 20 16 -14
18 -14 28 4 8 16 4 36 -20 93 -16 41 -34 78 -39 83 -19 19 -9 26 36 26 40 0
45 -2 39 -18z m945 -2 c57 -57 23 -160 -52 -160 -38 0 -48 6 -71 40 -24 35
-21 74 9 109 31 37 83 42 114 11z m120 8 c0 -9 3 -9 12 0 16 16 43 15 57 -2
17 -20 -15 -52 -35 -35 -7 6 -18 8 -24 4 -13 -8 -13 -115 0 -115 6 0 10 -4 10
-10 0 -5 -19 -10 -42 -10 l-43 0 0 90 0 90 33 0 c18 0 32 -5 32 -12z m155 2
c3 -6 15 -5 31 2 20 9 28 9 41 -4 22 -22 7 -40 -30 -36 l-32 3 -3 -57 c-2 -36
1 -58 8 -58 5 0 10 -4 10 -8 0 -6 -47 -8 -90 -3 -2 1 1 6 8 13 14 14 16 124 2
133 -5 3 -10 10 -10 16 0 12 57 12 65 -1z m204 -7 c11 -10 22 -29 23 -43 3
-23 -1 -25 -40 -28 -37 -3 -43 -6 -40 -24 4 -31 33 -46 58 -30 31 19 35 14 10
-13 -44 -46 -114 -24 -126 40 -16 85 56 146 115 98z m113 6 c3 -9 10 -8 25 1
26 17 53 6 53 -21 0 -19 -4 -21 -35 -15 l-35 7 0 -61 c0 -33 4 -60 10 -60 6 0
10 -4 10 -8 0 -4 -19 -8 -42 -8 l-43 -1 0 89 0 88 27 0 c14 0 28 -5 30 -11z
m889 -18 c79 -80 -23 -200 -108 -127 -22 19 -28 32 -28 66 0 34 6 47 28 66 38
32 72 30 108 -5z m159 1 l0 -23 -26 20 c-22 17 -30 19 -41 9 -16 -13 -15 -14
52 -61 55 -39 18 -101 -56 -94 -39 3 -44 7 -47 30 -4 32 8 35 26 7 14 -22 62
-28 62 -7 0 8 -17 25 -37 38 -70 45 -52 112 29 107 32 -3 38 -6 38 -26z m270
8 c11 -11 20 -31 20 -45 0 -23 -4 -25 -45 -25 -25 0 -45 -2 -45 -4 0 -3 4 -16
10 -30 10 -28 47 -35 68 -14 9 9 12 9 12 1 0 -17 -41 -43 -68 -43 -38 0 -72
43 -72 90 0 74 73 117 120 70z m107 9 c8 -8 16 -7 30 2 26 16 53 5 53 -21 0
-18 -5 -20 -37 -18 l-38 3 -3 -49 c-2 -27 2 -54 7 -59 19 -19 12 -23 -29 -21
-37 1 -72 14 -41 14 10 0 12 20 9 80 -3 75 -2 80 17 80 12 0 26 -5 32 -11z
m-2229 -765 c14 -4 22 -14 22 -28 -1 -19 -2 -19 -11 -3 -11 18 -49 24 -49 7 0
-5 14 -20 30 -32 23 -16 30 -29 28 -48 -5 -43 -87 -39 -88 4 0 5 9 1 20 -9 19
-17 50 -15 50 4 0 5 -13 19 -30 31 -31 22 -38 48 -18 68 14 14 15 14 46 6z
m72 -10 c0 -8 -4 -12 -10 -9 -5 3 -10 10 -10 16 0 5 5 9 10 9 6 0 10 -7 10
-16z m210 -10 c0 -19 4 -25 14 -21 20 8 33 -11 38 -55 3 -30 1 -38 -12 -38
-12 0 -15 9 -12 41 3 32 1 40 -9 37 -8 -3 -15 -21 -17 -41 -2 -20 -9 -37 -15
-37 -8 0 -11 21 -10 67 1 38 2 69 2 71 1 1 6 2 11 2 6 0 10 -12 10 -26z m370
16 c0 -5 -5 -10 -11 -10 -5 0 -7 5 -4 10 3 6 8 10 11 10 2 0 4 -4 4 -10z m110
0 c0 -5 -4 -10 -10 -10 -5 0 -10 5 -10 10 0 6 5 10 10 10 6 0 10 -4 10 -10z
m-260 -8 c0 -4 -16 -6 -36 -4 -33 4 -35 2 -32 -19 3 -25 24 -32 46 -16 8 7 12
4 12 -10 0 -16 -5 -19 -31 -15 -28 4 -30 2 -27 -19 4 -28 40 -38 65 -17 14 11
15 11 11 -2 -3 -10 -21 -16 -54 -18 l-49 -3 3 66 4 65 44 0 c24 0 44 -4 44 -8z
m100 -47 c0 -30 0 -58 0 -62 1 -13 -51 -15 -66 -2 -18 15 -18 53 0 68 11 9 13
4 12 -26 -1 -29 3 -38 17 -41 16 -3 18 2 17 35 -3 62 -1 83 10 83 6 0 10 -25
10 -55z m-369 7 c-15 -5 -14 -55 2 -71 10 -10 8 -12 -8 -9 -15 2 -21 14 -26
45 -6 48 6 69 29 51 9 -8 10 -14 3 -16z m470 -24 c-1 -25 3 -45 11 -50 9 -7 7
-8 -7 -6 -15 2 -21 12 -23 42 -4 41 4 73 15 62 4 -4 6 -25 4 -48z m-629 -13
c2 -35 0 -45 -12 -45 -12 0 -14 10 -12 45 2 25 8 45 12 45 4 0 10 -20 12 -45z
m62 33 c5 -10 7 -10 12 0 3 6 10 12 16 12 6 0 5 -6 -3 -16 -10 -13 -10 -20 5
-45 14 -24 15 -29 3 -29 -8 0 -18 8 -22 18 -6 16 -7 16 -21 -2 -7 -11 -17 -17
-21 -13 -3 4 1 15 10 25 15 16 15 20 1 40 -13 19 -13 22 0 22 8 0 17 -6 20
-12z m518 -33 c2 -31 -1 -45 -9 -45 -9 0 -13 16 -13 45 0 25 4 45 9 45 5 0 11
-20 13 -45z m110 0 c2 -31 -1 -45 -9 -45 -9 0 -13 16 -13 45 0 25 4 45 9 45 5
0 11 -20 13 -45z m50 15 c-2 -17 2 -37 9 -47 12 -14 12 -16 0 -12 -25 9 -40
42 -30 67 12 32 26 27 21 -8z m56 -7 c2 -16 -3 -35 -10 -41 -10 -8 -13 -1 -13
34 0 49 18 55 23 7z m93 24 c1 -7 3 -27 5 -44 2 -22 -1 -33 -9 -33 -7 0 -12
14 -12 37 0 27 -4 38 -15 38 -11 0 -15 -11 -15 -38 0 -23 -5 -37 -12 -37 -9 0
-13 15 -13 43 0 43 1 44 35 45 21 1 35 -3 36 -11z m-1056 -17 c-4 -7 -463 -10
-1346 -10 -886 0 -1339 3 -1339 10 0 7 455 10 1346 10 894 0 1343 -3 1339 -10z
m3018 3 c-347 -2 -919 -2 -1270 0 -351 1 -66 2 632 2 699 0 986 -1 638 -2z
m-553 -320 c0 -24 31 -103 40 -103 5 0 18 25 31 55 12 30 25 55 29 55 3 0 16
-28 30 -62 l24 -61 23 49 c12 27 22 57 22 67 1 9 8 17 17 17 9 0 14 -5 10 -12
-3 -7 -20 -50 -38 -95 -18 -45 -36 -83 -41 -83 -4 0 -11 10 -16 23 -5 12 -16
40 -26 62 l-17 40 -25 -62 c-14 -35 -28 -63 -32 -63 -5 0 -23 37 -40 83 -18
45 -35 88 -38 95 -3 8 4 12 21 12 18 0 26 -5 26 -17z m410 -91 l0 -75 50 5
c34 4 50 2 47 -6 -3 -9 -40 -12 -113 -7 -20 1 -22 7 -22 79 -1 70 1 78 19 78
17 0 19 -8 19 -74z m258 69 c6 0 12 -4 12 -8 0 -5 -22 -6 -50 -5 -48 4 -50 3
-50 -22 0 -24 4 -26 40 -26 22 0 40 -4 40 -10 0 -5 -18 -10 -40 -10 -38 0 -40
-1 -40 -31 l0 -31 55 4 c37 3 54 1 52 -6 -3 -9 -56 -12 -127 -7 -12 1 -15 16
-15 73 0 88 6 92 123 79z m113 -38 l22 -35 18 23 c10 13 19 30 19 37 0 11 30
18 30 7 0 -3 -14 -24 -31 -48 -21 -29 -29 -50 -26 -69 3 -23 0 -28 -18 -28
-18 0 -21 5 -17 29 3 21 -5 40 -27 71 -36 50 -38 60 -11 53 11 -3 30 -21 41
-40z m-481 -42 c0 -70 -2 -79 -17 -75 -15 4 -18 17 -18 80 0 64 2 74 18 74 15
0 17 -10 17 -79z"/>
<path d="M1505 6925 c-21 -20 -25 -34 -25 -83 0 -88 41 -130 104 -106 13 5 16
23 16 95 0 79 -2 89 -22 103 -31 22 -45 20 -73 -9z"/>
<path d="M1811 6824 c-55 -46 -35 -113 25 -86 21 10 24 18 24 62 0 27 -4 50
-9 50 -5 0 -23 -12 -40 -26z"/>
<path d="M2492 6928 c-7 -7 -12 -20 -12 -30 0 -15 9 -18 55 -18 59 0 63 4 39
38 -17 24 -62 30 -82 10z"/>
<path d="M3243 6831 c-69 -42 -42 -123 31 -95 12 5 16 20 16 60 0 30 -3 54 -7
54 -5 0 -22 -9 -40 -19z"/>
<path d="M4028 6939 c-52 -30 -36 -188 22 -219 64 -34 111 41 89 141 -17 73
-64 106 -111 78z"/>
<path d="M5565 6235 c-21 -20 -25 -34 -25 -80 0 -93 44 -145 99 -115 24 12 23
8 21 110 -1 63 -4 78 -21 93 -28 23 -45 22 -74 -8z"/>
<path d="M1133 6249 c-34 -13 -46 -46 -40 -112 8 -93 60 -141 110 -105 24 18
38 84 28 131 -17 72 -52 103 -98 86z"/>
<path d="M1846 6234 c-31 -31 -20 -44 39 -44 47 0 54 2 48 18 -16 44 -57 57
-87 26z"/>
<path d="M4014 6225 c-9 -14 -14 -28 -11 -31 2 -3 30 -4 61 -2 l55 3 -12 25
c-18 37 -70 40 -93 5z"/>
<path d="M4320 6138 c-45 -31 -55 -63 -30 -88 19 -19 40 -18 68 3 13 11 17
107 3 107 -4 0 -23 -10 -41 -22z"/>
<path d="M5043 6145 c-49 -21 -68 -69 -38 -99 12 -12 22 -13 45 -4 28 9 30 13
30 64 0 30 -1 54 -2 54 -2 -1 -17 -7 -35 -15z"/>
<path d="M1119 5422 c-54 -49 -22 -102 45 -76 12 4 16 20 16 55 0 58 -14 63
-61 21z"/>
<path d="M2512 5434 c-64 -45 -39 -115 32 -88 12 4 16 20 16 55 0 53 -10 60
-48 33z"/>
<path d="M3458 5538 c-8 -7 -18 -21 -21 -30 -6 -16 1 -18 53 -18 33 0 60 3 60
8 0 4 -7 18 -16 30 -17 24 -52 29 -76 10z"/>
<path d="M1567 4533 c-4 -3 -7 -57 -7 -120 l0 -113 27 0 c75 0 186 -98 247
-217 19 -39 32 -73 29 -77 -4 -3 -125 -6 -270 -6 -169 0 -263 -4 -263 -10 0
-6 98 -10 275 -10 l274 0 16 -52 c20 -68 45 -228 45 -295 0 -51 -1 -52 -32
-56 l-33 -4 34 -1 34 -2 -6 -92 c-4 -51 -9 -111 -12 -133 l-5 -40 10 35 c5 19
12 79 16 132 l7 97 61 4 61 3 -62 2 -63 2 0 53 c0 66 -25 227 -44 292 -9 28
-16 51 -16 53 0 1 27 2 61 2 41 0 58 -3 53 -11 -4 -6 -1 -9 7 -7 8 2 37 10 64
18 l50 14 -45 12 c-25 6 -53 15 -62 19 -13 5 -18 2 -18 -9 0 -13 -11 -16 -57
-16 l-58 0 -37 78 c-40 85 -90 149 -151 193 l-40 29 1509 0 1509 0 52 -30
c119 -68 218 -258 254 -485 17 -111 15 -331 -4 -441 -41 -231 -148 -419 -269
-474 -42 -19 -79 -20 -1552 -20 l-1509 0 53 38 c66 46 119 120 169 237 l39 90
52 3 c44 3 52 1 47 -12 -4 -9 -5 -16 -4 -16 1 0 26 9 56 19 l54 18 -51 16
c-59 20 -65 20 -57 7 4 -6 -13 -10 -44 -10 l-50 0 4 33 5 32 -10 -32 -11 -33
-284 0 c-183 0 -285 -4 -285 -10 0 -6 100 -10 281 -10 l281 0 -7 -27 c-14 -62
-87 -194 -135 -246 -53 -58 -118 -97 -163 -97 l-27 0 0 -115 0 -115 1573 2
1572 3 54 30 c84 46 164 142 227 270 80 164 134 399 134 583 l0 62 43 1 42 2
-40 6 -40 6 -7 118 c-24 381 -175 705 -374 803 l-59 29 -1556 3 c-855 1 -1558
-1 -1562 -5z m3043 -113 l0 -100 -1520 0 -1520 0 0 100 0 100 1520 0 1520 0 0
-100z m113 75 c26 -6 38 -15 32 -25 -3 -5 0 -12 6 -16 8 -4 9 -3 5 4 -14 23
11 11 52 -24 23 -20 39 -40 36 -46 -4 -6 -2 -8 3 -5 25 16 126 -164 171 -303
42 -129 62 -240 70 -376 l7 -114 -33 0 c-23 0 -31 4 -26 12 4 7 3 8 -5 4 -7
-5 -9 -16 -5 -28 4 -14 2 -18 -5 -14 -6 4 -11 3 -11 -2 0 -5 19 -7 43 -5 l42
5 -6 -108 c-8 -142 -28 -261 -40 -243 -7 10 -8 6 -4 -12 4 -15 -6 -64 -26
-125 -38 -119 -56 -157 -71 -148 -7 4 -8 3 -4 -4 9 -15 -34 -93 -47 -85 -6 3
-7 1 -3 -5 11 -18 -4 -37 -16 -21 -8 11 -9 10 -4 -3 6 -21 -19 -49 -38 -42 -7
3 -21 -7 -30 -21 -17 -25 -16 -25 3 -13 11 6 17 16 15 20 -3 4 0 8 5 8 16 0
14 -11 -6 -32 -9 -10 -24 -18 -33 -18 -10 0 -21 -7 -24 -15 -7 -20 -82 -54
-118 -55 l-28 0 0 94 0 94 43 11 c66 16 138 75 193 158 27 41 50 77 50 81 5
26 17 51 23 48 4 -3 7 3 8 12 0 9 12 61 26 114 14 53 29 141 33 195 10 147 10
292 0 286 -4 -3 -7 15 -5 40 2 25 1 43 -3 40 -5 -2 -8 7 -8 20 0 14 -10 56
-21 93 -12 38 -22 74 -23 79 -7 37 -128 235 -144 235 -4 0 -18 10 -32 23 -14
13 -33 26 -43 30 -11 4 -15 12 -11 18 4 8 3 9 -4 5 -7 -4 -27 -4 -47 0 l-35 6
0 98 0 98 38 -9 c20 -5 45 -11 55 -14z m-113 -1760 l0 -105 -1520 0 -1520 0 0
98 c0 54 3 102 7 105 3 4 687 7 1520 7 l1513 0 0 -105z"/>
<path d="M4655 4479 l-20 -21 28 13 c15 7 27 16 27 21 0 13 -14 8 -35 -13z"/>
<path d="M4719 4488 c-7 -24 -5 -38 6 -38 8 0 11 7 8 20 -5 17 -11 26 -14 18z"/>
<path d="M4808 4417 c9 -10 10 -17 2 -22 -12 -7 -4 -25 12 -25 5 0 8 6 5 14
-3 8 -2 16 4 18 5 2 -1 9 -13 17 -21 13 -22 13 -10 -2z"/>
<path d="M4652 4351 c-11 -6 -10 -10 4 -15 9 -3 19 -4 22 -1 3 3 0 5 -7 5 -7
0 -9 5 -6 10 7 12 4 12 -13 1z"/>
<path d="M4690 4346 c0 -2 7 -7 16 -10 8 -3 12 -2 9 4 -6 10 -25 14 -25 6z"/>
<path d="M4896 4305 c-9 -26 -7 -32 5 -12 6 10 9 21 6 23 -2 3 -7 -2 -11 -11z"/>
<path d="M4803 4284 c4 -4 2 -13 -4 -21 -15 -17 -1 -17 16 1 12 12 12 15 -2
21 -10 3 -14 3 -10 -1z"/>
<path d="M4864 4261 c0 -25 22 -35 30 -14 4 9 4 18 1 21 -3 3 -5 -1 -5 -8 0
-10 -4 -8 -13 4 -12 16 -13 16 -13 -3z"/>
<path d="M4936 4247 c3 -10 9 -15 12 -12 3 3 0 11 -7 18 -10 9 -11 8 -5 -6z"/>
<path d="M4910 4229 c0 -5 5 -7 10 -4 6 3 10 8 10 11 0 2 -4 4 -10 4 -5 0 -10
-5 -10 -11z"/>
<path d="M4931 4204 c0 -11 3 -14 6 -6 3 7 2 16 -1 19 -3 4 -6 -2 -5 -13z"/>
<path d="M4855 4200 c-3 -6 1 -7 9 -4 18 7 21 14 7 14 -6 0 -13 -4 -16 -10z"/>
<path d="M4969 4180 c-3 -29 -2 -48 4 -79 6 -28 9 -32 22 -21 8 7 15 17 15 22
0 6 -7 5 -15 -2 -13 -10 -15 -9 -15 9 0 14 4 20 11 15 7 -4 6 3 -2 17 -7 13
-12 30 -11 37 2 6 0 12 -3 12 -3 0 -5 -4 -6 -10z"/>
<path d="M4944 4110 c0 -13 4 -16 10 -10 7 7 7 13 0 20 -6 6 -10 3 -10 -10z"/>
<path d="M4918 4109 c-3 -9 3 -30 14 -47 23 -36 35 -43 17 -10 -6 12 -15 33
-18 47 -6 19 -9 21 -13 10z"/>
<path d="M5002 4064 c-7 -8 -8 -14 -3 -14 10 0 25 19 20 25 -2 1 -10 -3 -17
-11z"/>
<path d="M4976 3955 c4 -8 8 -15 10 -15 2 0 4 7 4 15 0 8 -4 15 -10 15 -5 0
-7 -7 -4 -15z"/>
<path d="M5001 3943 c2 -24 2 -25 6 -5 2 12 9 20 14 17 5 -4 9 -1 9 4 0 6 -7
11 -15 11 -10 0 -15 -9 -14 -27z"/>
<path d="M5006 3858 c25 -65 38 -75 52 -41 11 24 11 26 -1 11 -20 -25 -22 -23
-37 23 -8 22 -17 42 -22 45 -5 3 -1 -14 8 -38z"/>
<path d="M5061 3884 c0 -11 3 -14 6 -6 3 7 2 16 -1 19 -3 4 -6 -2 -5 -13z"/>
<path d="M5011 3774 c0 -11 3 -14 6 -6 3 7 2 16 -1 19 -3 4 -6 -2 -5 -13z"/>
<path d="M5072 3730 c0 -14 2 -19 5 -12 2 6 2 18 0 25 -3 6 -5 1 -5 -13z"/>
<path d="M5022 3660 c0 -14 2 -19 5 -12 2 6 2 18 0 25 -3 6 -5 1 -5 -13z"/>
<path d="M5057 3656 c-5 -15 -6 -31 -2 -34 3 -3 5 2 5 11 0 10 5 14 15 11 10
-4 15 0 15 12 0 15 -2 16 -9 5 -7 -11 -10 -10 -13 5 -3 15 -6 13 -11 -10z"/>
<path d="M5070 3540 c0 -5 5 -10 10 -10 6 0 10 5 10 10 0 6 -4 10 -10 10 -5 0
-10 -4 -10 -10z"/>
<path d="M5065 3489 c-4 -6 -4 -13 -1 -16 3 -4 6 -1 6 6 0 7 5 9 10 6 6 -3 10
-1 10 4 0 14 -17 14 -25 0z"/>
<path d="M5041 3464 c0 -11 3 -14 6 -6 3 7 2 16 -1 19 -3 4 -6 -2 -5 -13z"/>
<path d="M5021 3454 c0 -11 3 -14 6 -6 3 7 2 16 -1 19 -3 4 -6 -2 -5 -13z"/>
<path d="M5081 3450 c-1 -14 -4 -36 -6 -50 l-6 -25 11 25 c6 13 9 36 7 50 l-4
25 -2 -25z"/>
<path d="M5052 3400 c0 -14 2 -19 5 -12 2 6 2 18 0 25 -3 6 -5 1 -5 -13z"/>
<path d="M5061 3334 c0 -11 3 -14 6 -6 3 7 2 16 -1 19 -3 4 -6 -2 -5 -13z"/>
<path d="M5000 3304 c0 -14 4 -23 9 -20 5 3 7 15 4 26 -7 28 -13 25 -13 -6z"/>
<path d="M5030 3321 c0 -5 5 -13 10 -16 6 -3 10 -2 10 4 0 5 -4 13 -10 16 -5
3 -10 2 -10 -4z"/>
<path d="M5021 3247 c0 -16 -5 -26 -10 -22 -5 3 -12 -3 -14 -12 -2 -10 -3 -3
-1 15 1 18 -1 30 -7 27 -5 -4 -9 -17 -9 -31 0 -14 -5 -34 -10 -45 -7 -13 -7
-19 0 -19 5 0 10 8 10 18 0 12 3 13 8 5 11 -17 45 49 39 73 -3 13 -5 10 -6 -9z"/>
<path d="M4963 3052 c-17 -29 -19 -39 -9 -39 8 0 12 6 9 12 -2 7 3 20 12 29 9
9 15 21 13 27 -2 6 -13 -7 -25 -29z"/>
<path d="M5011 3078 c-1 -9 -8 -24 -17 -32 -8 -9 -11 -16 -5 -16 14 0 34 38
27 53 -2 7 -5 5 -5 -5z"/>
<path d="M4936 3055 c-9 -26 -7 -32 5 -12 6 10 9 21 6 23 -2 3 -7 -2 -11 -11z"/>
<path d="M4890 3005 c0 -8 2 -15 4 -15 2 0 6 7 10 15 3 8 1 15 -4 15 -6 0 -10
-7 -10 -15z"/>
<path d="M4847 2948 c-15 -17 -25 -34 -22 -36 2 -3 13 6 24 19 24 29 27 16 6
-25 -9 -16 -14 -30 -13 -30 2 -1 16 11 32 27 16 15 22 25 14 22 -11 -5 -14 1
-13 25 1 16 1 30 0 30 -1 0 -14 -14 -28 -32z"/>
<path d="M4970 2965 c-7 -9 -11 -17 -9 -20 3 -2 10 5 17 15 14 24 10 26 -8 5z"/>
<path d="M4930 2911 c0 -11 -4 -23 -10 -26 -5 -3 -10 -11 -10 -17 0 -6 9 -1
19 11 11 13 17 29 14 37 -7 20 -13 17 -13 -5z"/>
<path d="M4907 2913 c-4 -3 -7 -11 -7 -17 0 -6 5 -5 12 2 6 6 9 14 7 17 -3 3
-9 2 -12 -2z"/>
<path d="M4790 2896 c0 -2 7 -6 15 -10 8 -3 15 -1 15 4 0 6 -7 10 -15 10 -8 0
-15 -2 -15 -4z"/>
<path d="M4771 2871 c-8 -5 -9 -11 -3 -15 5 -3 12 1 16 9 6 17 6 18 -13 6z"/>
<path d="M4874 2866 c4 -11 1 -23 -6 -28 -10 -6 -9 -8 3 -8 16 0 34 38 24 49
-3 2 -5 -2 -5 -10 0 -12 -2 -11 -11 1 -9 12 -10 12 -5 -4z"/>
<path d="M4665 2820 c-7 -12 2 -12 30 0 19 8 19 9 -2 9 -12 1 -25 -3 -28 -9z"/>
<path d="M4730 2679 c0 -5 5 -7 10 -4 6 3 10 8 10 11 0 2 -4 4 -10 4 -5 0 -10
-5 -10 -11z"/>
<path d="M4675 2660 c-3 -5 -1 -10 4 -10 6 0 11 5 11 10 0 6 -2 10 -4 10 -3 0
-8 -4 -11 -10z"/>
<path d="M1544 4193 c4 -11 -54 -13 -334 -13 -220 0 -340 -4 -340 -10 0 -6
120 -10 341 -10 299 0 340 -2 335 -15 -3 -8 -4 -15 -3 -15 1 0 28 8 60 18 l59
19 -62 20 c-46 15 -60 17 -56 6z"/>
<path d="M3817 4058 c-3 -7 -12 -30 -21 -50 -9 -22 -12 -38 -6 -38 5 0 10 4
10 9 0 5 5 22 11 38 l11 28 12 -30 c7 -16 11 -33 9 -37 -2 -5 3 -8 11 -8 20 0
20 -2 -4 54 -23 50 -25 52 -33 34z"/>
<path d="M3890 4021 c0 -11 -3 -28 -6 -38 -5 -16 -4 -16 10 1 18 22 21 56 6
56 -5 0 -10 -9 -10 -19z"/>
<path d="M3920 4030 c0 -5 5 -10 10 -10 6 0 10 5 10 10 0 6 -4 10 -10 10 -5 0
-10 -4 -10 -10z"/>
<path d="M3645 3989 c-9 -17 -14 -33 -12 -35 2 -3 10 9 17 25 10 24 19 31 48
34 l37 4 -37 1 c-33 2 -40 -2 -53 -29z"/>
<path d="M3598 3909 c-4 -46 0 -47 29 -10 l22 28 -23 11 c-23 10 -24 9 -28
-29z"/>
<path d="M3229 3907 c-66 -44 -115 -147 -126 -264 l-6 -62 -81 -4 -81 -3 83
-2 82 -2 0 -35 c0 -55 20 -136 49 -197 31 -65 27 -68 -44 -43 -22 8 -41 15
-42 15 -1 0 0 -7 3 -15 5 -13 -8 -15 -80 -15 -49 0 -86 -4 -86 -10 0 -5 35 -9
83 -9 61 1 81 -2 79 -11 -2 -9 4 -10 20 -5 95 29 105 29 138 2 39 -33 76 -40
189 -36 73 3 95 8 120 26 24 19 35 21 56 13 33 -13 35 -13 35 3 0 9 21 12 80
10 44 -1 82 2 85 8 4 5 -28 9 -79 9 -70 0 -86 3 -86 15 0 8 -4 15 -9 15 -5 0
3 28 18 63 24 57 26 73 26 197 -1 149 -17 217 -71 287 -48 63 -75 73 -205 73
-104 0 -119 -2 -150 -23z m131 -28 c-130 -134 -128 -481 3 -616 l31 -33 -65 0
c-81 0 -118 21 -158 92 -104 182 -65 495 73 579 22 13 50 19 93 19 l63 0 -40
-41z m169 10 c37 -22 93 -116 88 -146 -2 -12 -1 -20 4 -18 12 8 22 -80 15
-125 -3 -21 -3 -40 2 -43 4 -2 1 -2 -5 -1 -7 2 -13 -1 -13 -6 0 -5 7 -10 16
-12 13 -2 11 -8 -10 -33 -28 -32 -32 -50 -15 -61 8 -4 9 1 4 16 -5 14 -3 20 3
16 6 -3 13 2 16 11 3 10 2 -2 -1 -27 -6 -50 -35 -125 -60 -152 -9 -10 -28 -18
-42 -18 -29 0 -45 -9 -49 -28 -1 -9 6 -11 25 -7 l28 6 -28 -16 c-58 -33 -140
14 -179 102 -26 58 -48 165 -48 233 0 107 51 251 106 299 40 35 95 39 143 10z"/>
<path d="M3416 3878 c-3 -13 -2 -26 2 -30 4 -4 8 6 9 23 3 35 -2 38 -11 7z"/>
<path d="M3381 3861 c-15 -10 -7 -31 12 -30 8 0 8 2 -1 6 -10 4 -10 8 -1 19
13 16 10 18 -10 5z"/>
<path d="M3532 3849 c-7 -11 -8 -19 -2 -19 5 0 10 5 10 11 0 5 5 7 10 4 6 -3
10 -2 10 4 0 19 -16 19 -28 0z"/>
<path d="M3424 3813 c11 -13 14 -23 8 -23 -7 0 -12 -5 -12 -12 0 -9 3 -9 11
-1 6 6 17 9 24 7 7 -3 15 2 19 12 5 12 2 15 -10 10 -10 -4 -26 1 -38 11 l-21
18 19 -22z"/>
<path d="M3544 3818 c-4 -7 -4 -10 1 -6 4 4 15 2 23 -5 12 -10 14 -9 11 2 -7
20 -26 25 -35 9z"/>
<path d="M3379 3815 c-1 -3 -3 -9 -4 -15 -1 -5 -3 -13 -4 -17 -1 -5 -6 -1 -12
7 -9 12 -10 12 -5 -4 4 -10 1 -25 -5 -32 -16 -20 -2 -36 21 -24 29 15 30 13 8
-31 -17 -36 -43 -197 -29 -183 3 3 10 -12 16 -33 8 -27 8 -40 1 -45 -7 -5 -7
-8 2 -8 7 0 23 -12 35 -26 15 -17 36 -27 65 -31 31 -4 40 -9 30 -15 -10 -8
-10 -9 2 -5 8 2 15 12 15 23 0 29 14 44 33 38 12 -4 13 -3 4 3 -10 8 -10 16 1
41 7 18 16 29 20 26 3 -4 4 6 1 21 -3 17 0 31 8 36 10 7 10 9 -2 10 -8 0 -4 4
9 8 34 9 39 31 7 31 -23 0 -26 4 -28 38 -1 20 0 54 1 76 2 23 -1 36 -7 32 -6
-3 -8 -16 -6 -29 3 -15 0 -12 -10 9 -8 17 -23 35 -33 38 -15 6 -15 9 -3 17 12
8 11 9 -5 5 -11 -3 -44 -7 -72 -8 -28 -2 -49 -6 -47 -9 2 -4 -3 -9 -11 -13
-19 -7 -19 4 0 30 8 12 11 25 7 29 -4 5 1 5 11 2 11 -4 16 -3 12 3 -6 10 -24
14 -26 5z m41 -59 c0 -3 -4 -8 -10 -11 -5 -3 -10 -1 -10 4 0 6 5 11 10 11 6 0
10 -2 10 -4z m81 -22 c18 -16 17 -18 -11 -54 -17 -22 -26 -40 -19 -42 11 -4
-8 -58 -20 -58 -4 0 -15 32 -25 72 -18 69 -18 72 0 85 24 18 54 16 75 -3z m46
-102 l6 -52 -42 0 c-22 0 -41 3 -41 6 0 16 23 44 35 44 11 0 15 11 15 37 0 54
19 29 27 -35z m-131 -13 c1 -28 4 -52 7 -55 7 -7 -12 -97 -22 -107 -24 -24
-40 138 -19 201 14 47 32 26 34 -39z m136 -89 c-5 -54 -38 -119 -66 -131 -35
-16 -81 12 -72 44 4 12 11 45 17 73 l11 51 57 -1 56 -1 -3 -35z"/>
<path d="M3326 3765 c-9 -26 -7 -32 5 -12 6 10 9 21 6 23 -2 3 -7 -2 -11 -11z"/>
<path d="M3585 3771 c-3 -5 -1 -12 5 -16 5 -3 10 1 10 9 0 18 -6 21 -15 7z"/>
<path d="M3320 3718 c0 -9 6 -18 13 -21 9 -3 9 -9 1 -23 -6 -11 -8 -30 -4 -44
5 -21 7 -18 12 19 5 31 2 51 -8 65 -11 17 -14 17 -14 4z"/>
<path d="M3613 3677 c1 -24 4 -32 9 -23 4 8 4 25 -1 38 -8 20 -9 18 -8 -15z"/>
<path d="M3585 3689 c-4 -6 -5 -12 -2 -15 2 -3 7 2 10 11 7 17 1 20 -8 4z"/>
<path d="M3302 3675 c0 -11 3 -29 8 -40 11 -25 11 1 0 35 -6 20 -8 21 -8 5z"/>
<path d="M3595 3620 c3 -5 8 -10 11 -10 2 0 4 5 4 10 0 6 -5 10 -11 10 -5 0
-7 -4 -4 -10z"/>
<path d="M3292 3570 c0 -19 2 -27 5 -17 2 9 2 25 0 35 -3 9 -5 1 -5 -18z"/>
<path d="M3321 3514 c0 -11 3 -14 6 -6 3 7 2 16 -1 19 -3 4 -6 -2 -5 -13z"/>
<path d="M3330 3476 c0 -8 4 -17 9 -20 5 -4 7 3 4 14 -6 23 -13 26 -13 6z"/>
<path d="M3566 3444 c-5 -14 -4 -15 9 -4 17 14 19 20 6 20 -5 0 -12 -7 -15
-16z"/>
<path d="M3310 3440 c0 -5 5 -10 10 -10 6 0 10 5 10 10 0 6 -4 10 -10 10 -5 0
-10 -4 -10 -10z"/>
<path d="M3597 3431 c6 -7 9 -20 6 -27 -3 -8 -3 -14 0 -14 14 0 14 30 -1 41
-14 11 -15 11 -5 0z"/>
<path d="M3336 3405 c-3 -9 -6 -22 -5 -28 0 -7 5 -1 10 12 5 13 8 26 5 28 -2
2 -6 -3 -10 -12z"/>
<path d="M3390 3385 c6 -8 21 -17 32 -21 17 -5 18 -8 7 -16 -12 -8 -12 -9 0
-6 20 6 26 28 8 28 -8 0 -20 7 -27 15 -7 8 -17 15 -22 15 -6 0 -5 -6 2 -15z"/>
<path d="M3350 3379 c0 -5 4 -8 9 -5 12 8 33 -19 23 -29 -4 -5 -1 -5 6 -1 11
6 10 12 -4 27 -19 21 -34 25 -34 8z"/>
<path d="M3451 3339 c-13 -10 -18 -19 -11 -19 12 0 45 29 39 35 -2 2 -15 -5
-28 -16z"/>
<path d="M3400 3330 c0 -5 5 -10 11 -10 5 0 7 5 4 10 -3 6 -8 10 -11 10 -2 0
-4 -4 -4 -10z"/>
<path d="M3545 3320 c6 -10 4 -12 -8 -7 -9 3 -18 3 -21 -1 -3 -4 4 -8 14 -9
23 -2 35 13 19 23 -8 5 -9 3 -4 -6z"/>
<path d="M3355 3310 c3 -5 12 -7 20 -3 11 4 13 1 9 -11 -4 -10 1 -18 12 -23
11 -3 23 -11 27 -17 5 -7 7 -3 5 9 -2 11 -8 20 -15 20 -6 0 -15 3 -19 8 -4 4
-1 7 7 7 11 0 11 2 -1 10 -19 13 -53 13 -45 0z"/>
<path d="M3426 3298 c3 -4 11 -5 19 -1 21 7 19 12 -4 10 -11 0 -18 -5 -15 -9z"/>
<path d="M3478 3293 c7 -3 16 -2 19 1 4 3 -2 6 -13 5 -11 0 -14 -3 -6 -6z"/>
<path d="M3445 3280 c-3 -5 1 -10 10 -10 9 0 13 5 10 10 -3 6 -8 10 -10 10 -2
0 -7 -4 -10 -10z"/>
<path d="M2733 3796 c3 -103 17 -109 17 -8 0 45 -4 82 -10 82 -5 0 -8 -32 -7
-74z"/>
<path d="M2608 3805 c-13 -46 -13 -55 -2 -55 8 0 14 10 14 24 0 18 7 25 31 30
24 5 30 10 27 28 -2 12 -10 24 -18 26 -13 5 -13 3 -2 -11 16 -18 8 -37 -15
-37 -11 0 -14 6 -9 25 13 51 -11 23 -26 -30z"/>
<path d="M1456 3825 c5 -13 -36 -15 -337 -15 -235 0 -340 -3 -333 -10 7 -7
125 -10 342 -8 272 3 331 1 327 -10 -3 -8 1 -12 8 -10 6 2 34 10 61 18 l50 13
-55 18 c-66 23 -70 23 -63 4z"/>
<path d="M3020 3827 c0 -13 -14 -16 -82 -15 -46 0 -81 -2 -78 -7 3 -4 40 -7
83 -7 61 0 77 -3 77 -15 0 -15 4 -14 79 11 l33 12 -42 13 c-23 7 -48 15 -56
18 -8 3 -14 -1 -14 -10z"/>
<path d="M2807 3740 c8 -30 21 -34 15 -5 -2 14 -8 25 -12 25 -5 0 -6 -9 -3
-20z"/>
<path d="M5474 3595 c4 -12 -18 -15 -127 -18 l-132 -3 132 -2 c119 -2 132 -4
126 -19 -5 -12 -3 -14 7 -8 7 4 30 13 52 19 l39 12 -51 16 c-43 14 -51 14 -46
3z"/>
<path d="M1398 3573 c29 -2 74 -2 100 0 26 2 2 3 -53 3 -55 0 -76 -1 -47 -3z"/>
<path d="M1658 3573 c29 -2 74 -2 100 0 26 2 2 3 -53 3 -55 0 -76 -1 -47 -3z"/>
<path d="M2188 3573 c28 -2 76 -2 105 0 28 2 5 3 -53 3 -58 0 -81 -1 -52 -3z"/>
<path d="M2458 3573 c29 -2 74 -2 100 0 26 2 2 3 -53 3 -55 0 -76 -1 -47 -3z"/>
<path d="M2728 3573 c29 -2 74 -2 100 0 26 2 2 3 -53 3 -55 0 -76 -1 -47 -3z"/>
<path d="M3728 3573 c28 -2 76 -2 105 0 28 2 5 3 -53 3 -58 0 -81 -1 -52 -3z"/>
<path d="M4008 3573 c29 -2 74 -2 100 0 26 2 2 3 -53 3 -55 0 -76 -1 -47 -3z"/>
<path d="M4278 3573 c29 -2 74 -2 100 0 26 2 2 3 -53 3 -55 0 -76 -1 -47 -3z"/>
<path d="M4548 3573 c28 -2 76 -2 105 0 28 2 5 3 -53 3 -58 0 -81 -1 -52 -3z"/>
<path d="M4828 3573 c29 -2 74 -2 100 0 26 2 2 3 -53 3 -55 0 -76 -1 -47 -3z"/>
<path d="M2980 3524 c0 -11 -18 -14 -86 -14 -54 0 -83 -4 -79 -10 3 -5 42 -10
85 -10 43 0 80 -4 82 -10 2 -5 25 -3 58 7 30 9 48 18 40 20 -8 3 -34 11 -57
18 -37 12 -43 12 -43 -1z"/>
<path d="M3730 3520 l-54 -17 54 -16 c33 -10 56 -12 58 -7 2 6 42 10 88 10 49
0 84 4 84 10 0 6 -35 10 -86 10 -72 0 -85 2 -80 15 6 18 6 18 -64 -5z"/>
<path d="M5524 3481 c3 -18 10 -39 16 -45 9 -8 10 -3 4 19 -11 47 -25 66 -20
26z"/>
<path d="M1456 3466 c6 -14 -28 -16 -335 -16 -221 0 -341 -4 -341 -10 0 -6
120 -10 341 -10 299 0 340 -2 335 -15 -5 -13 -1 -13 31 0 19 8 44 15 54 15 33
0 20 15 -23 28 -24 7 -49 15 -56 18 -8 4 -10 0 -6 -10z"/>
<path d="M3973 3250 c0 -47 2 -66 4 -42 2 23 2 61 0 85 -2 23 -4 4 -4 -43z"/>
<path d="M3860 3308 c0 -2 -7 -24 -15 -50 -8 -27 -10 -48 -6 -48 5 0 11 8 14
18 3 9 10 32 15 50 7 19 7 32 1 32 -5 0 -9 -1 -9 -2z"/>
<path d="M3895 3285 c0 -14 5 -23 10 -22 6 2 10 12 10 22 0 10 -4 20 -10 22
-5 2 -10 -8 -10 -22z"/>
<path d="M4176 3225 c-3 -9 -2 -14 3 -11 5 3 12 -5 15 -19 4 -14 11 -25 16
-25 6 0 5 11 -2 28 -17 39 -24 46 -32 27z"/>
<path d="M4111 3218 c-1 -9 -9 -19 -18 -21 -17 -4 -17 -5 0 -6 9 0 17 -6 17
-11 0 -6 6 -5 14 2 8 7 10 15 6 18 -4 3 -10 12 -13 20 -4 12 -6 12 -6 -2z"/>
<path d="M4043 3199 c2 -13 9 -25 15 -27 6 -2 8 5 5 18 -8 29 -24 36 -20 9z"/>
<path d="M4240 3201 c0 -11 5 -23 10 -26 6 -3 10 3 10 14 0 11 -4 23 -10 26
-5 3 -10 -3 -10 -14z"/>
<path d="M3208 3073 c4 -19 9 -22 31 -17 42 10 43 19 3 30 -37 10 -38 9 -34
-13z"/>
<path d="M3510 3085 l-35 -13 28 -11 c41 -16 47 -14 47 14 0 14 -1 24 -2 24
-2 -1 -19 -7 -38 -14z"/>
<path d="M1544 3005 c5 -13 -41 -15 -334 -15 -220 0 -340 -4 -340 -10 0 -6
120 -10 341 -10 299 0 340 -2 335 -15 -3 -8 -4 -15 -3 -15 1 1 27 9 57 20 43
15 51 20 35 25 -11 4 -37 13 -58 20 -34 12 -38 12 -33 0z"/>
<path d="M3337 2993 c-4 -6 1 -26 12 -44 11 -18 18 -36 16 -40 -3 -4 4 -9 15
-12 11 -3 23 -1 26 4 3 5 -1 9 -9 9 -7 0 -22 21 -33 48 -12 29 -23 42 -27 35z"/>
<path d="M3420 2952 c0 -26 10 -52 20 -52 5 0 5 14 0 31 -12 40 -20 49 -20 21z"/>
<path d="M3316 2945 c-9 -26 -7 -32 5 -12 6 10 9 21 6 23 -2 3 -7 -2 -11 -11z"/>
<path d="M2709 1648 c-7 -88 -7 -89 20 -86 22 3 26 8 29 42 2 24 -2 42 -10 47
-19 13 -38 11 -39 -3z"/>
<path d="M1656 1564 c-7 -19 1 -34 19 -34 8 0 16 4 19 9 9 14 -4 41 -19 41 -7
0 -16 -7 -19 -16z"/>
<path d="M2934 1567 c-3 -8 -4 -39 -2 -68 3 -46 6 -54 23 -54 18 0 20 7 20 65
0 54 -3 65 -18 68 -9 2 -20 -3 -23 -11z"/>
<path d="M3431 1569 c-11 -29 -6 -39 20 -39 23 0 26 32 4 50 -12 10 -16 8 -24
-11z"/>
<path d="M4422 1578 c-7 -7 -12 -37 -12 -68 0 -61 14 -87 37 -69 8 7 13 33 13
69 0 61 -16 90 -38 68z"/>
<path d="M4862 1578 c-21 -21 -15 -48 13 -48 27 0 32 16 12 43 -10 14 -15 15
-25 5z"/>
</g>
</svg>
