<?xml version="1.0" standalone="no"?>
<!DOCTYPE svg PUBLIC "-//W3C//DTD SVG 20010904//EN"
 "http://www.w3.org/TR/2001/REC-SVG-20010904/DTD/svg10.dtd">
<svg version="1.0" xmlns="http://www.w3.org/2000/svg"
 width="150pt" height="194pt" viewBox="0 0 768.000000 994.000000"
 preserveAspectRatio="xMidYMid meet">

<g transform="translate(0.000000,994.000000) scale(0.100000,-0.100000)"
fill="#000000" stroke="none">
<path d="M0 4970 l0 -4970 3840 0 3840 0 0 4970 0 4970 -3840 0 -3840 0 0
-4970z m5533 4330 c-3 -12 -8 -19 -11 -16 -5 6 5 36 12 36 2 0 2 -9 -1 -20z
m61 1 c9 -7 16 -10 16 -6 0 4 6 2 13 -4 8 -6 16 -9 19 -6 2 3 5 -2 5 -10 0
-12 -3 -12 -16 -2 -14 10 -14 10 -3 -5 7 -9 22 -15 34 -13 17 4 18 2 6 -12
-10 -13 -10 -15 0 -9 9 6 11 1 8 -18 -3 -15 -1 -24 4 -21 10 6 46 -54 42 -68
-1 -5 2 -6 8 -2 5 3 11 0 12 -7 0 -7 2 -18 2 -24 2 -17 27 -44 40 -44 6 0 5 4
-3 9 -9 6 -10 11 -2 15 6 4 11 2 11 -4 0 -6 4 -8 10 -5 6 4 7 -1 3 -11 -5 -13
-3 -15 7 -9 9 5 11 4 6 -4 -4 -6 -13 -8 -19 -4 -7 4 -6 -1 2 -11 9 -11 17 -13
21 -6 4 6 11 0 18 -15 7 -15 9 -32 5 -38 -10 -16 -13 -37 -5 -36 4 1 14 1 22
0 13 -1 13 -2 0 -11 -13 -8 -12 -10 3 -10 17 0 17 -1 3 -16 -17 -17 -20 -25
-8 -23 4 1 14 1 22 0 12 -1 11 -4 -3 -12 -10 -6 -14 -15 -10 -22 4 -7 9 -21
10 -31 2 -11 6 -22 9 -25 8 -9 0 42 -10 59 -7 12 -6 13 4 3 8 -7 15 -19 16
-27 1 -7 5 -28 9 -45 4 -18 3 -31 -3 -31 -12 0 -10 -26 3 -37 4 -4 5 -3 1 4
-3 6 -2 14 3 18 11 6 7 -27 -5 -48 -5 -7 0 -6 11 3 17 14 18 14 7 -7 -9 -16
-9 -24 0 -29 7 -5 8 -3 3 7 -5 8 -4 11 0 6 5 -4 10 -20 12 -35 2 -23 1 -24 -7
-7 -8 18 -9 18 -9 2 -1 -10 5 -20 12 -23 7 -2 13 -14 14 -25 2 -21 1 -21 -13
-3 -9 11 -13 13 -9 7 3 -7 8 -23 10 -35 3 -12 11 -26 19 -30 10 -6 13 -20 10
-46 -3 -27 -1 -33 6 -22 5 8 10 11 10 7 0 -4 -8 -20 -17 -35 -14 -21 -14 -24
-2 -15 12 10 15 8 15 -7 0 -10 -5 -16 -11 -12 -6 3 -5 0 1 -9 16 -21 23 -69
10 -69 -6 0 -4 -5 4 -10 11 -7 11 -10 2 -10 -8 0 -10 -5 -6 -12 7 -11 6 -163
-2 -283 -1 -27 -5 -175 -8 -327 -5 -231 -4 -278 8 -278 7 0 25 -9 40 -21 50
-39 24 -109 -40 -109 -47 0 -34 -27 17 -35 l39 -7 0 -188 0 -189 -47 -3 c-37
-2 -47 -7 -44 -18 5 -23 -3 -471 -9 -477 -5 -6 -6 -29 -1 -38 9 -17 10 -35 0
-40 -4 -3 -4 -17 1 -31 6 -14 6 -23 1 -20 -10 7 -9 -20 2 -30 4 -4 1 -14 -6
-22 -9 -12 -9 -16 1 -19 7 -3 9 -10 5 -16 -10 -15 -10 -137 0 -137 4 0 7 -5 7
-11 0 -5 -6 -7 -12 -4 -7 4 -4 -1 6 -9 11 -9 14 -16 8 -16 -7 0 -12 -7 -12
-16 0 -9 5 -12 13 -8 6 4 4 -2 -6 -13 -13 -15 -15 -23 -7 -28 9 -6 9 -10 -1
-16 -10 -6 -10 -9 -2 -9 7 0 10 -7 6 -17 -5 -12 -3 -14 7 -8 8 5 11 4 6 -3 -3
-6 -1 -14 5 -18 9 -5 7 -11 -6 -21 -14 -9 -15 -13 -4 -13 12 0 12 -2 -1 -10
-12 -8 -12 -10 5 -10 17 0 17 -2 5 -10 -10 -6 -11 -10 -2 -10 6 0 12 -7 12
-16 0 -9 5 -12 12 -8 7 4 8 3 4 -5 -4 -6 -11 -9 -15 -7 -4 3 -8 -2 -8 -10 0
-9 6 -13 16 -9 9 4 5 -4 -8 -16 -22 -21 -23 -23 -6 -29 17 -6 16 -7 -6 -13
-21 -6 -22 -9 -8 -20 8 -6 18 -21 22 -32 l7 -20 -16 20 c-15 18 -16 18 -10 2
3 -10 6 -23 6 -28 0 -6 6 -7 13 -4 6 4 3 -1 -7 -9 -20 -16 -20 -16 0 -17 18 0
18 -1 -1 -9 l-20 -9 20 -1 c11 -1 14 -4 7 -7 -6 -2 -10 -9 -6 -14 9 -15 13
-50 6 -45 -10 6 -9 -36 1 -51 5 -8 4 -13 -2 -13 -6 0 -11 -5 -11 -11 0 -5 4
-8 8 -5 5 3 9 -1 9 -8 0 -7 -7 -13 -16 -13 -35 0 -41 -4 -41 -26 0 -23 24 -73
68 -139 22 -35 107 -113 170 -157 32 -22 58 -58 49 -67 -3 -3 -44 29 -91 71
-48 41 -92 72 -98 69 -6 -4 -8 -3 -4 4 3 6 2 13 -4 17 -5 3 -10 -1 -10 -10 0
-12 -4 -14 -20 -5 -56 30 -52 -125 6 -210 14 -21 22 -45 19 -58 -2 -12 1 -22
6 -22 6 0 8 -4 5 -9 -11 -18 6 -41 30 -41 13 0 24 -5 24 -11 0 -6 -6 -9 -13
-6 -8 3 -13 -3 -13 -14 0 -11 4 -19 8 -19 4 0 8 5 8 11 0 5 5 7 10 4 6 -3 10
0 11 7 0 7 4 3 9 -9 9 -22 20 -27 48 -24 6 1 12 -3 12 -9 0 -6 -8 -10 -17 -9
-31 3 -36 -1 -23 -16 11 -13 15 -13 21 -3 7 10 9 10 9 -2 0 -13 1 -13 10 0 8
12 10 10 11 -10 1 -14 0 -36 -1 -49 -1 -13 3 -21 8 -17 14 8 45 -30 36 -45 -4
-7 -3 -10 4 -5 6 3 15 -1 20 -11 9 -14 13 -15 26 -4 9 7 16 12 17 10 0 -2 2
-17 4 -33 2 -16 9 -34 14 -39 6 -6 11 -18 11 -27 0 -12 -2 -12 -9 -1 -6 10
-12 5 -22 -18 -8 -17 -18 -31 -24 -31 -5 0 -3 -5 5 -10 10 -6 11 -10 3 -10 -7
0 -13 -5 -13 -11 0 -5 5 -7 12 -3 7 5 8 3 4 -5 -5 -7 0 -22 10 -34 11 -12 15
-19 10 -15 -13 11 -37 -12 -29 -26 4 -6 -2 -4 -12 4 -17 14 -18 14 -6 -7 15
-29 19 -29 31 0 6 14 9 16 9 6 1 -9 -8 -24 -19 -34 -11 -10 -17 -23 -14 -29 3
-6 -1 -3 -9 6 -8 10 -18 14 -22 10 -5 -4 -5 -2 -1 5 4 7 14 10 24 7 13 -5 14
-4 3 4 -7 5 -18 16 -23 23 -8 11 -9 10 -4 -3 3 -10 1 -18 -4 -18 -6 0 -10 -6
-10 -14 0 -8 -4 -17 -8 -20 -12 -7 -9 37 3 47 6 5 4 7 -5 4 -8 -2 -14 -11 -14
-19 1 -8 -4 -15 -11 -15 -8 0 -11 7 -8 16 3 9 -3 5 -13 -9 -10 -14 -21 -27
-26 -30 -10 -8 -5 -63 7 -72 6 -4 2 -8 -8 -8 -10 0 -15 -4 -12 -10 3 -5 2 -10
-2 -10 -5 0 -14 -9 -21 -21 -8 -12 -9 -18 -4 -15 5 3 12 -3 15 -14 3 -11 1
-23 -4 -26 -6 -3 -5 -12 3 -22 7 -9 8 -13 3 -10 -6 4 -17 3 -25 -2 -13 -8 -13
-11 -1 -22 10 -10 12 -10 7 0 -4 6 -2 12 4 12 7 0 10 -6 7 -12 -2 -7 -11 -12
-19 -10 -8 1 -15 -4 -15 -13 0 -8 5 -11 11 -8 6 4 5 -1 -3 -10 -9 -11 -10 -17
-2 -17 6 0 10 -3 10 -7 -4 -22 2 -33 13 -27 7 5 9 2 6 -8 -4 -8 -1 -15 6 -15
8 0 11 9 8 23 -3 17 0 22 12 20 9 -1 15 -6 14 -12 -2 -5 -6 -8 -9 -7 -4 1 -6
-9 -6 -22 0 -16 5 -25 16 -25 14 0 14 -2 1 -9 -8 -6 -18 -7 -23 -4 -5 3 -4 -4
2 -16 7 -11 14 -21 17 -21 3 0 2 5 -2 12 -4 7 -3 8 5 4 9 -6 9 -11 -1 -24 -7
-9 -8 -13 -2 -9 12 7 34 -32 30 -56 -1 -8 -8 -22 -15 -31 -8 -9 -9 -16 -3 -16
6 0 12 4 14 10 2 5 8 -2 15 -16 10 -22 10 -24 -3 -13 -25 20 -22 5 5 -21 13
-14 21 -19 17 -13 -5 9 -2 11 7 7 17 -6 28 -74 12 -74 -7 0 -7 -3 0 -8 12 -8
13 -22 2 -39 -4 -6 -3 -14 2 -17 5 -4 12 -2 16 4 9 15 24 3 20 -18 -2 -9 -4
-17 -5 -17 -1 0 -3 -10 -4 -22 -1 -12 1 -20 5 -17 4 2 9 -1 12 -8 2 -7 3 -5 1
5 -2 15 0 16 12 6 8 -7 14 -8 13 -3 -5 28 3 54 16 54 21 0 20 -64 -2 -81 -11
-10 -14 -10 -9 -1 4 6 2 12 -3 12 -14 0 -14 -5 2 -38 18 -35 15 -73 -7 -107
-10 -15 -13 -24 -7 -21 21 13 10 -9 -22 -45 -92 -105 -231 -206 -647 -475
-270 -175 -519 -416 -825 -799 -198 -248 -262 -355 -252 -419 7 -47 -7 -94
-39 -131 -19 -21 -25 -24 -19 -10 4 11 10 43 13 70 l7 50 5 -45 c6 -42 7 -43
14 -17 5 15 5 48 1 73 -5 38 -9 43 -21 33 -8 -6 -14 -20 -14 -30 0 -10 -4 -21
-10 -24 -6 -3 -10 -16 -10 -28 0 -44 -90 -171 -108 -153 -2 2 13 26 34 53 41
54 60 90 52 99 -4 3 -24 -4 -46 -15 -54 -27 -122 -51 -149 -51 -12 0 -25 -4
-28 -10 -3 -5 -13 -10 -21 -10 -8 0 -13 3 -10 8 2 4 -2 18 -10 32 -8 15 -13
19 -14 10 0 -13 -1 -13 -10 0 -9 13 -10 13 -10 0 0 -13 -1 -13 -10 0 -8 12
-10 12 -10 1 0 -10 -3 -11 -14 -2 -12 10 -17 8 -26 -10 -10 -17 -9 -20 2 -13
7 4 5 -2 -5 -13 -9 -11 -28 -19 -41 -19 -26 2 -59 30 -48 41 4 5 2 5 -5 1 -19
-10 4 -63 39 -87 16 -12 51 -32 76 -45 26 -13 41 -24 34 -24 -19 0 -104 45
-129 70 -21 19 -28 18 -24 -4 1 -5 -5 -4 -13 4 -9 7 -16 18 -16 24 0 6 4 5 9
-3 12 -19 20 0 11 24 -34 82 -216 238 -430 367 -454 274 -937 494 -1300 592
-79 21 -345 81 -675 152 -327 70 -849 240 -973 316 -28 17 -31 22 -20 37 8 10
4 9 -11 -4 -21 -17 -23 -18 -18 -3 3 10 1 20 -5 24 -6 4 -8 3 -4 -4 3 -6 2
-13 -2 -16 -10 -6 -9 40 1 50 4 4 1 14 -6 22 -9 13 -9 14 0 8 9 -5 12 0 10 15
-1 12 4 24 13 26 13 4 13 3 0 -7 -12 -9 -12 -13 -2 -17 10 -4 10 -8 1 -19 -6
-8 -8 -14 -4 -14 4 0 1 -8 -6 -18 -13 -15 -12 -16 3 -3 10 7 16 17 13 21 -3 5
-1 11 3 14 13 8 6 56 -9 70 -9 8 -10 8 -5 -1 13 -23 -1 -14 -18 11 -10 16 -12
27 -6 31 6 4 9 1 8 -6 -2 -6 4 -14 12 -16 12 -4 12 -3 2 5 -8 5 -13 12 -13 16
3 20 -1 26 -16 27 -15 0 -15 2 2 9 11 5 15 9 8 9 -7 1 -10 8 -7 16 3 8 9 14
12 13 20 -2 32 3 27 12 -3 5 1 10 9 10 8 0 20 8 25 18 6 9 11 13 11 8 0 -6 7
-1 16 10 8 10 13 12 9 4 -4 -9 0 -7 9 4 8 10 26 19 39 20 21 1 23 4 14 15 -10
12 -9 13 9 3 14 -7 25 -7 35 0 11 8 11 9 -3 4 -15 -4 -16 -3 -6 14 8 13 16 16
23 10 13 -11 60 32 48 43 -3 4 -1 7 5 7 5 0 13 -6 15 -12 3 -8 6 -5 6 5 1 10
5 15 11 12 5 -3 15 3 22 15 7 11 16 20 21 20 4 0 5 -5 1 -12 -4 -7 -3 -8 4 -4
7 4 12 15 12 24 0 15 2 15 10 2 7 -11 10 -11 10 -2 0 7 4 11 9 8 13 -9 34 22
27 39 -3 9 -2 13 3 10 5 -3 13 -1 16 5 5 8 12 7 23 -2 10 -7 14 -8 9 -3 -4 4
0 16 9 26 9 11 14 25 10 35 -6 15 -4 15 11 3 11 -9 14 -10 9 -1 -4 6 -2 12 3
12 6 0 11 5 11 11 0 5 -5 7 -12 3 -7 -4 -8 -3 -4 5 6 9 11 9 21 1 10 -8 15 -8
21 1 4 7 3 9 -3 6 -6 -4 -13 0 -17 8 -3 8 -1 17 5 21 6 4 5 12 -3 22 -11 15
-11 15 3 4 14 -11 17 -9 16 13 0 15 -4 22 -11 18 -7 -4 -6 -1 1 9 7 8 10 17 7
21 -5 5 21 2 36 -3 3 -1 9 -2 13 -1 5 1 6 -3 2 -9 -3 -5 -1 -11 4 -11 20 -3
26 -4 37 -11 6 -4 11 -1 11 7 0 8 -8 12 -20 9 -11 -2 -16 0 -13 4 4 4 13 7 19
7 7 1 11 6 9 13 -1 7 2 12 8 12 5 0 10 -5 10 -11 0 -8 6 -7 17 2 9 8 14 9 10
2 -4 -6 -1 -14 5 -17 7 -3 1 -3 -14 -1 -25 3 -27 2 -18 -16 12 -22 22 -26 14
-6 -5 14 22 17 42 4 6 -3 11 0 11 8 0 8 -5 11 -10 8 -6 -3 -7 -1 -3 5 4 6 13
9 21 6 8 -4 13 -9 10 -13 -2 -4 2 -8 10 -8 11 0 12 5 3 20 -10 19 -8 19 21 -2
17 -12 31 -19 31 -14 0 4 9 -3 20 -17 17 -21 19 -21 14 -5 -4 14 -3 16 4 7 5
-8 13 -13 18 -12 5 1 10 -4 12 -12 3 -11 2 -11 -6 0 -8 11 -10 11 -15 -1 -4
-10 2 -13 21 -11 15 1 27 3 27 4 0 1 8 3 18 5 9 2 17 0 17 -4 0 -4 7 -8 15 -8
8 0 15 5 15 10 0 6 3 7 7 4 3 -4 11 -3 17 2 6 5 25 11 42 14 17 3 41 10 52 16
24 13 96 15 88 3 -3 -5 1 -9 8 -9 8 0 12 6 10 12 -3 6 2 12 10 12 9 0 12 -6 8
-16 -3 -9 -2 -13 3 -9 4 4 13 3 20 -2 8 -7 12 -5 12 5 0 8 -3 12 -7 10 -4 -2
-7 2 -7 9 0 7 6 13 13 13 7 0 11 -3 9 -7 -2 -3 0 -12 6 -20 7 -13 9 -13 10 0
1 8 1 18 0 23 -1 4 8 2 18 -5 11 -7 17 -16 14 -22 -3 -5 -1 -6 6 -2 9 6 9 11
0 22 -16 19 -4 18 15 -2 15 -14 16 -14 16 3 0 15 2 16 10 3 9 -13 10 -13 11 0
1 8 1 19 0 23 -1 5 3 6 8 2 6 -3 8 -12 4 -20 -3 -8 0 -15 6 -15 6 0 11 -5 11
-11 0 -5 -6 -7 -12 -3 -9 5 -8 2 1 -9 8 -10 18 -14 25 -9 12 9 23 9 48 -2 9
-4 25 -9 35 -11 10 -2 20 -4 23 -5 3 -1 9 -2 14 -1 5 1 6 -5 3 -13 -4 -11 0
-13 19 -10 17 3 23 1 19 -7 -6 -8 -2 -8 14 0 17 10 19 16 11 31 -13 25 -27 33
-35 20 -4 -6 -10 -8 -15 -5 -5 3 -11 1 -15 -5 -4 -6 -11 -8 -16 -4 -6 3 -5 12
3 22 11 13 11 14 -2 7 -12 -7 -13 -6 -3 7 7 8 12 17 10 19 -1 2 4 -2 11 -10
10 -13 12 -13 12 0 0 8 -6 21 -13 29 -10 12 -9 12 6 1 15 -12 17 -11 17 5 0
16 2 17 10 4 8 -12 10 -11 10 8 0 12 5 22 12 22 6 0 8 3 5 6 -4 4 -13 2 -20
-4 -10 -9 -14 -8 -14 3 0 8 4 12 9 9 4 -3 8 0 8 6 0 6 4 9 8 6 4 -2 9 5 9 17
2 17 0 18 -7 7 -7 -11 -9 -10 -7 7 0 12 4 20 8 17 7 -4 22 35 19 51 -1 5 2 7
5 3 10 -9 44 33 38 47 -2 6 5 20 17 30 11 10 20 15 20 11 0 -4 14 4 31 18 24
21 34 24 50 16 14 -8 19 -7 20 2 0 10 2 10 6 0 2 -6 10 -9 15 -6 7 5 8 2 3 -7
-8 -12 -6 -12 8 0 9 7 14 17 11 22 -3 5 3 6 12 2 11 -4 15 -3 10 5 -3 6 -1 14
5 17 6 4 14 17 19 29 8 19 9 19 7 -6 -1 -15 -5 -24 -11 -21 -5 4 -6 1 -1 -7 6
-9 4 -11 -5 -5 -9 5 -11 4 -6 -4 12 -19 31 4 34 41 2 18 10 40 19 48 9 8 13
10 9 3 -3 -6 -3 -14 2 -17 13 -8 11 28 -2 37 -7 5 -3 6 8 3 13 -5 17 -2 13 9
-4 8 -2 17 3 20 4 3 7 -6 5 -20 -1 -14 1 -27 4 -30 4 -2 8 6 8 18 1 12 9 27
17 33 9 6 14 14 11 17 -3 4 -2 5 1 3 3 -3 22 12 42 32 19 20 29 28 22 17 -8
-11 -21 -26 -29 -32 -8 -7 -10 -13 -4 -13 17 0 60 63 57 84 -1 11 5 33 14 50
9 17 15 35 14 40 -2 4 2 14 8 20 5 7 6 17 2 21 -4 5 -2 5 5 1 6 -3 14 -2 18 4
3 5 1 10 -5 10 -6 0 -9 12 -7 28 2 15 9 27 15 27 7 0 12 5 13 10 0 6 7 18 16
27 8 9 12 21 8 27 -3 7 0 8 9 5 9 -3 14 -9 12 -13 -2 -3 6 -14 19 -23 21 -16
24 -16 37 -1 7 10 8 14 1 10 -6 -4 -14 -3 -18 3 -4 6 -11 8 -16 5 -5 -4 -9 -1
-9 4 0 6 5 11 11 11 5 0 7 5 3 12 -4 7 -3 8 5 4 6 -4 9 -12 6 -17 -4 -5 1 -9
10 -9 9 0 14 4 10 9 -3 5 0 15 7 23 7 7 14 20 16 28 2 8 9 18 15 22 9 6 8 11
-3 18 -11 7 -11 10 -2 10 7 0 10 5 7 10 -3 6 -1 10 5 10 7 0 10 -6 7 -13 -3
-8 1 -14 9 -14 9 0 10 5 5 15 -5 8 -6 24 -3 36 4 20 4 20 -10 2 -12 -15 -17
-16 -23 -6 -6 9 -4 11 5 5 10 -6 12 -4 7 9 -4 9 -3 14 2 11 14 -8 21 9 11 25
-5 9 -4 20 3 30 11 13 10 13 -7 0 -11 -8 -21 -14 -23 -12 -3 2 -8 1 -11 -3 -4
-4 -1 -5 7 -3 7 2 16 -4 18 -12 3 -9 1 -11 -4 -5 -4 6 -17 12 -27 13 -18 3
-19 2 -5 -15 13 -16 12 -17 -3 -5 -13 10 -17 10 -20 0 -3 -7 -7 -5 -12 7 -4
11 -4 16 0 12 9 -8 44 31 44 50 0 7 5 13 11 13 6 0 9 6 6 13 -2 6 -9 11 -15
10 -6 -2 -9 4 -6 12 5 11 10 9 27 -8 12 -13 19 -18 15 -13 -13 17 -9 25 11 21
19 -3 23 16 7 32 -4 4 -6 2 -4 -6 2 -7 -5 -15 -14 -16 -16 -3 -16 -2 0 23 9
14 13 24 7 20 -5 -3 -19 5 -29 17 l-20 23 -40 -23 c-23 -13 -50 -25 -61 -27
-11 -1 -23 -7 -26 -11 -3 -5 -9 -2 -12 7 -4 10 -1 16 9 16 11 0 12 4 5 19 -8
14 -7 20 2 24 7 2 19 17 27 33 8 16 23 41 34 56 18 25 27 61 27 101 0 26 31
71 51 75 12 2 16 -2 12 -12 -3 -8 0 -17 6 -21 9 -6 9 -10 -1 -16 -11 -7 -10
-9 4 -9 10 0 15 -5 12 -10 -4 -6 -10 -8 -14 -5 -5 2 -6 -6 -4 -19 3 -13 0 -27
-6 -30 -6 -4 -11 -17 -11 -30 0 -12 -3 -26 -7 -30 -10 -9 -13 -35 -4 -40 3 -3
14 9 24 25 9 17 13 28 8 25 -4 -3 -8 1 -8 9 0 10 5 10 23 -3 12 -9 20 -21 17
-25 -3 -5 5 -3 18 4 13 7 28 12 32 11 5 -1 6 2 2 8 -3 5 1 13 9 16 9 3 16 11
16 16 0 6 -8 4 -17 -3 -10 -7 -15 -9 -11 -5 4 5 2 16 -4 25 -7 9 -8 13 -4 9 5
-4 15 -3 23 4 8 6 13 7 12 2 -1 -5 1 -17 5 -26 6 -13 11 -15 21 -5 10 10 9 14
-6 25 -11 8 -16 18 -12 25 10 16 13 41 5 32 -4 -4 -7 -11 -7 -16 0 -20 -18
-12 -22 9 -1 13 1 21 6 18 5 -3 14 1 21 9 12 14 9 18 -7 13 -5 -2 -7 -7 -5
-13 2 -5 0 -7 -4 -2 -4 4 -9 18 -10 30 -2 12 0 16 2 10 4 -10 11 -9 28 2 12 8
25 13 28 10 10 -10 49 -14 43 -4 -4 5 -3 9 2 10 14 1 40 7 64 14 19 5 21 4 9
-4 -9 -7 -10 -11 -3 -11 6 0 15 4 18 10 9 14 56 8 51 -7 -3 -7 0 -15 6 -19 7
-4 8 -3 4 4 -4 7 -2 12 4 12 6 0 9 4 6 8 -2 4 6 8 20 8 25 0 32 -10 14 -21 -5
-3 -10 0 -11 7 0 10 -2 10 -6 1 -6 -16 -5 -23 3 -22 4 0 11 -5 15 -13 7 -10 9
-10 9 0 0 7 4 11 9 7 6 -3 8 7 5 22 -4 27 -3 27 11 9 15 -20 15 -20 16 0 0 18
1 18 9 -1 6 -13 9 -15 9 -5 1 13 2 13 11 0 8 -12 10 -10 11 10 1 17 3 20 6 7
4 -16 5 -16 21 1 9 10 13 12 8 4 -6 -9 -3 -18 9 -30 18 -16 18 -16 6 1 -13 16
-8 22 13 18 5 -1 5 6 2 16 -6 14 -5 15 5 6 18 -18 55 3 39 22 -9 11 -7 12 12
7 21 -5 22 -4 9 11 -12 15 -12 17 4 11 14 -6 16 -4 10 7 -7 11 -5 11 10 -1 13
-10 16 -11 11 -2 -5 9 -1 15 14 19 13 3 19 11 16 20 -3 8 -1 11 4 8 6 -3 10 2
11 12 0 11 3 13 6 5 3 -7 -2 -24 -11 -37 -14 -21 -14 -24 -1 -19 8 4 18 17 21
29 6 23 18 26 41 12 6 -4 15 -2 19 4 4 7 3 9 -3 6 -6 -4 -16 0 -23 8 -7 8 -16
13 -20 10 -5 -3 -11 -1 -14 4 -4 5 -2 12 3 15 5 4 12 2 16 -4 4 -6 10 -8 15
-5 5 3 11 1 14 -4 8 -12 42 -2 58 17 10 12 10 14 1 8 -16 -9 -16 -1 -2 25 5
11 14 17 19 14 6 -3 7 0 4 8 -3 8 -1 18 4 21 5 3 8 19 6 36 -2 17 0 29 5 26
14 -9 34 22 27 40 -5 14 -9 14 -24 3 -14 -11 -15 -11 -4 1 14 16 16 34 3 25
-5 -3 -13 -1 -16 5 -4 6 -1 9 7 8 7 -2 12 3 10 11 -3 12 0 12 12 2 8 -7 12
-19 9 -27 -9 -23 7 -16 18 9 l10 22 -5 -22 c-2 -13 0 -23 5 -23 8 0 13 23 10
43 -1 5 3 5 9 2 6 -4 9 -14 5 -23 -3 -9 -3 -13 1 -9 4 4 14 1 22 -6 12 -9 14
-9 9 0 -5 7 3 18 20 27 l28 14 -30 -1 c-33 -2 -50 17 -19 20 18 3 18 2 -1 -6
-15 -7 -8 -9 25 -6 25 2 47 5 50 6 3 1 8 1 12 0 3 0 5 7 3 17 -3 21 14 44 26
36 5 -3 7 -10 3 -15 -3 -5 -10 -6 -16 -3 -7 5 -8 2 -2 -7 5 -8 9 -17 9 -21 0
-3 3 -10 7 -14 4 -3 6 3 3 14 -2 13 3 26 13 32 9 5 13 10 9 10 -5 0 -5 5 -2
10 4 6 11 8 16 4 6 -3 3 -16 -7 -32 -17 -27 -17 -27 3 -10 12 12 23 14 29 8 6
-6 10 -2 11 12 2 18 0 20 -7 8 -5 -8 -10 -10 -10 -5 0 6 13 23 29 38 28 27 28
27 26 5 -4 -42 -5 -43 -15 -28 -7 11 -9 10 -7 -9 l1 -23 19 24 c23 27 20 26
40 9 14 -11 17 -11 17 0 0 11 2 11 10 -1 5 -8 10 -10 10 -4 0 6 11 16 25 22
23 10 25 9 25 -11 0 -18 -2 -19 -10 -7 -7 12 -12 12 -22 2 -6 -6 -8 -12 -4
-12 5 0 2 -8 -5 -17 -13 -17 -12 -17 6 -2 11 9 33 15 48 14 15 -1 30 2 33 7 3
5 11 5 18 -1 9 -8 13 -6 13 7 2 38 -6 46 -27 27 -17 -15 -20 -15 -20 -3 0 8
10 20 23 25 21 10 20 10 -8 9 -16 -1 -35 -5 -41 -9 -7 -4 -14 1 -17 13 -3 13
-1 18 6 13 18 -11 58 -13 52 -2 -4 5 5 4 19 -2 14 -7 23 -17 19 -23 -3 -6 -3
-8 2 -4 4 4 13 3 20 -2 8 -7 12 -5 12 5 0 8 -5 11 -11 8 -6 -3 -7 -2 -3 2 4 5
15 10 23 11 32 5 44 14 38 29 -3 8 -10 12 -15 9 -5 -3 -6 2 -2 11 4 13 8 14
14 4 5 -9 10 -5 14 14 4 15 11 24 16 21 5 -3 1 -16 -7 -30 -9 -13 -14 -27 -11
-30 3 -3 8 4 12 15 3 12 10 19 15 16 4 -3 7 1 6 7 -4 26 -17 36 -42 32 -23 -4
-24 -3 -13 18 11 20 10 21 -3 11 -8 -7 -19 -9 -23 -5 -5 4 -5 2 -2 -5 8 -13
-18 -12 -30 2 -5 4 -1 4 7 0 13 -8 13 -7 1 8 -14 18 -26 23 -16 8 3 -5 1 -12
-5 -16 -12 -7 -52 18 -45 28 3 4 2 4 -2 1 -5 -3 -8 -11 -8 -17 0 -5 -6 -12
-14 -15 -9 -3 -11 0 -6 8 6 10 4 11 -6 4 -20 -12 -38 -14 -45 -3 -3 6 -12 5
-22 -3 -10 -7 -14 -8 -9 -3 8 10 -43 46 -55 39 -4 -3 -8 0 -8 6 0 7 -7 10 -15
6 -8 -3 -19 2 -24 12 -6 9 -11 13 -11 8 0 -13 -30 15 -30 28 0 6 5 4 10 -4 6
-10 10 -11 10 -2 0 6 5 12 11 12 8 0 7 -6 -2 -17 -11 -15 -11 -16 1 -6 11 10
16 9 27 -5 8 -10 7 -2 -4 21 -11 25 -19 33 -25 25 -5 -9 -8 -8 -8 5 0 10 -5
15 -10 12 -6 -4 -18 -1 -27 7 -14 11 -16 11 -9 -2 4 -8 0 -6 -8 4 -16 20 -16
20 -17 0 -1 -16 -2 -17 -6 -1 -2 9 -9 17 -14 17 -6 0 -7 -6 -3 -12 6 -10 4
-10 -8 0 -10 8 -17 9 -20 2 -1 -5 -9 -1 -16 10 -7 12 -8 20 -2 20 5 0 10 -6
10 -12 0 -9 4 -8 10 2 7 11 10 11 10 2 0 -9 5 -10 18 -4 9 5 24 8 32 7 42 -6
183 -15 179 -11 -3 3 -51 13 -107 22 -108 18 -134 31 -54 27 56 -4 248 -24
277 -29 11 -3 36 -7 55 -11 19 -4 63 -7 98 -8 34 0 62 -3 62 -7 0 -8 27 -4 36
5 4 3 1 15 -7 24 -13 16 -12 17 4 4 16 -13 18 -12 13 12 -2 15 0 29 5 33 5 3
8 2 7 -3 -2 -4 2 -9 7 -10 6 -2 10 0 10 5 0 4 3 12 6 17 4 6 5 18 3 29 -2 14
0 16 8 8 9 -9 15 -9 25 0 11 9 10 14 -4 32 -15 17 -15 18 -1 8 18 -15 25 -7
22 25 0 12 2 20 7 18 4 -3 14 4 22 15 14 21 15 21 25 -9 6 -17 13 -31 16 -31
5 0 -9 54 -20 72 -4 7 -4 10 1 6 4 -4 16 3 27 15 l20 22 -16 -25 c-23 -35 -19
-50 4 -20 15 18 18 20 13 6 -4 -11 -2 -17 3 -13 6 3 11 -4 11 -16 2 -18 0 -19
-8 -7 -8 12 -9 10 -4 -7 3 -13 4 -23 0 -23 -3 0 -10 10 -15 23 -6 15 -9 17 -9
6 -1 -19 17 -36 37 -35 7 1 23 17 35 35 14 24 17 32 7 27 -8 -4 -7 -1 3 7 9 8
17 20 17 26 0 7 5 9 13 5 9 -6 9 -4 -1 8 -9 11 -10 18 -2 23 6 3 7 11 4 17 -4
7 -2 8 5 4 9 -6 9 -12 -1 -24 -12 -15 -11 -16 4 -3 13 9 15 18 9 29 -6 11 -4
26 4 43 8 15 11 29 8 33 -4 3 -1 6 6 6 7 0 9 4 6 10 -4 6 1 7 11 3 13 -5 15
-3 8 8 -12 20 -14 40 -3 33 5 -3 6 -10 3 -16 -4 -7 -2 -8 4 -4 8 5 8 15 2 32
-7 17 -7 23 0 19 7 -4 9 3 6 19 -5 28 8 44 20 25 4 -7 3 -9 -3 -6 -5 3 -10 0
-10 -8 0 -11 4 -12 14 -4 7 6 10 15 7 20 -3 5 -1 9 4 9 6 0 10 6 9 13 0 6 1
21 2 32 1 17 3 18 11 5 13 -20 12 -33 -2 -24 -7 5 -8 3 -3 -6 6 -10 11 -10 20
3 7 9 14 14 17 11 4 -3 9 0 14 7 4 8 3 10 -4 5 -19 -12 -14 9 10 40 13 15 17
25 10 20 -7 -4 -12 -2 -12 4 0 6 -5 8 -12 4 -7 -5 -8 -3 -2 7 5 8 9 17 9 21 0
3 4 10 9 15 5 5 6 3 2 -4 -5 -8 -1 -13 11 -14 16 0 16 -1 -2 -9 -16 -7 -17 -9
-3 -9 20 -1 32 15 18 24 -5 3 -9 17 -8 30 1 13 6 21 10 19 4 -3 5 -11 2 -18
-3 -8 -1 -17 4 -20 5 -3 8 10 5 29 -2 21 1 35 7 35 6 0 8 -6 4 -12 -4 -8 -3
-10 2 -5 5 5 9 12 9 15 0 4 4 13 9 21 6 10 5 12 -2 7 -7 -4 -12 -5 -12 -2 0 2
-3 13 -6 23 -5 15 -4 15 5 3 9 -12 11 -11 11 10 0 18 3 21 9 12 7 -11 9 -11
14 2 4 9 -1 16 -11 19 -9 3 -1 5 19 6 39 1 104 24 114 41 8 14 2 13 -31 -5
-68 -35 -162 -5 -190 60 -18 45 -18 69 3 112 21 44 85 76 146 72 28 -2 41 1
40 9 -2 6 4 9 12 6 18 -7 20 7 3 24 -17 17 -100 15 -124 -3 -28 -21 -42 -18
-59 14 -14 28 -14 31 11 50 31 24 73 38 139 45 31 3 55 12 63 23 8 12 9 19 2
21 -7 3 -7 8 -2 15 10 13 35 136 47 232 2 17 6 46 9 65 3 19 8 62 11 95 3 33
8 74 10 90 3 17 7 39 9 50 2 11 7 43 11 70 4 28 13 56 19 64 9 12 8 13 -2 7
-11 -7 -12 -4 -5 10 9 17 34 117 47 184 3 14 7 36 11 50 3 14 8 45 11 70 9 74
12 95 14 95 1 0 3 14 5 30 2 17 7 50 10 75 4 25 9 72 11 105 2 33 7 74 10 90
6 26 11 77 16 153 1 12 5 22 9 22 4 0 6 11 5 25 -2 14 3 30 11 36 7 7 10 16 5
23 -10 13 -9 21 9 64 7 17 17 32 22 32 4 0 3 -10 -3 -22 -10 -21 -10 -21 9 2
10 13 18 27 15 31 -2 4 4 10 13 14 16 5 15 8 -7 26 l-25 19 27 -9 c26 -10 27
-9 18 14 -9 23 -6 29 13 26 4 0 7 4 7 10 0 5 4 7 10 4 6 -3 7 1 3 10 -4 13 -7
14 -14 3 -6 -9 -8 -6 -6 9 0 12 5 19 11 16 5 -4 7 1 2 12 -5 15 -4 16 8 6 13
-11 14 -8 6 19 -8 27 -7 30 6 19 13 -10 13 -8 5 14 -12 31 -3 40 33 33 14 -3
28 0 32 5 8 14 26 0 18 -14 -4 -7 -3 -8 1 -4 26 23 7 42 -22 24 -8 -5 -13 -4
-13 2 0 6 5 11 11 11 5 0 8 4 5 9 -9 13 19 7 38 -8z m111 -91 c-3 -5 1 -12 9
-17 14 -8 16 -12 16 -31 0 -4 11 -19 23 -32 17 -18 22 -31 16 -45 -8 -22 -9
-21 -13 10 -1 11 -19 43 -39 71 -19 29 -33 55 -30 58 9 8 24 -4 18 -14z m-288
-161 c-9 -6 -14 -15 -11 -21 4 -7 2 -8 -4 -4 -16 9 -3 36 17 36 14 -1 14 -2
-2 -11z m450 -93 c0 -8 -6 -12 -15 -9 -11 5 -11 7 0 14 7 5 13 9 14 9 0 0 1
-6 1 -14z m-2857 -46 c53 -53 -14 -131 -74 -87 -26 19 -24 67 4 89 29 23 45
23 70 -2z m-1805 -1 c39 -11 125 -85 125 -107 0 -7 -19 -21 -42 -33 -41 -21
-42 -21 -57 -2 -64 77 -169 69 -234 -19 -24 -33 -33 -114 -18 -161 23 -69 110
-120 176 -103 13 3 41 20 60 37 l36 32 39 -18 c22 -10 40 -23 40 -28 0 -22
-53 -78 -93 -99 -51 -27 -162 -30 -218 -6 -50 22 -106 74 -132 122 -29 55 -31
193 -3 246 63 120 190 175 321 139z m295 -90 l0 -91 34 21 c49 31 113 36 156
14 51 -26 61 -67 58 -232 l-3 -136 -47 -3 -48 -3 0 130 c0 120 -2 133 -21 152
-17 17 -29 20 -56 16 -67 -11 -73 -24 -73 -169 l0 -128 -50 0 -50 0 0 260 0
260 50 0 50 0 0 -91z m2520 -170 l0 -260 -47 3 c-47 3 -48 4 -51 38 -2 19 -1
135 3 258 l7 222 44 0 44 0 0 -261z m-1935 112 c55 -25 91 -70 104 -131 18
-86 27 -80 -124 -80 -148 0 -160 -6 -111 -55 35 -35 72 -41 129 -21 53 19 52
19 78 -26 12 -22 -16 -42 -83 -59 -138 -34 -250 51 -250 190 0 148 130 240
257 182z m485 -16 c23 -22 29 -24 39 -11 7 8 32 22 56 32 56 21 107 12 135
-23 18 -23 20 -40 20 -189 l0 -164 -45 0 -45 0 0 128 c0 99 -3 132 -16 150
-18 26 -46 28 -85 5 l-29 -17 0 -133 0 -133 -50 0 -50 0 0 132 c0 108 -3 135
-17 150 -21 24 -54 23 -87 -3 -26 -20 -26 -22 -26 -150 l0 -130 -47 3 -48 3 0
185 0 185 48 3 c42 3 47 1 47 -17 0 -20 2 -20 48 5 58 32 111 28 152 -11z
m826 3 c19 -13 34 -28 34 -34 0 -5 -13 -23 -28 -38 -25 -23 -31 -25 -41 -12
-18 22 -68 30 -102 16 -74 -31 -79 -159 -8 -196 37 -19 58 -18 95 5 l32 19 26
-27 c14 -15 26 -31 26 -37 0 -5 -17 -20 -37 -34 -30 -20 -49 -25 -103 -25 -83
0 -137 31 -169 97 -41 86 -18 211 47 255 72 49 166 53 228 11z m369 8 c54 -35
60 -58 60 -216 l0 -145 -47 -3 c-38 -2 -48 0 -48 13 0 13 -5 13 -40 -5 -79
-40 -160 -16 -192 57 -17 40 -18 49 -6 86 24 76 109 108 195 72 45 -19 43 -19
43 10 0 58 -85 86 -154 50 -15 -8 -32 -15 -36 -15 -7 0 -30 45 -30 60 0 10 49
38 90 51 37 12 137 3 165 -15z m-745 -176 l0 -190 -45 0 c-29 0 -45 4 -46 13
-1 16 -1 361 0 365 1 1 21 2 46 2 l45 0 0 -190z m-705 -444 c21 -15 25 -67 5
-90 -16 -21 -64 -20 -84 0 -51 50 21 133 79 90z m1775 -6 c39 -39 14 -100 -41
-100 -30 0 -59 31 -59 62 0 24 35 58 60 58 11 0 29 -9 40 -20z m-2850 -50 l0
-50 -125 0 -125 0 0 -50 0 -49 123 -3 122 -3 3 -47 3 -47 -123 -3 -123 -3 -3
-57 -3 -58 126 0 125 0 0 -50 0 -50 -180 0 -180 0 0 260 0 260 180 0 180 0 0
-50z m408 -114 c27 -26 27 -28 30 -191 l3 -165 -50 0 -51 0 0 130 c0 117 -2
132 -20 150 -11 11 -29 20 -40 20 -29 0 -76 -26 -84 -45 -3 -9 -6 -71 -6 -136
l0 -120 -47 3 -48 3 -3 188 -2 187 50 0 c38 0 50 -4 50 -15 0 -19 7 -18 50 6
51 28 132 22 168 -15z m340 14 c39 -24 42 -24 42 -5 0 11 12 15 51 15 l50 0
-3 -207 c-3 -236 -10 -259 -82 -297 -73 -37 -199 -31 -248 12 -22 19 -22 31 0
60 l17 22 40 -21 c80 -41 175 -3 175 72 0 35 -2 35 -41 7 -65 -48 -166 -18
-207 62 -31 60 -29 183 4 227 53 71 136 93 202 53z m750 -14 c27 -26 27 -28
30 -192 l3 -165 -48 3 -48 3 -3 130 c-3 140 -12 165 -59 165 -31 0 -79 -25
-87 -45 -3 -9 -6 -70 -6 -136 l0 -119 -45 0 -45 0 0 190 0 190 46 0 c38 0 47
-4 51 -20 5 -19 7 -19 22 -6 49 44 146 46 189 2z m383 11 c53 -28 99 -107 99
-168 l0 -39 -135 0 c-74 0 -135 -2 -135 -5 0 -19 29 -59 51 -71 36 -18 59 -18
110 3 41 16 42 16 60 -8 25 -32 24 -36 -12 -58 -73 -45 -181 -35 -246 22 -45
39 -63 82 -63 145 0 153 142 247 271 179z m447 -10 c45 -29 73 -83 80 -149 l5
-48 -137 0 c-116 0 -136 -2 -136 -15 0 -26 45 -63 84 -70 26 -5 47 -2 76 13
l40 20 21 -29 c23 -33 20 -43 -24 -66 -52 -27 -152 -23 -206 7 -139 78 -115
312 37 361 46 15 118 4 160 -24z m372 -17 l0 -50 -34 0 c-19 0 -45 -9 -60 -21
-26 -20 -26 -22 -26 -145 l0 -124 -45 0 -45 0 0 190 0 190 44 0 c37 0 45 -4
49 -22 6 -20 7 -21 24 -5 19 17 60 35 81 36 8 1 12 -15 12 -49z m572 11 l28
-31 0 -160 0 -160 -45 0 -45 0 0 121 c0 146 -12 178 -68 179 -13 0 -37 -8 -53
-17 l-28 -17 -3 -130 -3 -131 -47 -3 -48 -3 0 190 0 191 46 0 c36 0 47 -4 51
-18 4 -17 7 -17 51 5 65 34 125 27 164 -16z m336 19 c39 -24 52 -25 52 -5 0
11 12 15 45 15 l45 0 1 -162 c1 -218 -1 -248 -16 -278 -32 -61 -92 -90 -184
-90 -55 0 -131 26 -145 49 -7 11 22 71 34 71 3 0 23 -9 45 -20 46 -24 74 -25
120 -6 26 11 36 24 46 55 14 47 7 61 -18 38 -69 -62 -182 -34 -230 57 -27 50
-23 161 7 213 41 74 132 103 198 63z m-2520 -177 l-3 -188 -47 -3 -48 -3 0
190 0 191 50 0 50 0 -2 -187z m1772 -3 l0 -190 -50 0 -50 0 0 190 0 190 50 0
50 0 0 -190z m-2850 -500 l0 -50 -70 0 -70 0 0 -210 0 -210 -55 0 -55 0 0 210
0 209 -72 3 -73 3 -3 48 -3 47 200 0 201 0 0 -50z m170 -39 l0 -88 47 23 c25
13 59 24 75 24 46 0 97 -26 108 -55 6 -15 10 -96 10 -181 l0 -154 -45 0 -45 0
0 130 c0 117 -2 132 -20 150 -26 26 -70 26 -104 -1 -26 -20 -26 -22 -26 -150
l0 -129 -50 0 -50 0 0 260 0 260 50 0 50 0 0 -89z m2498 -168 l-3 -258 -47 -3
c-42 -3 -48 -1 -48 16 0 18 -2 18 -47 -4 -70 -36 -121 -29 -176 24 -59 57 -72
202 -24 273 59 86 129 98 240 41 4 -2 7 35 7 82 l0 86 50 0 50 0 -2 -257z
m-1908 105 c25 -13 55 -38 67 -56 23 -34 47 -127 37 -143 -3 -5 -64 -9 -135
-9 -129 0 -130 0 -127 -22 4 -28 62 -68 97 -68 15 0 43 9 64 19 26 13 39 16
44 7 4 -6 13 -21 21 -33 13 -20 11 -23 -25 -41 -90 -46 -190 -35 -253 28 -94
94 -65 267 54 321 55 25 102 24 156 -3z m395 -29 c0 -42 -1 -44 -35 -49 -79
-14 -80 -16 -80 -160 l0 -130 -50 0 -50 0 0 190 0 190 50 0 c43 0 50 -3 50
-20 0 -19 2 -18 47 5 26 14 52 24 57 22 6 -2 11 -23 11 -48z m328 40 c12 -6
29 -21 38 -32 16 -20 17 -20 35 -2 40 40 111 55 158 34 46 -21 56 -62 56 -228
l0 -151 -50 0 -50 0 0 134 c0 109 -3 138 -16 150 -21 22 -56 20 -88 -5 -26
-20 -26 -22 -26 -150 l0 -130 -47 3 -48 3 -3 134 c-1 79 -7 140 -14 148 -15
18 -59 16 -85 -5 -21 -16 -23 -26 -25 -147 l-3 -130 -47 -3 -48 -3 0 190 0
191 46 0 c38 0 47 -4 51 -20 5 -19 7 -19 22 -6 37 34 104 45 144 25z m668 -23
c52 -35 79 -90 79 -161 0 -104 -52 -175 -144 -196 -91 -20 -189 28 -222 108
-45 106 11 241 114 274 47 15 130 3 173 -25z m1309 21 c49 -24 60 -67 60 -229
l0 -148 -49 0 -49 0 -4 136 c-3 121 -5 137 -22 150 -28 20 -69 17 -100 -7 -26
-20 -26 -22 -26 -150 l0 -129 -50 0 -50 0 0 190 0 190 50 0 c43 0 50 -3 50
-19 0 -19 2 -19 43 4 47 27 107 32 147 12z m1676 -7 c55 -27 62 -46 28 -81
l-27 -28 -25 19 c-62 49 -152 2 -152 -80 0 -22 7 -54 15 -69 26 -51 100 -64
140 -24 15 15 19 14 48 -16 l32 -32 -28 -24 c-84 -73 -231 -45 -284 54 -29 55
-31 138 -4 197 41 91 161 130 257 84z m377 -6 c42 -20 43 -24 22 -64 l-15 -28
-37 19 c-61 31 -133 22 -133 -18 0 -7 26 -20 58 -28 127 -36 157 -61 157 -132
0 -38 -5 -49 -36 -78 -47 -42 -114 -54 -191 -31 -90 26 -104 47 -64 98 12 16
16 15 61 -7 27 -14 60 -25 75 -25 35 0 63 22 59 45 -4 19 -13 22 -104 44 -69
17 -105 53 -105 107 0 48 27 89 74 110 40 18 128 12 179 -12z m-2643 -104 c24
-66 46 -120 49 -120 4 0 23 48 44 108 21 59 41 113 46 120 5 9 25 12 58 10
l51 -3 -90 -230 c-105 -272 -116 -286 -208 -293 -65 -5 -66 -4 -54 57 5 25 11
31 32 31 32 0 62 26 62 54 0 12 -32 101 -70 199 -39 98 -70 180 -70 183 0 2
24 4 53 4 l54 0 43 -120z m794 -368 c3 -5 -1 -9 -9 -9 -8 0 -12 4 -9 9 3 4 7
8 9 8 2 0 6 -4 9 -8z m-54 -148 c0 -8 -19 -13 -24 -6 -3 5 1 9 9 9 8 0 15 -2
15 -3z m-27 -40 c-3 -8 -7 -14 -10 -14 -3 0 -3 6 0 14 3 7 0 20 -6 27 -10 11
-9 11 5 0 9 -7 14 -19 11 -27z m-3516 -117 c24 4 38 2 44 -8 12 -19 11 -109
-1 -109 -5 0 -10 25 -10 55 0 51 -2 55 -24 55 -32 0 -44 -17 -49 -70 -2 -25
-4 -4 -4 45 0 50 2 76 4 58 4 -30 6 -31 40 -26z m260 0 c43 7 53 -5 53 -71 0
-56 -12 -55 -16 1 -1 21 -3 44 -3 51 -1 16 -46 16 -59 -1 -6 -7 -12 -33 -15
-57 -2 -25 -4 -4 -4 45 0 50 2 76 4 58 4 -30 6 -31 40 -26z m483 -31 l0 -84
-37 -7 c-31 -6 -40 -3 -55 15 -41 50 -7 118 52 107 28 -6 30 -5 30 23 0 17 2
30 5 30 3 0 5 -38 5 -84z m-1020 64 c0 -5 -4 -10 -10 -10 -5 0 -10 5 -10 10 0
6 5 10 10 10 6 0 10 -4 10 -10z m1280 0 c0 -5 -2 -10 -4 -10 -3 0 -8 5 -11 10
-3 6 -1 10 4 10 6 0 11 -4 11 -10z m-856 -32 c8 -5 7 -8 -1 -8 -21 0 -17 -97
5 -110 15 -10 15 -10 -3 -8 -16 3 -21 12 -23 53 -2 28 -7 54 -12 59 -5 5 -3
17 3 27 8 13 13 15 16 7 2 -7 9 -16 15 -20z m765 -12 c-17 -18 -11 -94 9 -106
15 -10 15 -10 -3 -8 -17 3 -21 12 -23 58 -2 30 -9 58 -15 62 -9 6 -9 8 1 8 6
0 12 8 12 17 0 15 2 14 14 -3 9 -12 11 -23 5 -28z m-1281 2 c7 -7 12 -22 12
-35 0 -21 -4 -23 -50 -23 -54 0 -61 -7 -30 -35 13 -12 27 -15 47 -11 21 5 24
4 13 -4 -59 -39 -122 48 -73 102 18 20 63 24 81 6z m92 -54 c0 -30 -4 -54 -10
-54 -6 0 -10 27 -10 61 0 37 4 58 10 54 6 -3 10 -31 10 -61z m168 -6 c2 -57 0
-70 -18 -88 -22 -22 -47 -25 -70 -10 -11 8 -8 9 13 4 32 -7 57 9 57 38 0 17
-3 18 -15 8 -23 -19 -64 -4 -72 28 -17 63 4 95 61 90 l41 -4 3 -66z m670 60
c5 -7 12 -22 14 -33 3 -17 -4 -21 -50 -25 l-53 -5 17 -23 c13 -19 23 -23 46
-18 18 3 27 2 23 -4 -20 -33 -95 9 -95 53 0 53 68 91 98 55z m259 -80 c-2 -18
-4 -4 -4 32 0 36 2 50 4 33 2 -18 2 -48 0 -65z m180 0 c-2 -18 -4 -4 -4 32 0
36 2 50 4 33 2 -18 2 -48 0 -65z m161 80 c20 -25 18 -80 -4 -102 -20 -21 -53
-20 -76 1 -22 20 -24 76 -2 97 19 19 67 21 82 4z m168 -53 l2 -60 -7 52 c-8
62 -12 67 -46 59 -23 -6 -25 -11 -25 -56 0 -28 -4 -50 -10 -50 -10 0 -14 102
-5 112 3 3 25 5 48 4 l42 -1 1 -60z m2014 -159 c0 -2 -7 -7 -16 -10 -8 -3 -12
-2 -9 4 6 10 25 14 25 6z m-32 -66 c-7 -10 -14 -18 -15 -16 -6 6 9 36 18 36 5
0 4 -9 -3 -20z m1318 -60 c0 -12 -4 -16 -9 -11 -5 5 -6 14 -3 20 10 15 12 14
12 -9z m-3612 -88 c2 -4 -7 -8 -22 -9 -24 -2 -24 -1 -7 7 11 5 21 9 22 9 1 1
4 -3 7 -7z m-316 -27 c-10 -10 -59 -12 -64 -3 -4 6 -3 9 2 6 5 -3 18 -2 29 2
18 7 41 3 33 -5z m57 5 c-11 -5 -27 -9 -35 -9 -9 0 -8 4 5 9 11 5 27 9 35 9 9
0 8 -4 -5 -9z m1461 -12 c3 -4 -1 -5 -10 -4 -8 1 -18 5 -22 8 -3 4 1 5 10 4 8
-1 18 -5 22 -8z m75 -21 c-10 -9 -11 -8 -5 6 3 10 9 15 12 12 3 -3 0 -11 -7
-18z m81 1 c15 15 28 15 28 0 0 -6 -3 -8 -7 -5 -3 4 -12 2 -20 -4 -9 -8 -17
-8 -26 0 -8 6 -16 9 -19 6 -2 -3 -5 2 -5 10 0 13 3 13 19 -2 14 -13 21 -14 30
-5z m-1872 -2 c-7 -7 -13 -7 -20 0 -6 6 -3 10 10 10 13 0 16 -4 10 -10z m1927
-8 c-3 -8 -6 -5 -6 6 -1 11 2 17 5 13 3 -3 4 -12 1 -19z m-2656 -141 c-1 -4
-4 -7 -7 -6 -4 0 -11 -5 -15 -13 -7 -10 -9 -10 -9 0 0 7 -4 10 -10 7 -5 -3
-10 -1 -10 5 0 7 7 10 15 6 8 -3 15 -1 15 5 0 6 5 9 11 7 6 -2 10 -7 10 -11z
m-201 -69 c0 -4 -4 -8 -9 -8 -6 0 -12 4 -15 8 -3 5 1 9 9 9 8 0 15 -4 15 -9z
m-280 -8 c0 -5 -12 -10 -27 -10 -22 0 -25 2 -13 10 20 13 40 13 40 0z m241 -7
c-1 -4 -5 -9 -11 -9 -5 -1 -11 -2 -12 -4 -2 -1 -16 -4 -33 -6 -16 -3 -44 -14
-62 -24 -17 -10 -34 -16 -37 -12 -4 3 28 20 71 38 77 32 85 34 84 17z m3239
-73 c7 -14 9 -22 5 -18 -5 4 -15 2 -23 -4 -20 -17 -52 -20 -52 -5 0 8 -4 7
-10 -3 -11 -17 -13 -9 -4 14 6 15 8 15 21 -1 13 -17 14 -16 8 7 -4 15 -3 20 2
13 7 -9 12 -8 23 7 8 11 15 18 16 17 1 -1 7 -13 14 -27z m44 -15 c-10 -26 6
-38 27 -19 17 16 19 16 19 1 0 -10 -3 -16 -7 -16 -5 1 -10 0 -13 -1 -26 -10
-39 -5 -43 16 -4 24 0 34 14 34 5 0 6 -7 3 -15z m-184 1 c0 -2 -8 -10 -17 -17
-16 -13 -17 -12 -4 4 13 16 21 21 21 13z m-150 -80 c-7 -7 -13 -7 -20 0 -6 6
-3 10 10 10 13 0 16 -4 10 -10z m40 10 c0 -2 -7 -9 -15 -16 -13 -11 -14 -10
-9 4 5 14 24 23 24 12z m-116 -18 c-3 -5 -10 -6 -15 -3 -5 4 -9 1 -9 -6 0 -7
-3 -10 -6 -6 -9 9 3 24 20 24 8 0 13 -4 10 -9z m-54 -102 c0 -3 -4 -8 -10 -11
-5 -3 -10 -1 -10 4 0 6 5 11 10 11 6 0 10 -2 10 -4z m2303 -21 c-3 -9 -8 -14
-10 -11 -3 3 -2 9 2 15 9 16 15 13 8 -4z m-2339 -27 c1 -13 -11 -42 -26 -65
-20 -29 -24 -43 -15 -46 7 -3 5 -6 -5 -6 -11 -1 -16 6 -15 18 0 11 5 17 9 15
5 -3 7 6 4 21 -4 21 -2 24 9 15 17 -14 26 7 13 33 -6 12 -5 17 4 15 8 -2 12 5
10 17 -2 11 -1 17 3 13 4 -4 8 -18 9 -30z m-244 -253 c0 -2 -6 -5 -13 -8 -8
-3 -14 1 -14 8 0 7 6 11 14 8 7 -3 13 -6 13 -8z m-559 -85 c6 0 8 4 5 9 -3 4
4 8 15 7 27 -1 39 -24 28 -53 -11 -31 -11 -36 0 -28 5 3 13 0 17 -6 5 -9 0
-10 -14 -7 -13 4 -22 1 -22 -5 0 -7 -5 -5 -10 3 -9 14 -15 6 -10 -15 1 -5 -2
-7 -6 -2 -4 4 -17 -1 -28 -10 -21 -18 -21 -18 -5 2 9 11 15 26 13 33 -1 7 0 8
3 2 12 -24 20 3 10 35 -5 19 -14 32 -18 29 -5 -3 -6 3 -2 12 4 11 8 13 11 6 2
-7 8 -12 13 -12z m-91 -9 c-5 -11 -15 -23 -21 -27 -6 -3 -3 5 6 20 20 30 30
35 15 7z m-48 -16 c4 -5 8 -14 8 -20 0 -5 -5 -3 -10 5 -8 12 -10 12 -10 -5 -1
-18 -2 -18 -10 3 -13 31 -21 28 -15 -5 4 -23 4 -25 -4 -8 -7 15 -10 16 -11 5
-2 -8 -2 -19 0 -25 1 -5 -4 -4 -11 2 -10 10 -16 10 -28 1 -13 -10 -14 -10 -3
2 15 18 16 34 0 24 -7 -5 -8 -3 -3 6 6 10 11 10 20 -3 11 -15 13 -14 23 7 11
24 40 30 54 11z m3573 -113 c83 -78 203 -241 254 -345 42 -87 92 -234 111
-335 16 -78 8 -298 -13 -372 -23 -81 -69 -194 -61 -150 10 63 10 89 0 83 -5
-4 -7 1 -3 10 3 9 1 19 -5 23 -7 5 -8 2 -3 -6 6 -9 4 -11 -4 -6 -7 5 -10 13
-8 20 7 17 -45 15 -58 -2 -8 -10 -11 -9 -12 7 -1 11 11 34 26 50 16 17 26 33
23 35 -3 3 3 8 12 12 9 3 14 10 11 14 -3 4 2 13 10 20 18 15 20 31 3 27 -8 -1
-13 7 -12 20 0 12 -4 19 -9 16 -5 -3 -7 0 -5 8 3 8 11 13 17 11 7 -1 9 2 6 8
-5 8 -13 6 -24 -4 -10 -9 -21 -13 -24 -9 -4 3 -7 0 -7 -7 0 -7 -3 -10 -6 -7
-4 4 -1 13 6 22 14 17 5 69 -10 60 -6 -4 -8 7 -6 27 3 18 5 37 5 42 1 4 10 6
22 3 12 -3 18 -3 15 0 -3 4 0 13 7 22 11 14 10 15 -7 1 -18 -14 -18 -14 -6 7
13 20 15 20 27 5 7 -9 13 -23 13 -29 0 -7 4 -13 9 -13 16 0 44 -84 51 -155 7
-69 7 -69 8 35 1 58 -3 134 -8 170 -32 199 -157 436 -325 615 -67 72 -88 105
-67 105 4 0 25 -17 47 -38z m-3430 6 c0 -6 6 -13 14 -16 8 -3 11 0 7 7 -4 6 0
11 11 11 16 0 16 -1 0 -17 -18 -19 -39 -8 -43 23 -1 9 1 13 4 9 4 -4 7 -12 7
-17z m-191 -86 c3 -5 -1 -9 -9 -9 -8 0 -12 4 -9 9 3 4 7 8 9 8 2 0 6 -4 9 -8z
m3377 -45 c-10 -9 -11 -8 -5 6 3 10 9 15 12 12 3 -3 0 -11 -7 -18z m279 -401
c0 -3 -4 -8 -10 -11 -5 -3 -10 -1 -10 4 0 6 5 11 10 11 6 0 10 -2 10 -4z m-27
-158 c-4 -19 -3 -20 6 -8 7 9 11 10 11 3 0 -6 -5 -15 -10 -18 -6 -4 -8 -10 -5
-15 3 -4 -3 -7 -12 -5 -21 3 -53 -22 -49 -38 2 -7 1 -9 -1 -4 -3 4 -10 4 -16
0 -8 -5 -8 -2 0 9 7 8 11 18 8 21 -3 4 -2 5 2 2 10 -8 43 26 36 38 -3 5 -1 7
4 4 6 -4 13 2 16 13 7 28 16 25 10 -2z m-22 -93 c14 9 11 -1 -4 -13 -10 -8
-13 -5 -14 16 0 15 1 19 4 9 2 -9 9 -15 14 -12z m-3684 0 c0 -8 -4 -12 -9 -9
-5 3 -6 10 -3 15 9 13 12 11 12 -6z m3593 -11 c0 -8 -19 -13 -24 -6 -3 5 1 9
9 9 8 0 15 -2 15 -3z m300 -24 c0 -5 -8 -10 -17 -10 -15 0 -16 2 -3 10 19 12
20 12 20 0z m30 -9 c0 -6 -4 -12 -8 -15 -5 -3 -9 1 -9 9 0 8 4 15 9 15 4 0 8
-4 8 -9z m-117 -121 c-7 -27 -13 -25 -11 4 1 14 5 23 9 20 4 -2 5 -13 2 -24z
m534 -162 c-3 -7 -5 -2 -5 12 0 14 2 19 5 13 2 -7 2 -19 0 -25z m-465 5 c-6
-3 -9 -10 -6 -15 4 -7 2 -8 -5 -4 -9 6 -9 11 0 22 6 8 15 12 18 8 3 -4 0 -9
-7 -11z m434 -156 c-29 -114 -82 -239 -160 -375 -30 -54 -64 -122 -76 -152
-11 -30 -29 -71 -38 -90 -19 -40 -20 -76 -24 -738 -2 -313 0 -402 9 -402 7 0
15 -11 19 -25 3 -14 12 -25 20 -25 19 0 18 -29 -1 -36 -10 -4 -15 -20 -15 -44
0 -24 5 -40 15 -44 8 -3 15 -12 15 -20 0 -17 -42 -32 -59 -21 -8 4 -11 -31
-11 -109 l0 -116 33 0 c40 0 62 -13 54 -33 -5 -12 -15 -14 -43 -10 -27 4 -35
3 -30 -5 4 -7 16 -12 27 -12 23 0 59 -34 59 -55 0 -31 -40 -57 -81 -53 -37 3
-39 2 -40 -27 -1 -16 -1 -33 0 -37 0 -5 -4 -8 -10 -8 -5 0 -8 -4 -5 -9 3 -5 0
-11 -8 -14 -10 -4 -16 8 -21 49 -7 55 -7 55 -36 49 -86 -19 -144 80 -83 142
22 22 31 25 70 19 l44 -6 0 114 c0 93 -3 115 -15 120 -22 8 -20 222 3 235 12
7 15 53 16 297 1 252 -2 298 -18 359 -10 39 -20 71 -21 73 -2 2 -20 -2 -42 -8
-27 -8 -46 -9 -66 -1 -26 10 -28 14 -22 44 4 17 20 58 36 90 16 31 25 57 21
57 -15 0 -81 -48 -227 -165 -152 -122 -332 -255 -346 -255 -4 0 -30 -13 -56
-30 -26 -17 -43 -30 -38 -30 5 0 -7 -11 -27 -25 -20 -14 -42 -25 -47 -25 -6 0
-11 -4 -11 -10 0 -5 -5 -10 -10 -10 -6 0 -26 -17 -46 -37 -20 -21 -33 -31 -28
-23 7 13 5 13 -9 1 -9 -7 -14 -18 -10 -25 3 -6 3 -8 -2 -4 -11 10 -37 -11 -29
-23 3 -5 0 -8 -7 -7 -7 2 -13 -2 -14 -9 0 -6 -4 -15 -9 -20 -5 -5 -6 -3 -2 5
14 25 -8 11 -41 -25 -71 -78 -87 -103 -74 -116 10 -9 11 -8 5 7 -6 15 -4 18 9
13 12 -4 14 -2 10 10 -4 11 -2 14 5 9 8 -5 10 -1 5 11 -6 17 -5 17 14 0 11 -9
24 -14 28 -10 5 5 3 0 -4 -9 -7 -9 -10 -26 -6 -38 5 -15 1 -22 -19 -30 -14 -5
-26 -14 -26 -19 0 -5 -15 -25 -32 -44 -107 -113 -145 -155 -158 -176 -8 -13
-20 -29 -27 -36 -7 -7 -9 -15 -6 -19 4 -3 1 -6 -6 -6 -7 0 -9 -5 -6 -10 3 -5
1 -10 -5 -10 -6 0 -8 -4 -5 -10 3 -5 2 -10 -4 -10 -7 0 -7 -8 -1 -25 8 -20 6
-27 -9 -34 -10 -6 -21 -8 -25 -6 -3 3 -2 0 3 -6 5 -6 7 -18 4 -25 -3 -8 0 -14
7 -14 6 0 8 6 4 13 -4 6 -3 8 1 4 5 -4 10 -14 11 -22 2 -11 -2 -12 -16 -5 -13
7 -20 6 -24 -3 -3 -6 -3 0 -1 16 2 16 0 25 -6 22 -5 -4 -7 -10 -4 -15 3 -5 1
-11 -5 -15 -6 -4 -7 -11 -4 -17 4 -6 2 -8 -4 -4 -6 3 -13 2 -17 -4 -4 -6 -11
-8 -16 -4 -5 3 -7 10 -4 15 4 5 1 9 -4 9 -6 0 -11 -8 -12 -17 0 -11 -3 -13 -6
-5 -3 8 -11 5 -24 -10 -10 -13 -18 -17 -19 -10 0 6 5 12 10 12 6 0 10 4 10 8
0 5 -7 9 -15 9 -8 0 -13 -2 -11 -4 2 -3 -2 -20 -10 -38 -8 -19 -14 -62 -14
-96 0 -72 -23 -80 -28 -8 -2 24 -9 47 -15 51 -7 4 -36 8 -65 8 l-54 0 4 -47
c1 -27 -1 -50 -7 -53 -14 -7 -19 200 -5 214 7 7 10 -6 10 -43 l0 -53 53 6 c72
7 77 8 72 16 -9 14 16 80 30 80 8 0 15 4 15 9 0 27 413 534 576 706 78 83 157
175 177 206 19 30 55 71 79 91 46 37 91 98 102 135 7 20 5 21 -28 11 -29 -9
-40 -8 -62 7 l-28 18 50 25 c27 14 62 27 79 29 16 2 39 13 50 24 l20 21 -28
-17 c-15 -10 -30 -15 -33 -13 -7 8 57 55 159 118 49 30 101 67 115 81 15 14
70 56 122 94 216 156 287 209 324 244 22 21 34 27 28 16 -25 -47 -240 -217
-364 -288 -20 -12 -39 -30 -42 -40 -2 -10 -10 -16 -16 -15 -7 2 -14 -5 -15
-15 -3 -17 -2 -17 14 -3 10 9 22 16 28 16 11 0 101 46 121 62 7 6 15 9 17 6 6
-6 -111 -111 -210 -188 -99 -78 -97 -76 -133 -106 -18 -14 -31 -29 -28 -31 4
-5 97 51 345 206 74 47 81 50 63 24 -11 -15 -36 -44 -56 -62 -20 -19 -36 -39
-36 -45 0 -34 236 242 333 389 106 161 200 378 224 515 4 25 9 36 11 25 1 -11
-9 -64 -22 -118z m-4885 -30 c-6 -8 -8 -16 -5 -20 3 -3 -1 -4 -10 -3 -9 1 -21
7 -28 14 -9 9 -6 11 10 7 12 -2 24 0 27 6 4 5 9 9 12 9 3 0 0 -6 -6 -13z m-22
-44 c2 -1 -6 -1 -17 0 -12 0 -19 3 -17 6 3 2 -1 11 -7 20 -8 10 -3 8 12 -4 14
-11 27 -21 29 -22z m-68 -56 c-10 -9 -11 -8 -5 6 3 10 9 15 12 12 3 -3 0 -11
-7 -18z m64 3 c7 0 15 5 17 12 3 8 7 6 11 -5 3 -9 3 -18 -1 -21 -12 -7 -52 13
-51 26 0 10 2 10 6 1 2 -7 11 -13 18 -13z m109 -31 c-3 -5 -9 -7 -14 -4 -4 3
-10 0 -12 -7 -3 -7 -7 -5 -11 6 -4 9 -3 15 2 11 5 -3 12 -1 16 5 4 6 11 8 16
4 5 -3 7 -10 3 -15z m4596 -34 c-7 -8 -18 -15 -24 -15 -6 0 -2 7 8 15 25 19
32 19 16 0z m-70 -55 c-28 -23 -110 -71 -110 -65 0 8 114 85 124 85 6 0 0 -9
-14 -20z m-5697 -101 c-8 -8 -13 -7 -18 2 -5 8 -4 10 3 5 7 -4 12 -2 12 5 0 7
3 9 7 6 4 -4 2 -12 -4 -18z m-153 -93 c0 -2 -8 -10 -17 -17 -16 -13 -17 -12
-4 4 13 16 21 21 21 13z m-299 -219 c-10 -9 -11 -8 -5 6 3 10 9 15 12 12 3 -3
0 -11 -7 -18z m7180 -224 c13 -16 12 -17 -3 -4 -10 7 -18 15 -18 17 0 8 8 3
21 -13z m39 -7 c0 -3 -4 -8 -10 -11 -5 -3 -10 -1 -10 4 0 6 5 11 10 11 6 0 10
-2 10 -4z m-1956 -113 c-8 -29 -21 -43 -64 -65 -14 -6 -46 -27 -72 -46 -27
-19 -53 -30 -59 -26 -8 4 -9 3 -5 -4 4 -7 1 -12 -6 -12 -7 0 -13 11 -13 24 0
13 3 22 6 20 4 -2 30 15 58 37 28 22 51 37 51 32 0 -4 4 -3 8 3 8 12 83 63 95
63 4 1 4 -11 1 -26z m416 -47 c0 -2 -17 -16 -37 -31 l-38 -28 29 31 c26 28 46
40 46 28z m1521 -53 c13 -16 12 -17 -3 -4 -10 7 -18 15 -18 17 0 8 8 3 21 -13z
m-2191 -74 c0 -10 -39 -18 -45 -9 -2 4 -2 10 1 13 8 8 44 4 44 -4z m-4683 -60
c35 -12 63 -26 63 -31 0 -5 4 -6 10 -3 5 3 31 -2 57 -11 46 -15 170 -49 223
-60 14 -3 34 -11 45 -18 11 -7 40 -16 65 -19 25 -3 97 -18 160 -32 98 -22 221
-47 295 -61 304 -54 304 -54 310 -65 3 -4 12 -6 19 -3 19 7 299 -62 372 -92
82 -34 131 -76 158 -138 25 -56 65 -95 173 -168 126 -85 442 -287 556 -355
111 -66 205 -133 261 -186 30 -28 25 -37 -7 -12 -11 7 -25 11 -32 9 -7 -3 -16
-1 -19 5 -4 6 -13 8 -21 4 -8 -3 -15 0 -15 7 0 7 -8 10 -20 7 -11 -3 -20 -2
-20 2 0 4 -6 8 -12 9 -7 0 -26 3 -43 7 -62 12 -141 27 -160 30 -11 2 -21 4
-22 4 -2 1 -5 0 -6 -1 -2 -2 -12 4 -22 12 -17 13 -18 13 -10 0 8 -13 6 -13 -8
-2 -9 8 -20 11 -26 8 -5 -3 -11 1 -15 9 -3 8 -14 15 -24 15 -10 0 -24 6 -31
13 -11 10 -12 9 -6 -3 5 -8 -4 -4 -18 9 -17 15 -33 22 -47 18 -14 -3 -23 0
-27 10 -5 12 -7 12 -14 1 -7 -11 -9 -11 -9 1 0 8 -7 11 -20 8 -11 -3 -23 0
-27 5 -4 7 -1 8 7 3 9 -5 11 -4 6 4 -6 9 -11 9 -22 0 -11 -9 -15 -8 -20 5 -3
9 -10 13 -15 10 -5 -3 -9 0 -9 7 0 7 -3 9 -7 6 -3 -4 -12 -2 -20 4 -7 6 -13 8
-13 4 0 -4 -11 0 -24 8 -16 11 -27 12 -34 5 -6 -6 -12 -6 -17 3 -6 8 -4 10 6
4 12 -8 12 -6 1 8 -8 9 -17 16 -20 15 -4 0 -9 1 -12 2 -3 1 -18 3 -35 5 -23 3
-26 2 -10 -4 11 -5 23 -7 26 -5 3 2 6 -3 6 -10 0 -11 -8 -10 -33 4 -18 10 -35
16 -38 13 -3 -3 -3 4 -1 17 3 18 2 20 -10 10 -8 -7 -15 -9 -15 -4 0 5 -5 2
-10 -6 -8 -11 -9 -9 -6 11 4 25 2 26 -30 23 -25 -2 -33 0 -28 9 5 9 3 8 -7 0
-19 -19 -34 -16 -18 4 13 15 12 15 -11 3 -24 -13 -24 -12 -10 5 14 17 14 18
-10 5 -23 -12 -24 -12 -12 3 12 14 11 16 -7 12 -11 -2 -20 -1 -20 3 3 21 -3
32 -17 32 -9 0 -12 5 -8 12 5 8 2 9 -10 5 -9 -4 -14 -3 -11 2 3 5 1 13 -5 16
-8 5 -7 12 2 23 10 12 10 14 1 8 -8 -4 -13 -2 -13 4 0 6 -5 8 -12 4 -8 -5 -7
0 2 11 13 17 13 18 -1 13 -13 -5 -16 -2 -12 12 3 10 0 21 -6 24 -5 4 -8 13 -4
21 20 54 -128 111 -490 190 -439 96 -948 228 -934 241 3 3 70 -12 149 -34 167
-47 423 -110 593 -147 66 -14 138 -30 160 -35 22 -5 112 -20 200 -34 88 -14
206 -36 263 -49 56 -14 102 -22 102 -18 -1 3 -54 33 -120 66 -66 33 -120 65
-120 70 -1 29 -157 92 -310 125 -52 11 -102 22 -110 24 -15 3 -73 14 -120 22
-14 3 -59 13 -100 24 -41 10 -102 22 -135 26 -33 3 -71 11 -85 17 -14 6 -27
11 -30 12 -3 0 -30 7 -60 14 -30 7 -74 20 -97 28 -23 9 -49 13 -57 10 -9 -4
-19 1 -24 9 -5 8 -15 17 -23 18 -8 2 -40 15 -72 30 -32 14 -59 26 -62 26 -2 0
-43 19 -92 42 -48 23 -90 42 -93 43 -21 7 -60 25 -60 29 0 5 129 -29 207 -55z
m5369 -39 c-6 -124 -39 -143 -65 -38 -8 29 -20 61 -28 70 -13 15 -10 18 34 31
26 8 51 15 56 16 4 1 5 -35 3 -79z m-5321 -206 l30 -13 -30 6 c-16 3 -43 12
-60 19 l-30 13 30 -6 c17 -3 44 -12 60 -19z m4650 -63 c3 -5 2 -12 -3 -15 -5
-3 -9 1 -9 9 0 17 3 19 12 6z m-30 -32 c-3 -12 -7 -24 -10 -27 -3 -3 -3 5 -1
19 6 30 5 29 10 29 3 0 3 -10 1 -21z m-25 -19 c0 -5 -2 -10 -4 -10 -3 0 -8 5
-11 10 -3 6 -1 10 4 10 6 0 11 -4 11 -10z m-2390 -150 c65 -33 101 -84 52 -75
-9 2 -25 4 -34 4 -11 1 -18 9 -18 21 0 10 -12 31 -27 45 -33 30 -25 32 27 5z
m2385 -93 c0 -77 -3 -100 -17 -113 -20 -21 -71 -23 -93 -4 -23 19 -3 35 24 18
16 -10 25 -10 39 -2 14 9 17 28 19 95 1 46 2 90 2 97 1 8 7 12 14 9 8 -3 12
-32 12 -100z m264 7 c37 -96 36 -96 78 13 25 67 52 95 54 58 5 -79 -2 -208
-11 -199 -5 5 -10 43 -12 84 l-3 75 -30 -78 c-17 -43 -35 -79 -40 -79 -5 0
-23 36 -39 79 l-31 78 -5 -78 c-7 -116 -25 -100 -28 26 -2 97 -1 107 15 107
13 0 27 -23 52 -86z m476 72 c16 -11 17 -17 7 -29 -10 -12 -19 -13 -41 -4 -31
11 -65 3 -59 -15 2 -6 24 -17 48 -24 70 -21 91 -68 50 -112 -39 -42 -164 -22
-147 23 5 12 12 15 25 9 9 -4 33 -8 52 -8 49 -1 46 25 -5 42 -74 24 -97 70
-55 112 24 24 96 27 125 6z m555 -17 c0 -29 2 -30 31 -24 51 11 69 -14 69 -97
0 -66 -1 -68 -25 -68 -24 0 -25 3 -25 60 0 57 -1 60 -25 60 -22 0 -24 -4 -27
-57 -3 -51 -6 -58 -25 -61 -23 -3 -23 -2 -23 107 l0 111 25 0 c21 0 25 -5 25
-31z m-286 -35 c12 -11 16 -35 16 -85 0 -61 -2 -69 -19 -69 -15 0 -20 11 -25
61 -6 55 -9 60 -29 57 -19 -3 -22 -10 -25 -60 -3 -50 -6 -58 -22 -58 -18 0
-20 7 -20 61 0 57 -1 60 -22 57 -20 -3 -23 -10 -26 -60 -3 -50 -6 -58 -22 -58
-18 0 -20 7 -20 79 l0 79 60 1 c32 0 62 -4 65 -9 4 -6 15 -4 28 5 27 19 42 19
61 -1z m-3514 -83 c0 -11 4 -23 10 -26 5 -3 7 0 4 8 -3 8 3 17 12 21 22 9 122
-3 149 -17 19 -10 19 -10 0 -18 -14 -5 -15 -8 -5 -8 9 -1 20 3 26 9 6 6 15 6
24 0 13 -8 12 -10 -2 -10 -10 0 -18 -6 -18 -14 0 -15 40 -10 51 6 7 11 41 -1
33 -13 -3 -5 2 -6 10 -3 9 3 16 2 16 -3 0 -5 6 -10 13 -10 17 0 132 -51 190
-85 26 -15 58 -30 72 -34 13 -3 29 -12 36 -20 6 -8 18 -14 25 -14 13 0 19 -13
14 -35 -1 -5 4 -5 11 2 16 16 78 -25 80 -52 l0 -20 9 20 c8 17 8 17 7 -7 -1
-17 -5 -24 -12 -19 -5 5 -21 7 -35 5 -18 -3 -21 -2 -10 5 8 5 17 8 21 5 10 -6
5 24 -6 33 -4 4 -5 2 -1 -5 4 -7 0 -15 -11 -19 -10 -4 -26 -16 -36 -28 -12
-14 -16 -15 -15 -5 2 10 -7 16 -27 18 -16 2 -34 8 -39 13 -6 5 -18 9 -28 9
-11 0 -38 9 -61 21 -42 20 -42 20 -17 0 14 -11 33 -23 43 -27 9 -3 17 -11 17
-19 0 -7 8 -12 18 -10 9 1 24 -1 33 -6 9 -5 20 -4 26 2 8 8 13 7 18 0 3 -6 3
-11 -2 -10 -4 1 -10 0 -13 -1 -18 -7 -60 -4 -60 5 0 5 -5 3 -10 -7 -6 -10 -18
-14 -32 -11 -38 8 -68 25 -61 36 3 6 1 7 -6 3 -13 -8 -74 31 -66 43 5 9 -19
33 -52 50 -33 17 -28 5 5 -13 15 -9 20 -15 12 -16 -25 0 -62 31 -56 47 3 8 2
12 -3 8 -5 -3 -12 1 -14 7 -4 9 -6 9 -6 -2 -1 -8 27 -41 62 -74 34 -33 49 -50
32 -38 -16 13 -47 34 -67 47 -20 13 -41 32 -47 42 -6 10 -11 14 -11 9 0 -5 -7
-3 -15 4 -8 7 -12 16 -9 21 3 5 0 10 -5 10 -6 1 -15 3 -21 4 -5 1 -15 3 -21 4
-5 0 -8 5 -5 10 3 4 -6 7 -19 5 -16 -1 -31 6 -43 20 -9 13 -23 21 -30 18 -6
-2 -15 3 -18 12 -3 8 -12 12 -19 10 -15 -6 -47 35 -38 49 3 6 1 7 -5 3 -7 -4
-17 4 -24 20 -10 22 -10 28 0 32 7 2 10 8 6 13 -3 5 0 9 5 9 6 0 11 -9 11 -19z
m2578 -59 c2 -7 -3 -12 -12 -12 -9 0 -16 7 -16 16 0 17 22 14 28 -4z m402 3
c0 -8 -4 -15 -10 -15 -5 0 -10 7 -10 15 0 8 5 15 10 15 6 0 10 -7 10 -15z
m-753 -161 c-3 -3 -12 -4 -19 -1 -8 3 -5 6 6 6 11 1 17 -2 13 -5z m158 -44
c24 -26 13 -37 -17 -16 -34 24 -67 20 -99 -15 -46 -50 -33 -121 27 -145 25
-10 35 -10 62 3 18 9 35 13 39 10 11 -12 -19 -36 -53 -43 -116 -22 -183 133
-90 208 31 25 108 24 131 -2z m263 -62 c18 -49 33 -77 36 -68 3 8 16 44 28 80
18 51 28 66 46 68 30 5 29 -8 -15 -122 -35 -95 -37 -97 -67 -94 -28 3 -32 9
-68 103 -21 55 -38 103 -38 108 0 4 11 7 24 7 21 0 28 -10 54 -82z m672 17
l45 -64 5 62 c4 55 8 62 28 65 22 3 22 2 22 -107 0 -110 0 -111 -24 -111 -17
0 -34 16 -67 63 l-44 62 -3 -62 c-3 -59 -4 -63 -27 -63 l-25 0 0 110 c0 107 1
110 23 110 16 0 34 -18 67 -65z m-3703 13 c-3 -8 -6 -5 -6 6 -1 11 2 17 5 13
3 -3 4 -12 1 -19z m768 12 c3 -5 1 -10 -4 -10 -6 0 -11 5 -11 10 0 6 2 10 4
10 3 0 8 -4 11 -10z m2520 -34 c14 -10 20 -30 23 -80 l4 -66 -33 0 c-19 0 -44
-3 -56 -6 -23 -6 -63 25 -63 51 0 29 40 58 71 51 22 -4 29 -2 29 11 0 12 -8
15 -39 10 -29 -3 -41 -1 -45 9 -11 29 75 45 109 20z m190 -2 c10 -11 15 -36
15 -80 0 -57 -2 -64 -20 -64 -17 0 -20 7 -20 44 0 56 -8 76 -29 76 -29 0 -41
-22 -41 -72 0 -41 -3 -48 -20 -48 -18 0 -20 7 -20 73 0 41 2 76 5 78 12 13
116 6 130 -7z m794 7 c8 -5 11 -16 8 -24 -4 -12 -15 -14 -41 -10 -24 4 -36 2
-36 -6 0 -6 10 -11 23 -11 37 0 69 -28 65 -58 -4 -38 -46 -59 -94 -47 -41 11
-49 22 -34 45 7 12 12 12 22 2 15 -15 58 -16 58 -2 0 6 -14 13 -31 17 -17 3
-37 16 -46 29 -14 22 -14 26 1 49 13 19 25 25 54 25 20 0 43 -4 51 -9z m-2719
-85 c0 -8 -8 -20 -17 -27 -16 -12 -17 -12 -5 2 7 9 9 25 5 34 -4 13 -3 16 5
11 7 -4 12 -13 12 -20z m64 -1 c2 -7 0 -18 -6 -26 -8 -11 -9 -10 -4 4 3 9 1
17 -4 17 -6 0 -10 -5 -10 -11 0 -6 -7 -4 -15 5 -20 20 -19 22 10 22 13 0 26
-5 29 -11z m-255 -21 c-9 -11 -8 -14 7 -15 18 0 18 -1 -1 -8 -26 -11 -36 -5
-28 17 6 15 5 16 -12 2 -11 -9 -16 -10 -11 -2 4 7 2 12 -6 13 -7 1 -2 4 12 8
35 11 54 3 39 -15z m1117 -25 c10 -17 -13 -36 -27 -22 -12 12 -4 33 11 33 5 0
12 -5 16 -11z m-576 -3 c0 -2 -8 -10 -17 -17 -16 -13 -17 -12 -4 4 13 16 21
21 21 13z m948 -8 c-6 -18 -28 -21 -28 -4 0 9 7 16 16 16 9 0 14 -5 12 -12z
m-4440 -179 l18 -42 12 42 c10 33 17 41 36 41 22 0 24 -5 31 -71 4 -38 5 -73
2 -76 -15 -14 -37 9 -38 39 l-1 33 -15 -37 c-19 -46 -40 -49 -57 -8 -14 33
-26 30 -26 -7 0 -14 -6 -23 -15 -23 -16 0 -21 59 -9 119 10 47 40 42 62 -10z
m197 -9 c0 -8 -10 -16 -23 -18 -17 -3 -22 -9 -20 -25 2 -17 9 -21 26 -19 18 3
23 -1 20 -15 -4 -24 -51 -29 -72 -8 -21 21 -21 63 1 87 20 22 68 21 68 -2z
m3980 -85 c15 -41 30 -73 35 -70 4 2 20 38 36 80 21 54 34 75 46 75 16 0 18
-11 18 -110 0 -131 -18 -150 -22 -22 l-3 87 -34 -83 c-18 -45 -37 -84 -41 -87
-4 -2 -23 35 -41 83 l-34 87 -3 -87 c-1 -49 -7 -88 -12 -88 -6 0 -11 39 -11
88 -1 48 -2 94 -3 102 -1 8 3 21 8 28 14 20 31 -2 61 -83z m405 0 c37 -96 36
-96 77 12 20 53 33 73 45 73 16 0 18 -11 18 -104 0 -59 -4 -108 -10 -111 -6
-4 -10 26 -10 81 0 101 -6 101 -47 0 -16 -37 -32 -69 -37 -69 -4 -1 -23 34
-42 78 l-33 80 -1 -82 c0 -45 -4 -84 -9 -87 -14 -9 -18 13 -20 117 -2 90 -1
97 17 97 15 0 27 -19 52 -85z m493 -14 c20 -55 37 -104 37 -110 0 -19 -39 -12
-50 9 -8 15 -21 20 -55 20 -35 0 -45 -4 -50 -20 -6 -19 -55 -30 -55 -12 0 4
17 53 37 109 37 100 39 103 69 103 30 0 32 -3 67 -99z m107 64 c0 -32 2 -35
19 -25 29 15 39 13 66 -15 27 -26 32 -68 13 -109 -13 -30 -27 -35 -93 -33
l-50 2 -3 108 -3 107 26 0 c22 0 25 -4 25 -35z m180 0 c0 -33 2 -35 21 -25 32
18 76 -5 89 -45 23 -68 -39 -139 -92 -106 -11 7 -18 7 -18 1 0 -5 -9 -10 -20
-10 -19 0 -20 7 -20 110 0 103 1 110 20 110 16 0 20 -7 20 -35z m377 6 c3 -11
11 -22 19 -25 19 -7 18 -46 -1 -46 -11 0 -15 -11 -15 -40 0 -29 4 -40 15 -40
8 0 15 -9 15 -20 0 -16 -7 -20 -30 -20 -36 0 -50 23 -50 79 0 23 -4 41 -10 41
-14 0 -12 22 6 58 17 36 43 42 51 13z m110 0 c3 -11 11 -22 19 -25 19 -7 18
-46 -1 -46 -11 0 -15 -11 -15 -40 0 -29 4 -40 15 -40 8 0 15 -9 15 -20 0 -16
-7 -20 -30 -20 -36 0 -50 23 -50 79 0 23 -4 41 -10 41 -14 0 -12 22 6 58 17
36 43 42 51 13z m-200 -64 c39 -69 -24 -153 -94 -126 -38 14 -52 38 -53 86 0
33 5 46 26 62 15 12 35 21 46 21 13 0 17 4 12 12 -5 7 5 2 21 -11 17 -12 35
-32 42 -44z m-5617 -37 c20 -12 3 -28 -35 -32 -27 -3 -30 -7 -30 -38 0 -30 4
-35 25 -38 24 -3 24 -3 5 12 -25 18 -9 39 26 34 26 -3 37 -41 20 -68 -14 -20
-86 -19 -107 2 -26 26 -22 97 6 120 24 19 66 23 90 8z m100 -46 c0 -8 -7 -17
-15 -20 -9 -4 -15 -19 -15 -40 0 -27 -4 -34 -20 -34 -18 0 -20 7 -20 54 l0 54
35 0 c24 0 35 -5 35 -14z m89 2 c7 -8 11 -34 9 -58 -3 -41 -4 -43 -38 -44 -65
-4 -85 46 -27 71 26 12 28 14 10 15 -23 0 -37 13 -26 24 12 11 60 6 72 -8z
m55 -8 l7 -23 9 23 c13 30 36 28 48 -5 10 -26 10 -26 11 -5 1 22 26 41 38 29
3 -3 0 -29 -7 -56 -10 -44 -15 -51 -36 -51 -18 0 -24 6 -25 23 l0 22 -11 -22
c-14 -29 -36 -36 -47 -15 -14 27 -30 90 -23 96 12 13 30 5 36 -16z m4114 -26
c2 -7 -3 -12 -12 -12 -9 0 -16 7 -16 16 0 17 22 14 28 -4z m402 3 c0 -8 -4
-15 -10 -15 -5 0 -10 7 -10 15 0 8 5 15 10 15 6 0 10 -7 10 -15z m-4828 -122
c4 -39 36 -43 40 -6 2 17 10 29 21 31 15 3 17 -6 17 -72 0 -69 -2 -76 -20 -76
-16 0 -20 7 -20 31 0 24 -4 30 -17 27 -11 -2 -19 -14 -21 -31 -2 -19 -9 -27
-23 -27 -17 0 -19 7 -19 68 0 38 3 72 7 75 15 15 32 5 35 -20z m136 4 c2 -12
-3 -17 -17 -17 -12 0 -21 6 -21 13 0 31 32 34 38 4z m62 -52 c0 -68 -2 -75
-20 -75 -18 0 -20 7 -20 75 0 68 2 75 20 75 18 0 20 -7 20 -75z m50 -1 c0 -66
-2 -75 -17 -72 -14 3 -19 15 -21 62 -4 68 1 86 23 86 12 0 15 -14 15 -76z
m-112 -27 c3 -42 1 -47 -17 -47 -18 0 -21 6 -21 43 0 24 3 47 7 51 16 15 28
-3 31 -47z m4075 -74 l35 -88 17 39 c9 21 25 59 34 85 10 25 26 47 35 49 14 3
16 -11 16 -107 0 -132 -18 -151 -22 -23 l-3 87 -34 -83 c-18 -45 -37 -84 -40
-87 -4 -2 -24 35 -44 83 l-36 87 0 -87 c-1 -52 -5 -88 -11 -88 -6 0 -10 43
-10 110 0 140 14 145 63 23z m487 77 c0 -5 -16 -10 -35 -10 l-35 0 0 -100 c0
-60 -4 -100 -10 -100 -6 0 -10 40 -10 100 l0 100 -35 0 c-19 0 -35 5 -35 10 0
6 33 10 80 10 47 0 80 -4 80 -10z m294 -3 c25 -18 11 -50 -18 -40 -11 4 -32 7
-46 7 -42 1 -28 -25 24 -45 54 -20 66 -32 66 -66 0 -39 -34 -63 -88 -63 -56 0
-89 19 -79 45 5 12 12 15 25 9 9 -4 33 -8 52 -8 53 -1 45 25 -14 46 -53 19
-66 31 -66 65 0 52 96 85 144 50z m336 -7 c0 -13 -7 -20 -20 -20 -13 0 -20 7
-20 20 0 13 7 20 20 20 13 0 20 -7 20 -20z m80 -14 c0 -34 1 -35 35 -29 53 9
65 -8 65 -88 0 -62 -2 -69 -20 -69 -18 0 -20 7 -20 61 0 60 0 60 -27 57 -27
-3 -28 -6 -31 -60 -3 -50 -6 -58 -22 -58 -19 0 -20 8 -20 110 0 103 1 110 20
110 16 0 20 -7 20 -34z m480 -6 c0 -11 7 -20 15 -20 8 0 15 -9 15 -20 0 -11
-7 -20 -15 -20 -11 0 -15 -11 -15 -40 0 -27 5 -43 15 -46 20 -8 19 -30 -1 -38
-19 -7 -50 8 -58 30 -3 8 -6 33 -6 55 0 21 -4 39 -10 39 -5 0 -10 9 -10 20 0
11 5 20 10 20 6 0 10 9 10 20 0 15 7 20 25 20 18 0 25 -5 25 -20z m-223 -32
c8 -7 13 -36 13 -78 l0 -67 -47 -7 c-56 -7 -93 12 -93 49 0 34 26 55 66 55 22
0 33 4 29 11 -4 6 -23 9 -44 7 -26 -2 -36 1 -36 12 0 34 78 47 112 18z m-588
-34 c13 -51 21 -50 36 4 15 54 46 51 64 -6 15 -48 25 -46 38 8 7 25 16 36 31
38 12 2 22 2 22 0 0 -2 -11 -37 -23 -78 -19 -59 -28 -76 -44 -78 -17 -2 -24 5
-33 35 -18 57 -26 59 -41 11 -10 -31 -20 -44 -36 -46 -19 -3 -24 5 -42 66 -26
85 -26 92 -2 92 14 0 22 -12 30 -46z m251 -34 c0 -73 -2 -80 -20 -80 -18 0
-20 7 -20 80 0 73 2 80 20 80 18 0 20 -7 20 -80z m480 60 c0 -11 -10 -20 -25
-24 -23 -6 -25 -11 -25 -61 0 -48 -2 -55 -20 -55 -18 0 -20 7 -20 79 l0 79 45
0 c36 -1 45 -5 45 -18z m-5780 -20 c0 -5 -9 -10 -20 -10 -27 0 -25 -18 3 -23
l22 -4 -22 -8 c-28 -9 -30 -25 -3 -25 11 0 20 -5 20 -11 0 -6 -14 -9 -32 -7
-32 3 -33 5 -36 51 l-3 47 35 0 c20 0 36 -4 36 -10z m80 -40 c0 -49 -1 -50
-30 -50 -18 0 -33 7 -38 18 -12 22 3 62 23 62 8 0 15 5 15 10 0 6 7 10 15 10
11 0 15 -12 15 -50z m268 33 c12 -12 13 -18 4 -21 -14 -4 -16 -42 -2 -42 6 0
10 -5 10 -11 0 -6 -10 -9 -22 -7 -16 2 -24 12 -29 38 -5 20 -3 40 3 47 13 17
16 16 36 -4z m42 -33 c0 -27 -4 -50 -10 -50 -5 0 -10 23 -10 50 0 28 5 50 10
50 6 0 10 -22 10 -50z m-280 6 c0 -14 5 -28 10 -31 6 -4 10 7 10 24 0 34 14
41 28 15 8 -15 10 -15 15 0 7 17 42 22 51 7 3 -5 -3 -11 -14 -14 -11 -3 -20
-10 -20 -16 0 -19 30 -25 43 -8 7 8 19 17 27 20 12 4 11 6 -2 6 -27 1 -21 21
6 21 25 0 36 -16 36 -55 0 -23 -3 -24 -60 -24 -33 0 -63 5 -66 10 -4 6 -11 6
-19 -1 -8 -6 -24 -10 -37 -8 -19 2 -24 10 -26 41 -2 21 1 37 7 37 6 0 11 -11
11 -24z m356 9 c6 -14 8 -14 18 1 7 9 22 14 37 12 20 -2 25 -9 27 -40 2 -22
-1 -38 -7 -38 -6 0 -11 11 -11 24 0 14 -4 28 -10 31 -6 4 -10 -7 -10 -24 0
-33 -16 -42 -27 -15 -5 15 -7 15 -15 0 -17 -30 -68 -13 -68 24 0 36 55 56 66
25z m3934 -86 c0 -5 -7 -9 -15 -9 -15 0 -20 12 -9 23 8 8 24 -1 24 -14z m300
1 c0 -5 -4 -10 -10 -10 -5 0 -10 5 -10 10 0 6 5 10 10 10 6 0 10 -4 10 -10z"/>
<path d="M5605 9279 c-4 -6 -5 -12 -2 -15 2 -3 7 2 10 11 7 17 1 20 -8 4z"/>
<path d="M5496 9255 c4 -8 8 -15 10 -15 2 0 4 7 4 15 0 8 -4 15 -10 15 -5 0
-7 -7 -4 -15z"/>
<path d="M5446 9107 c3 -10 9 -15 12 -12 3 3 0 11 -7 18 -10 9 -11 8 -5 -6z"/>
<path d="M5802 8995 c29 -30 47 -29 29 2 -7 12 -10 14 -11 4 0 -11 -5 -10 -22
5 -15 12 -13 8 4 -11z"/>
<path d="M5945 8470 c3 -5 8 -10 11 -10 2 0 4 5 4 10 0 6 -5 10 -11 10 -5 0
-7 -4 -4 -10z"/>
<path d="M5844 6965 c0 -71 1 -99 3 -62 2 37 2 96 0 130 -2 34 -3 4 -3 -68z"/>
<path d="M4968 6988 c-21 -17 -28 -42 -17 -59 11 -18 46 -20 46 -3 0 7 -5 10
-11 7 -6 -3 -2 4 10 16 22 23 52 33 69 22 6 -3 2 2 -8 12 -22 20 -66 22 -89 5z"/>
<path d="M5796 6818 c3 -5 10 -6 15 -3 13 9 11 12 -6 12 -8 0 -12 -4 -9 -9z"/>
<path d="M4717 6305 c-12 -26 -13 -36 -4 -41 7 -4 9 -4 5 1 -4 4 0 21 8 37 9
17 14 32 12 34 -3 2 -12 -12 -21 -31z"/>
<path d="M4517 6122 c-22 -24 -22 -27 8 -27 22 0 23 2 10 11 -12 9 -13 13 -3
17 7 2 10 7 7 11 -3 3 -13 -2 -22 -12z"/>
<path d="M4520 6080 c0 -5 -3 -9 -7 -7 -5 1 -8 -1 -8 -4 0 -15 -39 -48 -49
-42 -6 3 -8 3 -4 -2 4 -4 3 -14 -3 -22 -6 -7 -8 -13 -4 -13 4 0 2 -7 -5 -15
-7 -8 -15 -13 -19 -11 -3 2 -7 -8 -7 -22 -1 -15 1 -21 3 -14 4 10 8 10 21 0
10 -7 14 -8 9 -3 -4 4 3 19 15 32 12 13 18 23 13 23 -4 0 0 8 9 19 9 10 16 25
14 32 -2 8 3 13 10 12 6 -2 11 3 10 10 -2 6 2 11 9 10 7 -2 10 4 7 12 -7 17
-14 20 -14 5z m-40 -75 c-7 -8 -16 -15 -21 -15 -5 0 -1 9 8 20 9 11 19 17 21
15 3 -3 -1 -11 -8 -20z m-25 -45 c-10 -11 -20 -18 -23 -16 -5 6 21 35 32 36 5
0 1 -9 -9 -20z"/>
<path d="M4049 5917 c5 -5 19 -7 32 -5 20 3 19 5 -9 9 -20 3 -29 2 -23 -4z"/>
<path d="M4111 5916 c3 -4 30 -11 60 -16 30 -6 64 -12 77 -15 14 -2 20 0 16 6
-3 6 -8 8 -11 5 -3 -2 -15 -1 -27 3 -27 11 -122 24 -115 17z"/>
<path d="M4205 5851 c-3 -5 -2 -12 3 -15 5 -3 9 1 9 9 0 17 -3 19 -12 6z"/>
<path d="M4181 5834 c0 -11 3 -14 6 -6 3 7 2 16 -1 19 -3 4 -6 -2 -5 -13z"/>
<path d="M4269 5803 c-13 -16 -12 -17 4 -4 16 13 21 21 13 21 -2 0 -10 -8 -17
-17z"/>
<path d="M4165 5781 c-3 -5 -2 -12 3 -15 5 -3 9 1 9 9 0 17 -3 19 -12 6z"/>
<path d="M4271 5636 c-8 -9 -8 -16 -2 -20 5 -4 12 -2 16 4 4 6 11 8 16 5 5 -3
6 1 3 9 -8 20 -18 20 -33 2z"/>
<path d="M4240 5621 c0 -6 4 -13 10 -16 6 -3 7 1 4 9 -7 18 -14 21 -14 7z"/>
<path d="M4225 5571 c-3 -5 -2 -12 3 -15 5 -3 9 1 9 9 0 17 -3 19 -12 6z"/>
<path d="M2931 5051 c-10 -6 -9 -10 3 -14 8 -3 18 -2 21 3 8 13 -9 20 -24 11z"/>
<path d="M2824 4596 c-3 -8 -1 -22 4 -32 7 -13 9 -10 8 15 -1 34 -4 38 -12 17z"/>
<path d="M6050 4494 c0 -8 -4 -13 -8 -10 -5 3 -9 -1 -9 -8 0 -8 8 -11 19 -8
19 4 26 42 8 42 -5 0 -10 -7 -10 -16z"/>
<path d="M6243 4479 c-4 -16 -8 -17 -14 -7 -5 7 -9 9 -9 3 0 -5 4 -17 10 -25
7 -12 10 -11 15 5 13 39 14 45 9 45 -3 0 -8 -9 -11 -21z"/>
<path d="M2795 4450 c-10 -11 -16 -20 -14 -21 2 0 12 -2 22 -4 9 -2 15 0 12 5
-3 5 1 11 7 13 10 4 10 6 0 6 -7 1 -10 6 -7 11 10 17 -1 11 -20 -10z"/>
<path d="M2673 4359 c-9 -11 -8 -18 2 -32 16 -22 24 -11 16 22 -5 19 -8 21
-18 10z"/>
<path d="M2657 4323 c-4 -6 3 -19 16 -29 12 -11 17 -12 11 -4 -6 8 -13 22 -16
30 -3 9 -7 10 -11 3z"/>
<path d="M6222 4284 c-10 -12 -10 -14 2 -14 17 0 30 16 19 23 -5 3 -14 -1 -21
-9z"/>
<path d="M2614 4228 c-4 -5 -3 -12 0 -15 3 -3 0 -13 -7 -22 -11 -14 -10 -14 6
-2 28 22 39 48 21 48 -8 0 -17 -4 -20 -9z"/>
<path d="M2483 4013 c-7 -2 -13 -9 -13 -15 0 -7 5 -7 13 1 8 6 18 7 22 3 5 -4
5 -1 1 6 -4 6 -8 12 -9 11 -1 0 -8 -3 -14 -6z"/>
<path d="M2402 3930 c0 -14 2 -19 5 -12 2 6 2 18 0 25 -3 6 -5 1 -5 -13z"/>
<path d="M2231 3837 c-6 -6 -11 -20 -11 -31 0 -12 4 -16 8 -11 11 15 32 17 32
3 0 -9 4 -8 10 2 9 13 10 13 10 0 0 -13 2 -13 9 -1 5 8 7 21 4 29 -5 12 -7 12
-15 -2 -5 -9 -14 -14 -20 -10 -7 4 -6 9 2 14 9 5 8 9 -3 13 -8 3 -20 0 -26 -6z
m16 -12 c0 -8 -4 -12 -9 -9 -5 3 -6 10 -3 15 9 13 12 11 12 -6z"/>
<path d="M2335 3839 c-4 -6 -5 -12 -2 -15 2 -3 7 2 10 11 7 17 1 20 -8 4z"/>
<path d="M2201 3804 c0 -11 3 -14 6 -6 3 7 2 16 -1 19 -3 4 -6 -2 -5 -13z"/>
<path d="M2053 3535 c0 -8 4 -12 9 -9 4 3 8 9 8 15 0 5 -4 9 -8 9 -5 0 -9 -7
-9 -15z"/>
<path d="M1055 3530 c-3 -5 -1 -10 6 -10 9 0 9 -3 0 -14 -8 -10 -9 -16 -1 -21
6 -4 10 -3 9 2 -4 22 3 24 26 9 33 -21 32 -17 -4 17 -17 16 -32 23 -36 17z"/>
<path d="M1781 3514 c0 -11 3 -14 6 -6 3 7 2 16 -1 19 -3 4 -6 -2 -5 -13z"/>
<path d="M1305 3511 c-3 -5 -2 -12 3 -15 5 -3 9 1 9 9 0 17 -3 19 -12 6z"/>
<path d="M1035 3450 c-3 -5 -1 -10 4 -10 6 0 11 5 11 10 0 6 -2 10 -4 10 -3 0
-8 -4 -11 -10z"/>
<path d="M4425 1491 c-3 -5 -2 -12 3 -15 5 -3 9 1 9 9 0 17 -3 19 -12 6z"/>
<path d="M4400 1479 c0 -5 -4 -7 -10 -4 -6 4 -7 -1 -3 -11 4 -11 8 -13 11 -6
2 7 8 10 13 7 5 -4 6 1 3 9 -7 18 -14 21 -14 5z"/>
<path d="M4162 1354 c10 -22 28 -24 28 -3 0 6 -5 7 -12 3 -7 -5 -9 -2 -6 8 4
8 1 15 -7 15 -10 0 -11 -6 -3 -23z"/>
<path d="M3998 1358 c-10 -6 -10 -8 0 -8 6 0 12 -4 12 -10 0 -5 -8 -7 -17 -3
-10 3 -15 3 -12 -1 11 -12 48 -15 55 -4 4 7 2 8 -4 4 -15 -9 -16 6 -2 20 13
13 -13 15 -32 2z"/>
<path d="M1975 8688 c-25 -13 -45 -38 -45 -55 0 -10 22 -13 85 -13 88 0 99 6
72 41 -28 36 -75 48 -112 27z"/>
<path d="M3608 8549 c-28 -16 -23 -65 7 -85 44 -29 115 -3 115 42 0 43 -76 70
-122 43z"/>
<path d="M1890 7882 c-25 -25 -30 -39 -30 -76 0 -85 74 -128 144 -83 24 16 26
23 26 81 0 72 -15 93 -73 103 -31 5 -40 1 -67 -25z"/>
<path d="M2980 7892 c-16 -17 -30 -35 -30 -41 0 -7 31 -11 85 -11 76 0 85 2
85 18 0 27 -32 52 -73 59 -31 5 -40 1 -67 -25z"/>
<path d="M3410 7892 c-16 -17 -30 -35 -30 -41 0 -7 31 -11 85 -11 66 0 85 3
85 14 0 26 -35 57 -72 63 -32 5 -41 1 -68 -25z"/>
<path d="M4772 7900 c-30 -12 -55 -74 -48 -115 14 -72 102 -103 154 -55 17 16
22 32 22 70 0 63 -6 78 -41 95 -32 17 -54 18 -87 5z"/>
<path d="M3694 7119 c-70 -36 -61 -172 13 -200 32 -12 89 5 103 31 6 10 10 45
10 78 0 45 -4 63 -19 76 -23 21 -79 29 -107 15z"/>
<path d="M1876 7119 c-14 -11 -26 -29 -26 -40 0 -17 8 -19 85 -19 47 0 85 2
85 5 0 18 -26 55 -47 64 -36 16 -67 13 -97 -10z"/>
<path d="M3233 7106 c-25 -22 -28 -31 -28 -85 0 -77 24 -106 86 -106 58 0 89
37 89 106 0 42 -5 55 -29 80 -37 36 -79 38 -118 5z"/>
<path d="M1983 6402 c-23 -14 -25 -57 -5 -82 17 -22 23 -23 46 -12 20 9 26 19
26 45 0 48 -32 72 -67 49z"/>
<path d="M871 6391 c-14 -25 -5 -31 41 -31 24 0 38 5 38 13 0 37 -62 51 -79
18z"/>
<path d="M1122 6398 c-17 -17 -15 -64 4 -82 33 -33 64 -11 64 45 0 46 -38 67
-68 37z"/>
<path d="M1813 6403 c-7 -2 -13 -13 -13 -24 0 -16 7 -19 40 -19 41 0 52 14 28
38 -12 12 -33 14 -55 5z"/>
<path d="M2406 6395 c-22 -22 -20 -58 5 -81 35 -32 81 13 63 63 -11 33 -44 42
-68 18z"/>
<path d="M4055 5609 c-11 -17 1 -21 15 -4 8 9 8 15 2 15 -6 0 -14 -5 -17 -11z"/>
<path d="M2843 5029 c-11 -11 -6 -56 8 -65 9 -5 18 28 17 59 -1 19 -9 22 -25
6z m17 -29 c0 -11 -2 -20 -4 -20 -2 0 -6 9 -9 20 -3 11 -1 20 4 20 5 0 9 -9 9
-20z"/>
<path d="M6486 4152 c-3 -5 1 -9 9 -9 8 0 12 4 9 9 -3 4 -7 8 -9 8 -2 0 -6 -4
-9 -8z"/>
<path d="M6496 4120 c5 -8 9 -18 9 -22 0 -5 4 -8 8 -9 18 -2 16 9 -5 27 -13
11 -18 13 -12 4z"/>
<path d="M5974 2794 c-18 -14 -18 -15 4 -4 12 6 22 13 22 15 0 8 -5 6 -26 -11z"/>
<path d="M6289 2793 c-13 -16 -12 -17 4 -4 16 13 21 21 13 21 -2 0 -10 -8 -17
-17z"/>
<path d="M6159 2673 c-13 -16 -12 -17 4 -4 16 13 21 21 13 21 -2 0 -10 -8 -17
-17z"/>
<path d="M5679 2313 l-24 -28 28 24 c15 14 27 26 27 28 0 8 -8 1 -31 -24z"/>
<path d="M5400 1971 c0 -6 4 -13 10 -16 6 -3 7 1 4 9 -7 18 -14 21 -14 7z"/>
<path d="M5108 1553 c7 -3 16 -2 19 1 4 3 -2 6 -13 5 -11 0 -14 -3 -6 -6z"/>
<path d="M5040 1480 c-6 -11 -8 -20 -6 -20 3 0 10 9 16 20 6 11 8 20 6 20 -3
0 -10 -9 -16 -20z"/>
<path d="M6410 1386 c0 -11 10 -16 31 -16 38 0 35 24 -4 28 -19 2 -27 -1 -27
-12z"/>
<path d="M6410 1331 c0 -17 21 -23 56 -17 49 10 42 26 -11 26 -25 0 -45 -4
-45 -9z"/>
<path d="M6560 1330 c0 -12 48 -25 58 -16 8 9 -18 26 -40 26 -10 0 -18 -4 -18
-10z"/>
<path d="M3034 1676 c3 -10 1 -26 -6 -34 -8 -10 -9 -13 -1 -9 6 4 13 3 15 -3
2 -6 14 -12 27 -15 14 -2 28 -10 33 -17 4 -7 8 -9 8 -4 0 5 9 -3 21 -18 11
-14 18 -30 14 -35 -3 -5 -1 -13 5 -16 6 -4 10 -3 9 2 -3 20 2 27 11 13 5 -8
10 -10 10 -5 0 10 -61 76 -120 130 -24 22 -31 25 -26 11z m26 -37 c0 -5 5 -7
12 -3 7 4 8 3 4 -5 -6 -9 -11 -9 -22 0 -17 14 -18 19 -4 19 6 0 10 -5 10 -11z"/>
<path d="M3030 1601 c0 -6 4 -13 10 -16 6 -3 7 1 4 9 -7 18 -14 21 -14 7z"/>
<path d="M3503 1455 c-13 -14 -1 -22 47 -32 13 -2 28 -10 32 -16 6 -9 8 -8 9
3 1 8 1 19 0 24 -1 5 5 6 13 3 8 -3 17 0 20 8 3 10 -3 13 -24 11 -16 -1 -33
-6 -37 -11 -4 -4 -2 -5 5 -1 6 4 12 2 12 -4 0 -17 -43 -8 -55 11 -8 14 -12 15
-22 4z"/>
<path d="M3420 1410 c8 -5 20 -10 25 -10 6 0 3 5 -5 10 -8 5 -19 10 -25 10 -5
0 -3 -5 5 -10z"/>
<path d="M5744 1335 c-4 -9 -2 -21 4 -27 15 -15 44 -1 40 19 -4 23 -36 29 -44
8z"/>
<path d="M5932 1015 c-19 -41 -15 -55 14 -55 24 0 26 2 20 32 -9 45 -21 53
-34 23z"/>
<path d="M6133 1003 c-19 -7 -16 -72 3 -80 39 -15 69 40 39 71 -17 17 -22 18
-42 9z"/>
<path d="M6312 1001 c-8 -5 -12 -22 -10 -42 3 -30 6 -34 33 -34 25 0 30 4 33
28 5 44 -24 69 -56 48z"/>
<path d="M6484 973 c-5 -19 -2 -30 11 -39 36 -26 75 22 43 54 -21 21 -47 14
-54 -15z"/>
<path d="M1110 860 c0 -5 5 -10 10 -10 6 0 10 5 10 10 0 6 -4 10 -10 10 -5 0
-10 -4 -10 -10z"/>
<path d="M6491 547 c-13 -16 -5 -27 20 -27 24 0 35 20 18 31 -19 12 -25 11
-38 -4z"/>
<path d="M964 569 c-3 -6 -1 -16 5 -22 8 -8 11 -5 11 11 0 24 -5 28 -16 11z"/>
<path d="M1360 560 c0 -11 5 -20 10 -20 6 0 10 9 10 20 0 11 -4 20 -10 20 -5
0 -10 -9 -10 -20z"/>
</g>
</svg>
