<?xml version="1.0" standalone="no"?>
<!DOCTYPE svg PUBLIC "-//W3C//DTD SVG 20010904//EN"
 "http://www.w3.org/TR/2001/REC-SVG-20010904/DTD/svg10.dtd">
<svg version="1.0" xmlns="http://www.w3.org/2000/svg"
 width="150pt" height="200pt" viewBox="0 0 296.000000 400.000000"
 preserveAspectRatio="xMidYMid meet">

<g transform="translate(0.000000,400.000000) scale(0.100000,-0.100000)"
fill="#000000" stroke="none">
<path d="M0 2000 l0 -2000 1480 0 1480 0 0 595 0 595 -24 0 c-14 0 -28 -4 -31
-10 -18 -29 -182 25 -288 95 -40 26 -20 39 34 22 70 -23 120 -28 135 -13 11
11 7 22 -21 65 -43 68 -86 208 -91 294 -2 37 -6 72 -9 76 -8 13 24 83 35 76 6
-3 10 -13 10 -21 0 -19 57 -18 106 2 32 14 44 14 78 3 23 -7 47 -17 54 -22 9
-7 12 9 12 73 0 74 -2 84 -24 101 -17 13 -22 25 -19 44 6 27 23 35 23 10 0 -8
5 -15 10 -15 7 0 10 145 9 419 0 314 -3 418 -12 418 -7 0 -23 1 -37 2 -25 3
-24 3 4 11 16 5 33 7 38 4 4 -3 8 261 8 585 l0 591 -1480 0 -1480 0 0 -2000z
m116 1883 c-10 -10 -19 5 -10 18 6 11 8 11 12 0 2 -7 1 -15 -2 -18z m127 20
c3 -5 -5 -8 -18 -8 -13 0 -21 3 -18 8 2 4 10 7 18 7 8 0 16 -3 18 -7z m224
-40 c-3 -10 -5 -2 -5 17 0 19 2 27 5 18 2 -10 2 -26 0 -35z m30 0 c-3 -10 -5
-2 -5 17 0 19 2 27 5 18 2 -10 2 -26 0 -35z m80 0 c-3 -10 -5 -2 -5 17 0 19 2
27 5 18 2 -10 2 -26 0 -35z m-498 30 c0 -5 -4 -17 -9 -28 -8 -18 -9 -17 -9 8
-1 15 4 27 9 27 6 0 10 -3 9 -7z m89 -10 c-10 -2 -18 -8 -18 -13 0 -5 8 -11
18 -13 13 -4 11 -5 -5 -6 -17 -1 -23 5 -23 19 0 14 6 20 23 19 16 -1 18 -2 5
-6z m109 -25 c-3 -7 -5 -2 -5 12 0 14 2 19 5 13 2 -7 2 -19 0 -25z m37 18 c-3
-8 2 -16 13 -19 14 -4 14 -5 -4 -6 -17 -1 -23 5 -23 19 0 11 4 20 10 20 5 0 7
-6 4 -14z m66 -1 c0 6 8 11 19 11 12 0 17 -5 14 -14 -3 -7 -12 -11 -19 -8 -8
3 -14 0 -14 -7 0 -8 -4 -6 -10 3 -5 8 -10 20 -10 25 0 6 5 3 10 -5 5 -8 10
-10 10 -5z m147 -17 c-3 -7 -5 -2 -5 12 0 14 2 19 5 13 2 -7 2 -19 0 -25z
m-427 1 c0 -6 -4 -7 -10 -4 -5 3 -10 11 -10 16 0 6 5 7 10 4 6 -3 10 -11 10
-16z m110 6 c7 -9 8 -15 2 -15 -5 0 -12 7 -16 15 -3 8 -4 15 -2 15 2 0 9 -7
16 -15z m40 6 c0 -6 -5 -13 -12 -17 -6 -4 -8 -3 -4 4 3 5 0 13 -6 15 -8 3 -6
6 5 6 9 1 17 -3 17 -8z m-154 -56 c13 17 14 16 14 -13 0 -32 -14 -43 -23 -19
-4 9 -8 8 -16 -3 -8 -12 -11 -7 -11 20 1 31 2 33 12 16 11 -19 11 -19 24 -1z
m68 -20 c5 -16 1 -20 -19 -20 -14 0 -25 1 -25 2 0 1 5 14 10 29 11 28 23 24
34 -11z m59 22 c3 10 5 4 6 -14 1 -35 -12 -44 -24 -15 -7 16 -8 15 -15 -3 -7
-16 -9 -14 -9 14 -1 33 0 34 18 17 18 -17 19 -17 24 1z m62 -17 c0 -18 -6 -26
-22 -28 -20 -3 -23 1 -23 28 0 27 3 31 23 28 16 -2 22 -10 22 -28z m53 -3 c3
-22 -1 -27 -17 -27 -17 0 -21 6 -21 31 0 24 4 30 18 27 10 -2 18 -14 20 -31z
m67 3 c0 -18 -6 -26 -23 -28 -13 -2 -25 3 -28 12 -10 26 4 48 28 44 17 -2 23
-10 23 -28z m65 15 c10 -12 10 -18 0 -30 -25 -30 -61 -7 -46 30 3 8 12 15 19
15 8 0 20 -7 27 -15z m44 4 c10 8 13 3 13 -19 0 -22 -3 -27 -13 -19 -8 7 -14
6 -17 -3 -3 -7 -5 3 -5 22 0 19 2 29 5 22 3 -9 9 -10 17 -3z m66 0 c0 -5 -6
-7 -12 -3 -9 5 -8 2 1 -10 18 -22 -1 -48 -21 -28 -9 9 -9 12 3 12 12 0 12 2 0
9 -7 5 -10 14 -7 20 9 14 36 14 36 0z m-322 -402 c6 -5 12 -31 12 -58 0 -46
-2 -49 -25 -49 -23 0 -25 4 -25 45 0 41 -2 45 -25 45 l-25 0 0 -185 0 -185 25
0 c24 0 25 3 25 55 0 52 1 55 25 55 24 0 25 -3 25 -59 0 -51 -3 -62 -22 -75
-28 -20 -78 -21 -104 -2 -17 13 -19 30 -22 182 -4 205 -1 229 36 242 29 10 80
5 100 -11z m613 6 c6 -6 8 -91 7 -219 -3 -201 -4 -209 -23 -209 -19 0 -20 8
-23 203 -2 194 -3 202 -22 202 -19 0 -20 -7 -20 -199 0 -188 -1 -199 -19 -204
-11 -3 -22 -2 -25 1 -3 3 -6 95 -6 204 l0 198 -25 0 -25 0 0 -199 c0 -173 -2
-200 -16 -205 -9 -3 -20 -4 -25 0 -5 3 -9 95 -9 205 0 247 -5 239 130 235 50
-1 95 -7 101 -13z m99 -19 c3 -378 2 -399 -19 -402 -21 -3 -21 0 -21 215 0
212 1 219 20 220 16 1 20 -4 20 -33z m164 26 c24 -9 26 -15 26 -65 0 -52 -1
-55 -25 -55 -23 0 -25 4 -25 45 0 38 -3 45 -20 45 -19 0 -20 -7 -20 -185 0
-178 1 -185 20 -185 18 0 20 7 20 55 0 52 1 55 25 55 26 0 26 -1 23 -67 l-3
-68 -37 -9 c-25 -6 -46 -5 -67 4 l-31 12 0 197 c0 108 4 201 8 207 15 23 65
30 106 14z m184 -6 c22 -15 22 -19 22 -226 0 -187 -2 -209 -16 -204 -9 3 -20
6 -25 6 -5 0 -9 47 -9 105 0 98 -1 105 -20 105 -19 0 -20 -7 -20 -105 l0 -105
-25 0 -25 0 0 210 c0 209 0 211 23 220 34 14 70 12 95 -6z m147 -394 c44 0 51
-30 8 -31 -16 0 -36 -2 -47 -4 -45 -9 -46 -5 -46 220 l0 214 23 3 22 3 3 -202
2 -203 35 0z m-1112 343 c-6 -82 3 -123 27 -123 18 0 20 7 20 90 0 89 0 90 25
90 l25 0 0 -213 c0 -118 -3 -216 -6 -219 -3 -3 -14 -4 -25 -1 -17 5 -19 15
-19 109 l0 104 -26 0 -27 0 7 -75 c9 -102 0 -147 -28 -143 -21 3 -21 7 -22
221 l0 217 26 0 c27 0 27 -1 23 -57z m257 42 c0 -10 -10 -15 -30 -15 l-30 0 0
-75 0 -75 30 0 c23 0 30 -4 30 -20 0 -16 -7 -20 -30 -20 l-30 0 0 -90 0 -90
30 0 c22 0 30 -5 30 -17 0 -14 -8 -18 -32 -16 -18 1 -43 2 -55 2 l-23 1 0 215
0 215 55 0 c42 0 55 -3 55 -15z m2130 -209 c0 -8 -29 -48 -65 -90 -36 -42 -69
-86 -75 -96 -17 -32 -33 -24 -66 33 -40 68 -48 97 -25 97 9 0 21 -4 27 -9 5
-6 28 -5 59 3 l49 13 -39 13 -40 14 85 17 c47 9 86 17 88 18 1 1 2 -5 2 -13z
m20 -380 c0 -2 -7 -9 -15 -16 -12 -10 -15 -10 -15 4 0 9 7 16 15 16 8 0 15 -2
15 -4z m80 -16 c0 -11 -4 -20 -9 -20 -11 0 -22 26 -14 34 12 12 23 5 23 -14z
m-2588 -17 c14 -13 18 -31 18 -92 0 -42 -4 -82 -9 -90 -5 -8 -26 -17 -47 -20
l-39 -6 -3 -108 c-3 -106 -3 -107 -27 -107 l-25 0 0 213 c0 118 3 217 7 220
14 14 106 7 125 -10z m182 1 c19 -18 23 -168 5 -180 -8 -4 -8 -9 0 -17 7 -7
11 -55 11 -119 l0 -108 -25 0 -25 0 0 111 c0 109 0 110 -22 107 -22 -3 -23 -8
-26 -110 -3 -106 -3 -108 -27 -108 l-24 0 -1 213 c0 117 3 216 6 220 14 14
112 7 128 -9z m192 -1 c15 -15 16 -36 11 -206 -4 -123 -10 -193 -18 -203 -14
-17 -100 -19 -117 -2 -9 9 -12 68 -12 204 0 162 3 195 16 208 21 22 97 21 120
-1z m175 7 c17 -9 19 -22 19 -100 0 -97 -7 -110 -64 -110 l-26 0 0 -110 0
-110 -31 0 c-28 0 -31 3 -25 23 3 12 6 111 6 220 l0 197 51 0 c28 0 59 -5 70
-10z m177 -7 c-2 -12 -14 -19 -36 -21 l-32 -3 0 -70 0 -69 30 0 c23 0 30 -4
30 -20 0 -16 -7 -20 -30 -20 l-30 0 0 -90 0 -90 30 0 c23 0 30 -4 30 -20 0
-18 -7 -20 -55 -20 l-55 0 0 220 0 220 61 0 c52 0 60 -2 57 -17z m157 3 c16
-11 19 -25 17 -91 -1 -43 -7 -84 -13 -92 -9 -9 -8 -13 0 -13 7 0 11 -37 11
-115 l0 -115 -25 0 -25 0 0 110 c0 103 -1 110 -20 110 -19 0 -20 -7 -20 -110
l0 -110 -27 0 -28 0 3 220 3 220 52 0 c29 0 62 -6 72 -14z m195 -6 c0 -15 -7
-20 -25 -20 l-25 0 0 -200 0 -200 -25 0 -25 0 0 200 0 200 -25 0 c-18 0 -25 5
-25 20 0 18 7 20 75 20 68 0 75 -2 75 -20z m78 -197 l-3 -218 -25 0 c-28 0
-26 -24 -22 280 l2 155 25 0 25 0 -2 -217z m162 197 c0 -16 -7 -20 -35 -20
l-35 0 0 -70 c0 -62 2 -70 19 -70 30 0 51 -11 51 -26 0 -9 -12 -14 -35 -14
l-35 0 0 -89 0 -90 32 -3 c22 -2 34 -9 36 -20 3 -16 -5 -18 -57 -18 l-61 0 0
220 0 220 60 0 c53 0 60 -2 60 -20z m165 -4 c23 -35 15 -100 -14 -104 -19 -3
-21 1 -21 42 0 42 -2 46 -25 46 -24 0 -25 -2 -25 -68 l0 -68 43 -10 42 -9 3
-109 c2 -71 -1 -113 -9 -122 -14 -17 -100 -19 -117 -2 -7 7 -12 39 -12 75 0
61 1 63 25 63 24 0 25 -3 25 -59 0 -51 3 -59 18 -57 14 2 17 16 20 94 l3 92
-34 0 c-50 0 -57 14 -57 106 0 99 10 114 75 114 36 0 48 -5 60 -24z m1073
-228 c6 -24 7 -47 3 -51 -5 -5 -26 -7 -47 -5 -35 3 -39 5 -36 28 4 28 39 70
58 70 6 0 16 -19 22 -42z m-748 -197 c0 -30 -11 -51 -26 -51 -8 0 -13 3 -12 8
0 4 -2 15 -7 26 -5 12 -3 21 6 27 23 14 39 10 39 -10z m-1910 -176 c0 -51 3
-65 15 -65 12 0 15 14 15 65 0 58 2 65 20 65 19 0 20 -7 20 -155 0 -148 -1
-155 -20 -155 -18 0 -20 7 -20 75 0 60 -3 75 -15 75 -12 0 -15 -15 -15 -75 0
-68 -2 -75 -20 -75 -19 0 -20 7 -20 155 0 148 1 155 20 155 18 0 20 -7 20 -65z
m440 -91 l0 -155 -47 3 -48 3 0 105 0 105 28 3 c25 3 27 7 27 48 0 37 3 44 20
44 19 0 20 -7 20 -156z m60 107 c0 -44 2 -49 20 -44 46 12 61 -45 44 -171 l-7
-46 -50 0 -50 0 7 46 c3 26 6 96 6 155 0 90 3 109 15 109 11 0 15 -12 15 -49z
m370 -41 c0 -73 3 -90 15 -90 11 0 15 12 15 45 0 33 4 45 15 45 11 0 14 -20
14 -110 0 -97 -2 -110 -17 -110 -14 0 -16 8 -14 50 3 41 1 50 -12 50 -13 0
-16 -11 -16 -50 0 -43 -3 -50 -20 -50 -19 0 -20 7 -20 155 0 148 1 155 20 155
19 0 20 -7 20 -90z m-682 -112 l3 -108 -46 0 -45 0 0 66 0 66 30 -4 c28 -4 30
-3 30 29 0 23 -5 33 -15 33 -8 0 -15 -9 -15 -20 0 -11 -7 -20 -15 -20 -10 0
-15 10 -15 28 0 38 7 44 50 40 l35 -3 3 -107z m130 0 c3 -103 2 -108 -18 -108
-19 0 -20 6 -20 95 0 75 -3 95 -14 95 -11 0 -14 -16 -14 -67 -1 -121 -1 -123
-17 -123 -12 0 -15 19 -15 109 l0 110 48 -2 47 -2 3 -107z m362 93 c11 -21 14
-142 4 -179 -6 -20 -12 -23 -48 -20 l-41 3 -3 94 c-1 52 -1 100 2 108 8 21 73
16 86 -6z m118 7 c14 -14 17 -175 3 -196 -5 -8 -23 -12 -47 -10 l-39 3 -3 99
c-2 73 1 102 10 108 19 12 62 10 76 -4z m1872 -201 c0 -19 -22 -47 -37 -47 -4
0 -23 -14 -40 -31 -18 -16 -33 -26 -33 -22 0 29 24 80 52 112 29 32 35 35 45
21 7 -8 13 -23 13 -33z m63 -37 c-3 -12 -8 -19 -11 -16 -5 6 5 36 12 36 2 0 2
-9 -1 -20z m-2738 -231 c11 -16 -4 -59 -20 -59 -9 0 -15 -14 -18 -37 -2 -21
-4 -6 -5 35 -2 65 0 72 17 72 11 0 23 -5 26 -11z m41 -29 c10 0 14 -13 14 -51
0 -33 -4 -48 -11 -44 -6 4 -10 21 -9 39 3 53 -3 54 -10 1 -6 -46 -7 -44 -7 25
0 41 2 65 4 53 2 -13 11 -23 19 -23z m281 -67 c-2 -21 -4 -4 -4 37 0 41 2 58
4 38 2 -21 2 -55 0 -75z m116 100 c-8 -3 -14 -29 -15 -71 l-2 -67 -3 65 c-2
35 -9 68 -16 72 -7 4 1 7 18 7 17 0 24 -3 18 -6z m43 -33 c11 0 14 -13 12 -52
l-2 -53 -3 48 c-2 26 -8 47 -13 47 -5 0 -11 -21 -13 -47 -2 -31 -4 -21 -4 27
0 41 2 65 4 53 2 -13 11 -23 19 -23z m314 -30 c0 -63 -2 -70 -20 -70 -17 0
-20 7 -20 50 0 38 4 50 15 50 8 0 15 9 15 20 0 11 2 20 5 20 3 0 5 -31 5 -70z
m433 63 c-7 -2 -13 -16 -13 -29 0 -13 6 -24 13 -25 10 0 10 -2 0 -6 -7 -2 -13
-17 -13 -33 0 -16 6 -31 13 -33 7 -3 5 -6 -5 -6 -16 -1 -18 9 -18 69 0 60 2
70 18 69 10 0 12 -3 5 -6z m147 3 c0 -3 -4 -8 -10 -11 -5 -3 -10 -1 -10 4 0 6
5 11 10 11 6 0 10 -2 10 -4z m480 -66 c0 -40 -4 -70 -10 -70 -11 0 -14 123 -3
133 12 13 13 7 13 -63z m-89 48 c4 -95 3 -118 -8 -118 -11 0 -21 80 -15 114 4
19 22 22 23 4z m-1681 -62 c-3 -53 3 -54 10 -1 7 47 7 46 6 -20 -1 -53 -4 -70
-15 -70 -8 0 -16 6 -19 14 -3 10 0 12 12 8 9 -4 16 -2 16 3 0 6 -7 10 -15 10
-11 0 -15 12 -15 51 0 33 4 48 11 44 6 -4 10 -21 9 -39z m75 33 c4 -6 4 -13 0
-17 -3 -3 -10 0 -15 8 -8 13 -10 13 -10 -1 0 -9 7 -19 15 -23 8 -3 15 -17 15
-31 0 -18 -5 -25 -20 -25 -13 0 -20 6 -19 18 0 10 3 12 6 5 7 -18 23 -16 23 2
0 9 -7 18 -15 21 -19 8 -20 54 -1 54 8 0 18 -5 21 -11z m35 -39 c0 -27 -4 -50
-10 -50 -5 0 -10 23 -10 50 0 28 5 50 10 50 6 0 10 -22 10 -50z m50 33 c0 -15
-2 -16 -10 -3 -11 17 -12 14 -12 -30 0 -44 1 -47 12 -30 8 13 10 12 10 -2 0
-11 -8 -18 -20 -18 -17 0 -20 7 -20 43 0 24 3 47 7 50 13 13 33 7 33 -10z m58
-36 c3 -45 2 -47 -22 -47 -21 0 -26 5 -26 25 0 14 7 28 15 31 8 4 15 14 15 23
0 14 -2 14 -10 1 -5 -8 -12 -11 -15 -8 -11 11 6 29 23 26 13 -2 18 -16 20 -51z
m250 25 c2 -15 -2 -22 -12 -22 -10 0 -16 -9 -16 -22 0 -18 2 -20 10 -8 5 8 12
11 15 8 11 -11 -5 -28 -26 -28 -16 0 -19 7 -19 43 0 24 3 47 7 51 14 13 38 1
41 -22z m52 11 c0 -15 -2 -16 -10 -3 -8 13 -10 13 -14 0 -3 -8 -7 -31 -9 -50
-3 -26 -4 -21 -5 18 -2 46 0 52 18 52 12 0 20 -7 20 -17z m78 -35 l-2 -53 -3
48 c-5 57 -22 53 -25 -6 l-1 -42 -7 50 -7 50 -1 -47 c-3 -64 -22 -62 -22 2 l0
50 35 0 35 0 -2 -52z m57 2 c0 -38 -3 -45 -19 -45 -15 0 -21 8 -24 34 -5 43 4
63 25 59 14 -3 18 -13 18 -48z m93 -3 c3 71 22 61 22 -12 0 -50 -4 -67 -16
-72 -17 -6 -42 13 -30 24 4 4 11 1 16 -7 8 -13 10 -13 10 1 0 9 -7 19 -15 23
-10 3 -15 19 -15 44 0 57 14 61 21 5 l6 -48 1 42z m75 4 c-3 -60 -13 -65 -13
-6 0 58 -8 56 -11 -3 -4 -59 -19 -52 -19 9 0 47 2 50 23 47 19 -3 22 -8 20
-47z m55 -4 c3 -42 1 -47 -17 -47 -17 0 -21 6 -21 30 0 20 5 30 15 30 17 0 20
16 6 24 -5 4 -12 0 -14 -6 -3 -8 -6 -5 -6 5 -1 12 5 17 17 15 13 -2 18 -15 20
-51z m80 1 l-1 -53 -7 50 c-7 50 -11 51 -15 5 -5 -52 -8 -53 -15 -5 l-7 50 -1
-47 c-2 -60 -22 -64 -22 -5 0 51 4 57 42 57 27 0 28 -1 26 -52z m29 -25 c-2
-16 -4 -3 -4 27 0 30 2 43 4 28 2 -16 2 -40 0 -55z m58 66 c4 -6 4 -13 0 -17
-3 -3 -10 0 -15 8 -7 11 -10 2 -10 -30 0 -32 3 -41 10 -30 5 8 12 11 16 7 12
-11 -13 -30 -30 -24 -16 6 -23 76 -9 90 10 10 31 8 38 -4z m163 -42 c2 -28 -1
-47 -7 -47 -6 0 -12 21 -13 48 l-2 47 -3 -47 c-5 -60 -23 -63 -23 -5 0 48 6
59 30 55 10 -2 16 -17 18 -51z m41 38 c10 17 11 12 6 -30 -4 -27 -9 -52 -11
-55 -11 -10 -24 27 -23 65 0 29 2 35 8 20 8 -19 8 -19 20 0z m41 -35 c0 -27
-4 -50 -10 -50 -5 0 -10 23 -10 50 0 28 5 50 10 50 6 0 10 -22 10 -50z m50 33
c0 -15 -2 -16 -10 -3 -7 11 -10 2 -10 -32 0 -27 -4 -48 -10 -48 -5 0 -10 23
-10 50 0 43 3 50 20 50 12 0 20 -7 20 -17z m110 -34 c0 -63 -19 -64 -22 -1
l-1 47 -7 -50 c-5 -39 -7 -43 -8 -17 -1 20 -6 31 -12 27 -6 -4 -8 -10 -5 -15
9 -15 -7 -40 -26 -40 -16 0 -19 7 -19 43 0 24 2 46 5 49 3 3 25 5 50 6 l45 0
0 -49z m78 -1 l-1 -53 -7 50 -7 50 -1 -47 c-1 -27 -6 -48 -12 -48 -5 0 -11 21
-12 48 l-2 47 -3 -47 c-5 -64 -23 -62 -23 2 l0 50 35 0 35 0 -2 -52z m62 27
c0 -16 -6 -25 -15 -25 -9 0 -15 -9 -15 -22 0 -21 0 -21 15 -2 14 19 14 18 15
-3 0 -16 -6 -23 -19 -23 -22 0 -30 15 -26 50 1 14 3 31 4 38 0 6 10 12 21 12
15 0 20 -7 20 -25z m54 3 c-6 -81 -7 -83 -14 -33 l-7 50 -1 -47 c-3 -64 -22
-61 -22 3 0 47 2 50 23 47 14 -2 22 -9 21 -20z m94 -31 c3 -42 1 -47 -17 -47
-17 0 -21 6 -21 30 0 20 5 30 15 30 17 0 20 16 6 24 -5 4 -12 0 -14 -6 -3 -8
-6 -5 -6 5 -1 12 5 17 17 15 13 -2 18 -15 20 -51z m62 -47 c0 -5 -2 -10 -4
-10 -3 0 -8 5 -11 10 -3 6 -1 10 4 10 6 0 11 -4 11 -10z m-1900 -135 c-4 -24
-6 -56 -4 -70 1 -14 -2 -25 -7 -25 -5 0 -9 29 -9 64 0 42 -4 66 -12 69 -7 3
-1 6 13 6 25 1 26 0 19 -44z m538 22 c5 -22 -15 -22 -21 1 -3 10 -5 6 -6 -10
-1 -19 4 -28 14 -28 11 0 15 -11 15 -40 0 -36 -2 -40 -25 -40 -18 0 -25 5 -25
20 0 25 17 26 23 3 3 -10 5 -3 6 15 1 22 -4 32 -14 32 -16 0 -22 50 -8 64 12
12 38 2 41 -17z m112 6 c0 -15 -2 -16 -10 -3 -7 11 -10 -5 -10 -52 0 -38 -4
-68 -9 -68 -12 0 -19 90 -10 118 10 26 39 30 39 5z m360 -53 c0 -63 -2 -70
-20 -70 -17 0 -20 7 -20 50 0 28 5 50 10 50 6 0 10 9 10 20 0 11 5 20 10 20 6
0 10 -30 10 -70z m62 38 l1 -33 4 33 c8 59 23 33 23 -38 0 -72 -19 -100 -22
-32 l-1 37 -4 -37 c-7 -65 -23 -42 -23 32 0 40 4 70 10 70 6 0 11 -15 12 -32z
m167 -38 c-1 -38 -6 -70 -11 -70 -4 0 -8 32 -8 70 0 42 4 70 11 70 6 0 9 -26
8 -70z m64 50 c-4 -14 0 -20 11 -20 13 0 16 -10 14 -52 -1 -51 -2 -51 -5 -10
-2 23 -9 42 -14 42 -5 0 -9 -6 -8 -12 1 -7 1 -26 0 -41 -1 -23 -5 -28 -23 -25
-20 3 -23 10 -26 57 -2 30 2 59 7 64 12 12 14 0 11 -70 -1 -25 3 -43 9 -43 7
0 11 25 11 65 0 36 4 65 9 65 5 0 7 -9 4 -20z m117 -50 c0 -72 -19 -100 -22
-32 l-1 37 -4 -37 c-7 -65 -23 -42 -23 32 0 68 1 70 25 70 24 0 25 -2 25 -70z
m77 -37 c-2 -21 -4 -4 -4 37 0 41 2 58 4 38 2 -21 2 -55 0 -75z m213 37 c0
-68 -1 -70 -25 -70 -14 0 -25 6 -25 13 0 9 -2 9 -9 -1 -5 -8 -22 -12 -42 -10
l-34 3 -1 58 c-1 51 8 75 18 46 4 -11 64 -19 86 -11 6 2 12 13 12 23 0 10 5
19 10 19 6 0 10 -30 10 -70z m88 37 c2 -18 -2 -29 -12 -33 -10 -4 -16 -18 -16
-40 0 -19 -4 -34 -10 -34 -6 0 -10 30 -10 71 0 67 1 70 23 67 16 -2 23 -11 25
-31z m-1386 -53 c-4 -40 -3 -44 17 -44 11 0 21 -4 21 -9 0 -4 -11 -6 -24 -4
-21 4 -25 12 -28 51 -5 53 0 81 12 62 4 -7 5 -32 2 -56z m312 1 c1 -30 -2 -55
-5 -55 -9 0 -18 90 -12 107 10 25 16 4 17 -52z m1377 53 c1 -7 2 -34 2 -60 2
-55 -15 -60 -23 -7 -3 22 -11 35 -22 37 -13 2 -18 -7 -21 -40 l-4 -43 -1 48
c-2 46 2 52 36 48 6 -1 12 5 12 14 0 18 20 21 21 3z m-2051 -25 c0 -15 -2 -16
-10 -3 -7 11 -10 2 -10 -32 0 -27 -4 -48 -10 -48 -5 0 -10 23 -10 50 0 43 3
50 20 50 12 0 20 -7 20 -17z m58 -36 c3 -45 2 -47 -22 -47 -21 0 -26 5 -26 25
0 14 7 28 15 31 8 4 15 14 15 23 0 14 -2 14 -10 1 -5 -8 -12 -11 -15 -8 -11
11 6 29 23 26 13 -2 18 -16 20 -51z m50 1 c-1 -51 -2 -51 -5 -10 -2 23 -8 42
-13 42 -5 0 -11 -19 -13 -42 -3 -41 -4 -41 -5 10 -2 46 0 52 18 52 18 0 20 -6
18 -52z m57 41 c4 -6 4 -13 0 -17 -3 -3 -10 0 -15 8 -8 13 -10 13 -10 -1 0 -9
7 -19 15 -23 23 -8 19 -56 -4 -56 -21 0 -37 17 -26 28 3 3 10 0 15 -8 8 -12
10 -10 10 8 0 13 -6 22 -15 22 -15 0 -21 31 -8 43 10 10 31 8 38 -4z m55 -40
c0 -38 -4 -49 -16 -49 -8 0 -13 -4 -10 -8 2 -4 1 -14 -5 -22 -6 -10 -9 9 -9
55 0 64 2 71 20 72 18 2 20 -4 20 -48z m55 1 c0 -38 -3 -45 -20 -45 -16 0 -20
7 -21 35 -1 47 5 62 25 58 12 -2 16 -15 16 -48z m35 -6 c0 -24 -4 -44 -10 -44
-5 0 -10 23 -10 51 0 31 4 48 10 44 6 -3 10 -26 10 -51z m20 41 c0 -8 -2 -15
-4 -15 -2 0 -6 7 -10 15 -3 8 -1 15 4 15 6 0 10 -7 10 -15z m208 -38 c3 -42 1
-47 -17 -47 -16 0 -21 6 -21 24 0 35 18 42 23 9 3 -19 4 -13 5 17 1 31 -1 40
-8 30 -5 -8 -12 -11 -15 -8 -10 10 5 30 18 25 7 -2 13 -25 15 -50z m86 47 c20
-8 21 -43 1 -50 -8 -4 -15 -14 -14 -23 0 -10 2 -11 6 -3 7 17 23 15 23 -3 0
-8 -9 -15 -20 -15 -17 0 -20 7 -20 50 0 28 2 50 4 50 2 0 11 -3 20 -6z m86
-84 c5 0 11 21 13 48 3 36 4 30 5 -25 2 -67 0 -73 -18 -73 -12 0 -20 7 -20 16
0 14 3 14 15 4 12 -10 15 -10 15 4 0 9 -7 16 -15 16 -12 0 -15 12 -13 53 l2
52 3 -47 c2 -27 8 -48 13 -48z m138 37 c3 -42 1 -47 -17 -47 -17 0 -21 6 -21
30 0 20 5 30 15 30 17 0 20 16 5 25 -5 3 -10 1 -10 -6 0 -7 -3 -10 -6 -6 -9 9
6 29 19 24 7 -2 13 -25 15 -50z m54 3 c1 -28 0 -50 -4 -50 -5 0 -9 21 -10 48
l-2 47 -3 -47 c-2 -27 -8 -48 -14 -48 -14 0 -11 87 4 93 23 10 25 7 29 -43z
m198 19 c0 -17 -4 -28 -10 -24 -6 3 -10 -4 -10 -17 0 -18 2 -20 10 -8 8 13 10
12 10 -2 0 -11 -8 -18 -20 -18 -17 0 -20 7 -20 43 0 46 5 57 27 57 8 0 13 -12
13 -31z m58 -22 c3 -41 1 -47 -16 -47 -24 0 -37 49 -16 57 8 3 14 9 14 14 0 4
-7 6 -15 3 -11 -5 -13 -2 -9 10 4 10 14 16 23 14 11 -2 17 -16 19 -51z m267
23 c0 -15 -5 -24 -12 -22 -8 1 -13 -8 -13 -20 0 -18 2 -20 10 -8 5 8 12 11 15
8 11 -11 -5 -28 -26 -28 -16 0 -19 7 -19 43 0 48 6 59 30 55 9 -2 15 -14 15
-28z m85 -21 c0 -47 -2 -50 -22 -47 -18 2 -22 8 -20 28 2 14 8 27 13 28 5 2 9
11 8 20 0 11 -2 12 -6 5 -2 -7 -9 -13 -14 -13 -4 0 -6 7 -3 15 4 8 15 15 25
15 16 0 19 -8 19 -51z m290 36 c0 -8 -6 -12 -14 -9 -11 4 -16 -5 -19 -38 l-4
-43 -1 47 c-2 43 4 54 31 57 4 1 7 -6 7 -14z m48 -38 c3 -42 1 -47 -17 -47
-18 0 -21 6 -21 43 0 24 3 47 7 51 16 15 28 -3 31 -47z m62 -3 c0 -31 -4 -44
-14 -44 -8 0 -17 -10 -19 -22 -2 -13 -5 7 -6 44 -1 45 3 68 12 71 21 8 27 -3
27 -49z m48 23 c2 -15 -1 -27 -7 -27 -6 0 -11 -8 -11 -17 0 -15 2 -16 10 -3 8
13 10 12 10 -2 0 -11 -8 -18 -20 -18 -17 0 -20 7 -20 43 0 24 3 47 7 51 13 12
28 -1 31 -27z m119 -44 c-2 -16 -4 -3 -4 27 0 30 2 43 4 28 2 -16 2 -40 0 -55z
m61 49 c2 -13 -3 -25 -12 -28 -9 -3 -16 -14 -15 -23 0 -10 2 -11 6 -3 7 17 23
15 23 -3 0 -8 -9 -15 -20 -15 -14 0 -21 9 -26 35 -3 19 -3 42 0 51 9 22 40 13
44 -14z m52 13 c0 -9 -6 -12 -15 -9 -8 4 -15 1 -15 -5 0 -6 7 -11 15 -11 10 0
15 -10 15 -30 0 -23 -4 -30 -20 -30 -11 0 -20 7 -20 15 0 8 5 15 11 15 5 0 7
-4 4 -10 -3 -5 -1 -10 4 -10 17 0 13 27 -4 34 -8 3 -15 17 -15 31 0 18 5 25
20 25 11 0 20 -7 20 -15z m-447 -206 c6 -21 -9 -76 -24 -93 -13 -14 -54 29
-66 69 -6 18 -8 36 -5 39 3 3 24 6 48 6 34 0 43 -4 47 -21z m-1778 0 c4 -6 4
-13 0 -17 -3 -3 -10 -1 -14 6 -4 7 -8 -15 -9 -49 -2 -60 -6 -78 -17 -67 -8 7
-8 114 -1 127 9 14 33 14 41 0z m173 -62 c3 -66 3 -67 -23 -67 -24 0 -25 2
-25 63 0 68 5 79 30 75 11 -3 16 -19 18 -71z m480 -68 c-20 -13 -28 0 -28 47
0 32 4 44 15 44 9 0 16 11 17 28 1 15 4 -4 5 -42 3 -48 0 -72 -9 -77z m72 65
c0 -47 -4 -73 -10 -69 -5 3 -8 16 -6 28 3 12 5 43 5 70 1 26 3 47 6 47 3 0 5
-34 5 -76z m360 66 c0 -5 -5 -10 -11 -10 -5 0 -7 5 -4 10 3 6 8 10 11 10 2 0
4 -4 4 -10z m140 -9 c0 -29 -18 -35 -23 -9 -2 13 -4 -6 -4 -42 -1 -36 1 -57 4
-47 6 23 23 22 23 -3 0 -15 -7 -20 -25 -20 -24 0 -25 2 -25 63 0 69 3 77 32
77 11 0 18 -7 18 -19z m22 -6 c-3 -20 -1 -24 12 -19 13 5 16 -2 16 -47 0 -29
-3 -49 -7 -45 -4 4 -6 22 -5 41 2 19 -2 35 -7 35 -6 0 -12 -21 -14 -47 -2 -34
-4 -25 -5 30 -1 42 2 77 7 77 4 0 6 -11 3 -25z m198 15 c0 -5 -4 -10 -10 -10
-5 0 -10 5 -10 10 0 6 5 10 10 10 6 0 10 -4 10 -10z m132 -42 c-5 -89 -9 -97
-11 -20 0 39 2 72 7 72 4 0 6 -24 4 -52z m-1544 -41 c3 -42 1 -47 -17 -47 -18
0 -21 6 -21 43 0 24 3 47 7 51 16 15 28 -3 31 -47z m62 31 c0 -5 -7 -8 -15 -4
-12 4 -15 -3 -15 -34 0 -22 -4 -40 -10 -40 -5 0 -10 20 -10 44 0 34 4 45 18
49 21 4 32 -1 32 -15z m190 -49 c0 -45 -4 -61 -16 -66 -17 -6 -42 13 -30 24 4
4 11 1 16 -7 8 -13 10 -12 10 3 0 9 -7 17 -15 17 -10 0 -15 10 -15 34 0 21 -6
36 -15 40 -12 4 -15 -3 -15 -34 0 -22 -4 -40 -10 -40 -5 0 -10 20 -10 44 0 49
8 54 68 48 l32 -4 0 -59z m50 15 c0 -37 -3 -44 -20 -44 -15 0 -20 7 -20 25 0
16 6 25 15 25 8 0 15 7 15 16 0 10 -6 14 -15 10 -8 -3 -15 -1 -15 3 0 11 22
20 33 14 4 -2 7 -24 7 -49z m720 0 c0 -30 -4 -53 -9 -50 -4 3 -7 24 -6 46 3
57 -13 50 -18 -7 l-3 -48 -2 52 c-2 42 1 52 16 56 9 3 18 5 20 6 1 0 2 -24 2
-55z m21 -47 c-8 -8 -11 4 -11 39 0 66 14 80 18 19 2 -26 -2 -53 -7 -58z m59
81 c0 -19 -2 -20 -10 -8 -10 16 -12 13 -14 -32 -2 -29 8 -38 17 -15 4 7 6 6 6
-4 1 -17 -22 -32 -33 -22 -8 9 -8 88 1 96 14 15 33 6 33 -15z m198 -11 c2 -19
-1 -27 -12 -27 -9 0 -16 -8 -15 -17 0 -11 3 -13 6 -5 7 17 23 15 23 -3 0 -9
-9 -15 -25 -15 -23 0 -25 4 -25 43 0 24 3 47 7 51 15 14 38 0 41 -27z m82 -19
c0 -28 -5 -48 -11 -48 -7 0 -10 15 -7 40 2 22 0 40 -4 40 -5 0 -9 -19 -10 -42
l-1 -43 -6 45 c-7 49 -16 45 -20 -9 -3 -57 -11 -49 -11 12 l0 56 35 -1 c35 -1
35 -1 35 -50z m30 2 c0 -27 -4 -50 -10 -50 -5 0 -10 23 -10 50 0 28 5 50 10
50 6 0 10 -22 10 -50z m50 28 c0 -19 -2 -20 -10 -8 -7 11 -10 5 -10 -23 l0
-38 30 31 c34 35 37 42 14 33 -12 -4 -15 -2 -12 8 3 8 13 14 24 14 16 0 20 -8
22 -47 3 -46 2 -48 -22 -48 -15 0 -26 6 -27 13 0 10 -2 10 -6 0 -2 -7 -13 -13
-24 -13 -16 0 -19 7 -19 43 0 24 3 47 7 50 14 15 33 6 33 -15z m138 -27 c1
-33 -4 -51 -13 -55 -15 -5 -42 21 -31 31 4 4 11 2 15 -6 7 -10 10 -9 14 3 4
10 1 16 -8 16 -10 0 -15 10 -15 30 0 23 5 30 19 30 16 0 19 -8 19 -49z m-1238
-6 c0 -57 -19 -59 -22 -2 l-1 42 -5 -45 c-3 -32 -6 -39 -11 -26 -12 33 -1 76
20 76 16 0 19 -8 19 -45z m28 0 c1 -25 -3 -45 -8 -45 -6 0 -10 20 -10 45 0 25
4 45 9 45 5 0 9 -20 9 -45z m52 35 c0 -5 -7 -7 -15 -4 -12 5 -15 -2 -15 -30 0
-35 13 -49 23 -23 4 7 6 6 6 -4 1 -17 -22 -32 -33 -22 -3 4 -6 26 -6 50 0 36
3 43 20 43 11 0 20 -4 20 -10z m80 -35 c0 -38 -3 -45 -20 -45 -15 0 -20 7 -20
25 0 16 6 25 15 25 8 0 15 7 15 15 0 18 -16 20 -23 3 -3 -8 -6 -6 -6 5 -1 11
6 17 19 17 17 0 20 -7 20 -45z m60 0 c0 -57 -19 -59 -22 -2 l-1 42 -7 -45 c-8
-53 -12 -51 -15 8 -3 38 -1 42 21 42 22 0 24 -4 24 -45z m170 0 c0 -57 -19
-59 -22 -2 l-1 42 -4 -42 c-2 -24 -8 -43 -12 -43 -4 0 -7 10 -5 23 1 12 3 32
3 45 1 15 7 22 21 22 17 0 20 -7 20 -45z m50 2 c0 -48 -5 -58 -26 -50 -9 3
-14 21 -14 49 0 37 3 44 20 44 17 0 20 -7 20 -43z m60 32 c0 -6 -7 -9 -14 -6
-11 5 -16 -4 -19 -36 l-4 -42 -1 48 c-2 41 1 47 18 47 11 0 20 -5 20 -11z m50
-54 c0 -58 -2 -65 -20 -65 -12 0 -20 7 -20 18 0 14 2 15 10 2 8 -13 10 -12 10
3 0 9 -4 17 -10 17 -5 0 -10 20 -10 45 0 38 3 45 20 45 18 0 20 -7 20 -65z
m51 58 c2 -15 2 -48 -1 -73 -2 -24 -3 -24 -10 5 l-8 30 -1 -28 c-1 -34 -21
-26 -21 9 0 15 6 24 15 24 8 0 15 7 15 15 0 9 -6 12 -15 9 -8 -4 -15 -1 -15 5
0 12 39 16 41 4z m837 -170 c-2 -16 -10 -29 -19 -31 -12 -2 -15 4 -11 28 6 39
35 42 30 3z m666 -84 c-26 -27 -54 -39 -54 -21 2 36 71 93 78 64 2 -8 -9 -27
-24 -43z m-734 -49 c0 -5 -4 -10 -10 -10 -5 0 -10 5 -10 10 0 6 5 10 10 10 6
0 10 -4 10 -10z m-1760 -30 c0 -25 -17 -26 -23 -2 -3 9 -5 -17 -5 -58 0 -41 2
-66 5 -55 9 36 23 41 23 7 0 -27 -4 -32 -25 -32 -25 0 -25 1 -25 80 0 79 0 80
25 80 18 0 25 -5 25 -20z m147 -102 c-2 -24 -4 -5 -4 42 0 47 2 66 4 43 2 -24
2 -62 0 -85z m73 48 c0 -50 4 -76 13 -79 6 -3 2 -6 -10 -6 -22 -1 -23 2 -23
79 0 47 4 80 10 80 6 0 10 -31 10 -74z m131 4 c5 0 9 16 9 35 0 19 5 35 10 35
6 0 10 -15 10 -34 0 -19 -4 -38 -10 -41 -5 -3 -10 -24 -10 -46 0 -21 -4 -39
-10 -39 -5 0 -10 18 -10 39 0 22 -4 43 -10 46 -12 7 -13 58 -2 69 4 4 8 -8 10
-28 2 -20 7 -36 13 -36z m2124 33 c35 -40 33 -77 -4 -93 -17 -7 -34 -10 -38
-9 -8 4 5 129 13 129 3 0 16 -12 29 -27z m-2415 -69 c0 -52 -1 -55 -22 -52
-32 4 -39 57 -9 65 21 5 30 33 11 33 -5 0 -10 -4 -10 -10 0 -5 -4 -10 -10 -10
-5 0 -10 7 -10 15 0 9 9 15 25 15 24 0 25 -3 25 -56z m70 41 c0 -8 -4 -15 -10
-15 -5 0 -10 5 -10 10 0 6 -4 10 -9 10 -6 0 -12 -24 -14 -52 l-3 -53 -2 58
c-2 55 -1 57 23 57 16 0 25 -6 25 -15z m310 -40 c0 -52 -1 -55 -26 -55 -23 0
-25 3 -22 33 2 19 8 31 16 30 7 -2 12 7 11 20 0 12 -3 16 -6 10 -7 -18 -23
-16 -23 2 0 9 9 15 25 15 24 0 25 -3 25 -55z m30 5 c0 -27 4 -50 9 -50 5 0 8
20 8 45 0 25 3 48 6 52 4 3 7 -17 7 -45 0 -68 18 -67 23 1 l3 52 2 -57 2 -58
-40 0 -40 0 0 55 c0 30 5 55 10 55 6 0 10 -22 10 -50z m125 39 c4 -6 4 -13 0
-17 -3 -3 -10 0 -14 7 -6 10 -10 10 -16 1 -4 -7 2 -18 14 -27 29 -19 24 -57
-6 -61 -19 -3 -23 1 -22 20 1 17 3 18 6 6 6 -24 23 -23 23 2 0 11 -7 20 -15
20 -10 0 -15 10 -15 30 0 23 5 30 19 30 11 0 23 -5 26 -11z m919 -154 c3 -8 1
-15 -5 -15 -5 0 -7 -11 -3 -24 4 -19 2 -24 -12 -23 -10 1 -24 -9 -31 -23 -7
-14 -13 -21 -13 -16 0 6 -7 1 -15 -10 -15 -19 -15 -19 -9 1 4 11 15 29 24 40
9 11 23 35 30 53 14 35 25 40 34 17z m-1384 -280 l0 -95 -95 0 -95 0 0 95 0
95 95 0 95 0 0 -95z"/>
<path d="M254 3809 c-3 -6 -1 -16 5 -22 8 -8 11 -5 11 11 0 24 -5 28 -16 11z"/>
<path d="M364 3809 c-10 -17 13 -36 27 -22 12 12 4 33 -11 33 -5 0 -12 -5 -16
-11z"/>
<path d="M435 3810 c-8 -13 4 -32 16 -25 12 8 12 35 0 35 -6 0 -13 -4 -16 -10z"/>
<path d="M1250 3325 c0 -68 2 -75 20 -75 18 0 20 7 20 75 0 68 -2 75 -20 75
-18 0 -20 -7 -20 -75z"/>
<path d="M176 2733 c-3 -21 -6 -53 -6 -70 0 -29 3 -33 25 -33 24 0 25 2 25 70
0 62 -2 70 -19 70 -14 0 -20 -10 -25 -37z"/>
<path d="M360 2700 c0 -63 2 -70 20 -70 18 0 20 7 20 70 0 63 -2 70 -20 70
-18 0 -20 -7 -20 -70z"/>
<path d="M547 2774 c-4 -4 -7 -88 -7 -186 0 -171 1 -178 20 -178 19 0 20 7 21
108 1 59 2 141 3 182 1 60 -2 75 -14 78 -9 1 -19 0 -23 -4z"/>
<path d="M730 2700 c0 -63 2 -70 20 -70 18 0 20 7 20 70 0 63 -2 70 -20 70
-18 0 -20 -7 -20 -70z"/>
<path d="M1060 2700 c0 -63 2 -70 20 -70 18 0 20 7 20 70 0 63 -2 70 -20 70
-18 0 -20 -7 -20 -70z"/>
<path d="M530 2044 c0 -54 4 -83 10 -79 6 3 10 42 10 86 0 46 -4 79 -10 79 -6
0 -10 -35 -10 -86z"/>
<path d="M652 2048 c4 -106 22 -105 26 2 2 67 0 80 -13 80 -13 0 -15 -13 -13
-82z"/>
<path d="M282 2003 c2 -21 8 -38 13 -38 6 0 11 17 13 38 3 29 0 37 -13 37 -13
0 -16 -8 -13 -37z"/>
<path d="M772 2048 c2 -54 7 -83 16 -86 9 -3 12 18 12 82 0 71 -3 86 -15 86
-13 0 -15 -14 -13 -82z"/>
<path d="M899 2123 c-5 -81 -1 -157 9 -161 9 -3 12 19 12 82 0 51 -4 86 -10
86 -5 0 -10 -3 -11 -7z"/>
<path d="M110 1655 c0 -14 5 -25 10 -25 6 0 10 11 10 25 0 14 -4 25 -10 25 -5
0 -10 -11 -10 -25z"/>
<path d="M917 1633 c-11 -10 -8 -73 3 -73 6 0 10 18 10 40 0 41 -2 45 -13 33z"/>
<path d="M422 1580 c0 -14 2 -19 5 -12 2 6 2 18 0 25 -3 6 -5 1 -5 -13z"/>
<path d="M671 1624 c0 -11 3 -14 6 -6 3 7 2 16 -1 19 -3 4 -6 -2 -5 -13z"/>
<path d="M863 1600 c0 -25 2 -35 4 -22 2 12 2 32 0 45 -2 12 -4 2 -4 -23z"/>
<path d="M1082 1580 c0 -14 2 -19 5 -12 2 6 2 18 0 25 -3 6 -5 1 -5 -13z"/>
<path d="M1603 1600 c0 -25 2 -35 4 -22 2 12 2 32 0 45 -2 12 -4 2 -4 -23z"/>
<path d="M1791 1624 c0 -11 3 -14 6 -6 3 7 2 16 -1 19 -3 4 -6 -2 -5 -13z"/>
<path d="M1940 1581 c0 -12 5 -21 10 -21 6 0 10 6 10 14 0 8 -4 18 -10 21 -5
3 -10 -3 -10 -14z"/>
<path d="M1110 1365 c0 -19 5 -35 10 -35 6 0 10 16 10 35 0 19 -4 35 -10 35
-5 0 -10 -16 -10 -35z"/>
<path d="M1522 1425 c0 -16 2 -22 5 -12 2 9 2 23 0 30 -3 6 -5 -1 -5 -18z"/>
<path d="M1727 1403 c-11 -10 -8 -73 3 -73 6 0 10 18 10 40 0 41 -2 45 -13 33z"/>
<path d="M1761 1394 c0 -11 3 -14 6 -6 3 7 2 16 -1 19 -3 4 -6 -2 -5 -13z"/>
<path d="M1781 1383 c0 -13 -5 -23 -11 -23 -5 0 -10 -7 -10 -16 0 -14 1 -14
16 0 8 9 13 26 11 38 l-4 23 -2 -22z"/>
<path d="M1813 1365 c0 -22 2 -30 4 -17 2 12 2 30 0 40 -3 9 -5 -1 -4 -23z"/>
<path d="M1902 1425 c0 -16 2 -22 5 -12 2 9 2 23 0 30 -3 6 -5 -1 -5 -18z"/>
<path d="M212 1350 c0 -14 2 -19 5 -12 2 6 2 18 0 25 -3 6 -5 1 -5 -13z"/>
<path d="M379 1408 c-7 -21 -6 -78 1 -78 6 0 10 18 10 40 0 22 -2 40 -5 40 -3
0 -5 -1 -6 -2z"/>
<path d="M433 1370 c0 -25 2 -35 4 -22 2 12 2 32 0 45 -2 12 -4 2 -4 -23z"/>
<path d="M791 1394 c0 -11 3 -14 6 -6 3 7 2 16 -1 19 -3 4 -6 -2 -5 -13z"/>
<path d="M1000 1345 c0 -8 2 -15 4 -15 2 0 6 7 10 15 3 8 1 15 -4 15 -6 0 -10
-7 -10 -15z"/>
<path d="M1261 1394 c0 -11 3 -14 6 -6 3 7 2 16 -1 19 -3 4 -6 -2 -5 -13z"/>
<path d="M1311 1344 c0 -11 3 -14 6 -6 3 7 2 16 -1 19 -3 4 -6 -2 -5 -13z"/>
<path d="M1581 1394 c0 -11 3 -14 6 -6 3 7 2 16 -1 19 -3 4 -6 -2 -5 -13z"/>
<path d="M1662 1350 c0 -14 2 -19 5 -12 2 6 2 18 0 25 -3 6 -5 1 -5 -13z"/>
<path d="M2009 1393 c-4 -42 -3 -63 3 -63 4 0 8 16 8 35 0 19 -2 35 -5 35 -3
0 -5 -3 -6 -7z"/>
<path d="M2060 1365 c0 -19 4 -35 8 -35 4 0 6 16 4 35 -2 19 -6 35 -8 35 -2 0
-4 -16 -4 -35z"/>
<path d="M293 1140 c0 -36 2 -50 4 -32 2 17 2 47 0 65 -2 17 -4 3 -4 -33z"/>
<path d="M788 1132 c-3 -9 -1 -26 3 -37 6 -15 8 -11 8 18 1 40 -4 48 -11 19z"/>
<path d="M150 1115 c0 -19 5 -35 10 -35 6 0 10 16 10 35 0 19 -4 35 -10 35 -5
0 -10 -16 -10 -35z"/>
<path d="M403 1115 c0 -22 2 -30 4 -17 2 12 2 30 0 40 -3 9 -5 -1 -4 -23z"/>
<path d="M450 1095 c0 -8 5 -15 10 -15 6 0 10 7 10 15 0 8 -4 15 -10 15 -5 0
-10 -7 -10 -15z"/>
<path d="M1451 1134 c0 -11 3 -14 6 -6 3 7 2 16 -1 19 -3 4 -6 -2 -5 -13z"/>
<path d="M1671 1094 c0 -11 3 -14 6 -6 3 7 2 16 -1 19 -3 4 -6 -2 -5 -13z"/>
<path d="M1750 1140 c0 -5 5 -10 11 -10 5 0 7 5 4 10 -3 6 -8 10 -11 10 -2 0
-4 -4 -4 -10z"/>
<path d="M670 1095 c0 -8 5 -15 10 -15 6 0 10 7 10 15 0 8 -4 15 -10 15 -5 0
-10 -7 -10 -15z"/>
<path d="M952 1115 c1 -19 5 -35 10 -35 4 0 8 16 8 35 0 19 -4 35 -10 35 -5 0
-9 -16 -8 -35z"/>
<path d="M1060 1115 c0 -19 2 -35 4 -35 2 0 6 16 8 35 2 19 0 35 -4 35 -4 0
-8 -16 -8 -35z"/>
<path d="M180 709 c0 -11 5 -17 10 -14 6 3 10 13 10 21 0 8 -4 14 -10 14 -5 0
-10 -9 -10 -21z"/>
<path d="M562 710 c0 -14 2 -19 5 -12 2 6 2 18 0 25 -3 6 -5 1 -5 -13z"/>
<path d="M102 348 c0 -52 3 -76 9 -67 8 12 10 12 19 -1 7 -11 10 -4 10 28 0
23 -5 42 -11 42 -5 0 -7 -5 -3 -12 4 -7 3 -8 -4 -4 -6 4 -9 13 -6 21 4 8 9 13
13 11 11 -7 11 37 -1 51 -21 26 -26 12 -26 -69z m28 -38 c0 -5 -4 -10 -10 -10
-5 0 -10 5 -10 10 0 6 5 10 10 10 6 0 10 -4 10 -10z"/>
<path d="M144 414 c3 -9 6 -19 6 -24 0 -4 9 -6 20 -3 11 3 20 10 20 15 0 5 -4
6 -10 3 -5 -3 -10 -2 -10 4 0 5 6 12 13 14 6 3 -1 6 -17 6 -22 1 -27 -3 -22
-15z"/>
<path d="M151 338 c1 -17 2 -19 6 -5 5 20 19 22 29 5 4 -7 3 -8 -4 -4 -8 5
-12 -3 -12 -26 0 -25 -3 -29 -10 -18 -8 13 -10 12 -10 -2 0 -13 8 -18 25 -18
23 0 25 4 25 45 0 41 -2 45 -25 45 -20 0 -25 -5 -24 -22z m36 -50 c-3 -8 -6
-5 -6 6 -1 11 2 17 5 13 3 -3 4 -12 1 -19z"/>
<path d="M210 343 c0 -13 5 -23 10 -23 13 0 13 11 0 30 -8 12 -10 11 -10 -7z"/>
<path d="M237 342 c1 -8 3 -16 3 -18 0 -3 5 -2 10 1 6 3 10 14 10 23 0 13 -2
14 -9 3 -5 -7 -11 -9 -13 -5 -3 5 -3 3 -1 -4z"/>
<path d="M2942 1303 c-8 -15 -9 -24 -1 -28 15 -10 21 0 17 27 l-3 23 -13 -22z"/>
<path d="M2800 1268 c0 -5 7 -8 15 -8 8 0 24 -15 35 -32 20 -32 20 -32 26 -10
4 12 17 25 30 28 33 8 30 24 -3 25 -75 4 -103 3 -103 -3z"/>
</g>
</svg>
