<?xml version="1.0" standalone="no"?>
<!DOCTYPE svg PUBLIC "-//W3C//DTD SVG 20010904//EN"
 "http://www.w3.org/TR/2001/REC-SVG-20010904/DTD/svg10.dtd">
<svg version="1.0" xmlns="http://www.w3.org/2000/svg"
 width="125pt" height="190pt" viewBox="0 0 752.000000 1060.000000"
 preserveAspectRatio="xMidYMid meet">

<g transform="translate(0.000000,1060.000000) scale(0.100000,-0.100000)"
fill="#000000" stroke="none">
<path d="M5 5300 c0 -2918 1 -4111 2 -2652 2 1458 2 3846 0 5305 -1 1458 -2
265 -2 -2653z"/>
<path d="M1054 9916 c-3 -8 -4 -27 -2 -43 3 -27 4 -28 78 -33 l75 -5 0 -85
c-1 -47 -5 -143 -10 -213 l-8 -128 64 3 64 3 11 203 c5 111 14 206 20 212 5 5
43 10 84 12 l75 3 0 40 0 40 -223 3 c-186 2 -223 0 -228 -12z"/>
<path d="M4275 9865 c-5 -2 -22 -6 -37 -9 -17 -4 -29 -15 -35 -32 -10 -29 -78
-60 -89 -42 -4 6 -29 8 -63 4 -31 -4 -67 -6 -81 -5 -14 1 -45 3 -70 3 l-45 1
-7 -70 c-11 -100 -16 -160 -20 -240 l-3 -70 36 -9 c20 -5 48 -6 61 -3 25 7 26
11 32 104 13 176 31 201 148 205 42 2 81 -1 86 -7 6 -6 6 -52 0 -123 -11 -125
-3 -153 48 -172 30 -12 144 -13 161 -2 15 10 29 71 17 73 -5 1 -24 3 -42 5
-53 4 -62 18 -62 94 0 37 3 82 6 99 6 29 9 31 48 31 47 0 66 13 66 46 0 29
-18 42 -65 46 -35 3 -40 6 -41 28 -2 46 -4 50 -21 49 -10 0 -22 -2 -28 -4z"/>
<path d="M1755 9801 c-44 -5 -52 -10 -67 -40 -21 -43 -14 -65 21 -57 14 3 62
9 106 12 68 6 82 4 94 -10 23 -27 -2 -42 -111 -70 -53 -13 -105 -29 -116 -35
-69 -37 -83 -132 -27 -174 32 -23 120 -38 165 -29 40 9 67 47 48 69 -6 8 -19
11 -30 7 -11 -3 -35 -3 -54 1 -45 8 -49 47 -6 63 40 15 131 36 136 31 2 -2 -1
-35 -6 -73 -5 -42 -6 -72 0 -78 14 -14 89 -18 106 -5 12 10 17 44 22 170 7
155 7 158 -16 182 -37 39 -129 52 -265 36z"/>
<path d="M1418 9793 c-19 -3 -29 -12 -32 -26 -4 -18 -11 -141 -19 -317 -2 -35
-2 -35 48 -41 28 -4 55 -2 60 3 6 5 15 62 22 126 11 111 13 118 42 144 23 21
42 28 71 28 46 0 54 10 45 57 l-6 35 -57 -6 c-31 -3 -64 -6 -72 -7 -8 -1 -28
1 -45 4 -16 2 -42 3 -57 0z"/>
<path d="M2118 9793 c-30 -5 -32 -17 -44 -247 -5 -103 -4 -130 7 -137 17 -11
80 -11 95 -1 6 4 14 51 18 106 4 55 14 113 23 132 21 43 72 68 127 61 63 -9
68 -23 64 -172 l-3 -130 46 -3 c32 -2 50 2 59 13 19 23 34 279 18 313 -30 63
-175 93 -268 56 -38 -15 -42 -15 -59 0 -17 16 -30 17 -83 9z"/>
<path d="M2645 9786 c-44 -20 -69 -52 -69 -89 0 -51 8 -62 88 -121 79 -58 82
-62 67 -85 -9 -14 -50 -12 -138 5 -33 6 -33 6 -33 -34 0 -23 6 -45 15 -52 8
-7 52 -15 98 -17 96 -6 147 11 177 59 9 15 19 25 22 22 4 -3 4 -59 1 -125 l-6
-120 59 3 59 3 5 82 c3 45 9 85 12 89 4 3 21 1 39 -5 48 -17 129 -13 174 8 48
22 79 54 100 104 8 20 17 37 20 37 2 0 16 -25 31 -56 23 -48 33 -59 78 -80 66
-31 189 -33 251 -5 81 36 121 115 113 222 -7 103 -71 158 -190 167 -125 9
-213 -32 -250 -115 -16 -36 -22 -42 -34 -32 -8 6 -14 20 -14 30 0 33 -58 87
-112 105 -67 22 -271 15 -296 -10 -12 -11 -18 -47 -23 -128 -9 -132 -7 -118
-19 -118 -6 0 -15 11 -20 24 -5 13 -27 37 -50 52 -87 60 -102 75 -88 91 9 11
29 14 77 11 64 -3 66 -2 69 22 6 49 -18 64 -105 68 -50 1 -89 -3 -108 -12z
m510 -86 c36 -14 59 -71 50 -126 -18 -122 -176 -128 -192 -7 -8 62 5 131 25
136 32 9 91 7 117 -3z m506 -19 c18 -18 29 -40 29 -57 0 -46 -23 -105 -48
-125 -28 -22 -87 -25 -127 -7 -46 21 -57 122 -19 177 35 50 120 56 165 12z"/>
<path d="M1075 9238 c-4 -15 -29 -393 -30 -458 l0 -45 60 0 60 0 11 138 c6 76
14 140 16 142 3 3 16 -12 29 -33 20 -31 30 -38 64 -40 73 -7 140 15 184 60 23
22 41 47 41 56 0 10 3 12 9 7 6 -6 6 -54 1 -120 -5 -60 -9 -136 -9 -168 l-1
-58 58 3 57 3 7 92 c10 131 22 170 61 193 18 11 49 20 70 20 36 0 37 1 37 35
0 46 -32 63 -87 47 -24 -6 -69 -8 -118 -4 l-79 7 -7 33 c-8 41 -34 71 -76 88
-44 19 -352 20 -358 2z m279 -84 c26 -10 37 -39 26 -69 -13 -34 -64 -55 -135
-55 l-55 0 0 53 c0 29 5 58 12 65 12 12 124 17 152 6z"/>
<path d="M5864 9218 c-5 -7 -11 -35 -14 -63 l-5 -50 -85 -1 c-123 -1 -180 -34
-230 -132 -40 -77 -14 -196 53 -246 28 -21 77 -25 217 -17 19 2 53 0 76 -3 71
-10 72 -7 86 224 6 113 12 225 12 250 l1 45 -52 3 c-34 2 -54 -1 -59 -10z
m-46 -204 c20 -6 22 -13 22 -65 0 -73 -22 -130 -59 -152 -37 -22 -70 -22 -101
0 -36 24 -40 32 -40 90 0 44 5 58 30 87 35 39 92 55 148 40z"/>
<path d="M1917 9105 c-50 -17 -85 -50 -108 -100 -21 -45 -25 -138 -8 -182 26
-70 103 -113 202 -113 123 0 186 33 224 117 24 51 43 62 43 23 0 -37 42 -91
91 -115 40 -21 63 -25 133 -25 l84 0 11 31 c20 57 18 59 -66 59 -82 1 -107 11
-132 57 -27 51 -1 132 50 159 26 13 47 15 102 10 l68 -6 -3 37 c-4 52 -32 65
-128 60 -89 -4 -144 -29 -177 -79 -13 -19 -23 -39 -23 -45 0 -6 -6 -16 -14
-23 -12 -9 -17 -5 -25 27 -21 78 -102 123 -220 123 -36 -1 -83 -7 -104 -15z
m175 -89 c31 -23 40 -64 28 -123 -10 -44 -18 -58 -43 -74 -38 -24 -107 -21
-137 6 -43 39 -34 145 17 184 30 24 108 28 135 7z"/>
<path d="M2750 9105 c-94 -30 -140 -99 -140 -210 0 -78 15 -113 67 -152 34
-26 44 -28 149 -31 111 -4 113 -3 129 22 20 30 16 73 -5 68 -8 -2 -47 -6 -87
-9 -70 -6 -72 -5 -103 26 -21 20 -30 39 -28 53 3 22 7 23 132 26 75 1 135 7
143 14 7 6 13 21 13 34 0 27 15 32 27 10 4 -8 37 -36 73 -63 42 -32 66 -57 68
-72 4 -23 3 -24 -65 -19 -37 3 -75 9 -85 13 -20 8 -32 -22 -22 -60 9 -35 38
-45 135 -45 86 0 126 14 153 52 39 55 9 124 -77 181 -67 45 -74 54 -54 75 14
13 23 14 70 2 66 -15 78 -10 70 33 -8 48 -27 57 -117 57 -90 0 -137 -19 -158
-65 -15 -33 -29 -31 -50 5 -32 56 -150 84 -238 55z m120 -83 c34 -28 17 -42
-49 -42 -63 0 -73 4 -64 27 13 33 80 42 113 15z"/>
<path d="M3399 9087 c-42 -28 -60 -83 -39 -121 7 -14 44 -47 81 -73 50 -35 69
-54 69 -70 0 -21 -5 -23 -55 -23 -30 0 -66 5 -80 12 -18 8 -29 8 -36 1 -15
-15 0 -82 22 -93 10 -6 56 -11 103 -11 96 -1 137 15 161 61 34 66 13 108 -92
184 -29 21 -53 42 -53 46 0 22 40 30 85 19 62 -16 78 -8 70 33 -10 49 -29 58
-120 58 -69 0 -88 -4 -116 -23z"/>
<path d="M3760 9088 c-68 -35 -102 -97 -104 -191 -1 -64 2 -78 26 -114 38 -58
85 -77 188 -78 119 0 136 6 143 52 4 20 4 39 1 42 -2 3 -30 0 -62 -7 -100 -20
-177 15 -170 77 l3 26 135 5 135 5 0 57 c-1 101 -58 148 -180 148 -54 0 -82
-6 -115 -22z m169 -77 c14 -26 5 -31 -60 -31 -62 0 -84 15 -54 37 29 20 102
17 114 -6z"/>
<path d="M4165 9103 c-38 -10 -64 -35 -76 -71 -16 -49 4 -85 81 -140 80 -59
87 -69 67 -89 -14 -15 -24 -15 -80 -5 -89 16 -87 17 -87 -28 0 -46 11 -54 86
-65 78 -10 141 3 180 37 29 26 34 37 34 73 0 49 -28 85 -112 142 -34 23 -46
37 -41 49 5 13 19 15 77 12 69 -3 71 -2 74 22 6 49 -18 65 -105 67 -43 1 -87
-1 -98 -4z"/>
<path d="M4708 9103 c-32 -5 -45 -19 -49 -53 -6 -44 4 -48 83 -33 80 14 120
10 139 -14 19 -22 -6 -37 -106 -61 -109 -27 -152 -48 -170 -83 -18 -34 -19
-60 -3 -94 17 -37 58 -55 136 -62 75 -5 100 6 104 47 3 24 0 25 -57 30 -56 5
-60 7 -60 30 0 22 8 28 70 47 39 13 75 21 80 20 6 -2 10 -39 10 -83 l0 -79 56
-3 57 -3 7 113 c4 62 5 142 3 178 l-3 65 -45 23 c-37 18 -59 22 -135 21 -49
-1 -102 -4 -117 -6z"/>
<path d="M5228 9091 c-41 -16 -49 -17 -59 -4 -9 9 -28 13 -63 11 l-51 -3 -6
-120 c-4 -66 -8 -151 -10 -190 l-4 -70 39 -3 c22 -2 50 -1 63 2 22 6 23 11 23
82 0 137 33 206 106 220 47 9 100 -15 106 -48 2 -13 1 -72 -2 -133 -3 -60 -4
-113 -2 -117 5 -11 110 -10 116 0 3 5 8 75 12 155 8 163 3 182 -57 212 -49 26
-155 29 -211 6z"/>
<path d="M3025 8569 c-103 -17 -186 -73 -227 -153 -26 -49 -30 -185 -8 -226
62 -117 174 -167 350 -157 137 7 216 49 265 139 39 71 46 48 35 -113 -15 -211
-17 -195 32 -202 64 -9 72 0 83 95 11 94 -3 85 113 72 89 -11 162 27 202 105
12 24 24 40 28 36 3 -3 18 -27 32 -52 38 -71 88 -93 210 -93 83 0 99 3 114 19
24 27 18 77 -9 73 -11 -2 -50 -6 -86 -9 -59 -5 -68 -3 -92 18 -15 13 -30 38
-33 55 -5 28 -3 32 23 36 15 3 66 3 113 1 47 -2 100 -1 118 2 29 5 32 9 32 44
0 112 -84 180 -210 168 -93 -8 -163 -55 -184 -124 -11 -35 -29 -27 -53 25 -16
35 -35 55 -65 73 -40 22 -53 24 -179 24 -150 0 -169 -6 -169 -57 0 -38 -13
-29 -30 22 -17 52 -72 115 -122 141 -45 23 -157 49 -203 48 -16 -1 -53 -5 -80
-10z m172 -104 c37 -11 58 -25 79 -53 26 -33 29 -45 29 -108 0 -62 -3 -75 -28
-107 -43 -56 -79 -71 -172 -71 -66 -1 -87 4 -121 23 -132 75 -102 277 47 319
51 15 109 14 166 -3z m974 -125 c10 -6 19 -20 19 -30 0 -18 -7 -20 -65 -20
-57 0 -65 2 -65 18 0 34 70 53 111 32z m-423 -35 c27 -32 30 -95 4 -145 -32
-65 -127 -67 -165 -3 -16 27 -17 42 -10 100 7 60 11 68 33 75 46 13 113 0 138
-27z"/>
<path d="M1064 8558 c-8 -12 -22 -230 -23 -344 -1 -75 24 -117 89 -154 42 -23
55 -25 175 -25 120 0 133 2 175 25 24 14 57 43 72 66 23 35 28 54 34 142 4 57
9 100 11 98 4 -4 6 -272 2 -292 -5 -31 2 -35 59 -32 l57 3 6 100 c7 118 26
165 76 189 42 20 66 20 103 1 36 -19 43 -59 32 -180 -5 -49 -7 -96 -4 -102 2
-8 24 -13 58 -13 30 0 55 1 55 3 1 1 7 67 14 147 11 131 11 148 -4 175 -37 65
-131 89 -244 60 -54 -13 -71 -14 -82 -5 -10 8 -35 11 -70 8 l-55 -5 0 68 0 68
-44 6 c-56 9 -86 -6 -86 -43 -1 -103 -22 -317 -34 -340 -25 -48 -94 -68 -178
-50 -90 18 -100 59 -78 307 7 74 6 108 -1 118 -14 16 -105 17 -115 1z"/>
<path d="M2116 8544 c-9 -22 -7 -84 2 -85 41 -7 93 -5 100 4 14 18 23 63 16
81 -9 23 -109 23 -118 0z"/>
<path d="M5356 8542 c-4 -7 -9 -66 -7 -90 1 -9 17 -12 59 -10 l57 3 3 48 c2
26 -1 47 -5 48 -65 6 -103 7 -107 1z"/>
<path d="M2364 8499 c-35 -8 -43 -14 -48 -39 -4 -20 -12 -30 -24 -30 -9 0 -27
-7 -39 -15 -14 -10 -24 -12 -28 -5 -3 5 -33 10 -66 10 -58 0 -59 -1 -59 -27
-1 -51 -11 -207 -19 -276 -4 -37 -5 -69 -3 -72 3 -3 31 -5 63 -5 69 0 65 -11
75 199 l7 154 19 -26 c12 -16 29 -27 44 -27 21 0 24 -5 24 -34 0 -19 -5 -69
-11 -112 -17 -126 15 -164 136 -164 72 0 95 12 95 50 0 30 -6 34 -47 30 -12 0
-31 8 -43 20 -20 20 -21 28 -15 108 4 48 10 90 14 94 3 4 26 8 51 10 44 3 45
4 48 41 3 30 0 37 -15 39 -10 0 -22 2 -28 3 -5 2 -20 3 -32 4 -18 1 -22 8 -25
38 -3 42 -12 46 -74 32z"/>
<path d="M5110 8477 c-13 -7 -27 -23 -30 -37 -3 -14 -14 -26 -25 -28 -11 -2
-31 -14 -44 -25 -17 -16 -25 -18 -28 -9 -7 20 -66 40 -124 42 -129 6 -178 1
-199 -20 -20 -20 -27 -64 -11 -74 5 -3 45 0 89 6 87 13 132 3 132 -27 0 -19
-23 -29 -129 -55 -107 -27 -135 -42 -151 -80 -39 -95 20 -154 154 -153 63 1
86 16 86 55 0 15 -8 18 -46 18 -75 0 -111 35 -63 60 32 17 129 41 140 34 6 -3
9 -40 7 -82 l-3 -77 49 -3 c27 -2 53 1 58 6 6 6 14 66 19 134 11 159 14 168
43 168 39 0 43 -17 33 -126 -12 -116 -6 -147 28 -170 53 -35 205 -26 205 12 0
7 5 16 11 20 7 4 9 -2 7 -17 -3 -23 0 -24 57 -24 l60 0 7 80 c3 44 8 130 10
190 l3 110 -50 3 c-64 4 -75 -10 -75 -102 0 -39 -3 -101 -7 -138 l-6 -68 -51
0 c-29 0 -57 5 -64 12 -13 13 -15 145 -3 188 6 21 13 25 53 28 50 3 66 22 53
62 -5 16 -15 20 -50 20 -34 0 -45 4 -50 19 -3 10 -5 23 -4 27 6 36 -40 47 -91
21z"/>
<path d="M4369 8414 c-22 -6 -29 -34 -29 -112 0 -34 -5 -106 -11 -159 -12
-107 -9 -114 46 -120 58 -6 75 9 75 70 0 29 5 81 10 117 13 82 48 120 110 120
46 0 54 10 45 57 l-6 35 -52 -6 c-85 -10 -90 -10 -132 -4 -22 3 -47 4 -56 2z"/>
<path d="M5605 8408 c-48 -17 -81 -45 -108 -91 -32 -56 -39 -97 -26 -158 22
-100 93 -148 222 -149 123 0 206 51 223 138 11 56 23 35 26 -45 l3 -78 55 0
55 0 8 98 c8 116 24 159 69 187 43 27 105 21 131 -12 17 -20 19 -38 16 -148
l-4 -125 49 -3 c27 -2 52 0 57 5 11 11 24 283 15 317 -5 20 -20 34 -59 52 -63
29 -132 31 -200 7 -39 -14 -52 -15 -67 -5 -22 13 -96 17 -103 5 -3 -5 -8 -44
-11 -88 -4 -43 -9 -81 -11 -83 -2 -3 -9 17 -16 43 -15 60 -70 119 -124 134
-50 14 -160 13 -200 -1z m176 -107 c31 -32 36 -61 19 -123 -22 -76 -117 -105
-177 -54 -24 21 -28 31 -27 79 0 87 35 125 117 126 30 1 45 -6 68 -28z"/>
<path d="M6533 8408 c-46 -10 -88 -46 -97 -84 -10 -38 20 -82 94 -134 36 -26
66 -54 68 -63 6 -29 -42 -39 -106 -23 -30 8 -59 13 -64 10 -10 -7 -10 -65 1
-82 12 -20 117 -31 184 -20 71 13 107 49 107 108 0 47 -30 85 -101 131 -77 51
-62 89 28 68 61 -13 73 -7 73 36 0 28 -5 37 -22 44 -39 14 -121 19 -165 9z"/>
<path d="M1045 7730 c-3 -5 3 -10 13 -10 37 0 43 -22 36 -120 -7 -87 -6 -92
12 -88 13 2 20 13 22 33 11 139 14 156 31 165 10 5 28 6 40 3 22 -6 22 -8 16
-98 -5 -68 -4 -94 5 -100 18 -11 30 14 30 63 0 48 26 82 63 82 37 0 47 -19 47
-88 0 -46 3 -63 12 -60 29 10 33 137 5 155 -7 4 -37 10 -67 13 -47 4 -55 8
-55 25 0 14 -9 22 -30 26 -49 11 -173 10 -180 -1z"/>
<path d="M1440 7730 c0 -5 5 -10 11 -10 5 0 7 5 4 10 -3 6 -8 10 -11 10 -2 0
-4 -4 -4 -10z"/>
<path d="M1867 7727 c-3 -8 -8 -59 -12 -114 -8 -114 -14 -108 89 -112 44 -2
57 1 54 11 -3 8 -24 14 -52 16 -51 3 -62 16 -52 57 6 23 11 25 57 25 36 0 49
4 46 13 -2 6 -12 12 -23 13 -10 1 -32 2 -47 3 -26 1 -28 4 -25 39 3 37 4 37
48 38 67 3 70 3 70 14 0 16 -147 13 -153 -3z"/>
<path d="M1720 7706 c-7 -20 -16 -26 -40 -26 -93 0 -144 -96 -84 -157 23 -23
30 -25 82 -18 31 4 60 10 64 13 13 13 13 205 0 210 -7 2 -16 -8 -22 -22z m-10
-61 c15 -18 5 -83 -17 -107 -22 -25 -59 -22 -77 4 -23 33 -20 56 13 89 32 32
62 37 81 14z"/>
<path d="M2168 7708 c-2 -19 -10 -24 -50 -28 -68 -8 -105 -45 -100 -100 6 -61
40 -84 112 -75 30 4 58 10 62 13 3 4 8 52 10 107 3 87 1 100 -14 103 -11 2
-18 -5 -20 -20z m-4 -100 c-1 -77 -50 -112 -94 -68 -28 28 -25 57 10 91 22 22
37 29 57 27 26 -3 28 -6 27 -50z"/>
<path d="M2297 7686 c-15 -12 -16 -18 -7 -35 6 -13 8 -40 4 -69 -5 -38 -3 -52
11 -65 18 -19 70 -23 80 -7 3 6 -2 10 -12 10 -31 0 -43 21 -43 72 0 45 2 49
33 62 28 12 30 14 12 21 -11 3 -28 11 -37 16 -22 11 -19 11 -41 -5z"/>
<path d="M1504 7673 c-19 -4 -22 -12 -26 -76 -3 -40 -2 -76 3 -81 16 -18 29 7
29 54 0 51 13 73 50 85 11 4 18 11 15 16 -6 9 -32 10 -71 2z"/>
<path d="M2510 7673 c-8 -3 -25 -15 -38 -26 l-23 -21 -6 22 c-9 37 -33 27 -34
-15 0 -21 -2 -57 -5 -79 -4 -32 -2 -43 10 -47 11 -4 18 1 22 18 8 31 7 31 38
0 19 -19 36 -25 66 -25 51 0 75 12 94 48 l14 27 7 -38 c12 -62 35 -40 35 34 0
47 25 79 60 79 40 0 50 -18 50 -88 0 -46 3 -63 13 -60 8 3 13 31 15 80 3 75 3
75 -27 88 -19 7 -42 9 -63 4 -18 -4 -41 -7 -51 -5 -12 2 -21 -8 -29 -30 -11
-31 -11 -32 -23 -9 -21 40 -79 60 -125 43z m82 -40 c22 -20 23 -61 2 -91 -24
-35 -84 -28 -103 12 -12 26 -12 33 4 63 14 26 24 33 48 33 17 0 39 -7 49 -17z"/>
<path d="M1427 7663 c-3 -5 -8 -38 -12 -74 -7 -69 -1 -85 29 -73 22 9 24 154
2 154 -8 0 -17 -3 -19 -7z"/>
<path d="M2223 7654 c-3 -9 -7 -44 -7 -78 -1 -47 2 -61 14 -61 9 0 17 14 21
40 19 118 19 115 -2 115 -11 0 -22 -7 -26 -16z"/>
<path d="M1045 7181 c-12 -21 -15 -380 -32 -4258 -5 -1313 -4 -1533 8 -1537
14 -4 2778 -14 4898 -18 961 -1 1124 1 1131 13 4 8 11 761 15 1674 3 913 10
2206 15 2872 5 667 7 1219 4 1227 -4 11 -218 14 -1407 20 -3402 14 -4626 16
-4632 7z m3705 -37 c1240 -3 2266 -8 2279 -10 l24 -5 -6 -822 c-4 -452 -8
-1261 -9 -1797 -2 -1537 -15 -3091 -26 -3102 -10 -10 -2171 -12 -3157 -3 -236
2 -959 4 -1604 5 -745 1 -1182 5 -1193 11 -21 11 -21 -452 3 3913 5 995 12
1813 16 1819 4 7 232 8 712 4 388 -4 1721 -9 2961 -13z"/>
<path d="M2296 7045 c-3 -9 1 -26 9 -38 8 -12 15 -31 15 -42 0 -11 9 -38 20
-60 11 -22 35 -87 53 -145 43 -133 66 -197 83 -235 7 -16 16 -42 20 -58 3 -15
10 -30 15 -33 5 -3 9 -19 9 -35 0 -17 11 -47 25 -67 15 -22 25 -51 25 -72 0
-19 9 -49 19 -66 20 -32 51 -130 51 -160 0 -10 10 -28 22 -41 17 -18 24 -41
29 -92 4 -53 13 -81 38 -121 18 -29 34 -71 37 -94 5 -52 20 -107 49 -176 13
-30 28 -73 35 -95 7 -22 19 -52 26 -67 8 -14 14 -33 14 -42 0 -9 13 -44 29
-78 17 -35 41 -98 55 -141 14 -43 39 -103 56 -133 16 -30 30 -64 30 -75 0 -26
29 -69 46 -69 8 0 14 6 14 14 0 8 7 22 15 30 13 13 20 13 35 4 12 -8 15 -15 9
-19 -16 -10 6 -20 26 -13 13 5 14 8 3 15 -9 6 -3 9 18 9 23 0 34 -6 42 -25 22
-48 33 -53 59 -29 13 12 23 28 23 37 0 20 -22 35 -28 19 -5 -15 -32 -16 -32
-2 0 10 5 12 53 15 34 3 46 13 27 26 -10 6 -12 11 -4 17 6 4 14 16 18 27 6 16
9 17 16 5 21 -33 15 44 -11 131 -10 36 -19 74 -19 84 0 9 -6 31 -13 48 -8 18
-19 50 -26 72 -7 22 -20 60 -30 85 -11 25 -31 86 -46 135 -15 50 -31 101 -37
114 -5 14 -13 43 -18 65 -4 23 -20 73 -34 111 -44 116 -87 238 -97 278 -5 22
-18 55 -28 75 -10 21 -26 63 -35 94 -10 32 -22 60 -27 64 -5 3 -9 19 -9 35 0
16 -9 47 -19 68 -22 41 -66 177 -76 231 -9 47 -28 104 -38 111 -4 3 -9 16 -12
28 -2 13 -8 28 -14 35 -5 6 -11 22 -13 36 -2 19 1 25 17 25 19 0 26 -16 42
-100 3 -16 11 -34 18 -40 6 -5 17 -30 24 -54 20 -70 32 -77 84 -47 48 28 84
32 133 14 29 -10 39 -9 83 14 44 23 50 25 54 10 4 -15 5 -15 6 1 1 13 10 17
36 17 31 0 35 3 35 25 0 14 6 25 13 25 13 0 37 -53 37 -82 0 -9 7 -21 15 -28
8 -7 12 -16 9 -21 -3 -5 2 -16 10 -25 9 -8 19 -22 24 -30 8 -14 24 -15 143 -4
74 6 143 15 154 20 11 4 40 14 65 21 25 7 53 19 62 27 13 11 28 12 70 4 69
-13 136 -13 143 -1 4 5 18 9 32 9 23 0 81 22 136 51 30 16 140 39 191 39 27 0
63 4 80 10 17 5 65 19 106 31 41 13 81 27 87 32 7 5 61 13 120 18 120 9 137
13 270 58 62 21 112 31 152 31 32 0 71 6 86 14 15 8 33 12 40 9 7 -2 28 3 47
13 18 9 60 21 93 25 33 4 92 17 130 29 176 55 296 45 395 -33 86 -69 99 -77
119 -77 15 0 21 -6 21 -23 0 -13 7 -32 15 -43 8 -10 15 -27 15 -37 0 -14 -5
-17 -22 -11 -13 3 -30 13 -39 20 -8 8 -26 14 -38 14 -17 0 -22 5 -20 23 6 50
-29 87 -81 87 -11 0 -20 6 -20 14 0 18 -22 26 -49 19 -16 -4 -21 -1 -21 16 0
22 -28 29 -46 11 -5 -5 -43 -12 -84 -15 -144 -10 -169 -16 -189 -52 -9 -17
-11 -17 -29 0 -19 17 -22 17 -51 3 -16 -9 -43 -16 -59 -16 -16 0 -35 -6 -41
-14 -10 -12 -50 -20 -151 -30 -20 -2 -49 -10 -65 -18 -17 -9 -61 -21 -100 -28
-38 -8 -77 -19 -85 -25 -9 -7 -53 -13 -104 -13 -49 -1 -95 -7 -102 -13 -7 -6
-26 -8 -42 -4 -24 5 -34 1 -55 -24 -19 -23 -26 -27 -31 -16 -8 21 -39 18 -66
-5 -13 -12 -30 -18 -37 -15 -18 6 -83 -21 -83 -34 0 -17 -30 -13 -36 4 -8 19
-38 19 -54 0 -9 -11 -22 -14 -42 -10 -19 5 -37 1 -54 -10 -14 -9 -32 -14 -41
-11 -17 7 -46 -7 -86 -40 -23 -19 -32 -22 -48 -13 -13 7 -24 7 -32 1 -7 -6
-63 -9 -125 -8 -97 2 -116 0 -145 -17 -31 -19 -68 -27 -132 -28 -45 -1 -92
-18 -100 -37 -5 -15 -9 -14 -25 8 -15 19 -21 22 -32 12 -8 -6 -17 -9 -20 -7
-3 3 -18 1 -34 -5 -26 -10 -27 -12 -11 -22 13 -7 17 -17 13 -33 -3 -13 -2 -27
4 -30 5 -3 10 -24 10 -46 0 -25 7 -46 19 -58 18 -18 27 -44 38 -108 3 -18 11
-38 19 -44 8 -6 14 -26 14 -44 0 -18 7 -38 15 -45 8 -7 15 -20 15 -29 0 -9 7
-27 16 -39 20 -28 15 -76 -8 -80 -11 -2 -18 3 -18 11 0 8 -9 22 -20 32 -11 10
-20 30 -20 45 0 15 -7 33 -15 40 -8 7 -15 20 -15 30 0 10 -7 23 -15 30 -9 7
-13 21 -10 31 3 10 -1 32 -10 49 -9 17 -13 39 -10 49 3 11 -3 25 -15 36 -12
10 -20 31 -20 49 0 17 -7 40 -15 50 -8 11 -15 28 -15 38 0 10 -7 18 -15 18
-21 0 -29 24 -16 49 9 17 8 22 -9 31 -15 8 -20 21 -20 55 0 27 -5 47 -14 52
-8 4 -16 17 -18 28 -3 17 -10 20 -51 17 -26 -2 -67 -11 -91 -21 -31 -14 -62
-18 -116 -16 -71 3 -75 2 -102 -27 -32 -34 -33 -43 -13 -78 8 -14 14 -35 15
-48 0 -12 9 -30 20 -39 11 -10 20 -30 20 -46 0 -15 7 -30 15 -33 9 -4 15 -19
15 -39 0 -19 5 -37 10 -40 6 -3 10 -16 10 -28 1 -12 9 -40 20 -62 11 -22 19
-47 20 -56 0 -9 7 -22 15 -29 8 -6 14 -19 13 -28 -3 -37 3 -52 18 -52 12 0 15
-6 11 -22 -3 -12 2 -42 13 -67 10 -25 21 -62 24 -81 3 -19 13 -48 21 -64 8
-15 15 -39 15 -52 0 -12 5 -26 10 -29 6 -3 10 -17 10 -29 0 -20 4 -23 28 -18
15 2 32 9 38 14 7 4 38 15 70 24 32 8 63 19 68 23 6 5 32 12 59 15 26 4 47 11
47 17 0 10 -1 10 -40 15 -103 13 -125 29 -96 69 10 15 17 17 27 8 23 -18 123
-26 165 -13 63 20 84 33 106 68 l21 33 -22 6 c-27 7 -24 17 30 89 l43 56 15
-29 c8 -15 16 -44 18 -63 1 -19 10 -40 19 -47 14 -10 15 -17 6 -35 l-11 -23
-7 23 c-3 12 -12 22 -19 22 -14 0 -45 -32 -45 -47 0 -5 -13 -22 -30 -36 -16
-15 -30 -32 -30 -37 0 -14 32 -12 55 4 11 7 38 16 60 20 60 10 94 26 89 41 -3
7 -1 16 5 20 16 9 13 61 -4 75 -26 22 -12 100 17 100 7 0 22 12 34 28 22 26
23 26 36 9 13 -18 15 -18 52 -1 32 16 38 16 46 4 14 -22 12 -28 -10 -40 -30
-16 -25 -31 26 -84 38 -40 45 -53 41 -76 -7 -35 13 -112 47 -179 14 -29 26
-59 26 -67 0 -10 8 -5 23 12 17 19 34 27 57 28 31 1 34 4 35 30 0 25 8 33 55
58 30 17 63 37 72 45 10 9 29 14 47 11 20 -3 27 0 24 8 -6 17 32 54 56 54 10
0 24 7 32 16 7 8 29 24 48 35 43 22 72 47 89 77 17 30 15 42 -7 42 -27 0 -30
8 -24 63 6 54 22 60 56 24 12 -13 30 -26 39 -30 12 -4 15 -12 11 -24 -5 -15
-4 -16 8 -7 8 6 27 14 43 17 23 4 36 -1 57 -23 50 -50 51 -106 2 -155 -16 -15
-29 -38 -30 -50 -1 -13 -8 -36 -16 -52 -8 -15 -12 -34 -10 -40 3 -8 -4 -13
-16 -13 -12 0 -21 5 -21 11 0 5 -4 7 -10 4 -15 -9 -12 -41 5 -58 17 -18 7 -31
-11 -16 -8 6 -20 9 -28 6 -17 -7 -26 -53 -13 -66 14 -14 2 -25 -17 -18 -9 4
-13 12 -11 19 4 10 -3 13 -22 12 -25 -1 -28 -4 -25 -30 2 -16 -4 -46 -13 -67
-17 -41 -7 -77 20 -77 18 0 19 -12 3 -28 -6 -6 -9 -14 -6 -18 4 -3 12 4 18 16
9 17 8 26 -5 47 -12 18 -14 28 -6 36 8 8 11 8 11 -1 0 -7 5 -12 11 -12 8 0 10
12 6 34 -4 28 -2 35 13 39 19 5 60 -30 60 -51 0 -7 11 -12 25 -12 14 0 25 4
25 8 0 5 7 9 15 9 18 0 19 -18 2 -36 -7 -9 -7 -11 -1 -8 7 4 15 -1 19 -11 7
-16 8 -15 15 3 13 30 12 57 -2 49 -7 -4 -8 -3 -4 4 4 7 14 12 22 12 8 0 14 6
14 14 0 19 14 28 34 20 26 -10 20 -44 -8 -44 -18 0 -23 -4 -19 -18 2 -10 10
-19 16 -20 7 -1 26 -4 43 -8 27 -5 32 -3 37 18 11 41 8 76 -9 82 -9 4 -14 15
-12 28 5 35 47 25 86 -19 27 -31 35 -35 42 -23 7 11 25 14 67 13 117 -4 121
-5 115 -25 -5 -20 5 -23 28 -8 13 9 13 10 0 10 -11 0 -9 4 5 12 33 18 65 57
59 72 -3 7 6 21 20 30 15 9 26 23 26 31 0 7 7 21 16 30 23 23 35 3 32 -57 -1
-26 1 -51 5 -54 10 -10 62 13 59 26 -1 7 4 23 13 37 9 14 14 31 11 38 -7 18
14 31 24 15 5 -8 17 -6 46 9 49 26 56 26 54 -1 -5 -59 -2 -62 31 -34 17 14 37
26 45 26 9 0 14 7 12 17 -2 14 5 17 40 18 23 1 45 5 48 8 4 4 17 4 29 1 12 -3
39 1 59 10 22 9 36 11 36 4 0 -5 7 -7 17 -4 10 4 25 -2 40 -16 l23 -22 -25 70
c-14 38 -52 157 -84 264 -65 216 -98 300 -118 300 -7 0 -22 5 -33 12 -15 10
-24 9 -44 -1 -21 -12 -28 -12 -41 -1 -14 11 -17 10 -21 -8 -8 -30 -74 -42 -74
-13 0 5 9 11 19 14 14 3 21 15 23 43 3 37 5 39 38 40 18 1 36 6 38 13 2 7 15
16 28 21 35 14 30 32 -8 28 -24 -2 -33 1 -36 15 -2 12 3 17 18 17 25 0 35 21
26 56 -5 20 -11 24 -29 19 -12 -4 -17 -3 -11 2 21 15 27 71 10 89 -9 8 -16 24
-16 34 0 10 -9 22 -20 25 -19 6 -29 35 -12 35 5 0 14 11 20 25 12 26 42 35 42
12 0 -7 5 -18 12 -25 9 -9 16 -8 29 4 14 13 20 13 38 2 16 -10 23 -10 33 0 18
18 27 15 21 -8 -4 -14 2 -22 21 -30 25 -9 31 -23 27 -62 -1 -10 4 -18 11 -18
7 0 27 -9 44 -19 29 -17 31 -23 25 -53 -5 -22 -2 -42 8 -59 13 -23 22 -27 61
-26 25 0 50 -1 55 -2 6 -2 34 -3 64 -2 60 1 58 -10 26 106 -8 33 -21 70 -26
81 -6 12 -12 36 -14 54 -1 18 -6 35 -11 39 -15 11 -54 89 -54 109 0 10 -9 27
-21 38 -20 18 -45 19 -648 19 -344 -1 -717 -3 -828 -5 l-202 -5 4 -24 c5 -30
-11 -62 -29 -55 -10 4 -12 17 -9 43 3 23 1 41 -6 45 -12 8 -350 10 -514 4 -59
-3 -110 -2 -112 2 -2 4 -26 5 -52 4 -106 -5 -285 -4 -879 2 -574 5 -622 4
-628 -11z m2444 -35 c0 -5 -5 -10 -11 -10 -5 0 -7 5 -4 10 3 6 8 10 11 10 2 0
4 -4 4 -10z m-937 -56 c18 -9 33 -18 35 -19 2 -2 -4 -15 -13 -29 -22 -33 -45
-34 -45 -1 0 14 -4 25 -10 25 -5 0 -10 9 -10 20 0 24 2 24 43 4z m-533 -24 c0
-5 -4 -10 -10 -10 -5 0 -10 5 -10 10 0 6 5 10 10 10 6 0 10 -4 10 -10z m1293
-29 c5 -22 -13 -33 -33 -21 -16 10 -6 40 14 40 7 0 16 -9 19 -19z m-1253 -46
c6 -19 16 -35 21 -35 5 0 9 -16 9 -35 0 -30 -3 -35 -16 -27 -9 5 -24 33 -35
63 -22 66 -23 69 -5 69 8 0 20 -16 26 -35z m2333 -20 c1 -5 -6 -11 -15 -13
-11 -2 -18 3 -18 13 0 17 30 18 33 0z m47 -45 c0 -10 -32 -30 -49 -30 -8 0 -7
7 1 20 13 20 48 28 48 10z m-100 -30 c0 -5 -5 -10 -11 -10 -5 0 -7 5 -4 10 3
6 8 10 11 10 2 0 4 -4 4 -10z m-1730 -37 c0 -7 -4 -13 -10 -13 -5 0 -10 12
-10 28 0 21 2 24 10 12 5 -8 10 -21 10 -27z m1097 -35 c-3 -8 -6 -5 -6 6 -1
11 2 17 5 13 3 -3 4 -12 1 -19z m-77 2 c0 -5 -7 -10 -16 -10 -8 0 -12 5 -9 10
3 6 10 10 16 10 5 0 9 -4 9 -10z m230 -19 c0 -6 -4 -13 -10 -16 -5 -3 -10 1
-10 9 0 9 5 16 10 16 6 0 10 -4 10 -9z m100 -6 c0 -8 -7 -15 -15 -15 -9 0 -12
6 -9 15 4 8 10 15 15 15 5 0 9 -7 9 -15z m-280 -12 c0 -10 -42 -53 -52 -53
-16 0 -8 22 15 41 23 19 37 24 37 12z m-250 -18 c0 -8 -7 -15 -15 -15 -9 0
-12 6 -9 15 4 8 10 15 15 15 5 0 9 -7 9 -15z m480 -31 c0 -13 -4 -24 -10 -24
-5 0 -10 14 -10 31 0 17 4 28 10 24 6 -3 10 -17 10 -31z m-346 0 c-5 -21 -1
-31 22 -49 26 -21 27 -24 11 -31 -12 -4 -25 0 -38 15 -11 11 -24 21 -29 21
-13 0 -13 26 0 51 16 30 42 25 34 -7z m978 -2 c-8 -2 -9 -9 -2 -22 12 -22 -5
-39 -22 -22 -6 6 -4 21 8 43 11 23 19 29 22 20 3 -8 0 -17 -6 -19z m-1332 -12
c0 -5 -5 -10 -11 -10 -5 0 -7 5 -4 10 3 6 8 10 11 10 2 0 4 -4 4 -10z m590
-10 c0 -11 -7 -20 -15 -20 -15 0 -21 21 -8 33 12 13 23 7 23 -13z m-520 -14
c0 -3 -4 -8 -10 -11 -5 -3 -10 -1 -10 4 0 6 5 11 10 11 6 0 10 -2 10 -4z m477
-30 c-2 -6 -14 -13 -28 -14 -13 -2 -29 -8 -36 -13 -7 -6 -13 -6 -17 -1 -7 12
18 34 28 24 4 -4 7 -2 6 3 -4 19 0 22 25 17 14 -2 24 -10 22 -16z m413 10 c0
-20 -11 -46 -19 -46 -4 0 -6 14 -3 30 4 30 22 43 22 16z m-72 -26 c-2 -32 -28
-43 -28 -12 0 15 17 42 27 42 2 0 2 -13 1 -30z m-858 -21 c0 -5 -4 -9 -10 -9
-5 0 -10 7 -10 16 0 8 5 12 10 9 6 -3 10 -10 10 -16z m1090 7 c0 -16 -12 -21
-74 -32 -37 -6 -38 -6 -27 15 9 16 18 20 36 15 15 -4 25 -2 25 5 0 6 9 11 20
11 11 0 20 -6 20 -14z m-776 -31 c-6 -16 -24 -21 -24 -7 0 11 11 22 21 22 5 0
6 -7 3 -15z m-1603 -17 c11 -13 27 -38 35 -55 8 -18 19 -33 25 -33 6 0 10 -12
9 -27 -3 -44 -1 -53 13 -53 9 0 11 -12 9 -40 -3 -30 0 -41 12 -46 10 -4 16
-18 16 -39 0 -19 5 -37 10 -40 6 -3 10 -21 10 -39 0 -17 5 -37 11 -43 10 -10
21 -133 11 -133 -8 0 -41 45 -42 57 0 6 -9 18 -21 27 -15 10 -22 28 -24 58 -6
77 -17 119 -31 125 -9 3 -12 13 -9 24 3 10 0 31 -8 46 -8 15 -21 56 -30 90 -8
34 -20 69 -25 78 -8 16 -5 65 5 65 3 0 14 -10 24 -22z m1777 0 c-6 -18 -28
-21 -28 -4 0 9 7 16 16 16 9 0 14 -5 12 -12z m147 -17 c-3 -6 -11 -11 -17 -11
-6 0 -6 6 2 15 14 17 26 13 15 -4z m-925 -11 c0 -5 -4 -10 -9 -10 -6 0 -13 5
-16 10 -3 6 1 10 9 10 9 0 16 -4 16 -10z m500 -5 c0 -8 -9 -15 -20 -15 -11 0
-20 7 -20 15 0 8 9 15 20 15 11 0 20 -7 20 -15z m148 3 c-6 -18 -28 -21 -28
-4 0 9 7 16 16 16 9 0 14 -5 12 -12z m412 -30 c-12 -10 -37 -18 -55 -18 -18 0
-40 -3 -49 -6 -10 -4 -16 -1 -16 9 0 24 25 38 51 29 25 -10 78 6 80 23 0 5 3
4 6 -4 3 -8 -4 -23 -17 -33z m-1307 -27 l-6 -25 -9 23 c-9 25 -1 48 13 34 5
-5 6 -19 2 -32z m97 24 c0 -8 -4 -15 -10 -15 -5 0 -10 7 -10 15 0 8 5 15 10
15 6 0 10 -7 10 -15z m1050 -1 c0 -8 -5 -12 -10 -9 -6 4 -8 11 -5 16 9 14 15
11 15 -7z m-451 -20 c8 -19 17 -25 31 -21 24 6 27 -18 4 -27 -21 -8 -74 14
-74 31 0 18 11 43 19 43 4 0 13 -12 20 -26z m365 -1 c-9 -39 -13 -43 -33 -43
-10 0 -24 -7 -31 -15 -7 -8 -23 -15 -36 -15 -12 0 -26 -4 -29 -10 -9 -15 -65
-12 -65 3 0 19 53 47 78 40 25 -6 92 34 92 55 0 6 7 12 15 12 12 0 14 -7 9
-27z m-881 -11 c-18 -5 -27 3 -18 17 4 7 10 7 20 -2 11 -10 11 -13 -2 -15z
m87 18 c0 -5 -2 -10 -4 -10 -2 0 -12 -3 -22 -7 -16 -6 -17 -5 -4 10 17 19 30
22 30 7z m594 -9 c7 -10 -18 -34 -27 -25 -7 8 3 34 13 34 5 0 11 -4 14 -9z
m704 -38 c23 -30 28 -46 25 -73 -4 -32 15 -93 68 -226 13 -32 5 -75 -10 -58
-5 5 -16 29 -25 54 -51 151 -76 200 -101 200 -10 0 -13 14 -10 63 1 34 3 65 4
70 2 16 21 5 49 -30z m-1511 1 c-3 -3 -12 -4 -19 -1 -8 3 -5 6 6 6 11 1 17 -2
13 -5z m-107 -48 c0 -2 -7 -9 -15 -16 -13 -11 -14 -10 -9 4 5 14 24 23 24 12z
m833 -18 c-4 -19 -20 -28 -91 -51 -98 -31 -122 -34 -122 -12 0 19 31 35 67 35
16 0 38 7 49 15 10 8 33 15 51 15 17 0 35 5 38 10 10 16 13 12 8 -12z m-613 2
c0 -5 -4 -10 -10 -10 -5 0 -10 5 -10 10 0 6 5 10 10 10 6 0 10 -4 10 -10z
m-410 -19 c0 -5 -7 -14 -15 -21 -12 -10 -15 -10 -15 2 0 8 3 18 7 21 9 10 23
9 23 -2z m361 -59 c-18 -5 -45 23 -36 38 5 7 14 4 28 -12 17 -17 19 -24 8 -26z
m349 -22 c0 -6 -8 -13 -17 -16 -10 -4 -42 -17 -71 -31 -51 -24 -82 -25 -82 -3
0 6 8 13 18 16 9 3 25 10 34 15 10 5 27 9 37 9 11 0 23 5 26 10 8 13 55 13 55
0z m-1180 -109 c0 -6 -4 -13 -10 -16 -5 -3 -10 1 -10 9 0 9 5 16 10 16 6 0 10
-4 10 -9z m2670 -91 c6 -12 10 -38 8 -58 -3 -37 -4 -37 -46 -36 -23 0 -45 3
-48 6 -3 4 -2 26 3 49 7 34 14 45 33 50 38 11 39 10 50 -11z m-572 -162 c-3
-7 -11 -13 -18 -13 -7 0 -15 6 -17 13 -3 7 4 12 17 12 13 0 20 -5 18 -12z m52
-63 c0 -2 -9 -9 -20 -15 -16 -9 -18 -8 -14 5 5 13 34 22 34 10z m-190 -60 c0
-8 -4 -15 -9 -15 -13 0 -22 16 -14 24 11 11 23 6 23 -9z m216 -47 c4 -7 4 -10
-1 -6 -4 4 -14 3 -22 -3 -10 -9 -13 -8 -13 5 0 19 26 22 36 4z m-2026 -592 c0
-11 -19 -15 -25 -6 -3 5 1 10 9 10 9 0 16 -2 16 -4z m-33 -88 c-3 -8 -6 -5 -6
6 -1 11 2 17 5 13 3 -3 4 -12 1 -19z"/>
<path d="M6780 7040 c0 -19 54 -80 71 -80 19 0 29 -20 29 -55 0 -26 44 -60 66
-51 12 5 14 24 12 98 l-3 93 -87 3 c-59 2 -88 -1 -88 -8z"/>
<path d="M6280 7015 c0 -8 5 -15 10 -15 6 0 10 -11 10 -25 0 -14 5 -25 11 -25
7 0 9 -10 5 -26 -4 -14 -3 -31 2 -37 5 -7 12 -23 15 -37 3 -14 19 -63 36 -109
17 -46 31 -91 31 -100 0 -23 55 -81 77 -81 10 0 40 -11 67 -25 27 -14 58 -25
67 -25 10 0 38 -9 61 -19 24 -11 63 -27 88 -36 92 -34 132 -59 156 -97 13 -21
29 -38 34 -38 6 0 10 51 10 131 l0 130 -37 34 c-21 19 -41 35 -45 35 -10 0
-88 53 -88 60 0 4 -18 13 -41 20 -22 8 -46 21 -52 29 -7 9 -25 23 -42 31 -16
8 -34 21 -38 27 -4 7 -12 13 -17 13 -5 0 -28 20 -51 45 -35 38 -48 45 -78 45
-28 0 -44 7 -66 30 -16 17 -33 30 -38 30 -6 0 -25 11 -43 25 -38 29 -44 30
-44 10z"/>
<path d="M5887 6853 c-4 -3 -7 -21 -7 -40 0 -30 2 -33 19 -24 16 9 20 6 25
-24 7 -37 15 -42 34 -23 17 17 29 0 14 -20 -39 -54 -46 -80 -32 -122 12 -36
16 -40 47 -40 18 0 33 5 33 11 0 5 14 15 30 20 40 15 38 29 -10 61 -30 19 -36
27 -25 32 20 7 20 72 0 80 -8 3 -20 17 -25 31 -5 14 -17 25 -27 25 -10 0 -24
9 -31 20 -12 20 -33 26 -45 13z"/>
<path d="M6109 6444 c-6 -8 -28 -14 -49 -14 -55 0 -65 -18 -41 -71 10 -24 36
-91 56 -149 34 -93 98 -238 125 -280 6 -8 14 -27 20 -42 12 -36 31 -35 58 1
18 25 26 28 57 24 40 -5 125 25 125 45 0 6 7 12 16 12 8 0 13 -4 10 -9 -10
-16 43 1 60 20 14 15 15 24 7 42 -15 31 -38 95 -52 142 -7 22 -16 49 -21 60
-4 11 -20 59 -35 107 -30 97 -31 98 -123 102 -31 1 -66 7 -77 13 -15 9 -25 8
-39 -2 -16 -12 -24 -12 -52 0 -28 12 -34 11 -45 -1z"/>
<path d="M6500 6374 c0 -26 18 -81 50 -149 16 -33 34 -78 41 -100 7 -22 19
-49 26 -60 7 -11 13 -27 13 -35 0 -9 5 -21 12 -28 7 -7 13 -31 14 -53 3 -49
21 -65 46 -42 11 9 18 11 18 5 0 -6 7 -9 16 -5 11 4 14 12 9 27 -4 11 -8 29
-9 39 -1 10 -8 22 -15 27 -10 6 -11 12 -2 26 10 18 10 18 11 -3 0 -12 4 -25
10 -28 14 -9 50 13 50 30 0 19 3 19 49 -4 26 -14 41 -17 48 -10 16 16 26 -7
14 -29 -13 -24 4 -55 18 -33 5 8 14 10 21 6 10 -6 12 4 8 45 -4 40 -11 59 -28
72 -12 10 -18 18 -14 18 5 0 -4 11 -19 25 -15 14 -27 36 -27 49 0 18 -9 28
-40 40 -22 9 -60 36 -83 61 -24 25 -48 45 -53 45 -5 0 -27 16 -48 35 -22 19
-47 35 -57 35 -9 0 -31 3 -48 6 -26 5 -31 3 -31 -12z"/>
<path d="M4014 6030 c-12 -4 -24 -15 -27 -24 -5 -13 22 -108 43 -146 12 -22 2
-34 -40 -49 -41 -15 -61 -23 -115 -45 -22 -8 -62 -20 -89 -26 -27 -6 -58 -16
-70 -22 -20 -11 -36 -16 -146 -43 -30 -8 -82 -23 -114 -34 -33 -12 -68 -21
-78 -21 -16 0 -73 -24 -86 -36 -4 -3 41 -149 63 -204 7 -19 25 -69 40 -110 47
-132 86 -220 98 -220 4 0 10 8 13 18 3 9 10 24 15 32 5 8 13 25 18 37 12 27
83 127 94 131 4 2 13 18 21 35 12 30 72 97 86 97 3 0 13 16 20 35 14 36 45 53
74 42 8 -3 27 -26 41 -52 l27 -45 -22 -47 c-12 -26 -33 -63 -46 -82 -13 -20
-24 -48 -24 -62 0 -15 -5 -29 -11 -31 -7 -2 -10 -9 -8 -16 3 -8 13 -7 37 5 26
13 32 21 32 48 0 40 21 40 73 1 31 -24 40 -26 52 -16 13 11 20 11 40 0 14 -7
28 -10 32 -7 3 4 12 2 20 -5 11 -9 17 -6 31 13 9 13 28 35 42 49 14 14 25 36
25 50 0 16 8 28 23 35 18 8 21 15 16 42 -5 28 -3 34 18 42 29 11 74 96 82 154
5 41 4 42 -24 25 -16 -10 -22 -10 -33 2 -17 19 -57 117 -57 141 0 10 -4 21
-10 24 -5 3 -17 31 -26 61 -15 54 -35 74 -72 74 -18 0 -19 5 -15 63 4 51 2 66
-11 80 -19 19 -22 19 -52 7z"/>
<path d="M6812 5958 c6 -18 28 -21 28 -4 0 9 -7 16 -16 16 -9 0 -14 -5 -12
-12z"/>
<path d="M5258 5583 c7 -3 16 -2 19 1 4 3 -2 6 -13 5 -11 0 -14 -3 -6 -6z"/>
<path d="M5220 5527 c0 -11 9 -15 30 -15 29 1 44 18 16 18 -8 0 -21 3 -30 6
-10 4 -16 1 -16 -9z"/>
<path d="M4710 5460 c0 -5 5 -10 11 -10 5 0 7 5 4 10 -3 6 -8 10 -11 10 -2 0
-4 -4 -4 -10z"/>
<path d="M4470 5377 c0 -19 16 -31 24 -18 3 5 -1 14 -9 21 -12 10 -15 10 -15
-3z"/>
<path d="M4426 5314 c-4 -9 -4 -19 -1 -22 7 -8 35 19 29 29 -8 14 -21 11 -28
-7z"/>
<path d="M3992 5148 c7 -19 38 -22 38 -4 0 10 -9 16 -21 16 -12 0 -19 -5 -17
-12z"/>
<path d="M4045 5150 c3 -5 8 -10 11 -10 2 0 4 5 4 10 0 6 -5 10 -11 10 -5 0
-7 -4 -4 -10z"/>
<path d="M3401 4904 c0 -11 3 -14 6 -6 3 7 2 16 -1 19 -3 4 -6 -2 -5 -13z"/>
<path d="M1315 3990 c3 -5 10 -10 16 -10 5 0 9 5 9 10 0 6 -7 10 -16 10 -8 0
-12 -4 -9 -10z"/>
<path d="M1822 3968 c-7 -7 -12 -18 -12 -25 0 -7 -7 -13 -15 -13 -8 0 -15 -9
-15 -19 0 -11 -7 -27 -16 -35 -8 -9 -12 -20 -9 -26 10 -16 26 -11 23 7 -2 11
5 19 17 21 11 3 24 10 30 18 6 8 19 11 33 8 18 -5 22 -13 20 -33 -4 -30 29
-43 44 -17 5 9 16 16 23 16 22 0 18 16 -7 33 -13 8 -32 24 -44 35 -34 32 -59
43 -72 30z"/>
<path d="M2415 3899 c-4 -6 -4 -13 -1 -16 8 -8 36 5 36 17 0 13 -27 13 -35 -1z"/>
<path d="M2924 3876 l-32 -32 44 -62 c24 -35 44 -69 44 -77 0 -8 5 -17 11 -21
7 -4 9 2 7 17 -2 14 2 24 10 25 6 1 17 2 22 3 6 0 10 8 10 17 0 12 -6 15 -22
11 -46 -13 -78 34 -43 63 12 10 19 10 27 2 7 -7 16 -12 21 -12 5 0 -1 8 -14
19 -22 18 -47 17 -60 -1 -7 -10 -39 0 -39 13 0 5 4 9 8 9 18 0 55 41 46 49 -5
6 -22 -4 -40 -23z"/>
<path d="M1710 3890 c0 -5 7 -10 16 -10 8 0 12 5 9 10 -3 6 -10 10 -16 10 -5
0 -9 -4 -9 -10z"/>
<path d="M2320 3889 c0 -5 5 -7 10 -4 6 3 10 8 10 11 0 2 -4 4 -10 4 -5 0 -10
-5 -10 -11z"/>
<path d="M1177 3873 c-4 -3 -7 -16 -6 -27 0 -19 1 -19 10 3 10 24 8 36 -4 24z"/>
<path d="M2250 3862 c0 -26 11 -34 27 -21 10 9 10 15 2 25 -16 19 -29 17 -29
-4z"/>
<path d="M1445 3840 c5 -17 2 -20 -25 -20 -17 0 -45 7 -62 16 -21 11 -33 13
-41 5 -7 -7 -5 -12 6 -16 9 -3 24 -7 33 -10 13 -4 15 -13 10 -37 -3 -18 -12
-35 -19 -40 -6 -4 -13 -12 -13 -18 -1 -5 -2 -16 -3 -22 -1 -9 -6 -7 -15 4 -7
10 -16 15 -20 11 -4 -4 -4 0 0 10 4 13 1 17 -14 17 -12 0 -22 -9 -26 -22 -7
-21 -8 -22 -15 -4 -7 17 -8 17 -23 -6 -9 -13 -23 -53 -32 -88 -9 -36 -23 -82
-32 -102 -9 -20 -13 -45 -10 -55 4 -9 7 -156 6 -325 l-1 -308 25 0 c16 0 26
-7 31 -22 6 -22 7 -21 21 10 8 18 31 43 52 55 32 19 34 22 16 25 -12 2 -29 11
-39 22 -13 15 -14 22 -5 40 9 17 17 20 42 15 l31 -7 -22 23 c-27 30 -27 43 5
64 24 16 26 16 31 -4 6 -25 32 -35 39 -16 11 28 -4 45 -41 45 -31 0 -35 3 -35
25 0 14 7 28 15 31 8 3 24 22 35 42 19 31 20 39 9 60 -13 22 -10 27 34 69 49
46 58 63 32 63 -8 0 -23 4 -33 9 -9 6 -29 12 -44 16 -21 4 -28 11 -28 29 0 34
36 40 102 17 l55 -19 31 33 c18 18 32 38 32 46 0 18 65 89 82 89 16 0 78 57
78 72 0 6 10 8 25 4 18 -5 27 -1 35 14 6 11 17 20 25 20 8 0 15 5 15 10 0 6
20 10 44 10 26 0 48 6 56 15 6 8 15 14 18 13 21 -3 72 29 72 44 0 19 -25 25
-34 9 -3 -5 -18 -11 -33 -14 -16 -3 -45 -10 -67 -15 -34 -9 -39 -8 -43 9 -9
31 -26 22 -21 -12 4 -25 1 -32 -19 -40 -12 -5 -23 -12 -23 -17 0 -8 -62 -9
-137 -4 -12 1 -37 15 -55 30 -18 16 -41 32 -52 35 -10 4 -16 13 -14 20 3 6 -8
25 -24 40 -25 23 -29 25 -23 7z"/>
<path d="M2100 3845 c0 -8 7 -15 15 -15 8 0 15 7 15 15 0 8 -7 15 -15 15 -8 0
-15 -7 -15 -15z"/>
<path d="M2337 3853 c-13 -12 -7 -23 11 -23 10 0 27 -7 39 -15 14 -10 24 -12
28 -5 3 5 24 10 46 10 21 0 39 5 39 10 0 6 -20 10 -44 10 -25 0 -48 5 -51 10
-7 11 -58 14 -68 3z"/>
<path d="M3340 3850 c20 -13 33 -13 25 0 -3 6 -14 10 -23 10 -15 0 -15 -2 -2
-10z"/>
<path d="M1810 3841 c0 -6 5 -13 10 -16 6 -3 10 1 10 9 0 9 -4 16 -10 16 -5 0
-10 -4 -10 -9z"/>
<path d="M2607 3843 c-13 -12 -7 -23 13 -23 11 0 23 -7 26 -15 7 -18 30 -20
40 -3 8 12 -24 40 -37 33 -4 -3 -10 -1 -14 5 -7 12 -19 13 -28 3z"/>
<path d="M2725 3822 c-18 -13 -15 -32 5 -32 21 0 25 7 12 27 -4 7 -12 9 -17 5z"/>
<path d="M3345 3790 c-3 -5 -3 -15 0 -21 5 -7 -5 -8 -30 -3 -28 5 -36 4 -30
-5 8 -14 51 -33 80 -35 24 -1 32 -34 11 -42 -9 -3 -16 -13 -16 -22 0 -12 -3
-13 -12 -4 -7 7 -20 12 -29 12 -10 0 -24 6 -31 13 -11 11 -54 28 -80 31 -3 1
-9 4 -13 8 -4 4 -13 4 -21 1 -8 -3 -21 3 -28 13 -12 16 -16 16 -31 4 -14 -12
-18 -12 -27 1 -7 11 -11 11 -15 2 -2 -7 -11 -13 -19 -13 -8 0 -14 -7 -14 -16
0 -9 -8 -30 -17 -46 -14 -23 -15 -32 -5 -35 6 -3 12 -10 12 -16 0 -7 9 -18 20
-25 11 -7 20 -18 20 -26 0 -8 35 -24 88 -41 48 -15 103 -34 122 -41 19 -7 61
-18 93 -23 87 -16 99 -25 95 -73 -4 -58 16 -59 42 -1 19 43 20 52 9 88 -13 40
-43 99 -61 122 -7 9 -16 10 -28 3 -21 -11 -29 7 -24 55 7 70 6 110 -2 108 -5
-1 -17 -5 -26 -8 -13 -5 -18 -2 -18 9 0 9 5 16 10 16 6 0 10 5 10 10 0 6 -6
10 -14 10 -8 0 -18 -4 -21 -10z m15 -166 c0 -8 -5 -12 -10 -9 -6 4 -8 11 -5
16 9 14 15 11 15 -7z"/>
<path d="M6580 3773 c0 -29 -38 -73 -61 -73 -22 0 -27 -9 -57 -90 -40 -112
-52 -154 -52 -187 0 -18 -3 -33 -8 -33 -14 0 -48 -109 -62 -195 -5 -27 -18
-77 -29 -110 -26 -75 -93 -300 -114 -380 -9 -33 -30 -105 -47 -160 -32 -104
-77 -264 -90 -325 -4 -19 -13 -48 -20 -65 -13 -32 -15 -42 -24 -99 -3 -20 -13
-53 -22 -74 -17 -40 -33 -100 -54 -197 -6 -33 -20 -76 -30 -95 -9 -19 -21 -53
-24 -75 -4 -22 -8 -47 -10 -55 -1 -8 -6 -23 -10 -33 -5 -10 -6 -20 -4 -22 8
-8 378 -21 378 -13 0 4 9 10 20 13 15 5 20 15 20 45 0 21 4 40 8 42 12 4 52
130 52 161 0 14 5 29 10 32 15 9 12 55 -4 55 -7 0 -16 12 -19 27 -4 22 3 35
43 74 45 44 70 84 85 137 5 17 2 22 -13 22 -11 0 -25 7 -32 15 -7 8 -23 15
-37 15 -13 0 -31 7 -39 15 -10 9 -24 13 -40 9 -13 -3 -30 -2 -37 4 -6 5 -31
15 -54 21 -47 13 -57 39 -27 72 15 17 18 16 72 -2 31 -11 84 -26 117 -34 33
-7 78 -19 100 -25 82 -23 104 -28 109 -23 2 2 28 -2 58 -11 213 -60 241 -65
231 -40 -4 11 -1 15 13 12 22 -4 32 -22 33 -60 1 -43 -20 -56 -76 -47 -26 5
-70 12 -96 15 -26 4 -50 11 -53 15 -10 17 -43 9 -49 -11 -9 -30 -26 -24 -23 8
3 24 0 27 -32 30 -19 2 -40 8 -47 13 -6 6 -14 6 -17 1 -8 -13 -5 -218 4 -232
11 -18 35 28 31 60 -2 14 0 22 3 19 3 -3 7 -18 8 -32 1 -15 6 -27 11 -27 14 0
-30 -65 -45 -66 -7 0 -27 -2 -45 -2 -29 -2 -33 -6 -47 -56 -9 -30 -16 -65 -16
-78 0 -13 -8 -39 -19 -58 -30 -57 -44 -111 -33 -122 12 -12 45 3 41 18 -1 5 6
11 16 13 13 2 16 -1 12 -13 -9 -22 6 -27 52 -20 27 4 42 13 46 25 4 11 12 19
20 19 7 0 15 5 17 12 2 6 10 -2 17 -19 15 -37 37 -44 114 -36 37 4 66 2 80 -6
13 -7 47 -11 77 -9 l55 3 6 120 c4 66 6 296 5 510 -1 339 -3 390 -16 390 -8 0
-19 3 -25 7 -10 6 -59 15 -124 23 -19 2 -39 9 -44 14 -6 6 -23 11 -38 11 -15
0 -31 5 -34 10 -3 6 -20 10 -37 10 -29 0 -74 11 -123 31 -11 4 -49 15 -84 23
-74 18 -86 26 -76 55 10 34 41 45 78 28 18 -8 60 -18 95 -22 34 -4 65 -11 68
-16 12 -20 36 -7 50 28 13 29 14 48 6 97 -6 34 -13 70 -17 81 -3 11 0 29 9 40
14 19 16 19 28 3 17 -22 40 -27 43 -8 2 8 10 35 19 59 9 24 16 51 16 61 0 9 7
32 17 50 9 18 22 61 29 94 30 140 33 146 69 146 46 0 47 -72 2 -180 -6 -14
-14 -47 -18 -75 -10 -68 -19 -106 -29 -130 -19 -46 -18 -63 6 -74 30 -13 31
-28 1 -42 -20 -9 -87 -97 -87 -114 0 -4 -7 -13 -15 -21 -26 -26 -17 -43 28
-54 23 -6 59 -18 80 -26 20 -7 50 -14 65 -14 15 0 33 -5 40 -12 6 -6 14 -10
16 -7 2 2 6 256 8 564 l5 560 -29 24 c-15 14 -28 32 -28 39 0 11 -9 12 -37 7
-21 -5 -54 -9 -73 -9 -19 -1 -41 -5 -48 -10 -7 -4 -33 -9 -57 -11 -39 -2 -48
1 -65 24 -19 25 -19 26 -20 4z m305 -1083 c3 -5 1 -10 -4 -10 -6 0 -11 5 -11
10 0 6 2 10 4 10 3 0 8 -4 11 -10z m-355 -115 c0 -10 10 -15 29 -15 16 0 36
-3 45 -6 24 -9 19 -39 -8 -53 -24 -13 -63 -81 -46 -81 6 0 10 4 10 9 0 5 9 13
21 16 11 4 28 22 37 41 10 22 21 33 30 29 7 -3 18 -5 24 -5 6 0 7 -15 3 -40
-5 -30 -3 -40 7 -40 8 -1 7 -4 -4 -11 -17 -9 -26 -49 -12 -49 12 0 54 51 54
66 0 33 30 74 55 74 34 0 40 -16 24 -63 -16 -50 -88 -126 -147 -156 -24 -12
-45 -28 -49 -36 -7 -19 -32 -19 -39 0 -4 8 -12 15 -19 15 -8 0 -13 9 -12 20 1
12 7 18 14 16 7 -3 13 1 13 8 0 8 3 21 6 30 10 26 -9 18 -51 -19 -47 -44 -78
-44 -83 -1 -2 19 2 32 12 38 9 5 16 17 16 27 0 9 9 36 21 60 13 28 18 52 14
71 -7 30 8 70 25 70 6 0 10 -7 10 -15z m220 -265 c0 -5 -5 -10 -11 -10 -5 0
-7 5 -4 10 3 6 8 10 11 10 2 0 4 -4 4 -10z m-220 -70 c0 -11 -4 -20 -10 -20
-5 0 -10 9 -10 20 0 11 5 20 10 20 6 0 10 -9 10 -20z m260 -80 c12 -8 9 -10
-12 -10 -16 0 -28 5 -28 10 0 13 20 13 40 0z m-430 -66 c0 -15 -9 -18 -25 -6
-9 6 -11 15 -6 38 2 12 31 -18 31 -32z m40 -9 c0 -8 -7 -15 -15 -15 -26 0 -18
20 13 29 1 1 2 -6 2 -14z m174 -36 c-7 -11 -34 -12 -34 -1 0 14 11 21 26 15 8
-3 11 -9 8 -14z m171 -39 c3 -5 -3 -10 -15 -10 -12 0 -18 5 -15 10 3 6 10 10
15 10 5 0 12 -4 15 -10z m-180 -10 c3 -5 1 -10 -4 -10 -6 0 -11 5 -11 10 0 6
2 10 4 10 3 0 8 -4 11 -10z m-185 -19 c0 -13 -26 -32 -33 -24 -14 13 -6 33 13
33 11 0 20 -4 20 -9z m-55 -61 c-6 -9 -9 -9 -16 1 -10 17 0 34 13 21 6 -6 7
-16 3 -22z m395 -20 c0 -5 -11 -10 -25 -10 -14 0 -25 5 -25 10 0 6 11 10 25
10 14 0 25 -4 25 -10z m-393 -92 c-3 -8 -6 -5 -6 6 -1 11 2 17 5 13 3 -3 4
-12 1 -19z m283 18 c0 -3 -4 -8 -10 -11 -5 -3 -10 -1 -10 4 0 6 5 11 10 11 6
0 10 -2 10 -4z m286 -213 c-10 -10 -19 5 -10 18 6 11 8 11 12 0 2 -7 1 -15 -2
-18z m-236 -27 c0 -3 -7 -3 -15 0 -8 4 -15 13 -15 21 0 12 2 12 15 -1 8 -8 15
-17 15 -20z m-130 5 c0 -6 -5 -13 -10 -16 -6 -4 -8 -10 -5 -15 7 -12 -38 -21
-49 -10 -7 7 -6 10 1 10 6 0 13 9 16 20 5 20 47 29 47 11z"/>
<path d="M6043 3745 c-17 -6 -41 -19 -52 -29 -15 -14 -21 -15 -21 -5 0 34 -29
-22 -55 -106 -15 -49 -31 -100 -36 -113 -5 -13 -9 -35 -9 -50 0 -15 -7 -38
-16 -50 -9 -13 -14 -34 -11 -47 2 -14 0 -22 -4 -19 -4 2 -11 -12 -14 -33 -8
-43 -15 -69 -44 -164 -12 -36 -21 -79 -21 -97 0 -17 -4 -33 -9 -36 -4 -3 -11
-27 -15 -54 -3 -27 -13 -57 -21 -68 -8 -10 -15 -31 -15 -46 0 -15 -4 -30 -10
-33 -5 -3 -10 -18 -10 -32 0 -27 -25 -131 -40 -168 -5 -11 -16 -45 -25 -75
-10 -30 -21 -65 -26 -78 -5 -13 -9 -33 -9 -44 0 -22 -27 -120 -75 -273 -14
-44 -25 -89 -25 -101 0 -11 -10 -47 -21 -80 -12 -32 -22 -76 -23 -96 -1 -21
-6 -38 -11 -38 -12 0 -50 -135 -81 -286 -3 -18 2 -22 36 -27 55 -7 121 3 113
17 -3 6 0 5 8 -1 7 -7 35 -13 62 -13 62 0 82 20 91 93 8 60 26 117 38 117 4 0
8 18 8 40 0 22 4 48 9 58 15 28 38 103 51 167 6 33 16 68 21 77 5 9 11 36 15
60 3 24 9 52 14 63 13 29 40 114 40 125 0 5 5 21 12 37 6 15 19 60 29 98 56
230 73 292 82 310 10 18 54 171 78 270 5 22 28 95 50 163 39 118 50 156 118
420 33 124 32 158 -1 120 -14 -16 -22 -19 -25 -10 -3 7 -24 12 -54 12 -38 0
-51 4 -57 18 -6 15 -12 16 -39 7z m-356 -2007 c-3 -8 -6 -5 -6 6 -1 11 2 17 5
13 3 -3 4 -12 1 -19z m-37 -48 c0 -5 -4 -10 -10 -10 -5 0 -10 5 -10 10 0 6 5
10 10 10 6 0 10 -4 10 -10z"/>
<path d="M6343 3663 c3 -24 1 -46 -4 -49 -5 -3 -9 0 -9 5 0 6 -4 11 -10 11 -5
0 -10 -7 -10 -16 0 -9 -7 -37 -15 -63 -63 -199 -84 -273 -90 -321 -4 -30 -14
-71 -22 -90 -22 -55 -52 -172 -46 -186 10 -26 33 -24 39 4 3 15 12 42 20 60 7
18 21 67 30 109 8 42 22 82 30 90 8 8 14 30 14 48 0 19 5 37 10 40 6 3 10 22
10 41 0 20 7 42 15 50 18 18 20 65 3 82 -9 9 -9 12 0 12 7 0 12 -4 12 -10 0
-5 4 -10 9 -10 5 0 11 19 14 43 3 23 11 68 18 100 11 52 11 59 -5 75 -18 16
-18 15 -13 -25z"/>
<path d="M3431 3654 c0 -11 3 -14 6 -6 3 7 2 16 -1 19 -3 4 -6 -2 -5 -13z"/>
<path d="M5755 3663 c-11 -3 -24 -9 -29 -14 -6 -5 -23 -9 -38 -9 -15 0 -28 -4
-28 -9 0 -5 19 -6 43 -3 23 4 58 7 77 7 33 0 35 -2 32 -28 -2 -18 1 -26 7 -22
6 3 11 15 11 25 0 10 4 21 10 25 5 3 7 12 3 20 -5 15 -45 18 -88 8z"/>
<path d="M2214 3635 c-4 -8 -12 -15 -19 -15 -13 0 -22 -27 -55 -170 -11 -47
-22 -94 -25 -105 -6 -19 -1 -21 47 -23 29 -2 62 -4 73 -4 11 -1 43 -1 72 0 45
2 54 6 72 31 12 16 22 43 24 60 2 18 9 37 15 43 7 7 12 26 12 43 0 17 4 35 9
41 5 5 11 25 13 44 l3 35 -56 -3 c-45 -2 -58 0 -63 14 -5 13 -14 15 -41 10
-22 -4 -35 -3 -35 4 0 16 -40 12 -46 -5z"/>
<path d="M1712 3608 c6 -18 28 -21 28 -4 0 9 -7 16 -16 16 -9 0 -14 -5 -12
-12z"/>
<path d="M2089 3616 c-1 -3 -3 -10 -4 -16 -1 -5 -3 -13 -4 -16 0 -4 -8 -1 -16
6 -22 18 -38 1 -53 -57 -8 -26 -17 -57 -22 -68 -4 -11 -18 -65 -30 -120 -12
-55 -26 -113 -31 -129 -13 -41 -5 -43 33 -11 31 26 68 100 68 135 0 8 7 28 15
44 8 15 15 34 15 41 0 8 6 26 14 42 12 24 18 46 38 134 2 6 -3 14 -9 16 -7 3
-14 2 -14 -1z"/>
<path d="M2540 3574 c0 -8 5 -12 10 -9 6 4 8 11 5 16 -9 14 -15 11 -15 -7z"/>
<path d="M5450 3576 c-25 -5 -51 -15 -58 -22 -7 -7 -19 -11 -26 -8 -7 3 -21
-2 -30 -11 -9 -9 -38 -18 -67 -21 -28 -2 -65 -10 -82 -18 -30 -13 -46 -17
-134 -32 -17 -4 -39 -14 -48 -24 -9 -10 -23 -16 -31 -13 -8 3 -32 -2 -53 -10
-21 -9 -41 -14 -44 -11 -3 3 -20 1 -39 -4 -136 -42 -206 -67 -203 -72 2 -4 -9
-5 -24 -2 -17 2 -34 -2 -44 -12 -8 -9 -23 -16 -31 -16 -9 0 -16 -7 -16 -16 0
-13 -3 -14 -14 -5 -18 15 -71 10 -71 -6 0 -11 -6 -15 -17 -12 -29 8 -66 4 -96
-8 l-37 -16 39 -13 c21 -8 42 -11 48 -8 5 3 29 6 53 6 25 0 45 4 45 9 0 5 4 9
9 9 5 0 7 -9 4 -20 -3 -11 -12 -20 -21 -20 -8 0 -12 -3 -9 -7 6 -6 57 -17 137
-30 52 -8 62 -20 56 -67 -9 -70 -26 -140 -36 -150 -15 -15 -12 -46 5 -46 9 0
15 9 15 25 0 14 4 25 9 25 5 0 11 17 14 38 7 52 13 76 31 110 13 26 20 29 56
28 23 0 40 -6 40 -12 0 -7 19 -14 43 -17 23 -3 78 -15 122 -27 102 -27 214
-51 243 -52 12 0 22 -4 22 -9 0 -16 105 -40 132 -30 21 8 26 5 37 -21 14 -30
16 -32 64 -42 23 -5 27 -11 22 -27 -5 -13 -1 -25 10 -33 34 -25 -9 -126 -53
-126 -10 0 -37 -14 -60 -31 -49 -36 -83 -103 -81 -163 2 -44 -33 -116 -55
-116 -7 0 -39 9 -72 20 -32 11 -73 20 -91 20 -17 0 -35 5 -38 10 -4 6 -19 9
-34 8 -15 -1 -43 7 -62 18 -19 11 -70 26 -113 33 -44 7 -87 17 -95 21 -9 4
-41 13 -71 20 -30 6 -62 14 -71 16 -19 5 -29 52 -17 83 4 13 3 21 -3 21 -15 0
-36 -24 -41 -46 -3 -16 -11 -19 -48 -17 -82 3 -120 8 -120 14 0 4 -22 9 -50
13 -27 4 -52 11 -55 16 -3 6 -13 10 -22 10 -29 0 -42 -33 -43 -107 l0 -72 41
-11 c22 -6 55 -12 73 -14 27 -2 116 -26 166 -43 19 -7 48 -12 85 -14 17 -1 36
-6 43 -12 10 -8 22 -6 43 7 16 9 29 12 29 7 0 -6 5 -11 11 -11 6 0 25 -11 42
-24 62 -45 59 -47 97 69 13 42 20 50 40 50 35 0 50 -23 43 -65 -3 -19 -9 -39
-13 -45 -5 -5 -11 -28 -15 -50 -4 -22 -11 -45 -16 -51 -7 -9 -21 -59 -46 -161
-7 -32 -29 -46 -57 -39 -29 7 -37 26 -26 63 4 15 13 45 20 65 6 21 8 42 5 48
-8 14 -68 13 -99 -2 -22 -9 -29 -8 -45 6 -11 10 -21 28 -23 39 -3 22 -4 23
-213 72 -38 9 -90 23 -115 31 -61 19 -90 18 -90 -3 0 -10 -7 -27 -15 -37 -8
-11 -15 -30 -15 -42 0 -13 -4 -26 -10 -29 -5 -3 -10 -15 -10 -25 0 -10 -10
-31 -23 -47 -18 -21 -24 -41 -24 -82 -1 -48 -7 -70 -35 -125 -6 -11 -6 -22 0
-28 8 -8 98 -33 225 -63 32 -7 66 -17 75 -21 18 -7 94 -23 127 -27 11 -1 27
-6 35 -11 14 -9 50 -18 150 -35 25 -4 55 -13 67 -19 32 -18 68 -15 88 8 23 25
39 25 56 0 14 -20 115 -63 129 -55 4 3 10 22 14 43 3 22 12 52 20 67 8 15 18
51 21 79 10 72 52 98 90 56 15 -17 16 -25 5 -72 -7 -29 -19 -69 -27 -88 -8
-19 -18 -55 -23 -80 -13 -71 -39 -158 -54 -183 -7 -12 -16 -39 -19 -60 -5 -31
-3 -38 8 -33 8 3 16 2 19 -2 2 -4 46 -7 98 -7 l93 0 22 44 c17 34 19 49 12 69
-7 18 -6 28 3 33 11 7 28 57 67 196 9 35 20 66 24 69 4 4 7 29 7 55 0 34 4 49
16 53 14 5 16 16 11 59 -4 33 -3 47 3 37 12 -20 17 -12 25 43 5 32 4 47 -4 47
-6 0 -11 5 -11 10 0 6 8 10 18 10 17 0 52 68 52 103 0 9 4 25 9 35 13 22 25
73 22 90 -1 8 2 19 7 25 14 17 40 113 48 175 3 28 10 52 13 52 16 0 44 110 37
149 -5 31 -3 39 7 35 10 -3 19 16 31 68 10 40 21 78 25 83 9 11 25 66 23 77
-1 4 8 25 20 45 22 39 52 169 42 184 -3 5 2 19 10 31 9 12 16 32 16 44 0 12 4
24 8 26 5 2 12 20 15 41 5 29 3 37 -10 37 -11 0 -14 -7 -11 -25 4 -19 1 -25
-13 -25 -10 0 -24 6 -31 13 -22 21 -67 47 -81 47 -8 0 -22 9 -32 20 -33 37
-50 26 -73 -47 -12 -38 -24 -81 -28 -98 -4 -16 -12 -36 -17 -43 -6 -8 -10 -27
-9 -42 3 -33 -25 -48 -58 -30 -21 11 -25 22 -13 34 11 10 33 79 33 102 0 12 6
27 14 33 22 18 8 61 -20 61 -13 0 -24 4 -24 9 0 5 8 7 18 5 22 -6 55 18 51 37
-3 12 -12 13 -49 5z m-31 -107 c-16 -10 -23 -4 -14 10 3 6 11 8 17 5 6 -4 5
-9 -3 -15z m281 -9 c0 -5 -5 -10 -11 -10 -5 0 -7 5 -4 10 3 6 8 10 11 10 2 0
4 -4 4 -10z m-845 -90 c3 -5 -1 -10 -10 -10 -9 0 -13 5 -10 10 3 6 8 10 10 10
2 0 7 -4 10 -10z m-117 -47 c-16 -2 -40 -2 -55 0 -16 2 -3 4 27 4 30 0 43 -2
28 -4z m117 -12 c5 -1 4 -6 -2 -12 -13 -13 -75 -8 -80 7 -2 7 10 10 34 8 21
-2 42 -3 48 -3z m5 -58 c10 -9 -27 -23 -55 -21 -19 2 -31 9 -33 21 -3 15 2 17
40 11 24 -4 45 -9 48 -11z m685 7 c-3 -5 -15 -10 -26 -10 -11 0 -17 5 -14 10
3 6 15 10 26 10 11 0 17 -4 14 -10z m-918 -26 c-3 -3 -12 -4 -19 -1 -8 3 -5 6
6 6 11 1 17 -2 13 -5z m263 -44 c0 -5 -7 -10 -15 -10 -8 0 -15 5 -15 10 0 6 7
10 15 10 8 0 15 -4 15 -10z m-33 -66 c-3 -3 -12 -4 -19 -1 -8 3 -5 6 6 6 11 1
17 -2 13 -5z m313 -86 c0 -5 -4 -8 -10 -8 -5 0 -10 10 -10 23 0 18 2 19 10 7
5 -8 10 -18 10 -22z m120 -28 c0 -5 -4 -10 -10 -10 -5 0 -10 5 -10 10 0 6 5
10 10 10 6 0 10 -4 10 -10z m-870 -530 c0 -5 -4 -10 -10 -10 -5 0 -10 5 -10
10 0 6 5 10 10 10 6 0 10 -4 10 -10z m295 -230 c3 -5 1 -10 -4 -10 -6 0 -11 5
-11 10 0 6 2 10 4 10 3 0 8 -4 11 -10z"/>
<path d="M1864 3555 c-9 -14 -20 -25 -26 -25 -5 0 -44 -29 -88 -65 -44 -36
-84 -65 -90 -65 -7 0 -10 -6 -8 -12 3 -7 28 -18 58 -25 60 -13 73 -23 68 -49
-3 -16 -12 -19 -58 -16 -30 2 -68 10 -85 18 -28 14 -30 13 -64 -20 -28 -29
-35 -42 -33 -70 2 -26 -2 -35 -15 -38 -15 -3 -18 -14 -18 -63 0 -63 1 -61 -47
-48 -15 4 -18 -1 -18 -34 0 -42 -19 -68 -55 -75 -11 -2 -20 -9 -19 -16 1 -6 2
-23 3 -37 1 -19 6 -25 25 -25 34 0 95 -40 102 -68 10 -35 -12 -74 -39 -70 -14
2 -22 10 -23 23 -1 27 -25 75 -37 75 -5 0 -23 -7 -40 -16 -68 -33 -102 -118
-66 -162 18 -22 19 -23 68 -8 51 15 66 11 51 -13 -15 -25 -80 -40 -159 -36
-42 1 -83 4 -91 6 -12 3 -14 -12 -15 -83 0 -89 6 -111 27 -90 7 7 20 12 29 12
13 0 20 12 26 43 7 33 13 43 32 45 38 6 46 -11 27 -58 -21 -53 -20 -70 4 -70
29 0 25 -31 -9 -74 -38 -47 -74 -123 -68 -139 5 -13 21 -19 144 -53 63 -18 80
-35 67 -67 -7 -20 -33 -30 -48 -18 -16 13 -206 63 -220 58 -7 -3 -12 -69 -15
-210 l-3 -206 28 -25 c16 -14 33 -26 37 -26 5 0 42 -23 84 -51 41 -27 78 -48
81 -45 3 3 16 36 29 73 26 74 44 99 66 90 19 -7 39 -84 23 -91 -7 -3 -7 -5 2
-5 6 -1 12 -8 12 -17 0 -13 -3 -14 -14 -5 -17 14 -22 8 -30 -45 -7 -37 -5 -41
19 -52 14 -7 62 -12 107 -12 76 0 80 1 66 18 -21 24 -12 42 23 42 32 0 39 14
24 52 -5 13 0 20 19 28 19 7 26 17 26 35 0 14 6 28 14 31 8 3 18 18 21 34 6
26 17 34 78 54 12 4 17 16 17 44 0 21 8 55 18 76 l19 38 -81 83 c-82 84 -97
107 -157 250 -31 74 -34 86 -28 150 4 39 11 86 17 105 6 19 19 64 28 100 9 36
20 74 25 85 10 25 58 214 70 275 5 25 16 63 23 85 8 22 19 58 25 80 6 22 30
103 52 180 23 77 41 150 41 163 0 12 4 22 9 22 20 0 8 38 -13 44 -34 9 -36 8
-54 -19z"/>
<path d="M2519 3425 c-35 -12 -46 -33 -48 -90 -1 -24 5 -33 29 -44 17 -7 41
-10 54 -7 16 4 26 1 30 -9 3 -8 12 -15 19 -15 8 0 20 -7 27 -15 19 -23 60 -19
60 5 0 12 7 32 16 45 18 28 15 60 -6 61 -41 2 -78 26 -84 55 -5 25 -10 29 -35
27 -15 -1 -44 -7 -62 -13z"/>
<path d="M3230 3370 c44 -62 49 -73 40 -96 -13 -33 -11 -34 37 -41 36 -5 39
-3 60 34 12 22 25 57 28 79 l7 39 -73 22 c-47 14 -76 18 -80 11 -4 -5 -9 -3
-12 6 -4 9 -18 16 -32 16 -24 0 -24 -2 25 -70z"/>
<path d="M2808 3363 c-10 -2 -18 -10 -19 -16 -2 -34 -11 -73 -19 -82 -5 -6 -8
-28 -6 -49 4 -44 48 -88 81 -81 11 3 14 2 8 -1 -7 -3 -13 -13 -13 -21 0 -12 7
-14 29 -10 19 4 33 1 41 -8 7 -8 29 -15 49 -15 20 0 42 -5 48 -11 6 -6 29 -15
50 -20 80 -18 149 -36 165 -43 32 -14 71 15 85 64 19 65 14 95 -17 95 -14 0
-29 5 -35 11 -5 7 -21 14 -35 17 -14 3 -34 7 -45 10 -11 2 -14 2 -7 0 19 -7
14 -23 -8 -23 -11 0 -20 4 -20 9 0 5 -9 13 -21 16 -11 4 -27 22 -35 40 -14 34
-44 55 -44 30 0 -7 5 -17 10 -20 17 -11 11 -25 -11 -25 -19 0 -20 4 -15 33 5
28 2 34 -24 49 -16 9 -39 14 -50 11 -12 -3 -25 -2 -29 3 -5 8 -34 21 -81 37
-8 2 -23 3 -32 0z m82 -43 c0 -12 -28 -25 -36 -17 -9 9 6 27 22 27 8 0 14 -5
14 -10z m330 -186 c0 -14 -3 -14 -15 -4 -8 7 -15 14 -15 16 0 2 7 4 15 4 8 0
15 -7 15 -16z"/>
<path d="M3450 3310 c0 -38 16 -57 23 -28 4 14 1 29 -8 38 -13 13 -15 11 -15
-10z"/>
<path d="M3555 3307 c-4 -10 -5 -35 -2 -56 4 -34 3 -38 -14 -34 -21 6 -26 -16
-7 -35 8 -8 17 -8 30 -1 15 8 23 6 37 -12 32 -40 30 -6 -4 76 -25 60 -35 75
-40 62z"/>
<path d="M4226 3145 c-20 -31 -20 -33 6 -54 22 -18 18 -41 -8 -41 -19 0 -18
-6 8 -40 19 -26 28 -30 69 -30 26 0 60 -7 75 -15 16 -8 46 -18 67 -21 20 -4
37 -10 37 -15 0 -5 9 -9 20 -9 13 0 20 7 20 20 0 12 7 32 16 45 9 13 12 30 8
37 -4 6 -8 26 -8 43 -1 26 -5 30 -31 33 -16 2 -37 10 -45 18 -9 7 -43 16 -75
20 -33 4 -77 13 -99 21 -21 7 -40 13 -41 13 -2 0 -10 -11 -19 -25z m184 -55
c0 -5 -5 -10 -11 -10 -5 0 -7 5 -4 10 3 6 8 10 11 10 2 0 4 -4 4 -10z"/>
<path d="M3376 3052 c-15 -43 -28 -88 -29 -101 -2 -28 -40 -38 -81 -22 -30 13
-55 19 -146 40 -25 6 -63 15 -85 20 -31 8 -43 7 -56 -5 -11 -10 -19 -12 -24
-5 -3 6 -1 11 5 11 6 0 8 5 4 11 -3 6 -14 9 -24 6 -11 -3 -21 1 -24 9 -7 18
-36 18 -36 0 0 -8 9 -18 20 -21 15 -5 20 -15 20 -40 0 -19 5 -37 10 -40 6 -4
8 -15 5 -25 -3 -10 -1 -21 4 -25 6 -3 13 7 16 22 16 73 37 90 68 55 13 -14 16
-33 14 -73 -5 -83 -3 -86 56 -84 88 3 128 -5 122 -24 -6 -19 10 -24 235 -80
130 -32 180 -38 180 -21 0 6 8 10 18 10 14 0 15 -2 2 -10 -12 -8 -13 -13 -3
-29 28 -46 -8 -61 -92 -41 -22 6 -58 14 -80 19 -22 5 -66 16 -99 25 -92 26
-190 44 -203 39 -7 -3 -13 -11 -13 -18 0 -35 -56 -20 -93 25 -10 11 -21 18
-26 15 -5 -2 -11 2 -15 10 -12 31 -35 14 -56 -42 -12 -31 -30 -63 -41 -71 -10
-7 -19 -22 -19 -33 0 -25 -58 -89 -81 -89 -11 0 -16 -6 -13 -18 6 -21 -42 -52
-80 -52 -31 0 -35 -20 -5 -27 16 -4 19 -11 14 -32 -4 -21 -1 -28 22 -38 38
-17 155 -43 164 -37 4 2 10 0 13 -5 4 -5 25 -12 49 -16 23 -4 47 -11 52 -15 6
-4 26 -10 45 -13 36 -6 52 -10 210 -50 52 -13 111 -27 130 -31 50 -9 63 -20
55 -45 -5 -17 -14 -21 -50 -21 -24 0 -46 4 -49 9 -4 5 -25 12 -49 16 -23 4
-64 13 -92 21 -95 25 -160 42 -255 63 -52 12 -124 29 -160 37 -36 8 -75 17
-87 19 -18 4 -22 0 -25 -22 -4 -40 -37 -41 -77 -3 -18 16 -43 30 -55 30 -12 0
-26 4 -31 9 -6 4 -22 11 -37 15 -22 5 -28 3 -28 -9 0 -9 -8 -32 -18 -53 -21
-40 -46 -148 -40 -171 2 -8 -9 -19 -25 -25 -36 -13 -51 2 -48 51 2 21 3 46 4
56 1 9 4 17 7 17 3 0 12 27 18 60 7 32 19 66 27 74 23 22 19 26 -27 26 -24 0
-77 9 -118 20 -94 25 -90 25 -90 -5 0 -13 -6 -42 -14 -62 -7 -21 -19 -58 -26
-83 -7 -25 -18 -61 -25 -80 -8 -19 -14 -49 -14 -67 0 -31 1 -32 107 -66 59
-20 125 -38 147 -42 22 -4 60 -14 85 -22 25 -8 72 -21 105 -28 33 -8 78 -19
100 -25 22 -6 56 -15 75 -20 19 -5 45 -12 58 -15 13 -5 22 -3 22 4 0 10 -104
45 -160 55 -29 4 -83 18 -260 67 -61 17 -61 17 -49 43 10 21 14 22 60 13 27
-5 46 -13 43 -18 -3 -5 7 -9 21 -9 15 0 34 -4 43 -9 10 -5 37 -12 61 -16 24
-3 54 -10 68 -16 13 -5 37 -9 52 -9 15 0 45 -8 67 -19 21 -10 63 -21 92 -24
49 -6 52 -5 52 16 0 26 89 117 114 117 9 0 41 -26 71 -57 30 -32 64 -67 75
-79 11 -12 20 -24 20 -28 0 -3 8 -15 18 -25 9 -11 23 -27 30 -35 7 -9 25 -18
40 -21 15 -4 35 -10 44 -16 10 -5 33 -9 52 -9 19 0 38 -5 42 -11 4 -7 25 -9
55 -7 34 4 49 1 53 -9 8 -21 29 -15 23 6 -3 15 2 22 22 29 40 14 182 158 175
177 -7 18 -2 16 -81 20 -52 2 -63 0 -63 -14 0 -10 -5 -7 -13 9 -8 15 -24 27
-45 31 -18 4 -35 9 -38 12 -11 11 7 44 30 55 13 6 34 31 47 56 12 25 26 46 30
46 11 0 18 54 8 72 -5 9 -6 19 -2 21 11 7 122 -11 158 -25 35 -14 91 -58 88
-69 -2 -5 4 -6 12 -3 8 4 15 16 15 28 0 13 3 26 7 30 4 4 8 15 8 24 1 9 2 31
3 48 2 23 8 33 22 37 16 4 19 11 15 30 -4 16 -1 30 11 42 14 14 15 20 5 37
-14 22 -6 57 17 74 8 6 12 16 8 23 -5 8 -16 4 -36 -13 -40 -33 -95 -50 -139
-41 -20 4 -58 8 -85 10 -57 4 -86 25 -66 49 7 9 19 16 27 16 22 0 52 41 53 73
0 15 6 27 13 27 16 0 39 58 26 66 -5 3 -9 1 -9 -4 0 -15 -49 -24 -68 -12 -15
10 -15 10 3 9 34 -2 46 1 40 10 -3 5 -1 12 5 16 20 12 10 25 -12 15 -51 -20
-127 -30 -152 -19 -31 15 -40 47 -20 77 9 13 13 30 10 38 -3 8 -1 14 4 14 6 0
10 7 10 16 0 12 -6 15 -24 10 -15 -4 -28 0 -36 9 -7 8 -28 17 -49 21 -20 4
-48 13 -62 22 -24 13 -25 18 -18 56 4 22 5 43 3 45 -2 2 1 10 8 18 6 8 13 24
14 36 1 12 6 34 9 50 4 15 3 27 -2 27 -5 0 -22 -35 -37 -78z m-196 -248 c0 -2
-7 -4 -15 -4 -8 0 -15 4 -15 10 0 5 7 7 15 4 8 -4 15 -8 15 -10z m530 -174 c0
-5 -2 -10 -4 -10 -3 0 -8 5 -11 10 -3 6 -1 10 4 10 6 0 11 -4 11 -10z m-830
-250 c0 -5 -4 -10 -10 -10 -5 0 -10 5 -10 10 0 6 5 10 10 10 6 0 10 -4 10 -10z
m40 -400 c0 -5 -5 -10 -11 -10 -5 0 -7 5 -4 10 3 6 8 10 11 10 2 0 4 -4 4 -10z"/>
<path d="M3860 3120 c0 -5 7 -10 15 -10 8 0 15 5 15 10 0 6 -7 10 -15 10 -8 0
-15 -4 -15 -10z"/>
<path d="M3970 3108 c0 -13 -5 -29 -12 -36 -9 -9 -7 -12 10 -12 18 0 22 6 22
29 0 17 -4 33 -10 36 -6 3 -10 -4 -10 -17z"/>
<path d="M3810 3100 c0 -5 7 -10 16 -10 8 0 12 5 9 10 -3 6 -10 10 -16 10 -5
0 -9 -4 -9 -10z"/>
<path d="M2213 3086 c-17 -31 -89 -70 -138 -76 -45 -4 -50 -8 -59 -35 -4 -16
-15 -42 -22 -57 -21 -40 -17 -75 11 -100 17 -15 25 -32 25 -54 0 -23 9 -41 29
-62 23 -23 27 -32 18 -41 -9 -10 -8 -14 6 -22 9 -6 17 -15 17 -22 0 -7 12 -23
26 -36 24 -23 25 -23 38 -5 13 17 47 127 69 224 5 25 10 73 11 108 0 57 2 62
20 56 17 -6 19 -3 13 39 -5 38 -4 45 8 41 8 -4 15 -2 15 4 0 14 -26 33 -34 24
-4 -4 -12 1 -17 11 -12 21 -25 22 -36 3z m47 -86 c0 -5 -5 -10 -11 -10 -5 0
-7 5 -4 10 3 6 8 10 11 10 2 0 4 -4 4 -10z m-140 -101 c0 -5 -7 -9 -15 -9 -9
0 -12 6 -9 15 6 15 24 11 24 -6z m20 -249 c0 -5 -4 -10 -10 -10 -5 0 -10 5
-10 10 0 6 5 10 10 10 6 0 10 -4 10 -10z"/>
<path d="M3494 3065 c-9 -19 -17 -55 -18 -80 -2 -43 0 -45 26 -45 15 0 30 -4
33 -10 3 -5 20 -10 36 -10 17 0 38 -4 47 -9 27 -14 112 10 112 31 0 10 5 18
10 18 6 0 10 9 10 19 0 11 5 23 10 26 6 3 10 12 10 19 0 17 -59 29 -75 16 -10
-8 -18 -4 -33 14 -15 20 -30 26 -65 29 -25 1 -49 6 -53 10 -16 15 -34 5 -50
-28z"/>
<path d="M2400 3071 c0 -10 -6 -24 -14 -30 -7 -6 -17 -39 -20 -73 -4 -34 -14
-78 -23 -98 -8 -19 -19 -48 -23 -65 -5 -16 -21 -75 -36 -130 -15 -55 -28 -118
-28 -140 l-1 -40 90 -6 c124 -9 138 0 172 119 20 69 40 89 73 72 24 -13 24
-17 5 -63 -8 -20 -15 -41 -15 -47 0 -17 40 -11 71 11 16 11 36 18 44 16 10 -4
15 7 20 43 4 27 13 51 21 54 25 10 7 124 -27 167 -16 20 -29 42 -29 47 0 6
-14 21 -30 34 -17 13 -43 34 -58 46 -15 13 -41 30 -59 37 -18 8 -33 18 -33 24
0 12 -57 41 -82 41 -11 0 -18 -7 -18 -19z"/>
<path d="M4761 3021 c-7 -5 -15 -29 -18 -53 -4 -37 -2 -46 13 -52 11 -4 21 -1
26 9 11 19 27 19 66 -1 34 -17 72 -11 72 11 0 24 22 29 39 9 36 -44 48 -48 77
-25 15 12 36 21 48 21 19 1 20 1 3 11 -10 6 -31 7 -47 4 -17 -4 -30 -2 -30 3
0 5 -21 13 -47 17 -27 4 -57 12 -68 18 -11 5 -33 14 -50 18 -16 4 -39 10 -50
13 -11 4 -26 2 -34 -3z m52 -38 c-7 -2 -19 -2 -25 0 -7 3 -2 5 12 5 14 0 19
-2 13 -5z"/>
<path d="M3851 2997 c-16 -16 -14 -40 4 -33 8 3 15 2 15 -3 0 -10 45 -30 94
-41 40 -9 48 3 15 21 -15 8 -18 14 -10 22 15 15 14 27 -4 27 -8 0 -15 -7 -15
-16 0 -9 -6 -14 -12 -11 -7 2 -12 11 -10 21 2 9 -1 16 -5 17 -4 0 -20 2 -34 4
-15 2 -32 -2 -38 -8z"/>
<path d="M4002 2964 c4 -21 22 -23 26 -1 2 10 -3 17 -13 17 -10 0 -15 -6 -13
-16z"/>
<path d="M5138 2911 c9 -17 23 -31 30 -31 17 0 15 14 -5 32 -35 29 -43 29 -25
-1z"/>
<path d="M6107 2878 c-8 -24 -18 -59 -22 -78 -3 -19 -19 -73 -34 -120 -31 -97
-51 -172 -51 -198 0 -9 -7 -30 -15 -46 -8 -15 -15 -40 -15 -55 0 -15 -5 -32
-10 -37 -6 -6 -17 -39 -26 -75 -8 -35 -19 -73 -24 -84 -9 -20 -19 -70 -24
-115 -1 -14 -9 -41 -18 -60 -24 -54 -39 -101 -48 -145 -4 -22 -15 -60 -24 -85
-10 -25 -20 -56 -23 -70 -2 -14 -7 -32 -10 -40 -11 -27 -11 -40 -2 -40 18 0 9
-29 -11 -35 -25 -8 -26 -31 -1 -44 23 -13 31 -5 31 31 0 15 5 28 10 28 6 0 10
5 10 11 0 5 -4 7 -10 4 -16 -10 -12 21 4 34 8 7 19 35 25 62 6 28 18 57 26 65
9 9 15 34 15 60 0 26 4 43 9 39 6 -3 13 16 16 42 3 27 10 58 16 71 5 13 9 38
9 57 0 25 6 37 21 45 16 9 19 18 15 36 -4 15 0 34 10 49 9 14 14 35 11 46 -3
12 0 28 8 36 13 12 36 77 39 108 2 12 35 120 46 150 18 47 31 103 33 140 1 22
5 42 8 45 10 8 49 157 49 185 0 40 -26 29 -43 -17z"/>
<path d="M1809 2768 c0 -2 -2 -12 -4 -23 -2 -11 -8 -33 -13 -50 -28 -83 -42
-132 -42 -150 -1 -11 -9 -38 -19 -59 -14 -30 -17 -47 -10 -70 5 -17 9 -46 9
-63 0 -18 5 -33 10 -33 12 0 12 1 30 80 6 30 20 80 30 110 10 30 22 71 28 90
7 19 9 45 6 58 -4 13 -2 22 5 22 8 0 7 6 -1 20 -10 16 -10 24 0 40 6 11 12 22
12 25 0 5 -39 7 -41 3z"/>
<path d="M4811 2714 c-8 -19 -15 -23 -24 -16 -6 6 -33 13 -58 17 -41 6 -48 4
-63 -16 -9 -13 -16 -28 -16 -34 0 -12 167 -68 180 -60 5 3 32 -2 60 -12 41
-14 54 -15 70 -5 27 17 38 15 14 -2 -22 -17 -23 -17 81 -40 90 -20 123 -18
136 5 5 11 7 23 4 28 -3 5 0 11 5 13 13 4 33 85 25 99 -4 5 -1 9 4 9 6 0 11 5
11 11 0 8 -6 7 -16 -2 -18 -15 -144 -14 -154 1 -8 12 -91 18 -150 10 -41 -6
-59 -4 -71 6 -21 19 -24 18 -38 -12z m86 -70 c-2 -2 -11 -2 -20 2 -13 4 -14 9
-4 19 10 11 14 10 20 -2 5 -8 7 -17 4 -19z m273 26 c0 -5 -4 -10 -10 -10 -5 0
-10 5 -10 10 0 6 5 10 10 10 6 0 10 -4 10 -10z"/>
<path d="M3880 2710 c0 -5 16 -12 34 -16 28 -5 39 -14 54 -44 13 -27 23 -36
32 -30 8 5 10 14 5 26 -5 11 -7 22 -7 26 2 10 -47 34 -85 41 -18 4 -33 2 -33
-3z"/>
<path d="M3842 2642 c-7 -5 -10 -16 -6 -25 4 -12 1 -17 -10 -17 -9 0 -25 -19
-37 -45 -12 -25 -25 -48 -30 -51 -5 -3 -9 -9 -9 -13 0 -13 92 5 100 20 5 8 18
25 29 38 27 31 28 77 2 91 -23 12 -23 12 -39 2z"/>
<path d="M1896 2552 c-4 -7 -5 -12 -2 -12 3 0 -9 -33 -25 -72 -17 -40 -34 -93
-39 -118 -5 -25 -14 -65 -20 -89 -15 -60 -1 -96 59 -151 130 -121 163 -120
178 5 2 22 9 49 14 60 15 34 42 138 43 170 1 25 -5 33 -34 47 -39 19 -110 93
-110 114 0 8 -5 14 -11 14 -6 0 -19 10 -28 22 -12 15 -20 18 -25 10z"/>
<path d="M1145 2322 c0 -45 6 -76 16 -91 14 -23 15 -21 17 35 1 57 -13 124
-26 124 -4 0 -7 -31 -7 -68z"/>
<path d="M2660 2360 c0 -5 4 -10 9 -10 6 0 13 5 16 10 3 6 -1 10 -9 10 -9 0
-16 -4 -16 -10z"/>
<path d="M3674 2133 c-9 -30 -57 -118 -68 -125 -24 -16 30 -28 75 -16 24 6 79
73 79 97 0 13 -12 29 -32 41 -40 24 -47 25 -54 3z"/>
<path d="M6887 2093 c-4 -3 -7 -11 -7 -17 0 -6 5 -5 12 2 6 6 9 14 7 17 -3 3
-9 2 -12 -2z"/>
<path d="M3982 1895 c-12 -14 -26 -25 -32 -25 -5 0 -10 -19 -10 -43 0 -24 -5
-48 -12 -55 -16 -16 -75 -15 -81 1 -3 6 -3 -6 0 -27 l6 -39 -46 5 c-44 5 -46
4 -58 -26 -7 -17 -18 -34 -23 -38 -17 -12 8 -29 56 -40 75 -16 122 -27 163
-37 22 -5 69 -17 105 -26 36 -8 83 -21 105 -27 26 -8 167 -13 397 -15 l357 -3
6 22 c15 61 32 154 29 159 -5 10 -125 1 -155 -11 -20 -9 -33 -9 -48 0 -24 12
-25 15 -11 40 8 15 4 21 -29 38 -21 11 -65 23 -97 25 -54 5 -96 15 -149 37
-42 17 -175 50 -202 50 -15 1 -39 7 -53 15 -14 8 -39 14 -57 15 -17 0 -35 5
-39 11 -4 7 -21 9 -40 6 -19 -3 -34 -2 -34 4 0 17 -26 9 -48 -16z"/>
<path d="M2087 1873 c-4 -3 -7 -16 -7 -28 0 -11 -13 -36 -30 -55 -16 -19 -30
-44 -30 -55 0 -11 -7 -29 -15 -39 -8 -11 -15 -28 -15 -37 0 -10 -6 -22 -14
-26 -8 -4 -16 -21 -18 -38 -2 -20 -14 -36 -38 -53 -19 -13 -36 -27 -38 -33 -2
-5 228 -9 602 -9 l606 0 -12 23 c-7 12 -19 26 -26 30 -7 5 -10 17 -7 27 4 12
-2 24 -16 34 -30 21 -42 10 -23 -20 9 -13 12 -24 6 -24 -18 0 -34 34 -33 73 0
11 -8 17 -23 17 -12 0 -26 4 -31 9 -19 17 -119 41 -126 30 -4 -7 -8 -5 -12 4
-3 9 -43 23 -104 37 -54 12 -105 24 -113 27 -8 3 -49 13 -90 23 -41 10 -113
29 -160 43 -134 39 -220 54 -233 40z"/>
<path d="M2815 1791 c14 -14 95 -26 95 -13 0 5 -10 9 -22 9 -13 -1 -36 2 -53
7 -20 5 -27 4 -20 -3z"/>
<path d="M3288 1663 c7 -3 16 -2 19 1 4 3 -2 6 -13 5 -11 0 -14 -3 -6 -6z"/>
<path d="M3370 1657 c0 -10 70 -40 77 -33 4 3 2 11 -3 16 -11 11 -74 25 -74
17z"/>
<path d="M3635 1580 c3 -5 17 -10 31 -10 14 0 22 4 19 10 -3 6 -17 10 -31 10
-14 0 -22 -4 -19 -10z"/>
<path d="M3715 1558 c33 -19 177 -47 161 -31 -8 9 -135 42 -161 42 -20 0 -20
0 0 -11z"/>
<path d="M5720 1515 c-10 -12 -9 -16 5 -21 23 -9 40 10 22 25 -11 9 -17 8 -27
-4z"/>
<path d="M3895 1510 c3 -5 17 -10 31 -10 14 0 22 4 19 10 -3 6 -17 10 -31 10
-14 0 -22 -4 -19 -10z"/>
<path d="M2190 1041 c-48 -10 -87 -38 -121 -85 -25 -34 -29 -48 -29 -106 0
-123 57 -172 205 -178 98 -3 113 2 117 38 3 24 1 25 -47 22 -79 -4 -138 14
-166 51 -48 65 -18 161 60 188 31 11 177 7 189 -5 2 -3 0 -60 -6 -128 -11
-139 -5 -165 32 -165 36 0 43 12 48 88 6 73 21 104 58 119 32 13 77 -1 87 -27
4 -9 7 -53 7 -97 l1 -81 85 0 85 0 11 80 c14 99 20 114 50 120 13 3 35 7 49
10 31 7 29 20 21 -180 -1 -27 3 -30 30 -33 18 -2 36 3 43 12 7 9 14 67 17 153
3 76 6 149 7 162 3 33 -24 48 -57 33 -29 -13 -34 -43 -11 -62 13 -10 12 -15
-3 -35 -16 -22 -18 -23 -37 -6 -17 16 -32 17 -100 12 l-80 -6 -2 -45 c-6 -99
-15 -170 -22 -165 -4 2 -6 40 -4 84 4 75 3 82 -20 105 -30 30 -104 43 -155 28
-46 -14 -55 -7 -48 36 3 20 1 42 -6 49 -13 16 -50 17 -66 1 -8 -8 -15 -8 -26
1 -18 15 -147 23 -196 12z"/>
<path d="M4149 1032 c-13 -2 -18 -27 -26 -139 -11 -161 -14 -166 -108 -161
l-60 3 0 -30 c0 -23 6 -31 25 -36 76 -21 182 0 208 42 8 12 18 74 23 138 13
179 14 178 -18 183 -16 2 -35 2 -44 0z"/>
<path d="M4547 1028 c-126 -34 -181 -212 -94 -307 42 -46 93 -61 209 -61 113
0 138 9 138 51 0 22 25 26 34 4 12 -31 69 -55 133 -55 78 0 93 6 93 37 0 25
-1 26 -51 20 -68 -8 -108 12 -109 55 0 15 13 18 92 20 103 3 106 6 93 74 -17
91 -198 101 -245 14 -9 -16 -15 -18 -30 -10 -23 12 -130 13 -148 1 -8 -4 -12
-19 -10 -32 2 -17 10 -25 30 -27 30 -4 38 -17 31 -55 -4 -19 -13 -28 -35 -32
-37 -8 -108 2 -128 18 -52 40 -64 109 -30 164 31 52 69 66 174 62 90 -4 91 -4
94 20 6 40 -21 51 -117 50 -47 -1 -103 -6 -124 -11z m437 -144 c27 -10 18 -31
-16 -38 -41 -8 -61 10 -34 30 22 16 28 17 50 8z"/>
<path d="M3487 1023 c-11 -11 -8 -48 5 -61 22 -22 -5 -34 -56 -27 -37 6 -47
12 -52 31 -5 19 -13 24 -40 24 -23 0 -37 -6 -44 -20 -16 -30 -53 -41 -90 -29
-43 16 -118 2 -145 -25 -34 -34 -23 -70 36 -114 71 -55 64 -88 -15 -70 -45 10
-61 0 -52 -30 14 -43 126 -54 181 -18 20 13 25 25 25 55 0 35 -6 44 -50 81
-27 23 -50 46 -50 51 0 6 31 9 73 7 l72 -3 1 -88 c2 -110 10 -121 91 -120 32
1 79 1 105 2 51 0 68 16 68 65 0 36 17 32 37 -9 20 -42 72 -65 147 -65 56 0
86 16 86 46 0 16 -5 16 -72 14 -54 -2 -83 11 -91 40 -7 27 8 35 73 36 126 2
120 1 120 37 0 66 -60 118 -136 117 -40 -1 -104 -39 -126 -75 -24 -42 -39 -31
-31 22 5 29 3 35 -16 40 l-21 5 24 23 c35 32 25 65 -18 65 -18 0 -36 -3 -39
-7z m-25 -219 c-2 -43 -4 -80 -6 -81 -2 -2 -21 0 -42 5 -38 8 -39 9 -42 57 -5
75 3 93 41 98 52 6 52 5 49 -79z m287 77 c32 -20 -21 -41 -63 -25 -13 5 -14 9
-5 20 13 16 47 18 68 5z"/>
<path d="M5764 1023 c-18 -3 -22 -13 -27 -75 -3 -39 -8 -73 -11 -76 -3 -2 -18
9 -34 26 -32 34 -101 50 -149 36 -16 -5 -52 -8 -82 -9 -66 0 -68 -6 -70 -133
-1 -46 -5 -81 -9 -78 -5 3 -7 35 -5 73 5 132 -14 153 -137 153 -83 0 -110 -11
-110 -45 0 -24 1 -25 54 -19 30 4 66 4 81 0 22 -6 25 -9 15 -21 -7 -8 -31 -20
-54 -26 -97 -26 -124 -40 -136 -69 -15 -37 -7 -62 29 -83 36 -21 114 -23 131
-2 16 20 4 35 -29 35 -35 0 -57 22 -39 38 22 17 85 31 96 20 5 -5 7 -29 4 -54
-6 -52 10 -63 69 -47 23 6 42 6 47 1 5 -5 22 -8 38 -6 28 3 29 5 34 73 7 84
23 120 61 135 29 12 69 5 81 -14 4 -6 8 -53 8 -104 l0 -93 38 3 c36 3 37 4 43
48 l6 45 1 -41 c2 -44 13 -54 57 -54 28 0 41 21 44 69 3 65 15 60 84 -31 25
-34 33 -38 72 -38 24 0 46 4 50 9 3 6 22 4 47 -5 47 -16 115 -18 155 -4 15 6
43 27 61 48 l33 37 -3 -100 -3 -100 29 -3 c37 -5 46 5 54 64 l7 49 62 -3 c50
-3 69 0 97 18 19 11 38 30 41 40 11 35 35 24 35 -16 l0 -35 43 3 42 3 8 165
c4 91 5 171 2 178 -3 8 -17 12 -37 10 -31 -3 -33 -5 -40 -53 -3 -27 -7 -81 -8
-120 -2 -57 -4 -64 -10 -38 -10 42 -55 102 -87 114 -33 12 -180 12 -204 -1
-12 -7 -19 -21 -19 -40 0 -39 -9 -38 -45 6 -25 29 -40 38 -82 44 -28 5 -68 4
-89 0 -22 -5 -70 -7 -109 -4 l-70 6 -49 -51 c-27 -28 -53 -48 -58 -45 -6 4 -7
40 -3 91 6 67 5 87 -6 94 -8 5 -16 8 -19 7 -3 0 -14 -3 -26 -5z m229 -225 c-3
-43 -9 -78 -13 -78 -12 0 -60 67 -60 84 0 12 70 80 76 73 1 -1 -1 -37 -3 -79z
m209 55 c38 -34 12 -126 -40 -136 -43 -9 -69 2 -82 33 -14 34 -4 97 19 110 26
15 83 12 103 -7z m306 1 c31 -21 31 -95 0 -124 -49 -45 -98 -17 -106 60 -4 44
-2 56 13 67 25 17 65 17 93 -3z"/>
<path d="M6770 1005 c-22 -26 -8 -50 31 -53 31 -3 37 1 42 19 4 13 1 29 -5 36
-14 17 -53 17 -68 -2z"/>
<path d="M6762 913 c-5 -10 -12 -69 -15 -131 -4 -102 -3 -114 14 -122 21 -12
69 3 69 22 0 9 3 10 8 2 24 -36 139 -47 180 -18 56 39 47 93 -25 144 -54 39
-51 56 11 53 45 -3 46 -2 46 27 0 25 -4 30 -36 36 -55 10 -116 -2 -136 -26
-30 -37 -22 -61 39 -117 69 -65 64 -79 -26 -68 -60 7 -61 7 -61 38 0 18 5 50
10 73 5 22 6 53 1 70 -6 23 -14 30 -38 32 -23 2 -34 -2 -41 -15z"/>
<path d="M4247 743 c-14 -4 -17 -13 -15 -36 3 -30 5 -32 43 -32 37 0 40 2 43
31 3 26 -1 33 -20 38 -13 3 -25 5 -28 5 -3 -1 -13 -3 -23 -6z"/>
<path d="M2835 378 c-21 -53 -42 -138 -35 -138 11 0 54 139 46 147 -3 3 -8 -1
-11 -9z"/>
<path d="M2872 318 c-19 -64 -21 -91 -8 -77 10 10 44 149 37 149 -4 0 -17 -32
-29 -72z"/>
<path d="M2990 365 c0 -22 -3 -25 -24 -19 -19 4 -28 0 -42 -21 -16 -25 -16
-30 -3 -54 11 -20 23 -26 52 -28 l37 -1 0 68 c0 38 -4 72 -10 75 -6 4 -10 -5
-10 -20z m-4 -59 c7 -31 -1 -46 -26 -46 -23 0 -36 36 -20 55 19 22 39 18 46
-9z"/>
<path d="M3640 316 l0 -76 35 0 c36 0 55 20 55 59 0 27 -29 54 -51 48 -14 -4
-19 0 -19 13 0 11 -4 22 -10 25 -6 4 -10 -22 -10 -69z m65 -21 c0 -23 -5 -31
-21 -33 -25 -4 -37 25 -22 52 15 28 43 15 43 -19z"/>
<path d="M4910 316 l0 -76 35 0 c36 0 55 20 55 59 0 27 -29 54 -51 48 -14 -4
-19 0 -19 13 0 11 -4 22 -10 25 -6 4 -10 -22 -10 -69z m65 -21 c0 -23 -5 -31
-22 -33 -19 -3 -23 1 -23 26 0 33 8 44 30 40 9 -2 15 -14 15 -33z"/>
<path d="M2410 310 c0 -76 17 -97 22 -27 2 34 7 42 23 42 16 0 21 -8 23 -42 4
-57 22 -55 22 2 0 47 -22 71 -54 59 -12 -4 -16 0 -16 15 0 12 -4 21 -10 21 -6
0 -10 -30 -10 -70z"/>
<path d="M2530 366 c0 -8 -6 -17 -12 -20 -10 -5 -10 -7 0 -12 7 -3 12 -24 12
-50 0 -38 3 -44 21 -44 18 0 19 3 9 15 -6 8 -11 31 -10 52 2 21 2 46 1 56 -1
20 -21 23 -21 3z"/>
<path d="M2583 365 c-16 -31 -2 -119 20 -123 9 -2 17 1 17 7 0 6 -4 11 -10 11
-15 0 -12 67 3 73 8 4 9 8 1 14 -6 4 -13 15 -16 23 -4 12 -7 11 -15 -5z"/>
<path d="M3413 365 c-16 -31 -2 -119 20 -123 9 -2 17 1 17 7 0 6 -4 11 -10 11
-15 0 -12 67 3 73 8 4 9 8 1 14 -6 4 -13 15 -16 23 -4 12 -7 11 -15 -5z"/>
<path d="M3750 310 c0 -40 4 -70 10 -70 6 0 10 30 10 70 0 40 -4 70 -10 70 -6
0 -10 -30 -10 -70z"/>
<path d="M4353 365 c-16 -31 -2 -119 20 -123 9 -2 17 1 17 7 0 6 -4 11 -10 11
-15 0 -12 67 3 73 8 4 9 8 1 14 -6 4 -13 15 -16 23 -4 12 -7 11 -15 -5z"/>
<path d="M2640 273 c0 -42 4 -73 10 -73 6 0 10 9 10 20 0 15 7 20 25 20 37 0
58 53 35 90 -5 8 -25 15 -44 15 l-36 2 0 -74z m65 22 c0 -23 -5 -31 -21 -33
-25 -4 -37 25 -22 52 15 28 43 15 43 -19z"/>
<path d="M3048 339 c-21 -12 -24 -69 -6 -87 29 -29 88 -2 88 39 0 21 -34 59
-52 59 -7 0 -21 -5 -30 -11z m52 -24 c18 -22 3 -57 -23 -53 -22 3 -33 28 -23
54 7 18 30 18 46 -1z"/>
<path d="M3140 343 c1 -24 29 -98 39 -101 6 -2 14 10 17 27 4 17 10 31 14 31
4 0 10 -14 14 -31 8 -42 26 -32 42 22 16 53 17 62 5 54 -5 -3 -12 -19 -16 -35
-8 -36 -20 -32 -28 10 -8 38 -24 39 -32 0 -9 -43 -22 -45 -29 -5 -4 19 -11 35
-16 35 -6 0 -10 -3 -10 -7z"/>
<path d="M3300 293 c0 -63 18 -71 22 -11 2 31 8 44 21 46 14 3 17 -4 17 -42 0
-25 5 -46 10 -46 15 0 13 100 -2 102 -67 8 -68 7 -68 -49z"/>
<path d="M3470 273 c0 -42 4 -73 10 -73 6 0 10 9 10 20 0 15 7 20 25 20 37 0
58 53 35 90 -5 8 -25 15 -44 15 l-36 2 0 -74z m65 22 c0 -23 -5 -31 -21 -33
-26 -4 -38 22 -23 49 16 30 44 20 44 -16z"/>
<path d="M3805 334 c-20 -21 -16 -73 7 -88 28 -17 72 4 76 38 6 52 -48 85 -83
50z m60 -39 c0 -25 -4 -30 -25 -30 -16 0 -26 6 -28 18 -6 30 6 49 30 45 18 -2
23 -9 23 -33z"/>
<path d="M3915 327 c-8 -12 -15 -29 -15 -38 0 -24 36 -52 60 -46 24 6 26 -5 5
-23 -12 -10 -18 -10 -30 0 -17 14 -31 8 -20 -9 9 -15 58 -14 73 1 7 7 12 39
12 73 l0 61 -35 1 c-25 1 -39 -5 -50 -20z m61 -21 c7 -31 -1 -46 -26 -46 -23
0 -36 36 -20 55 19 22 39 18 46 -9z"/>
<path d="M4032 338 c-20 -20 -13 -39 18 -49 40 -14 39 -33 -1 -25 -22 4 -29 2
-27 -7 3 -6 19 -13 36 -15 22 -2 34 2 41 16 12 22 2 35 -36 46 -35 11 -28 30
8 22 27 -5 30 -4 19 9 -15 18 -42 19 -58 3z"/>
<path d="M4120 274 c0 -43 4 -74 10 -74 6 0 10 11 10 24 0 19 4 22 24 19 18
-4 29 2 42 22 16 25 16 30 3 54 -12 20 -23 26 -52 27 l-37 1 0 -73z m70 41
c16 -19 3 -55 -20 -55 -25 0 -33 15 -26 46 7 27 27 31 46 9z"/>
<path d="M4247 332 c-30 -33 -11 -92 29 -92 51 0 73 60 36 93 -24 22 -45 21
-65 -1z m58 -37 c0 -25 -4 -30 -25 -30 -16 0 -26 6 -28 18 -6 30 6 49 30 45
18 -2 23 -9 23 -33z"/>
<path d="M4477 332 c-32 -35 -11 -92 32 -92 22 0 47 27 36 38 -4 4 -10 1 -12
-5 -6 -16 -39 -17 -48 -2 -12 19 4 59 24 59 11 0 21 -6 24 -12 2 -7 8 -10 12
-6 11 11 -14 38 -35 38 -9 0 -24 -8 -33 -18z"/>
<path d="M4577 332 c-31 -34 -14 -92 28 -92 50 0 73 60 37 93 -24 22 -45 21
-65 -1z m58 -37 c0 -25 -4 -30 -25 -30 -16 0 -26 6 -28 18 -6 30 6 49 30 45
18 -2 23 -9 23 -33z"/>
<path d="M4680 293 c0 -63 17 -72 22 -11 2 31 8 44 21 46 14 3 17 -4 17 -42 0
-25 5 -46 10 -46 6 0 10 18 10 40 0 27 5 43 15 47 23 8 28 -1 28 -47 0 -25 4
-39 11 -37 12 4 16 71 4 90 -4 7 -33 12 -73 13 l-65 1 0 -54z"/>
<path d="M5020 294 c0 -30 5 -54 10 -54 6 0 10 18 10 40 0 33 4 42 23 50 25
10 24 11 -15 16 -28 3 -28 2 -28 -52z"/>
<path d="M2755 330 c4 -6 11 -8 16 -5 14 9 11 15 -7 15 -8 0 -12 -5 -9 -10z"/>
<path d="M2755 250 c-3 -5 1 -10 9 -10 9 0 16 5 16 10 0 6 -4 10 -9 10 -6 0
-13 -4 -16 -10z"/>
<path d="M3585 250 c-3 -5 1 -10 9 -10 9 0 16 5 16 10 0 6 -4 10 -9 10 -6 0
-13 -4 -16 -10z"/>
<path d="M4410 250 c0 -5 5 -10 10 -10 6 0 10 5 10 10 0 6 -4 10 -10 10 -5 0
-10 -4 -10 -10z"/>
<path d="M4850 250 c0 -5 7 -10 15 -10 8 0 15 5 15 10 0 6 -7 10 -15 10 -8 0
-15 -4 -15 -10z"/>
</g>
</svg>
