<?xml version="1.0" standalone="no"?>
<!DOCTYPE svg PUBLIC "-//W3C//DTD SVG 20010904//EN"
 "http://www.w3.org/TR/2001/REC-SVG-20010904/DTD/svg10.dtd">
<svg version="1.0" xmlns="http://www.w3.org/2000/svg"
 width="140pt" height="200pt" viewBox="0 0 1280.000000 1882.000000"
 preserveAspectRatio="xMidYMid meet">

<g transform="translate(0.000000,1882.000000) scale(0.100000,-0.100000)"
fill="#000000" stroke="none">
<path d="M0 18482 l0 -308 103 -23 c56 -12 117 -29 135 -37 33 -14 168 -42
253 -51 39 -4 50 -2 72 20 15 13 27 31 27 40 0 16 62 112 89 137 29 29 90 143
91 173 0 10 18 45 40 78 22 33 40 63 40 66 0 3 16 30 35 59 19 29 35 56 35 61
0 4 15 25 34 45 26 28 30 38 19 42 -8 3 -230 6 -494 6 l-479 0 0 -308z"/>
<path d="M1169 18782 c-16 -7 -16 -10 0 -52 14 -39 22 -47 56 -56 90 -25 240
-62 305 -74 111 -21 200 -41 255 -55 71 -19 131 -32 200 -43 28 -4 56 -11 62
-15 6 -4 46 -12 87 -17 42 -5 89 -16 106 -25 16 -8 48 -15 72 -15 24 0 56 -7
72 -15 15 -8 40 -15 55 -15 14 0 60 -11 101 -24 41 -13 95 -29 120 -35 25 -7
69 -18 99 -25 35 -9 64 -11 83 -5 18 5 38 4 48 -1 17 -9 107 -35 155 -45 23
-5 122 -29 210 -51 33 -9 82 -20 110 -24 27 -5 79 -18 115 -29 70 -22 183 -47
267 -61 28 -4 56 -11 62 -14 5 -4 65 -17 133 -30 68 -13 147 -30 176 -39 52
-14 54 -14 90 10 45 30 64 53 98 117 27 51 63 107 76 116 4 3 11 18 17 33 6
16 18 27 28 27 21 -1 53 -23 53 -37 0 -6 7 -24 15 -39 8 -16 15 -36 15 -45 0
-10 -29 -52 -65 -95 -36 -43 -65 -82 -65 -87 0 -4 -13 -25 -29 -45 -37 -48
-54 -98 -41 -122 5 -10 12 -33 15 -52 12 -75 24 -135 35 -173 6 -22 15 -62 20
-90 4 -27 16 -72 25 -98 9 -27 14 -51 12 -54 -3 -2 -1 -19 4 -36 6 -18 16 -70
24 -117 8 -47 19 -86 25 -88 5 -2 10 -16 10 -31 0 -15 9 -56 21 -91 11 -35 24
-98 28 -140 5 -42 13 -85 20 -97 6 -12 11 -32 11 -45 1 -49 53 -79 175 -99
102 -17 203 -39 300 -65 55 -15 134 -32 175 -39 41 -6 91 -17 110 -23 82 -26
149 -41 208 -46 34 -3 73 -13 86 -21 13 -9 47 -18 74 -19 28 -2 97 -17 154
-34 56 -16 132 -33 167 -37 36 -3 77 -13 93 -21 15 -8 53 -18 85 -24 32 -5 78
-14 103 -19 67 -16 197 -38 265 -46 33 -4 88 -13 123 -21 44 -10 86 -13 138
-8 67 6 74 9 69 25 -6 18 8 25 38 20 13 -2 7 16 -12 33 -15 13 -20 14 -24 4
-3 -7 -6 -1 -6 15 -1 25 -4 27 -41 27 l-40 0 0 40 0 40 65 0 65 0 0 80 0 80
-50 0 -50 0 0 -40 c0 -29 -4 -40 -15 -40 -11 0 -15 11 -15 39 0 22 -4 41 -9
43 -15 5 -18 120 -3 125 7 3 12 -5 12 -21 0 -22 4 -26 30 -26 28 0 30 2 30 40
0 29 -4 40 -15 40 -8 0 -15 8 -15 18 0 11 3 13 8 5 4 -7 27 -15 50 -19 l42 -7
0 42 c0 22 -4 41 -10 41 -5 0 -10 18 -10 41 0 39 -1 40 -31 37 -16 -2 -34 -10
-39 -18 -8 -13 -10 -12 -10 3 0 15 11 22 33 18 4 0 7 11 7 27 0 15 3 44 6 65
l7 37 -42 0 -41 0 0 40 c0 40 0 40 39 40 22 0 41 -4 43 -10 2 -5 8 2 15 15 9
20 8 25 -3 25 -9 0 -14 11 -14 31 0 48 -34 73 -103 77 -37 2 -57 -1 -57 -8 0
-6 -12 -10 -27 -8 -23 2 -28 7 -25 27 3 29 -14 51 -41 51 -32 0 -86 39 -103
76 -22 45 -16 187 9 225 16 24 26 31 87 58 l25 10 -27 -5 c-18 -4 -33 -1 -42
9 -14 13 -11 15 22 14 49 -2 63 3 85 31 10 12 25 22 33 22 8 0 14 7 14 15 0 8
5 15 10 15 6 0 10 18 10 40 0 22 5 40 10 40 6 0 10 18 10 40 0 33 -3 40 -20
40 -31 0 -27 62 7 100 32 37 43 38 43 5 0 -16 6 -25 15 -25 11 0 15 11 15 40
0 29 -4 40 -15 40 -8 0 -15 5 -15 11 0 6 -11 20 -25 31 -21 16 -25 28 -25 73
0 33 -5 57 -14 65 -8 6 -16 24 -18 38 -2 16 -9 27 -18 27 -10 0 -16 12 -18 38
-3 31 0 37 15 37 14 0 24 14 36 48 22 60 23 112 2 112 -8 0 -15 -6 -15 -14 0
-9 -7 -12 -21 -9 -13 4 -18 11 -14 21 7 19 -22 52 -47 52 -10 0 -18 5 -18 10
0 6 6 10 14 10 8 0 18 4 21 10 4 6 -2 7 -17 2 -65 -23 -102 9 -58 50 17 16 19
22 8 29 -10 7 -8 9 7 11 11 1 -25 5 -80 8 -93 6 -87 6 80 10 l180 3 -115 7
c-149 9 -5470 11 -5491 2z m5304 -39 c-7 -2 -21 -2 -30 0 -10 3 -4 5 12 5 17
0 24 -2 18 -5z m231 -948 c4 -10 -1 -15 -14 -15 -13 0 -18 5 -14 15 4 8 10 15
14 15 4 0 10 -7 14 -15z m-1453 -21 c45 -26 62 -78 56 -164 -4 -53 -10 -68
-30 -86 l-25 -21 25 -19 c23 -17 25 -26 25 -86 0 -37 -3 -72 -7 -78 -7 -11
-93 -14 -119 -4 -11 4 -16 19 -16 45 0 55 -28 81 -83 77 l-42 -3 -3 -55 c-2
-30 -9 -58 -15 -62 -17 -11 -95 -10 -117 2 -16 9 -18 28 -19 229 -2 196 0 220
16 236 15 16 34 17 169 13 127 -4 157 -8 185 -24z m987 14 c7 -7 12 -39 12
-76 0 -61 1 -63 23 -56 38 13 113 7 140 -11 33 -21 46 -61 49 -153 1 -40 6
-76 10 -78 4 -3 9 3 10 13 0 10 2 23 2 30 3 26 16 24 16 -3 0 -16 -9 -40 -20
-54 -11 -14 -20 -34 -20 -45 0 -32 -20 -45 -66 -45 -74 0 -74 -1 -74 120 0 86
-3 110 -16 121 -11 9 -20 10 -32 2 -14 -8 -18 -30 -20 -113 -1 -57 -8 -110
-14 -117 -12 -15 -86 -17 -108 -3 -12 8 -15 46 -17 232 -2 147 1 226 9 235 13
16 100 17 116 1z m-310 -95 l3 -33 60 0 60 0 -3 -47 -3 -48 -52 -3 c-45 -3
-54 -6 -59 -26 -8 -34 0 -121 11 -118 6 1 10 5 11 10 3 28 19 42 49 42 53 0
65 -9 65 -47 0 -77 -45 -113 -142 -113 -54 0 -102 20 -118 49 -5 11 -10 60
-10 109 0 81 -2 90 -20 95 -16 4 -20 14 -20 47 0 33 4 43 20 47 14 4 20 14 20
33 0 34 10 39 75 37 49 -2 50 -3 53 -34z m649 -29 c-3 -3 -12 -4 -19 -1 -8 3
-5 6 6 6 11 1 17 -2 13 -5z m-1079 -118 c1 -61 7 -115 12 -122 16 -18 60 -5
65 20 3 11 6 64 8 116 l2 95 60 0 60 0 3 -164 c2 -125 -1 -166 -10 -173 -21
-13 -82 -9 -103 6 -16 12 -22 12 -42 -1 -36 -24 -118 -13 -151 21 -26 26 -27
30 -30 163 -4 155 -4 155 73 151 l50 -3 3 -109z m1001 27 c0 -11 -3 -13 -6 -5
-2 6 -10 9 -15 6 -7 -4 -8 -2 -4 4 11 18 26 14 25 -5z m-5 -38 c-4 -8 -7 -15
-9 -15 -2 0 -5 7 -9 15 -3 9 0 15 9 15 9 0 12 -6 9 -15z m-4 -162 c0 -5 -5
-15 -10 -23 -7 -12 -9 -10 -7 8 1 19 17 33 17 15z m310 -179 c0 -30 -16 -28
-38 4 -14 21 -13 22 12 22 21 0 26 -5 26 -26z"/>
<path d="M5037 17663 c-4 -3 -7 -26 -7 -50 0 -42 1 -43 34 -43 19 0 41 -3 49
-6 37 -14 62 59 31 90 -15 16 -94 23 -107 9z"/>
<path d="M10699 18783 c-2 -29 3 -3064 6 -3768 2 -478 7 -1723 10 -2765 3
-1042 8 -1999 11 -2126 4 -130 3 -234 -2 -237 -11 -6 -1430 -18 -2659 -22
-750 -3 -938 -1 -1015 11 -52 8 -101 14 -107 14 -7 0 -13 6 -13 13 0 8 -7 14
-15 14 -8 0 -13 -3 -10 -5 3 -3 0 -11 -7 -19 -9 -11 -13 -9 -22 9 -9 18 -9 29
1 48 14 27 18 63 5 45 -4 -6 -14 -10 -22 -10 -8 1 -21 -3 -28 -8 -8 -7 -17 -6
-24 1 -7 7 -17 12 -23 12 -5 0 -3 -4 5 -10 25 -16 1 -24 -27 -9 -20 11 -27 11
-30 2 -3 -7 -12 -13 -21 -13 -15 0 -15 2 -2 10 11 7 1 10 -36 10 -29 0 -56 5
-61 13 -5 6 -20 40 -33 75 -16 44 -29 64 -44 67 -11 3 -88 4 -170 3 l-149 -3
-21 -60 c-12 -33 -25 -66 -29 -73 -11 -17 -166 -17 -172 1 -3 7 30 118 73 247
44 129 103 307 133 395 29 88 58 163 64 167 14 10 227 10 242 0 7 -4 22 -37
33 -72 11 -36 24 -74 29 -85 5 -11 17 -42 26 -70 10 -27 25 -58 33 -67 13 -15
13 -18 1 -18 -9 0 -10 -3 -3 -8 25 -17 43 -56 37 -82 -3 -15 0 -31 6 -34 6 -4
11 -16 11 -27 0 -10 5 -19 10 -19 6 0 4 15 -5 36 -17 41 -20 67 -5 44 9 -13
11 -13 19 -1 7 11 10 9 14 -10 4 -23 4 -23 6 -1 0 12 5 22 10 22 5 0 16 18 25
40 14 35 20 40 48 40 17 0 29 3 26 6 -4 3 0 21 8 40 19 44 11 57 -32 51 -39
-5 -45 5 -11 20 20 10 18 12 -25 23 -64 17 -76 33 -80 112 -1 36 -1 65 2 63 3
-2 12 1 20 6 12 8 12 12 3 16 -23 9 -14 24 11 17 31 -7 67 11 60 31 -4 8 -1
15 5 15 6 0 11 -7 11 -15 0 -19 14 -19 34 1 12 11 16 36 16 94 0 49 5 88 15
106 8 16 15 26 15 22 0 -4 14 -2 30 3 31 11 41 29 15 29 -11 0 -15 11 -15 40
0 29 -4 40 -15 40 -11 0 -15 11 -15 40 0 29 4 40 15 40 11 0 15 11 15 40 0 29
-4 40 -15 40 -23 0 -18 18 13 45 16 15 23 28 17 32 -5 5 -10 15 -10 23 0 8
-11 20 -23 26 -41 20 -48 32 -29 51 16 16 17 16 17 0 0 -9 7 -17 15 -17 11 0
15 11 15 41 0 23 -4 38 -10 34 -5 -3 -1 13 9 35 17 38 17 46 4 101 -15 56 -18
60 -71 89 -31 16 -67 30 -82 30 -14 0 -59 11 -100 24 -41 13 -99 27 -127 31
-29 4 -55 11 -59 16 -3 5 -16 9 -28 9 -13 0 -29 6 -35 14 -7 8 -31 16 -54 19
-128 13 -203 30 -403 93 -22 7 -74 18 -115 24 -40 6 -99 15 -129 20 -31 5 -87
11 -126 13 -38 2 -85 9 -104 15 -19 6 -57 18 -85 27 -75 25 -166 45 -205 45
-19 0 -67 9 -105 20 -38 11 -92 20 -120 20 -27 0 -61 6 -75 13 -31 16 -100 34
-162 42 -26 3 -50 10 -53 15 -3 4 -46 11 -97 15 -50 4 -106 14 -124 21 -18 8
-56 14 -84 14 -59 0 -179 24 -232 47 -31 13 -42 14 -67 3 -16 -6 -32 -17 -34
-23 -3 -7 -28 -43 -57 -82 -28 -38 -64 -95 -79 -125 -14 -31 -38 -71 -51 -90
-32 -45 -56 -86 -76 -129 -9 -19 -27 -43 -40 -53 -13 -11 -24 -26 -24 -34 0
-25 -31 -76 -62 -102 -28 -24 -30 -28 -23 -81 3 -31 12 -78 20 -106 7 -27 16
-70 20 -95 4 -25 13 -54 20 -66 8 -12 16 -39 20 -60 3 -21 13 -70 22 -107 9
-39 12 -72 7 -77 -14 -13 -102 -40 -132 -40 -27 0 -27 0 -28 78 0 42 -6 87
-12 100 -16 27 -61 198 -72 272 -11 66 -25 124 -34 139 -4 6 -24 11 -44 11
-20 1 -66 8 -102 16 -36 8 -101 22 -145 30 -44 8 -100 19 -125 24 -136 27
-200 41 -240 51 -25 6 -76 18 -115 26 -38 7 -92 18 -120 24 -27 6 -75 14 -105
19 -67 11 -164 35 -182 46 -7 4 -26 7 -43 6 -16 -2 -46 3 -65 11 -19 8 -64 17
-100 21 -69 7 -152 23 -185 37 -11 4 -51 12 -90 18 -38 6 -95 17 -125 26 -30
8 -66 15 -80 15 -14 0 -47 7 -74 15 -26 8 -52 12 -57 10 -4 -3 -45 3 -91 14
-46 11 -126 28 -178 37 -52 8 -115 20 -140 25 -25 5 -74 13 -110 19 -36 6 -76
14 -90 19 -45 16 -113 31 -185 41 -38 5 -92 14 -118 20 -56 11 -77 2 -101 -44
-49 -94 -155 -225 -183 -225 -26 -1 -93 64 -93 90 0 10 15 36 33 56 18 21 52
64 75 96 l43 58 -6 82 c-4 45 -12 98 -20 117 -15 40 -57 234 -53 247 6 22 -14
112 -32 141 -11 18 -20 48 -20 67 0 18 -5 37 -11 40 -16 11 -23 -3 -10 -19 9
-11 9 -19 0 -34 -11 -18 -14 -18 -31 -3 -19 17 -24 37 -8 43 9 3 -23 112 -39
132 -11 13 -2 126 10 126 4 0 11 -23 16 -52 4 -29 14 -53 22 -56 14 -5 14 -1
-6 91 -5 25 -22 33 -55 28 -7 -1 -11 11 -54 169 l-23 85 0 -1856 -1 -1856 43
-9 c24 -6 63 -6 92 -2 28 5 79 6 115 3 36 -2 102 -8 148 -11 46 -4 78 -10 72
-14 -7 -4 -25 -6 -41 -5 -29 3 -29 3 -29 -56 0 -33 -4 -59 -9 -59 -12 0 -71
-59 -71 -71 0 -5 7 -9 16 -9 12 0 15 -10 14 -42 -2 -62 9 -91 31 -85 14 4 19
0 19 -14 0 -10 7 -19 15 -19 11 0 15 -11 15 -40 0 -22 5 -40 10 -40 6 0 10
-18 10 -40 0 -36 -2 -40 -25 -40 -20 0 -25 -5 -25 -25 0 -18 -5 -25 -20 -25
-11 0 -20 -4 -20 -9 0 -5 -9 -13 -20 -16 -16 -5 -20 -15 -20 -46 0 -39 0 -39
40 -39 l40 0 0 40 c0 29 4 40 15 40 11 0 15 -11 15 -40 0 -29 -4 -40 -15 -40
-12 0 -15 -14 -15 -63 0 -70 17 -97 58 -97 19 0 22 -6 22 -40 0 -22 5 -40 10
-40 6 0 10 -18 10 -40 0 -39 -1 -40 -35 -40 -34 0 -35 -1 -35 -40 0 -29 -4
-40 -15 -40 -11 0 -15 11 -15 40 0 29 -4 40 -15 40 -12 0 -15 -16 -15 -80 0
-78 1 -80 24 -80 14 0 38 -13 55 -31 34 -34 39 -49 16 -49 -11 0 -15 -11 -15
-40 l0 -40 -40 0 c-33 0 -40 -3 -40 -20 0 -17 7 -20 49 -20 49 0 75 -15 51
-30 -6 -4 -25 -6 -41 -5 -28 2 -29 1 -29 -41 0 -32 -4 -44 -15 -44 -12 0 -15
-16 -15 -80 l0 -80 31 0 32 0 -7 -61 c-3 -34 -6 -70 -6 -80 0 -14 -7 -19 -25
-19 -22 0 -25 -4 -25 -40 0 -38 2 -40 30 -40 28 0 30 -2 30 -40 0 -38 -1 -40
-32 -40 -29 0 -30 -1 -15 -18 10 -10 17 -28 17 -40 0 -17 6 -22 25 -22 23 0
25 -4 25 -40 0 -29 4 -40 15 -40 23 0 18 -15 -15 -48 -24 -24 -30 -39 -30 -71
0 -51 -18 -54 -22 -4 -2 21 -2 -15 1 -80 4 -104 2 -117 -12 -117 -13 0 -17 -9
-17 -39 0 -22 -5 -41 -12 -44 -8 -2 -9 -8 -4 -13 5 -5 11 -4 13 4 6 17 33 15
33 -3 0 -8 5 -15 10 -15 6 0 10 -5 10 -11 0 -16 26 -39 44 -39 9 0 16 -7 16
-15 0 -8 -4 -15 -10 -15 -5 0 -12 -11 -16 -24 -3 -15 -15 -27 -30 -30 -20 -5
-24 -13 -24 -41 0 -24 5 -35 15 -35 11 0 15 -11 15 -39 0 -22 6 -42 13 -44 8
-4 3 -14 -15 -31 -16 -14 -28 -30 -28 -36 0 -5 -7 -10 -15 -10 -11 0 -15 -11
-15 -40 0 -29 4 -40 15 -40 11 0 15 -11 15 -40 0 -29 4 -40 15 -40 11 0 15
-11 15 -40 0 -38 -2 -40 -30 -40 l-30 0 0 -80 c0 -64 3 -80 15 -80 11 0 15
-11 15 -40 0 -22 5 -40 10 -40 6 0 10 -18 10 -40 0 -22 -4 -40 -10 -40 -5 0
-10 7 -10 15 0 11 -11 15 -40 15 -29 0 -40 -4 -40 -15 0 -8 7 -15 15 -15 12 0
15 -16 15 -80 0 -64 -3 -80 -15 -80 -8 0 -15 7 -15 16 0 14 -3 14 -15 4 -22
-18 -22 -178 0 -186 9 -4 15 -19 15 -40 0 -25 4 -34 17 -34 15 0 15 -1 0 -18
-23 -25 -24 -142 -2 -142 11 0 15 -11 15 -40 0 -29 -4 -40 -15 -40 -8 0 -15 7
-15 15 0 8 -4 15 -10 15 -5 0 -10 -25 -10 -55 0 -30 5 -55 10 -55 6 0 10 -16
10 -36 0 -27 -5 -37 -19 -41 -11 -3 -17 -12 -15 -21 1 -10 6 -38 9 -64 l6 -48
50 0 c37 0 49 -4 49 -15 0 -8 7 -15 15 -15 11 0 15 -11 15 -40 0 -29 -4 -40
-15 -40 -11 0 -15 11 -15 40 0 29 -4 40 -15 40 -11 0 -15 -11 -15 -40 0 -29 4
-40 15 -40 11 0 15 -11 15 -40 0 -29 -4 -40 -15 -40 -11 0 -15 -11 -15 -40 0
-22 4 -40 9 -40 5 0 12 -36 16 -80 5 -58 11 -80 21 -80 11 0 14 -30 14 -159 0
-118 3 -161 13 -165 9 -5 9 -7 0 -12 -9 -4 -13 -29 -13 -74 0 -45 4 -70 13
-73 8 -4 3 -14 -15 -31 -17 -15 -28 -36 -28 -51 0 -23 -4 -25 -40 -25 -36 0
-40 -2 -40 -25 0 -14 -4 -25 -10 -25 -5 0 -10 -18 -10 -40 0 -22 5 -40 10 -40
6 0 10 7 10 15 0 11 11 15 40 15 29 0 40 -4 40 -15 0 -8 -7 -15 -15 -15 -11 0
-15 -11 -15 -40 0 -38 2 -40 30 -40 28 0 30 -2 30 -40 0 -29 -4 -40 -15 -40
-11 0 -15 -11 -15 -40 0 -31 4 -40 17 -40 15 0 15 -1 0 -18 -10 -10 -17 -28
-17 -40 0 -12 -6 -22 -14 -22 -20 0 -29 -100 -10 -120 13 -13 16 -13 24 0 11
17 25 7 44 -32 6 -12 23 -29 38 -35 35 -17 57 -45 41 -50 -15 -5 -18 -83 -3
-83 6 0 10 -22 10 -49 0 -41 -4 -53 -25 -69 -14 -11 -25 -25 -25 -31 0 -6 -17
-11 -40 -11 -29 0 -40 4 -40 15 0 21 -99 21 -126 0 -25 -19 -73 -19 -95 1 -31
28 -49 11 -49 -45 0 -27 -4 -51 -9 -53 -11 -4 18 -78 30 -78 5 0 9 11 9 25 0
18 5 25 20 25 11 0 20 -4 20 -10 0 -5 9 -10 20 -10 15 0 20 7 20 25 0 32 17
32 42 0 18 -23 25 -25 113 -25 70 0 96 -4 105 -15 10 -12 10 -18 0 -30 -7 -8
-18 -15 -25 -15 -25 0 -45 -36 -45 -83 0 -35 -4 -47 -15 -47 -8 0 -15 -7 -15
-15 0 -11 11 -15 40 -15 l40 0 0 -105 c0 -87 -3 -105 -15 -105 -11 0 -15 -11
-15 -40 0 -29 4 -40 15 -40 11 0 15 -11 15 -40 l0 -40 -40 0 -40 0 0 -40 c0
-31 -4 -40 -17 -40 -15 0 -15 -1 0 -18 10 -10 17 -28 17 -40 0 -17 6 -22 24
-22 16 0 35 -13 56 -40 24 -30 28 -40 16 -40 -9 0 -16 -5 -16 -10 0 -6 -12
-22 -28 -36 -18 -17 -23 -27 -14 -31 6 -2 12 -22 12 -44 0 -28 4 -39 15 -39
11 0 15 -11 15 -40 l0 -40 40 0 c34 0 40 -3 40 -20 0 -12 7 -31 15 -44 11 -17
14 -42 11 -104 -6 -109 -16 -122 -87 -122 -62 0 -69 -7 -69 -77 0 -29 3 -33
25 -33 23 0 25 -4 25 -40 0 -29 4 -40 15 -40 11 0 15 -11 15 -40 0 -29 -4 -40
-15 -40 -11 0 -15 -12 -15 -51 0 -44 4 -53 32 -77 36 -31 30 -29 106 -32 31
-1 49 -4 40 -7 -24 -6 -23 -10 10 -38 21 -20 24 -27 13 -34 -9 -5 -12 -22 -10
-48 3 -32 1 -39 -13 -40 -12 -1 -18 5 -18 18 0 17 -8 19 -80 19 l-80 0 1 -32
c1 -18 3 -25 6 -15 8 29 22 19 33 -23 6 -24 17 -40 25 -40 22 0 18 -23 -6 -38
-12 -8 -18 -19 -15 -28 3 -8 -1 -14 -10 -14 -8 0 -13 -4 -9 -9 3 -5 1 -12 -5
-16 -5 -3 -10 1 -10 9 0 31 -28 15 -44 -24 -25 -63 -21 -104 14 -138 16 -17
30 -26 30 -21 0 5 7 9 15 9 8 0 15 -4 15 -10 0 -5 9 -10 20 -10 15 0 20 7 20
25 0 16 6 25 15 25 11 0 15 11 15 40 0 23 5 40 11 40 8 0 10 -17 6 -55 -5 -48
-3 -57 14 -68 23 -14 25 -37 4 -37 -11 0 -15 -11 -15 -40 0 -36 3 -40 24 -40
14 0 39 -14 58 -33 30 -29 33 -37 33 -92 0 -50 4 -63 22 -78 30 -24 29 -51 -2
-75 -30 -24 -32 -42 -5 -42 23 0 41 -31 22 -38 -15 -5 -16 -42 -2 -42 6 0 10
-18 10 -40 0 -29 4 -40 15 -40 9 0 15 -9 15 -25 0 -22 -4 -25 -40 -25 -29 0
-40 -4 -40 -15 0 -8 -4 -15 -10 -15 -5 0 -10 -5 -10 -11 0 -21 29 -39 64 -39
25 0 36 -4 36 -15 0 -11 -11 -15 -40 -15 -33 0 -40 -3 -40 -20 0 -26 -34 -60
-60 -60 -17 0 -20 -7 -20 -40 0 -29 4 -40 15 -40 11 0 15 -11 15 -40 0 -36 3
-40 25 -40 14 0 25 -4 25 -10 0 -7 2016 -10 6028 -10 l6027 0 -3 9395 -2 9395
-1035 0 c-569 0 -1035 -3 -1036 -7z m-5190 -6876 c6 -8 14 -38 18 -68 7 -46
12 -54 31 -57 20 -3 23 -8 17 -30 -4 -15 -13 -34 -21 -43 -8 -8 -14 -26 -14
-38 0 -27 -16 -60 -42 -85 -24 -22 -35 -14 -21 17 27 58 32 90 23 144 -12 72
-19 93 -42 125 -11 16 -16 32 -13 38 9 14 51 12 64 -3z m151 -1 c0 -8 -7 -16
-15 -20 -15 -5 -21 14 -8 27 11 12 23 8 23 -7z m117 -4 c-27 -29 -22 -62 8
-62 30 0 32 -19 5 -47 -16 -18 -17 -23 -6 -33 8 -6 26 -9 40 -6 27 5 31 0 18
-21 -9 -15 -56 -33 -85 -33 -28 0 -67 38 -67 65 0 54 57 153 89 154 11 1 11
-3 -2 -17z m-387 -57 c0 -3 -8 -14 -17 -25 -18 -21 -63 -25 -112 -11 -30 8
-38 28 -14 34 25 6 143 8 143 2z m247 -338 c14 5 13 0 -6 -20 -31 -34 -79 -43
-138 -26 -42 11 -47 11 -59 -6 -8 -10 -17 -16 -20 -12 -9 9 31 49 74 75 33 19
34 19 82 1 27 -10 57 -16 67 -12z m293 -704 c7 -7 12 -763 5 -790 -5 -23 -9
-24 -88 -21 l-82 3 2 298 c2 163 -1 297 -5 297 -7 0 -52 -98 -52 -113 0 -4 -8
-27 -19 -50 -28 -65 -151 -393 -151 -405 0 -6 -9 -16 -19 -22 -22 -11 -130
-13 -147 -2 -6 4 -41 86 -79 182 -87 228 -166 424 -172 430 -2 3 -3 -135 -1
-305 l3 -310 -80 0 -80 0 -3 408 -2 407 133 0 134 0 98 -262 c54 -145 103
-274 110 -287 l12 -23 13 33 c32 86 55 147 115 314 36 99 70 190 75 202 9 21
17 23 122 25 108 3 147 1 158 -9z m-4613 -143 c30 -80 74 -200 98 -268 25 -67
49 -130 54 -140 11 -20 9 -24 72 153 22 61 44 119 49 130 5 11 21 56 36 100
14 44 35 101 46 128 l20 47 134 0 134 0 0 -410 0 -411 -82 3 -83 3 2 298 c1
163 -1 297 -5 297 -4 0 -24 -46 -46 -103 -21 -56 -44 -115 -51 -132 -8 -16
-39 -100 -71 -185 -31 -85 -61 -161 -67 -167 -6 -8 -36 -13 -83 -13 -72 0 -75
1 -85 28 -18 45 -128 332 -159 412 -15 41 -38 95 -49 120 l-21 45 2 -300 3
-300 -85 0 -85 0 -3 395 c-1 217 0 401 3 408 3 9 36 12 136 10 l131 -3 55
-145z m1229 113 c14 -34 52 -144 218 -633 24 -69 41 -131 39 -137 -3 -9 -29
-13 -83 -13 l-78 0 -28 73 -29 72 -170 3 -170 2 -26 -72 -25 -73 -79 -3 c-43
-2 -82 1 -87 6 -8 8 225 739 254 795 8 15 24 17 128 17 l120 0 16 -37z m834
-32 c0 -54 -4 -70 -16 -75 -9 -3 -62 -6 -120 -6 l-104 0 -2 -332 -3 -333 -80
0 -80 0 -5 330 c-3 182 -7 331 -8 333 -1 1 -44 2 -94 2 -129 0 -135 3 -140 53
-1 23 -2 54 0 70 l3 27 325 0 324 0 0 -69z m230 -83 c0 -84 4 -159 8 -166 7
-9 50 -12 183 -10 l174 3 3 163 2 162 85 0 85 0 -2 -407 -3 -408 -80 0 -80 0
-3 166 c-2 149 -4 167 -20 170 -9 2 -92 3 -184 1 l-168 -3 -2 -167 -3 -167
-80 0 -80 0 -3 395 c-1 217 0 401 3 407 3 9 30 13 85 13 l80 0 0 -152z m1238
84 c3 -60 2 -63 -24 -72 -15 -6 -101 -10 -193 -10 -91 0 -172 1 -178 0 -15 0
-18 -146 -5 -167 6 -9 60 -13 192 -15 l185 -3 0 -65 0 -65 -179 -3 c-117 -2
-184 -6 -193 -14 -11 -9 -14 -33 -11 -97 l3 -86 200 -5 200 -5 0 -70 0 -70
-285 0 -285 0 -3 408 -2 407 287 -2 288 -3 3 -63z m1869 -798 c-3 -3 -12 -4
-19 -1 -8 3 -5 6 6 6 11 1 17 -2 13 -5z m40 0 c-3 -3 -12 -4 -19 -1 -8 3 -5 6
6 6 11 1 17 -2 13 -5z m3576 -335 c32 -7 54 -16 51 -21 -4 -6 2 -7 15 -3 15 4
27 -1 45 -19 13 -14 30 -26 38 -26 8 0 21 -12 29 -27 7 -16 21 -39 31 -53 22
-33 51 -215 40 -255 -8 -29 -11 -30 -68 -32 -32 -1 -74 0 -91 3 -31 5 -33 7
-33 47 0 30 -9 57 -28 88 -49 75 -44 74 -246 74 -180 0 -181 0 -228 -28 -27
-15 -48 -34 -48 -42 0 -8 -4 -15 -9 -15 -23 0 -31 -116 -31 -433 1 -403 5
-428 82 -508 9 -9 26 -20 37 -24 37 -11 334 -8 364 4 26 10 91 67 93 80 3 25
15 166 17 209 5 69 -4 73 -146 72 -62 -1 -120 -1 -129 -1 -16 1 -18 12 -18 96
0 73 3 95 14 95 7 0 105 2 217 5 112 3 216 3 232 -1 l27 -6 0 -191 c0 -236
-12 -350 -45 -419 -23 -52 -57 -98 -70 -98 -4 0 -18 -9 -32 -20 -14 -11 -39
-20 -54 -20 -16 0 -29 -4 -29 -8 0 -4 -41 -14 -90 -22 -119 -17 -355 -9 -401
14 -18 9 -38 16 -45 16 -6 0 -31 10 -53 22 -33 17 -40 26 -35 42 4 17 3 18 -5
6 -24 -33 -82 75 -112 210 -16 75 -19 128 -18 435 0 346 3 385 37 516 18 70
107 193 122 168 5 -7 9 -6 13 4 9 25 68 48 145 57 40 4 76 11 79 14 11 11 278
6 336 -5z m-5598 -20 c64 -16 95 -31 88 -42 -3 -6 -1 -7 6 -3 7 5 20 -1 31
-14 10 -12 22 -22 27 -23 4 -1 7 -7 7 -14 -1 -7 3 -11 10 -10 6 1 10 -4 8 -10
-1 -7 2 -13 8 -13 16 0 50 -87 65 -163 13 -68 19 -333 16 -672 -2 -124 -17
-252 -32 -271 -5 -6 -6 -14 -2 -17 3 -4 1 -7 -6 -7 -7 0 -10 -4 -7 -9 10 -15
-18 -72 -32 -66 -9 3 -12 -1 -7 -14 7 -22 -50 -76 -67 -65 -7 4 -8 2 -4 -4 6
-10 -26 -35 -49 -37 -5 -1 -21 -6 -35 -12 -60 -25 -165 -36 -289 -30 -137 7
-217 25 -246 57 -10 11 -22 17 -27 14 -24 -15 -108 105 -108 153 0 11 -5 24
-12 31 -6 6 -12 36 -12 66 -1 29 -4 52 -7 50 -19 -11 -25 573 -8 721 5 44 11
98 12 120 7 76 54 188 75 180 7 -3 10 0 6 6 -10 17 54 66 104 79 26 6 56 16
67 21 44 19 339 18 420 -2z m-1845 -4 c0 -8 6 -15 14 -15 13 0 24 -34 30 -92
2 -15 7 -33 13 -40 9 -12 37 -106 49 -168 3 -14 10 -34 14 -45 5 -11 18 -54
29 -95 11 -41 24 -90 30 -109 6 -19 8 -38 5 -43 -3 -5 -1 -14 5 -21 5 -7 14
-31 20 -52 5 -22 17 -62 26 -90 20 -62 34 -114 39 -140 2 -11 6 -27 9 -35 3
-8 17 -49 30 -90 27 -87 45 -95 63 -30 26 98 84 309 104 375 11 39 23 81 25
95 7 34 51 195 75 276 6 17 10 38 10 47 0 10 5 14 15 11 8 -4 15 -2 15 4 0 6
-4 12 -10 14 -5 2 -2 32 10 73 10 39 22 81 25 95 20 75 27 90 44 90 10 0 21
-3 25 -7 4 -4 63 -8 131 -8 67 0 118 3 111 7 -7 5 -4 8 7 8 48 0 47 21 46
-762 0 -403 -3 -727 -6 -719 -4 11 -7 11 -14 0 -5 -9 -34 -14 -82 -16 l-75 -3
-6 32 c-8 42 1 1173 9 1213 6 26 3 31 -13 32 -15 1 -23 -11 -37 -58 -10 -33
-22 -62 -27 -65 -4 -3 -8 -20 -8 -38 0 -43 -26 -109 -32 -80 -2 10 -4 -6 -4
-37 0 -31 -5 -63 -11 -70 -6 -8 -14 -32 -18 -54 -3 -22 -13 -53 -20 -70 -7
-16 -20 -64 -30 -107 -9 -42 -23 -88 -31 -103 -8 -15 -14 -37 -14 -50 0 -12
-5 -37 -12 -56 -12 -33 -12 -34 -19 -9 -5 19 -7 14 -7 -20 1 -54 -21 -142 -38
-152 -6 -4 -9 -18 -7 -31 3 -14 -1 -30 -9 -37 -8 -8 -12 -27 -10 -48 3 -19 1
-32 -4 -29 -5 3 -10 -13 -11 -35 0 -22 -6 -45 -12 -51 -6 -6 -11 -19 -11 -30
0 -10 -4 -16 -9 -13 -5 3 -11 -2 -13 -12 -4 -15 -17 -19 -63 -21 -91 -3 -115
5 -115 41 0 16 -6 42 -14 56 -8 15 -22 56 -31 92 -10 36 -24 85 -32 110 -8 25
-20 68 -28 95 -7 28 -34 122 -60 210 -67 228 -76 265 -69 276 3 6 -1 18 -9 27
-21 24 -50 126 -37 130 5 2 10 8 10 13 0 4 -6 6 -14 3 -10 -4 -17 10 -26 48
-32 143 -59 193 -73 136 -3 -13 -3 -165 -1 -338 3 -173 5 -325 4 -337 -2 -30
-1 -91 6 -351 l5 -213 -86 2 -85 2 -2 81 -2 81 -6 -85 c-6 -84 -11 388 -10
1050 0 223 4 344 10 343 6 -2 10 3 10 11 0 11 28 14 145 15 124 2 145 0 145
-14z m2865 5 c3 -5 16 -10 28 -9 17 0 64 -5 96 -10 2 -1 -1 -7 -8 -14 -8 -11
-5 -13 18 -9 39 5 91 -23 91 -49 0 -14 5 -19 14 -16 23 9 103 -117 95 -149 -1
-5 4 -22 11 -39 16 -38 33 -463 25 -658 -5 -143 -27 -281 -49 -307 -7 -8 -16
-23 -19 -32 -4 -10 -11 -18 -18 -18 -6 0 -9 -6 -6 -14 7 -17 -16 -39 -28 -28
-5 4 -5 1 0 -7 15 -27 -104 -100 -188 -115 -21 -4 -178 -7 -349 -8 -326 0
-327 0 -328 44 0 9 4 19 10 23 6 4 6 15 0 31 -13 34 -13 294 0 294 6 0 10 18
10 40 0 22 -4 40 -10 40 -7 0 -10 176 -10 508 l0 509 304 2 c194 1 307 -2 311
-9z m538 -1 c12 4 182 8 377 9 l355 0 2 -31 c0 -18 -1 -67 -4 -109 l-5 -77
-271 -1 c-169 0 -275 -4 -283 -11 -9 -7 -13 -55 -13 -161 -1 -93 -6 -157 -13
-165 -8 -10 -6 -13 8 -13 14 0 15 -3 6 -12 -7 -7 -12 -19 -12 -27 0 -8 3 -11
7 -8 3 4 13 2 20 -5 10 -8 90 -12 271 -12 l256 -1 3 -102 c2 -97 1 -103 -18
-103 -11 0 -18 4 -15 8 3 5 -21 5 -52 1 -31 -5 -144 -8 -249 -7 -133 2 -196
-1 -204 -9 -8 -8 -10 -65 -7 -192 3 -100 2 -181 -2 -181 -20 0 -15 -37 7 -53
12 -10 23 -14 23 -8 0 6 102 9 278 8 l277 -2 2 -102 c1 -56 -1 -104 -6 -107
-4 -3 -176 -6 -382 -6 l-373 -2 -7 24 c-3 12 -7 277 -9 588 -1 311 -3 585 -4
610 -1 93 6 275 10 263 4 -8 13 -9 27 -4z m1088 9 c0 -2 3 -51 5 -110 4 -74 2
-108 -5 -108 -6 0 -11 -18 -11 -40 0 -22 3 -40 8 -40 4 0 7 -213 7 -473 0
-368 3 -475 13 -487 11 -13 48 -15 250 -13 130 1 247 -2 260 -7 21 -9 22 -15
22 -109 l0 -99 -369 -1 -370 -1 1 745 1 745 93 0 c52 0 94 -1 95 -2z m839 -28
c0 -16 -4 -30 -10 -30 -5 0 -10 -18 -10 -40 0 -22 5 -40 10 -40 6 0 10 -33 10
-80 0 -47 -4 -80 -10 -80 -5 0 -10 -18 -10 -41 0 -24 4 -38 10 -34 7 4 10
-183 10 -554 l0 -559 -87 0 c-56 0 -91 4 -99 12 -10 10 -12 153 -11 677 0 365
4 608 7 539 l6 -125 2 163 c1 103 -2 162 -8 162 -5 0 -10 9 -10 20 0 11 7 20
15 20 8 0 15 5 15 10 0 6 35 10 85 10 l85 0 0 -30z m567 -55 c17 -44 41 -101
52 -128 12 -26 21 -52 21 -59 0 -6 11 -35 25 -65 14 -29 25 -59 24 -66 -2 -17
12 -57 20 -57 7 0 32 -53 35 -75 1 -8 5 -18 9 -21 4 -4 7 -20 7 -36 0 -20 4
-27 12 -22 7 4 8 3 4 -5 -4 -6 -1 -18 7 -26 8 -8 27 -47 42 -87 15 -40 36 -91
46 -113 10 -22 22 -55 25 -73 4 -18 11 -35 15 -38 5 -3 9 -18 9 -35 0 -16 3
-29 8 -29 13 0 34 -59 27 -80 -5 -16 -2 -23 14 -27 12 -3 21 -12 21 -19 0 -8
4 -22 10 -32 5 -9 14 -29 20 -44 5 -16 16 -28 25 -28 13 0 14 54 9 483 -3 265
-7 508 -8 540 -2 31 1 57 6 57 4 0 8 7 8 15 0 8 -4 15 -10 15 -5 0 -9 31 -9
70 l1 70 99 0 99 0 0 -267 c0 -148 1 -477 1 -733 0 -256 0 -470 0 -477 -1 -8
-49 -12 -169 -13 -141 -1 -171 2 -182 15 -7 8 -9 15 -6 15 4 0 0 12 -9 28 -18
32 -75 172 -70 172 2 0 -5 17 -15 37 -13 28 -15 40 -7 45 8 5 6 8 -5 8 -10 0
-18 7 -18 15 0 8 -9 32 -20 52 -11 21 -20 43 -20 49 0 7 -7 25 -15 40 -8 16
-18 45 -21 64 -4 19 -12 42 -19 50 -20 23 -45 108 -38 126 4 12 3 15 -5 10 -8
-4 -16 3 -22 21 -26 73 -86 224 -108 273 -14 30 -25 67 -25 82 0 15 -3 25 -7
23 -4 -2 -17 22 -30 53 -25 63 -50 98 -59 83 -3 -5 -6 -51 -5 -103 0 -125 14
-866 18 -1000 2 -59 1 -119 -2 -133 -4 -26 -5 -26 -96 -23 l-91 3 -1 40 c-1
22 -4 349 -8 726 -5 490 -4 689 3 694 6 3 9 11 5 16 -3 6 60 8 168 7 l173 -3
32 -80z m-8277 -219 c0 -2 -7 -9 -15 -16 -12 -10 -15 -10 -15 4 0 9 7 16 15
16 8 0 15 -2 15 -4z m10385 -1451 c0 -26 -3 -30 -29 -30 -36 0 -56 26 -36 50
8 9 24 15 39 13 22 -2 26 -8 26 -33z m-4989 15 c31 0 34 -3 34 -30 l0 -29 -92
-3 -93 -3 -3 -42 -3 -42 88 -3 88 -3 3 -32 3 -33 -91 0 -91 0 3 -47 3 -48 93
-3 c50 -1 93 -7 93 -12 6 -46 9 -45 -106 -50 -60 -3 -122 -3 -137 -1 l-28 3 0
189 0 188 88 3 c48 2 93 2 100 1 8 -2 29 -3 48 -3z m777 1 c5 0 7 -11 5 -23
-2 -18 -11 -24 -35 -26 -29 -3 -33 0 -33 21 0 34 6 37 63 28z m1285 -49 c4
-62 -8 -82 -49 -82 -33 0 -39 22 -11 40 12 8 13 13 5 16 -14 6 -18 66 -6 78 4
4 19 6 33 4 23 -3 25 -8 28 -56z m827 26 c31 -36 41 -105 24 -160 -19 -58 -59
-78 -156 -78 l-72 0 -3 -57 -3 -58 -40 0 -40 0 -3 180 c-1 98 0 186 3 193 4
11 31 13 136 11 128 -4 131 -5 154 -31z m-5927 -161 c34 -100 62 -188 62 -195
0 -7 -14 -12 -34 -12 -30 0 -37 5 -53 38 l-18 37 -71 2 c-80 2 -87 -1 -101
-42 -8 -25 -15 -31 -46 -33 -30 -3 -37 0 -37 15 0 14 85 281 115 361 3 8 25
12 63 12 l58 0 62 -183z m577 160 c18 -15 28 -36 32 -65 l6 -43 -39 3 c-32 2
-40 7 -42 26 -5 31 -37 45 -95 39 -67 -6 -77 -21 -77 -121 0 -114 11 -130 84
-134 62 -3 83 6 88 41 2 15 13 23 35 28 40 8 43 5 43 -42 0 -25 -8 -47 -24
-65 -22 -26 -29 -28 -117 -32 -164 -6 -194 28 -187 214 4 108 18 147 61 164
12 5 63 9 114 9 81 1 95 -2 118 -22z m153 -45 c3 -56 5 -63 20 -56 9 5 41 9
70 9 45 0 57 -4 73 -24 17 -21 19 -37 17 -135 l-3 -111 -30 0 -30 0 -5 103
c-5 109 -11 121 -56 116 -46 -5 -53 -19 -56 -122 l-3 -97 -30 0 -30 0 -3 193
-2 193 32 -3 33 -3 3 -63z m1087 43 c0 -15 -8 -21 -32 -23 -30 -3 -33 -1 -33
23 0 24 3 26 33 23 24 -2 32 -8 32 -23z m725 -164 c0 -183 -1 -189 -21 -194
-48 -13 -49 -7 -49 194 l0 189 35 0 35 0 0 -189z m5273 120 c6 -28 10 -30 54
-33 44 -3 48 -5 48 -28 0 -23 -4 -25 -47 -28 l-47 -3 -7 -44 c-9 -65 2 -115
26 -115 13 0 20 7 20 20 0 21 35 41 58 33 7 -3 12 -22 12 -44 0 -50 -27 -69
-96 -69 -81 0 -93 16 -100 125 -4 63 -10 92 -20 98 -20 11 -17 40 6 60 11 9
20 26 20 37 0 16 7 20 34 20 29 0 34 -4 39 -29z m-3116 -57 c22 -14 47 -81 41
-112 -3 -14 -19 -17 -96 -20 -88 -3 -92 -4 -92 -25 0 -33 19 -47 62 -47 27 0
40 5 48 20 12 23 65 28 73 8 9 -25 -13 -59 -48 -73 -64 -27 -163 -12 -190 29
-33 50 -27 185 9 215 36 30 149 33 193 5z m282 1 c7 -7 14 -31 15 -52 1 -34
-2 -38 -26 -41 -21 -3 -29 3 -40 25 -14 30 -35 38 -58 23 -11 -7 -16 -34 -18
-110 l-4 -100 -34 0 -34 0 0 135 0 135 60 -2 c33 -1 63 1 66 5 9 9 56 -3 73
-18z m343 15 c39 -11 64 -41 54 -66 -7 -19 -50 -18 -66 1 -8 9 -30 15 -56 15
-40 0 -44 -2 -44 -24 0 -22 5 -24 75 -31 86 -8 105 -24 105 -87 0 -49 -25 -73
-84 -82 -98 -15 -181 18 -174 69 4 30 64 34 73 6 5 -18 15 -21 56 -21 35 0 51
4 55 15 12 29 -16 45 -78 45 -49 0 -63 4 -83 25 -28 27 -34 80 -12 109 23 31
113 44 179 26z m893 -14 c17 -11 26 -29 30 -61 11 -71 8 -74 -92 -77 -72 -2
-88 -6 -91 -19 -8 -44 73 -66 105 -29 24 27 83 28 83 1 0 -52 -74 -86 -165
-74 -62 8 -91 35 -100 97 -15 94 13 164 70 179 36 10 135 -1 160 -17z m142 13
c8 -8 17 -8 31 0 56 30 122 -6 122 -65 0 -18 -5 -36 -11 -39 -20 -13 -57 5
-63 30 -4 15 -13 25 -25 25 -36 0 -46 -28 -46 -124 l0 -91 -37 -3 -38 -3 0
135 c0 98 3 136 13 139 21 9 43 7 54 -4z m403 -14 c47 -42 -4 -87 -54 -47 -14
10 -35 18 -48 16 -13 -1 -29 -3 -35 -3 -7 -1 -13 -10 -13 -21 0 -21 13 -26 95
-33 53 -5 95 -39 95 -77 0 -32 -21 -67 -47 -79 -27 -12 -172 -15 -189 -3 -18
12 -36 52 -30 68 8 22 63 18 76 -6 13 -25 81 -28 100 -5 22 26 -5 42 -77 47
-77 5 -103 27 -103 88 0 62 32 81 137 77 54 -2 76 -7 93 -22z m145 16 c3 -6
17 -6 36 1 42 14 108 4 133 -21 17 -17 22 -37 24 -100 6 -129 -22 -160 -133
-148 l-54 5 -3 -61 c-3 -56 -5 -62 -26 -65 -48 -7 -52 7 -52 203 0 100 3 185
7 188 10 10 61 8 68 -2z m466 -20 c24 -25 29 -37 29 -80 l0 -51 -89 0 c-50 0
-93 -4 -96 -10 -3 -5 -1 -19 5 -30 13 -25 94 -29 104 -5 3 9 19 15 41 15 30 0
35 -3 35 -24 0 -43 -43 -66 -121 -66 -116 0 -143 26 -143 138 -1 111 29 140
142 141 57 1 66 -2 93 -28z m287 13 c33 -23 47 -63 28 -82 -19 -19 -63 -8 -71
18 -5 16 -15 20 -45 20 -46 0 -53 -14 -48 -101 l3 -54 42 -3 c38 -3 43 -1 49
23 6 23 11 26 43 23 33 -3 36 -5 34 -33 -1 -18 -13 -39 -28 -52 -22 -19 -38
-23 -96 -23 -65 0 -73 2 -100 29 -27 28 -29 35 -29 108 0 117 23 141 135 142
40 1 68 -4 83 -15z m370 -121 c-3 -137 -3 -138 -27 -141 -13 -2 -28 1 -34 7
-11 11 -19 198 -10 244 5 23 10 27 39 27 l35 0 -3 -137z m109 97 c6 -19 19
-62 28 -94 19 -70 26 -64 51 39 20 84 28 95 66 95 16 0 31 -6 33 -12 3 -7 -13
-69 -33 -138 l-38 -125 -49 -3 c-26 -2 -52 1 -58 7 -15 15 -88 244 -82 259 3
8 17 12 37 10 27 -2 34 -9 45 -38z m429 16 c24 -20 28 -31 29 -77 l0 -54 -92
-3 c-81 -2 -93 -5 -93 -20 0 -28 21 -42 60 -42 25 0 39 6 48 21 10 15 21 19
45 17 42 -4 48 -38 13 -73 -22 -22 -34 -25 -95 -25 -38 0 -81 4 -95 10 -38 14
-56 59 -56 140 0 66 2 74 29 101 27 27 35 29 105 29 64 0 79 -3 102 -24z
m-7406 5 c30 -8 60 -62 60 -108 l0 -32 -92 -3 c-84 -3 -93 -5 -96 -23 -4 -34
14 -50 58 -50 28 0 46 6 55 18 7 10 25 17 45 17 30 0 32 -2 25 -27 -11 -46
-30 -57 -104 -61 -79 -5 -126 13 -141 54 -13 33 -13 136 0 169 17 45 111 68
190 46z m190 -2 c8 0 33 3 54 7 29 5 49 2 72 -11 30 -16 34 -16 55 -1 37 25
105 21 135 -9 24 -24 25 -29 22 -137 l-3 -113 -30 0 -30 0 -5 103 c-4 76 -9
105 -20 112 -21 14 -43 12 -65 -4 -15 -11 -19 -29 -22 -105 -3 -101 -6 -111
-32 -111 -33 0 -41 21 -41 117 0 90 -1 94 -25 105 -19 9 -29 8 -49 -6 -24 -15
-25 -22 -28 -113 l-3 -98 -30 0 -30 0 -3 124 c-1 69 0 131 3 139 4 10 13 12
33 7 15 -3 34 -6 42 -6z m454 5 c13 -5 16 -26 16 -128 0 -82 -4 -126 -12 -134
-14 -14 -44 -16 -53 -2 -8 13 -9 246 -1 259 8 12 26 14 50 5z m285 -18 c12
-11 21 -31 21 -48 0 -25 -4 -28 -31 -28 -23 0 -32 5 -36 20 -7 25 -47 36 -78
22 -29 -13 -42 -68 -29 -121 8 -34 12 -36 51 -39 38 -3 44 0 55 22 8 19 19 26
39 26 35 0 38 -7 27 -48 -7 -25 -18 -37 -43 -48 -75 -31 -178 -8 -192 43 -13
45 -9 148 6 175 20 38 48 48 123 45 48 -2 72 -8 87 -21z m288 0 c27 -23 28
-29 31 -125 4 -110 -4 -133 -41 -124 -26 6 -39 6 -89 -3 -76 -13 -128 20 -128
81 0 25 8 44 25 61 23 23 32 25 92 23 71 -3 82 5 63 40 -13 26 -71 29 -90 5
-15 -17 -71 -15 -77 3 -3 7 7 24 21 38 22 22 34 25 95 25 59 0 74 -4 98 -24z
m818 14 c4 -7 12 -7 25 0 10 5 39 10 65 10 35 0 51 -6 70 -25 24 -23 25 -31
25 -135 l0 -110 -35 0 -35 0 0 91 c0 104 -9 129 -48 129 -51 0 -57 -12 -62
-117 l-5 -98 -32 -3 -33 -3 -2 68 c-1 59 -1 150 1 191 1 14 57 16 66 2z m400
1 c11 -5 25 -4 32 1 7 5 22 8 35 6 23 -3 23 -4 26 -166 l3 -163 -31 -31 c-30
-29 -33 -30 -106 -26 -66 3 -79 7 -96 27 -10 14 -17 31 -16 40 5 25 47 26 69
2 38 -41 109 -21 109 31 0 27 -3 30 -22 24 -58 -16 -77 -17 -111 -2 -44 18
-57 46 -57 125 0 72 14 115 43 129 26 13 94 14 122 3z m220 -126 l0 -130 -32
-3 -33 -3 0 136 0 136 33 -3 32 -3 0 -130z m130 125 c4 -7 12 -7 25 0 32 17
105 12 131 -9 23 -18 24 -25 24 -133 l0 -113 -32 -3 -33 -3 0 85 c0 112 -9
136 -54 136 -47 0 -58 -19 -61 -102 -1 -40 -3 -83 -4 -96 -1 -20 -6 -23 -33
-20 l-33 3 -3 119 c-1 66 0 126 2 133 6 15 62 18 71 3z m460 -14 c24 -25 42
-85 31 -111 -4 -12 -24 -15 -96 -15 -87 0 -90 -1 -90 -23 0 -33 18 -47 60 -47
23 0 41 7 53 20 20 24 65 26 74 4 9 -24 -30 -68 -68 -76 -49 -11 -135 0 -161
22 -19 15 -23 30 -26 94 -7 129 15 154 131 155 59 1 71 -2 92 -23z m-6515
-4599 c0 -7 -8 -23 -17 -36 -16 -23 -17 -23 -23 -5 -4 10 -5 27 -2 36 5 20 42
25 42 5z m1096 -1444 c63 -21 116 -54 160 -101 85 -88 117 -167 117 -287 0
-167 -86 -300 -243 -378 -62 -31 -70 -32 -180 -31 -104 0 -121 3 -172 27 -166
79 -262 254 -237 433 20 143 98 252 225 315 103 51 222 59 330 22z m6253 1 c8
-8 -105 -2 -124 5 -11 5 10 6 50 3 39 -2 72 -6 74 -8z m249 9 c-16 -2 -40 -2
-55 0 -16 2 -3 4 27 4 30 0 43 -2 28 -4z m365 0 c-46 -2 -120 -2 -165 0 -46 1
-9 3 82 3 91 0 128 -2 83 -3z m175 0 c-15 -2 -42 -2 -60 0 -18 2 -6 4 27 4 33
0 48 -2 33 -4z m-4560 -10 c-21 -2 -55 -2 -75 0 -21 2 -4 4 37 4 41 0 58 -2
38 -4z m500 0 c-27 -2 -69 -2 -95 0 -27 2 -5 3 47 3 52 0 74 -1 48 -3z m195 0
c-7 -2 -19 -2 -25 0 -7 3 -2 5 12 5 14 0 19 -2 13 -5z m309 0 c-51 -2 -132 -2
-180 0 -48 1 -6 3 93 3 99 0 138 -2 87 -3z m4115 -45 c-3 -8 -6 -5 -6 6 -1 11
2 17 5 13 3 -3 4 -12 1 -19z m-295 -188 c10 -13 17 -30 16 -39 -5 -24 -42 -25
-63 -1 -22 25 -81 27 -107 3 -13 -12 -18 -31 -18 -73 0 -77 13 -92 75 -88 43
3 50 6 53 26 2 12 0 22 -5 23 -62 6 -69 10 -59 34 4 13 18 15 63 13 l58 -3 3
-46 c5 -73 -18 -93 -110 -97 -67 -4 -77 -2 -102 20 -25 21 -29 33 -33 94 -7
88 12 140 54 150 15 3 33 7 38 10 6 2 34 2 64 0 42 -2 58 -8 73 -26z m-6170
-10 c29 -36 22 -131 -10 -146 -10 -4 -44 -10 -77 -13 l-60 -6 -3 -38 c-3 -38
-25 -58 -43 -40 -12 12 -18 233 -6 257 8 17 18 18 95 13 73 -4 89 -8 104 -27z
m226 19 c44 -15 62 -72 38 -119 -11 -24 -13 -37 -5 -46 5 -7 9 -32 7 -56 -2
-35 -7 -43 -23 -43 -13 0 -21 9 -25 31 -10 48 -18 54 -66 54 -43 0 -44 0 -44
-34 0 -37 -21 -62 -45 -52 -12 4 -15 28 -15 135 0 94 3 131 13 134 23 10 134
7 165 -4z m261 0 c19 -7 36 -22 42 -36 13 -34 11 -157 -2 -187 -15 -33 -67
-50 -131 -44 -71 7 -89 29 -96 116 -6 87 9 137 46 151 37 13 103 13 141 0z
m287 -14 c19 -26 18 -64 -2 -72 -11 -4 -23 3 -36 20 -23 31 -76 37 -102 11
-22 -22 -22 -127 0 -149 24 -24 86 -16 99 13 7 15 18 22 37 22 23 0 28 -4 28
-24 0 -13 -9 -34 -19 -47 -17 -21 -27 -24 -95 -24 -100 0 -117 15 -124 114 -8
124 28 165 142 158 43 -3 62 -8 72 -22z m239 0 c0 -17 -8 -21 -65 -25 -61 -5
-65 -6 -65 -30 0 -23 4 -25 60 -30 52 -4 60 -8 63 -27 3 -20 -1 -22 -60 -25
-63 -3 -63 -3 -63 -33 l0 -30 68 -3 c64 -3 68 -4 65 -25 -3 -20 -9 -22 -86
-25 -53 -2 -89 1 -98 9 -19 15 -20 239 -2 257 9 9 40 12 98 10 77 -3 85 -5 85
-23z m215 12 c31 -15 40 -64 14 -74 -11 -4 -23 1 -35 15 -32 41 -120 22 -103
-22 3 -9 16 -16 28 -16 50 -1 102 -13 119 -28 23 -20 22 -83 -2 -113 -14 -18
-31 -23 -77 -27 -73 -5 -111 9 -125 45 -8 22 -7 30 6 40 21 15 42 7 48 -18 5
-17 13 -20 54 -17 42 3 48 6 51 27 5 31 -12 41 -68 41 -25 0 -56 7 -68 16 -20
14 -23 23 -20 67 3 43 7 54 28 64 32 16 118 16 150 0z m254 -8 c17 -14 26 -29
24 -43 -4 -29 -43 -34 -58 -6 -9 17 -19 21 -53 18 -37 -3 -42 -6 -42 -27 0
-23 6 -26 67 -36 38 -6 74 -17 80 -23 19 -19 14 -100 -6 -120 -13 -13 -35 -17
-90 -17 -81 0 -116 18 -116 60 0 34 28 39 55 9 19 -20 31 -25 61 -22 81 7 67
68 -16 68 -65 0 -100 28 -100 79 0 58 30 79 116 80 38 1 58 -5 78 -20z m392
-4 c14 -14 24 -33 22 -43 -5 -26 -44 -27 -58 -2 -9 17 -19 21 -53 18 -37 -3
-42 -6 -42 -28 0 -14 6 -26 15 -27 8 -1 36 -5 62 -8 26 -3 55 -13 63 -21 16
-16 21 -90 7 -111 -19 -31 -131 -45 -175 -22 -28 15 -37 28 -37 57 0 35 29 40
52 9 37 -51 135 -28 107 25 -7 13 -22 18 -55 18 -45 0 -82 13 -96 34 -4 6 -8
27 -8 46 0 60 27 79 113 80 49 0 62 -4 83 -25z m121 -25 c15 -27 33 -50 38
-50 6 0 22 20 35 45 25 45 62 67 80 49 5 -5 -11 -41 -37 -84 -34 -56 -47 -89
-52 -130 -5 -46 -9 -55 -26 -55 -17 0 -21 8 -25 55 -5 42 -17 72 -52 130 -26
41 -44 78 -42 82 3 5 16 8 29 8 18 0 30 -12 52 -50z m379 25 c20 -28 14 -59
-13 -63 -14 -2 -26 4 -33 18 -9 17 -19 21 -53 18 -37 -3 -42 -6 -42 -28 0 -23
5 -25 60 -32 78 -10 83 -12 96 -45 7 -20 7 -39 0 -65 -14 -45 -58 -63 -134
-55 -57 7 -87 29 -87 64 0 36 29 41 55 9 18 -23 28 -27 60 -24 45 4 66 28 46
52 -9 11 -30 16 -63 16 -61 0 -98 31 -98 82 0 62 30 80 124 75 54 -2 71 -7 82
-22z m242 -2 c3 -19 -2 -22 -35 -25 l-38 -3 -3 -107 c-3 -107 -3 -108 -27
-108 -24 0 -25 2 -25 79 0 43 -3 93 -6 110 -6 27 -11 31 -40 31 -35 0 -49 12
-40 36 5 12 25 14 108 12 97 -3 103 -4 106 -25z m210 0 c3 -22 0 -23 -62 -23
l-66 0 0 -30 0 -30 60 0 c57 0 60 -1 60 -25 0 -24 -3 -25 -61 -25 l-60 0 3
-32 c3 -33 3 -33 66 -36 53 -3 62 -6 62 -22 0 -16 -9 -19 -72 -22 -126 -5
-116 -15 -120 123 -2 67 1 127 5 135 7 12 27 14 95 12 82 -3 87 -4 90 -25z
m129 15 c6 -7 23 -46 38 -86 16 -40 32 -75 36 -77 3 -3 19 30 34 73 15 42 32
83 38 90 5 6 27 12 48 12 48 0 49 -5 46 -155 l-2 -110 -28 -3 -27 -3 0 92 c0
98 -5 102 -34 29 -47 -118 -49 -120 -71 -120 -29 0 -37 11 -70 98 -15 40 -30
70 -34 67 -3 -4 -6 -41 -6 -83 0 -77 0 -77 -27 -80 l-28 -3 0 129 c0 71 3 132
7 135 11 12 70 8 80 -5z m466 0 c9 -7 19 -25 23 -40 6 -26 4 -28 -24 -28 -18
0 -32 6 -36 16 -4 11 -17 14 -48 12 -38 -3 -43 -6 -43 -28 0 -23 4 -25 63 -32
81 -9 92 -18 92 -79 0 -63 -21 -78 -113 -81 -74 -2 -107 16 -107 59 0 36 29
41 54 10 38 -47 132 -26 106 24 -8 15 -22 19 -59 19 -66 0 -101 27 -101 79 0
39 14 65 40 74 30 11 136 7 153 -5z m391 3 c16 -25 -7 -40 -67 -43 -59 -3 -62
-4 -62 -28 0 -23 4 -25 60 -30 52 -4 60 -8 60 -25 0 -18 -8 -20 -62 -23 -62
-3 -63 -3 -63 -32 0 -29 0 -29 68 -32 59 -3 67 -5 67 -23 0 -19 -7 -20 -95
-20 l-95 0 -3 119 c-1 66 0 126 2 133 6 15 181 19 190 4z m182 -86 c27 -52 52
-95 57 -95 4 0 7 43 7 95 0 94 0 95 25 95 32 0 37 -19 33 -155 l-3 -110 -46
-3 -47 -3 -53 98 -54 98 -3 -98 -3 -98 -27 3 -27 3 -3 119 c-1 66 0 126 2 133
3 8 22 13 49 13 l44 0 49 -95z m375 74 c23 -23 22 -62 -3 -67 -9 -2 -25 6 -35
17 -13 16 -29 21 -65 21 -43 0 -50 -3 -58 -26 -13 -32 -13 -85 -1 -117 17 -45
121 -43 121 3 0 16 -7 20 -30 20 -28 0 -51 22 -37 36 9 10 76 16 101 10 24 -6
26 -11 26 -56 0 -74 -20 -90 -114 -90 -59 0 -78 4 -100 21 -25 19 -26 25 -26
114 0 89 1 95 26 114 39 30 165 30 195 0z m109 -114 l0 -135 -24 0 c-32 0 -36
14 -36 135 0 121 4 135 36 135 l24 0 0 -135z m179 58 c67 -133 70 -134 71 -20
l0 98 28 -3 27 -3 0 -130 0 -130 -45 -3 -45 -3 -48 90 c-27 50 -52 93 -58 96
-5 4 -9 -32 -9 -89 0 -96 0 -96 -25 -96 l-25 0 0 135 0 135 45 0 45 0 39 -77z
m359 55 c-3 -21 -9 -23 -65 -26 -62 -3 -63 -3 -63 -32 0 -30 0 -30 61 -30 57
0 60 -1 57 -22 -3 -20 -10 -24 -61 -28 -31 -3 -57 -8 -57 -12 0 -5 0 -17 0
-28 0 -16 8 -19 63 -22 54 -3 62 -5 62 -23 0 -18 -8 -20 -92 -23 l-93 -3 0
136 0 135 96 0 c93 0 95 -1 92 -22z m229 6 c9 -24 -15 -34 -80 -34 -58 0 -58
0 -55 -27 3 -27 6 -28 66 -31 59 -3 63 -5 60 -25 -3 -20 -10 -22 -65 -25 -62
-3 -63 -3 -63 -32 0 -29 0 -29 68 -32 59 -3 67 -5 67 -23 0 -19 -7 -20 -95
-20 l-95 0 -3 119 c-1 66 0 126 2 133 4 9 31 13 96 13 74 0 92 -3 97 -16z
m241 0 c17 -12 22 -25 22 -63 0 -26 -5 -52 -12 -59 -9 -9 -9 -17 1 -35 7 -13
11 -39 9 -58 -2 -29 -7 -34 -28 -34 -22 0 -25 5 -28 37 -3 41 -23 53 -78 46
-26 -3 -30 -8 -34 -43 -4 -35 -8 -40 -30 -40 l-25 0 -3 119 c-1 66 0 126 2
133 8 20 175 18 204 -3z m120 -116 l-3 -133 -25 0 -25 0 -3 133 -3 132 31 0
31 0 -3 -132z m185 42 c27 -49 52 -92 58 -95 5 -4 9 32 9 89 0 96 0 96 25 96
l26 0 -3 -132 -3 -133 -42 -3 -41 -3 -54 98 -53 98 -5 -95 c-5 -93 -5 -95 -30
-95 l-25 0 -3 133 -3 132 48 0 48 0 48 -90z m674 -2 c-3 -8 -6 -5 -6 6 -1 11
2 17 5 13 3 -3 4 -12 1 -19z m-8827 -38 c0 -22 -4 -40 -10 -40 -5 0 -10 -18
-10 -40 0 -22 -4 -40 -10 -40 -6 0 -10 33 -10 80 0 73 2 80 20 80 17 0 20 -7
20 -40z m1963 -423 c-3 -5 4 -4 15 2 15 8 246 11 789 11 422 0 775 0 783 0 13
0 15 -26 14 -173 0 -94 -1 -197 -2 -229 l-2 -56 -607 -1 c-356 0 -659 4 -732
10 -92 8 -125 8 -131 0 -4 -8 -34 -11 -86 -9 l-79 3 -3 237 -3 237 25 -12 c13
-6 22 -16 19 -20z m-1823 -746 c0 -5 -11 -18 -25 -29 -14 -11 -25 -25 -25 -31
0 -6 -7 -11 -15 -11 -11 0 -15 11 -15 40 l0 40 40 0 c22 0 40 -4 40 -9z"/>
<path d="M2397 10599 c-40 -108 -105 -314 -101 -320 6 -11 244 -11 244 -1 0
12 -109 332 -120 351 -5 9 -12 0 -23 -30z"/>
<path d="M9900 8140 c-13 -8 -12 -10 3 -10 9 0 17 5 17 10 0 12 -1 12 -20 0z"/>
<path d="M4430 9379 c-30 -4 -68 -12 -84 -18 -34 -13 -87 -56 -80 -64 3 -3 -1
-25 -10 -50 -22 -66 -27 -619 -6 -749 11 -67 14 -80 23 -95 4 -6 4 -19 1 -30
-4 -13 -3 -14 3 -5 8 10 13 9 24 -4 19 -23 70 -44 111 -45 l33 -2 -35 -7 -35
-7 38 -2 c20 0 37 3 37 8 0 5 45 10 101 10 55 1 109 5 119 11 10 5 30 10 45
10 14 0 24 4 20 9 -3 5 -1 12 5 16 5 3 10 1 10 -6 0 -10 3 -10 13 0 10 11 9
14 -1 18 -11 4 -11 8 1 22 33 38 42 139 42 466 0 241 -3 333 -14 374 -14 54
-48 103 -86 124 -25 14 -202 24 -275 16z"/>
<path d="M4888 9383 c7 -3 16 -2 19 1 4 3 -2 6 -13 5 -11 0 -14 -3 -6 -6z"/>
<path d="M4881 8294 c0 -11 3 -14 6 -6 3 7 2 16 -1 19 -3 4 -6 -2 -5 -13z"/>
<path d="M2594 9335 c0 -126 2 -177 3 -112 2 65 2 168 0 230 -1 62 -3 9 -3
-118z"/>
<path d="M3628 9543 c6 -2 18 -2 25 0 6 3 1 5 -13 5 -14 0 -19 -2 -12 -5z"/>
<path d="M3778 9543 c12 -2 32 -2 45 0 12 2 2 4 -23 4 -25 0 -35 -2 -22 -4z"/>
<path d="M3562 9520 c0 -14 2 -19 5 -12 2 6 2 18 0 25 -3 6 -5 1 -5 -13z"/>
<path d="M2891 9514 c0 -11 3 -14 6 -6 3 7 2 16 -1 19 -3 4 -6 -2 -5 -13z"/>
<path d="M3732 9300 c0 -14 2 -19 5 -12 2 6 2 18 0 25 -3 6 -5 1 -5 -13z"/>
<path d="M3641 9284 c0 -11 3 -14 6 -6 3 7 2 16 -1 19 -3 4 -6 -2 -5 -13z"/>
<path d="M3001 9174 c0 -11 3 -14 6 -6 3 7 2 16 -1 19 -3 4 -6 -2 -5 -13z"/>
<path d="M2594 8820 c0 -135 2 -190 3 -122 2 67 2 177 0 245 -1 67 -3 12 -3
-123z"/>
<path d="M3071 8914 c0 -11 3 -14 6 -6 3 7 2 16 -1 19 -3 4 -6 -2 -5 -13z"/>
<path d="M3022 8715 c0 -16 2 -22 5 -12 2 9 2 23 0 30 -3 6 -5 -1 -5 -18z"/>
<path d="M3131 8594 c0 -11 3 -14 6 -6 3 7 2 16 -1 19 -3 4 -6 -2 -5 -13z"/>
<path d="M3376 8353 c-6 -14 -5 -15 5 -6 7 7 10 15 7 18 -3 3 -9 -2 -12 -12z"/>
<path d="M3090 8331 c0 -6 5 -13 10 -16 6 -3 10 1 10 9 0 9 -4 16 -10 16 -5 0
-10 -4 -10 -9z"/>
<path d="M5150 9560 c0 -5 5 -10 11 -10 5 0 7 5 4 10 -3 6 -8 10 -11 10 -2 0
-4 -4 -4 -10z"/>
<path d="M5663 9553 c15 -2 37 -2 50 0 12 2 0 4 -28 4 -27 0 -38 -2 -22 -4z"/>
<path d="M5152 9098 c1 -244 4 -373 5 -288 7 395 7 730 1 730 -5 0 -7 -199 -6
-442z"/>
<path d="M6035 9410 c3 -5 8 -10 11 -10 2 0 4 5 4 10 0 6 -5 10 -11 10 -5 0
-7 -4 -4 -10z"/>
<path d="M5343 9348 c-3 -15 -9 -28 -14 -28 -5 0 -8 -24 -7 -52 l1 -53 7 45
c4 25 8 -172 8 -436 2 -372 5 -484 15 -491 14 -11 324 -9 405 2 29 4 52 11 52
16 0 5 5 9 11 9 29 0 84 105 100 191 7 37 12 164 13 304 1 244 -10 358 -40
418 -8 15 -11 27 -7 27 4 0 -3 7 -15 16 -12 8 -20 20 -16 25 3 6 0 9 -7 8 -8
-2 -30 2 -49 8 -20 7 -127 13 -243 15 l-208 4 -6 -28z"/>
<path d="M5895 9370 c3 -5 8 -10 11 -10 2 0 4 5 4 10 0 6 -5 10 -11 10 -5 0
-7 -4 -4 -10z"/>
<path d="M5323 8860 c0 -25 2 -35 4 -22 2 12 2 32 0 45 -2 12 -4 2 -4 -23z"/>
<path d="M5315 8527 c-4 -10 -5 -21 -1 -24 10 -10 18 4 13 24 -4 17 -4 17 -12
0z"/>
<path d="M5906 8371 c-4 -7 -5 -15 -2 -18 9 -9 19 4 14 18 -4 11 -6 11 -12 0z"/>
<path d="M6908 9583 c6 -2 18 -2 25 0 6 3 1 5 -13 5 -14 0 -19 -2 -12 -5z"/>
<path d="M6538 9563 c34 -2 90 -2 125 0 34 2 6 3 -63 3 -69 0 -97 -1 -62 -3z"/>
<path d="M6274 9465 c0 -49 1 -71 3 -48 2 23 2 64 0 90 -2 26 -3 8 -3 -42z"/>
<path d="M6273 9260 c0 -25 2 -35 4 -22 2 12 2 32 0 45 -2 12 -4 2 -4 -23z"/>
<path d="M6273 8940 c0 -25 2 -35 4 -22 2 12 2 32 0 45 -2 12 -4 2 -4 -23z"/>
<path d="M6951 8863 c7 -12 15 -20 18 -17 3 2 -3 12 -13 22 -17 16 -18 16 -5
-5z"/>
<path d="M6479 8777 c5 -5 26 -7 47 -5 l39 3 -47 5 c-26 3 -43 1 -39 -3z"/>
<path d="M6678 8773 c23 -2 61 -2 85 0 23 2 4 4 -43 4 -47 0 -66 -2 -42 -4z"/>
<path d="M6412 8610 c0 -19 2 -27 5 -17 2 9 2 25 0 35 -3 9 -5 1 -5 -18z"/>
<path d="M7288 9583 c6 -2 18 -2 25 0 6 3 1 5 -13 5 -14 0 -19 -2 -12 -5z"/>
<path d="M7373 8540 c0 -25 2 -35 4 -22 2 12 2 32 0 45 -2 12 -4 2 -4 -23z"/>
<path d="M8171 9524 c0 -11 3 -14 6 -6 3 7 2 16 -1 19 -3 4 -6 -2 -5 -13z"/>
<path d="M8203 9100 c0 -25 2 -35 4 -22 2 12 2 32 0 45 -2 12 -4 2 -4 -23z"/>
<path d="M8034 9010 c0 -63 1 -89 3 -57 2 31 2 83 0 115 -2 31 -3 5 -3 -58z"/>
<path d="M8033 8780 c0 -25 2 -35 4 -22 2 12 2 32 0 45 -2 12 -4 2 -4 -23z"/>
<path d="M8033 8460 c0 -25 2 -35 4 -22 2 12 2 32 0 45 -2 12 -4 2 -4 -23z"/>
<path d="M8193 8460 c0 -25 2 -35 4 -22 2 12 2 32 0 45 -2 12 -4 2 -4 -23z"/>
<path d="M8032 8160 c0 -14 2 -19 5 -12 2 6 2 18 0 25 -3 6 -5 1 -5 -13z"/>
<path d="M9070 8710 c0 -11 4 -20 9 -20 5 0 7 9 4 20 -3 11 -7 20 -9 20 -2 0
-4 -9 -4 -20z"/>
<path d="M9075 8250 c3 -5 8 -10 11 -10 2 0 4 5 4 10 0 6 -5 10 -11 10 -5 0
-7 -4 -4 -10z"/>
<path d="M8592 7738 l3 -63 63 0 c71 0 82 9 82 66 0 49 -14 59 -87 59 l-64 0
3 -62z"/>
<path d="M2719 7708 c-12 -40 -24 -79 -27 -85 -3 -10 12 -13 58 -13 46 0 61 3
57 13 -2 6 -15 45 -28 85 -12 39 -26 72 -30 72 -4 0 -17 -33 -30 -72z"/>
<path d="M7433 7693 c-7 -2 -13 -13 -13 -24 0 -16 7 -19 55 -19 56 0 69 12 43
38 -12 12 -62 15 -85 5z"/>
<path d="M8940 7685 c-19 -23 -2 -35 51 -35 41 0 49 3 49 19 0 32 -76 45 -100
16z"/>
<path d="M9790 7681 c-12 -24 -13 -111 -1 -129 12 -19 80 -20 92 -2 13 22 11
124 -3 138 -20 20 -76 15 -88 -7z"/>
<path d="M10090 7681 c-9 -18 -7 -21 14 -27 43 -11 81 -1 81 21 0 16 -8 21
-42 23 -34 2 -44 -1 -53 -17z"/>
<path d="M11286 7684 c-3 -9 -6 -18 -6 -20 0 -2 25 -4 56 -4 47 0 55 3 50 16
-3 9 -6 18 -6 20 0 2 -20 4 -44 4 -31 0 -46 -5 -50 -16z"/>
<path d="M3922 7690 c-15 -6 -22 -17 -20 -27 3 -15 14 -18 58 -18 49 0 55 2
52 20 -2 11 -5 21 -6 22 -9 9 -65 11 -84 3z"/>
<path d="M5093 7574 c-10 -26 11 -49 48 -52 44 -4 74 17 65 46 -6 19 -15 22
-57 22 -37 0 -51 -4 -56 -16z"/>
<path d="M6386 7684 c-18 -18 -22 -104 -6 -135 13 -24 72 -26 94 -3 21 20 21
102 0 132 -18 26 -65 30 -88 6z"/>
<path d="M7131 7686 c-21 -25 -7 -42 35 -44 47 -2 67 9 62 34 -4 25 -79 32
-97 10z"/>
<path d="M1655 1669 c-158 -26 -274 -137 -311 -297 -20 -87 -12 -159 28 -242
61 -126 174 -206 306 -217 169 -14 319 73 390 225 24 50 27 69 27 162 0 101
-1 108 -34 168 -60 110 -155 179 -278 202 -62 11 -58 11 -128 -1z m311 -131
c87 -47 110 -128 59 -208 -26 -42 -61 -59 -137 -69 l-53 -6 -3 -61 c-2 -45 1
-66 13 -77 8 -9 15 -18 15 -21 0 -3 -45 -6 -100 -6 -80 0 -100 3 -100 14 0 8
5 18 10 21 6 3 10 33 10 66 l0 59 -49 0 c-46 0 -52 -3 -78 -37 -64 -87 -107
-133 -124 -133 -23 0 -37 22 -18 29 17 5 47 41 239 279 36 45 71 81 78 82 9 0
12 -41 12 -175 0 -149 2 -175 15 -175 13 0 15 29 15 205 l0 205 -55 0 c-39 0
-55 4 -55 13 0 8 2 16 4 18 2 2 64 2 138 -1 98 -4 141 -10 164 -22z"/>
<path d="M1834 1517 c-2 -7 -3 -60 -2 -118 l3 -104 27 -3 c56 -7 128 59 128
116 0 45 -28 92 -64 107 -44 19 -85 19 -92 2z"/>
<path d="M1653 1334 c-21 -29 -21 -33 -6 -38 23 -9 35 6 31 40 l-3 29 -22 -31z"/>
<path d="M2844 1396 c-12 -50 -3 -61 51 -61 48 0 50 1 53 30 4 36 -18 55 -65
55 -26 0 -34 -5 -39 -24z"/>
<path d="M3100 1375 l0 -45 45 0 c43 0 65 16 65 49 0 22 -33 41 -71 41 l-39 0
0 -45z"/>
<path d="M3368 1409 c-14 -8 -18 -24 -18 -77 0 -78 9 -92 60 -92 51 0 60 14
60 90 0 38 -5 71 -12 78 -15 15 -66 15 -90 1z"/>
<path d="M8330 1380 l0 -41 53 3 52 3 0 35 0 35 -52 3 -53 3 0 -41z"/>
<path d="M4173 870 c0 -30 2 -43 4 -27 2 15 2 39 0 55 -2 15 -4 2 -4 -28z"/>
<path d="M4038 883 c6 -2 18 -2 25 0 6 3 1 5 -13 5 -14 0 -19 -2 -12 -5z"/>
<path d="M2637 829 c-14 -8 -18 -20 -15 -47 2 -21 7 -40 12 -44 5 -3 10 -23
12 -45 3 -55 3 -55 14 -48 6 3 10 -1 10 -10 0 -9 -4 -13 -10 -10 -5 3 -10 1
-10 -4 0 -6 7 -11 15 -11 9 0 12 -6 8 -17 -4 -10 -2 -14 5 -9 6 3 13 2 17 -4
7 -11 74 -14 99 -4 8 3 19 22 22 42 4 20 14 43 22 51 13 13 14 13 8 -6 -23
-72 102 -122 166 -66 15 13 19 12 37 -6 23 -23 37 -26 46 -11 4 6 11 8 16 5 5
-4 9 1 9 10 0 9 5 13 10 10 6 -4 8 -11 5 -16 -3 -5 1 -6 9 -3 9 3 16 1 16 -5
0 -14 116 -15 125 -1 6 10 34 8 66 -5 23 -9 49 21 49 56 0 42 18 36 22 -7 3
-41 26 -61 54 -49 11 4 21 8 24 7 3 0 7 11 8 25 3 39 12 41 12 3 0 -18 3 -30
7 -27 3 4 12 2 19 -4 16 -13 54 5 54 27 0 12 5 10 22 -5 24 -23 69 -34 114
-29 23 2 31 10 40 36 5 18 13 29 17 26 4 -4 7 -2 7 4 0 6 -5 14 -11 18 -8 5
-6 10 5 16 9 5 14 14 11 19 -4 5 -11 6 -17 3 -7 -5 -9 1 -5 18 5 20 2 27 -19
36 -14 7 -39 12 -57 13 -31 1 -31 1 -7 9 22 7 20 8 -15 9 -28 0 -36 -2 -26 -8
12 -8 9 -11 -12 -16 -15 -4 -27 -11 -27 -16 0 -5 -7 -6 -16 -2 -11 4 -12 8 -4
13 7 4 -17 7 -53 6 -36 0 -63 2 -61 6 2 3 -13 4 -35 1 -23 -3 -41 -1 -45 6 -4
6 -17 11 -29 10 -21 0 -21 -1 -2 -9 13 -5 -2 -8 -45 -7 -36 0 -76 -3 -89 -7
-21 -7 -23 -12 -19 -62 3 -37 1 -53 -6 -51 -6 2 -10 27 -10 60 l2 57 -34 0
c-26 0 -37 -5 -44 -22 -9 -21 -10 -21 -8 7 3 83 -8 101 -56 89 -24 -6 -25 -9
-27 -74 -2 -35 -3 -38 -15 -23 -18 26 -169 29 -159 4 4 -11 3 -13 -5 -5 -7 7
-7 18 -1 35 5 13 10 18 10 12 1 -9 18 -12 59 -11 l57 2 -52 3 c-55 4 -89 27
-63 43 9 6 2 11 -24 15 -43 9 -50 4 -70 -50 -10 -26 -15 -33 -16 -20 -1 13 -5
8 -13 -15 -8 -27 -11 -30 -14 -15 -2 11 -9 30 -15 42 -6 13 -9 26 -5 29 9 10
-19 34 -40 34 -10 0 -26 -5 -36 -11z m302 -136 c-3 -20 2 -26 11 -13 8 12 10
11 10 -6 0 -26 -28 -40 -36 -19 -4 8 -4 22 0 30 6 15 17 21 15 8z m481 -3 c0
-5 -5 -10 -11 -10 -5 0 -7 5 -4 10 3 6 8 10 11 10 2 0 4 -4 4 -10z m93 -15 c4
-8 2 -17 -3 -20 -6 -4 -10 3 -10 14 0 25 6 27 13 6z m-383 -19 c0 -3 -4 -8
-10 -11 -5 -3 -10 -1 -10 4 0 6 5 11 10 11 6 0 10 -2 10 -4z m187 -18 c-3 -8
-6 -5 -6 6 -1 11 2 17 5 13 3 -3 4 -12 1 -19z"/>
<path d="M3994 827 c-45 -13 -74 -33 -73 -51 0 -7 2 -6 6 2 2 6 10 12 16 12 6
0 1 -10 -11 -23 -22 -23 -31 -54 -12 -42 5 3 15 -3 22 -14 9 -15 15 -17 26 -9
10 9 16 8 24 -3 8 -11 9 -11 4 3 -3 10 -1 20 4 23 6 4 9 -16 9 -48 -2 -80 6
-97 46 -97 41 0 45 12 45 142 0 86 -2 98 -19 108 -23 12 -33 12 -87 -3z"/>
<path d="M2562 800 c0 -14 2 -19 5 -12 2 6 2 18 0 25 -3 6 -5 1 -5 -13z"/>
<path d="M4112 800 c0 -14 2 -19 5 -12 2 6 2 18 0 25 -3 6 -5 1 -5 -13z"/>
<path d="M4142 800 c0 -14 2 -19 5 -12 2 6 2 18 0 25 -3 6 -5 1 -5 -13z"/>
<path d="M2968 803 c7 -3 16 -2 19 1 4 3 -2 6 -13 5 -11 0 -14 -3 -6 -6z"/>
<path d="M3155 780 c3 -5 11 -10 16 -10 6 0 7 5 4 10 -3 6 -11 10 -16 10 -6 0
-7 -4 -4 -10z"/>
<path d="M3425 780 c-3 -5 -2 -10 4 -10 5 0 13 5 16 10 3 6 2 10 -4 10 -5 0
-13 -4 -16 -10z"/>
<path d="M4172 760 c0 -19 2 -27 5 -17 2 9 2 25 0 35 -3 9 -5 1 -5 -18z"/>
<path d="M3738 773 c7 -3 16 -2 19 1 4 3 -2 6 -13 5 -11 0 -14 -3 -6 -6z"/>
<path d="M3820 654 c0 -8 5 -12 10 -9 6 4 8 11 5 16 -9 14 -15 11 -15 -7z"/>
<path d="M4111 594 c0 -11 3 -14 6 -6 3 7 2 16 -1 19 -3 4 -6 -2 -5 -13z"/>
<path d="M1028 18559 c-10 -5 -18 -16 -18 -23 0 -7 -9 -21 -20 -31 -11 -10
-20 -24 -20 -31 0 -10 -44 -75 -87 -129 -4 -5 -19 -35 -33 -65 -13 -30 -29
-62 -36 -70 -6 -8 -19 -28 -28 -45 -9 -16 -25 -43 -36 -60 -11 -16 -24 -39
-29 -50 -5 -11 -29 -47 -53 -80 -55 -73 -63 -111 -42 -190 9 -33 20 -100 24
-150 4 -49 13 -108 20 -130 6 -22 15 -60 19 -85 4 -25 11 -51 15 -59 5 -7 10
-38 13 -69 2 -30 10 -75 18 -98 8 -24 18 -80 21 -126 4 -46 13 -92 20 -103 7
-11 17 -58 22 -105 12 -97 26 -158 41 -173 10 -10 24 -13 161 -36 36 -6 99
-20 140 -30 41 -11 107 -25 145 -31 39 -7 86 -18 105 -25 19 -7 55 -16 80 -20
25 -4 58 -14 73 -22 16 -8 67 -21 115 -28 159 -27 193 -34 224 -49 17 -9 49
-16 71 -16 21 0 53 -6 70 -14 48 -21 95 -35 162 -45 33 -6 81 -14 108 -20 26
-6 62 -12 80 -14 17 -3 58 -16 90 -31 37 -17 90 -29 149 -36 51 -6 130 -22
177 -36 47 -15 111 -30 141 -34 52 -8 70 -12 115 -30 11 -4 63 -15 115 -24
111 -20 194 -39 305 -68 44 -11 94 -20 112 -20 18 1 49 -6 70 -15 21 -8 52
-17 68 -20 17 -2 65 -13 109 -24 158 -40 162 -40 196 -6 17 17 30 34 30 39 0
4 15 28 34 53 19 24 37 54 41 65 4 11 16 31 28 44 12 13 39 58 60 99 21 42 45
81 52 87 8 6 19 28 26 48 6 20 27 57 45 81 19 24 34 49 34 54 0 6 12 25 26 44
21 28 25 42 21 76 -8 64 -28 150 -40 172 -6 11 -21 70 -33 130 -13 61 -30 135
-38 165 -9 30 -16 67 -16 82 0 15 -4 37 -9 50 -31 82 -43 138 -55 250 -5 44
-30 121 -47 143 -4 6 -11 50 -15 98 -4 48 -12 91 -18 96 -6 5 -47 14 -91 20
-167 23 -204 29 -223 40 -12 6 -34 11 -51 11 -17 0 -50 9 -73 19 -24 10 -72
24 -108 30 -61 10 -137 25 -255 49 -27 6 -63 16 -79 22 -16 6 -66 18 -110 27
-45 8 -113 26 -153 39 -39 13 -85 24 -101 24 -16 0 -49 7 -72 15 -23 8 -57 15
-75 15 -19 0 -35 5 -37 12 -2 6 -51 17 -112 25 -63 8 -125 22 -147 33 -21 11
-58 20 -82 20 -42 0 -195 33 -301 65 -26 8 -62 15 -78 15 -35 0 -98 16 -145
36 -17 8 -42 14 -55 14 -12 0 -52 9 -87 19 -35 11 -89 23 -120 27 -31 3 -60
10 -66 14 -5 4 -35 13 -65 20 -30 7 -91 22 -135 35 -72 21 -245 56 -270 55 -5
0 -18 -5 -27 -11z m1708 -577 c14 -70 -5 -169 -37 -198 -19 -17 -19 -16 -3 27
18 51 13 133 -11 159 -18 20 -20 47 -2 53 26 9 45 -6 53 -41z m-188 -107 c-3
-101 -5 -116 -23 -129 -11 -8 -22 -12 -25 -10 -2 3 -3 34 -2 70 2 41 -1 71 -9
80 -10 12 -8 20 10 42 12 15 24 35 28 45 3 9 10 17 15 17 5 0 8 -48 6 -115z
m-406 41 c13 -10 17 -26 17 -64 -1 -28 4 -66 12 -83 12 -30 11 -33 -15 -56
-43 -37 -51 -26 -48 60 3 66 1 77 -16 86 -25 13 -57 -9 -66 -46 -12 -50 -47
-113 -63 -113 -12 0 -13 10 -8 53 6 48 4 55 -19 78 l-25 24 21 22 c22 23 62
31 73 14 8 -13 41 -5 78 18 38 24 37 24 59 7z m-490 -68 c0 -29 4 -68 9 -86
14 -42 3 -94 -19 -90 -15 3 -43 94 -44 149 -1 25 41 94 50 84 3 -3 5 -28 4
-57z m692 34 l34 -18 -29 -45 c-65 -101 -75 -108 -85 -61 -3 15 -10 37 -16 48
-9 19 -5 28 22 58 18 20 35 36 37 36 2 0 18 -8 37 -18z m-1324 -56 c0 -38 24
-65 44 -50 65 47 63 47 91 28 25 -16 28 -16 66 5 21 12 43 19 49 16 6 -3 10
-49 10 -105 0 -80 -3 -99 -16 -104 -30 -12 -34 -5 -34 58 0 79 -17 100 -49 60
-13 -17 -21 -41 -21 -65 0 -27 -6 -42 -22 -53 -12 -8 -25 -13 -29 -10 -4 2 -7
34 -6 70 2 62 -7 83 -35 84 -18 0 -48 -47 -48 -75 0 -30 -30 -75 -50 -75 -6 0
-10 41 -10 94 0 53 -4 98 -10 101 -16 10 22 54 48 55 18 0 22 -5 22 -34z
m-174 -44 c-21 -62 -7 -135 35 -188 33 -42 35 -56 14 -78 -14 -14 -18 -13 -36
2 -42 34 -61 89 -56 156 9 96 18 140 35 159 23 26 26 5 8 -51z m610 14 c3 -8
19 -18 35 -21 38 -9 37 -32 -3 -43 -22 -5 -32 -15 -35 -32 -4 -28 -32 -62 -44
-54 -5 3 -9 17 -9 31 0 16 -7 27 -20 30 -25 7 -26 19 -1 26 11 3 27 21 35 41
16 37 33 46 42 22z m344 -142 c0 -27 -47 -94 -66 -94 -8 0 -7 15 4 48 8 26 17
53 18 60 2 6 13 12 24 12 15 0 20 -7 20 -26z m745 -354 c-4 -19 -10 -71 -15
-115 -17 -164 -31 -292 -41 -365 -6 -41 -12 -104 -14 -140 -8 -132 -24 -231
-44 -280 -13 -34 -15 196 -1 271 9 49 21 171 54 530 12 133 25 170 53 147 11
-9 13 -22 8 -48z m417 -295 c-4 -33 -28 -65 -48 -65 -8 0 -19 9 -26 20 -11 17
-24 20 -90 20 -75 0 -78 -1 -84 -26 -4 -15 -4 -93 -2 -175 6 -160 6 -159 -49
-159 -26 0 -26 1 -18 58 4 31 6 105 5 163 -3 165 21 192 162 182 41 -3 84 0
98 6 40 16 55 9 52 -24z m79 -135 c-39 -36 -41 -41 -27 -56 23 -22 20 -31 -19
-56 -43 -28 -44 -43 -5 -63 33 -17 66 -20 75 -5 9 15 35 12 35 -4 0 -8 -17
-25 -37 -37 -49 -31 -138 -33 -159 -5 -36 49 -2 150 73 215 39 35 57 44 98 50
5 0 -10 -17 -34 -39z m-212 -294 c-2 -2 -22 -19 -44 -36 -38 -30 -43 -32 -98
-25 -32 3 -64 2 -70 -3 -7 -5 -20 -12 -30 -15 -17 -6 -17 -5 -1 22 10 16 29
32 43 36 44 12 208 29 200 21z"/>
<path d="M6923 18135 c0 -22 2 -30 4 -17 2 12 2 30 0 40 -3 9 -5 -1 -4 -23z"/>
<path d="M1 17399 c0 -490 3 -617 12 -592 7 18 21 39 32 47 18 13 18 18 7 48
-15 42 -7 89 20 117 37 41 68 19 68 -49 0 -25 7 -85 16 -133 17 -100 10 -123
-43 -149 -16 -7 -28 -20 -28 -28 0 -16 16 -18 53 -6 17 6 22 3 22 -11 0 -48
-64 -60 -81 -16 -5 14 -20 36 -33 48 -12 12 -28 30 -34 41 -9 15 -11 -2 -12
-81 l0 -101 40 -24 c22 -14 40 -28 40 -32 0 -5 16 -8 35 -8 39 0 81 -19 134
-59 40 -31 90 -62 148 -92 36 -19 44 -20 58 -9 20 17 72 97 110 170 15 30 33
62 40 70 24 29 56 115 57 151 0 20 -9 68 -20 105 -29 103 -41 161 -52 249 -5
44 -16 100 -24 124 -9 24 -16 60 -16 79 0 33 -17 112 -40 188 -6 17 -10 53
-10 80 0 28 -4 54 -9 60 -14 14 -37 117 -52 227 -7 54 -18 102 -25 108 -6 5
-36 12 -65 15 -30 3 -63 9 -74 14 -11 5 -31 11 -45 13 -14 3 -61 15 -105 27
-44 12 -90 24 -102 27 l-23 5 1 -623z m365 -491 c4 -7 -6 -23 -25 -39 -33 -27
-33 -28 -12 -41 30 -18 26 -37 -9 -49 -56 -20 -24 -78 35 -63 20 5 25 2 25
-12 0 -22 -72 -64 -110 -64 -30 0 -39 6 -68 44 -37 48 -15 119 56 181 59 51
95 65 108 43z"/>
<path d="M6730 17685 c0 -8 4 -15 9 -15 5 0 11 7 15 15 3 9 0 15 -9 15 -8 0
-15 -7 -15 -15z"/>
<path d="M4515 16522 c-33 -30 -43 -45 -75 -109 -12 -24 -26 -43 -31 -43 -5 0
-9 -7 -9 -15 0 -8 -4 -15 -8 -15 -5 0 -17 -18 -27 -40 -10 -22 -22 -40 -27
-40 -4 0 -8 -7 -8 -15 0 -9 -20 -51 -45 -95 -25 -44 -45 -84 -45 -90 0 -5 -4
-10 -9 -10 -8 0 -16 -14 -59 -111 -12 -25 -28 -52 -37 -59 -18 -15 -19 -56 0
-135 32 -138 44 -195 60 -280 9 -49 26 -120 37 -158 16 -54 24 -68 44 -73 21
-5 22 -8 9 -21 -8 -8 -15 -26 -15 -41 0 -34 19 -135 35 -192 8 -25 21 -88 29
-141 9 -53 20 -109 26 -124 5 -14 10 -39 10 -54 0 -34 11 -44 65 -59 22 -6 63
-18 92 -26 28 -9 63 -16 76 -16 13 0 38 -7 56 -16 19 -9 46 -14 64 -11 18 2
41 0 52 -6 11 -6 40 -14 65 -18 71 -11 170 -36 231 -57 31 -11 88 -23 125 -27
38 -4 119 -18 179 -31 61 -13 146 -30 190 -39 44 -9 123 -26 175 -37 52 -11
118 -25 145 -31 28 -5 59 -13 70 -18 11 -4 36 -10 55 -13 120 -16 176 -27 268
-50 56 -14 115 -26 130 -26 15 0 55 -9 88 -19 43 -13 84 -17 133 -15 48 2 75
-1 84 -10 15 -15 62 -3 52 14 -3 6 4 14 17 19 23 10 22 10 -4 10 -24 1 -28 5
-28 31 0 40 -18 38 -23 -2 -3 -29 -4 -27 -5 10 l-2 42 40 0 c33 0 40 3 40 20
0 11 -6 20 -14 20 -10 0 -14 17 -15 60 -1 47 2 60 14 60 11 0 15 11 15 35 0
22 6 38 15 41 24 9 18 40 -15 77 -23 26 -30 45 -31 78 -1 24 -3 36 -6 27 -2
-10 -13 -18 -24 -18 -10 0 -19 -7 -19 -15 0 -9 -9 -15 -25 -15 -35 0 -48 32
-40 95 4 34 2 55 -4 60 -41 25 34 116 94 114 16 0 24 -3 17 -6 -10 -4 -9 -8 5
-19 23 -17 33 -17 33 -1 0 9 11 12 35 9 25 -3 35 0 35 9 0 11 2 11 10 -1 8
-12 10 -11 10 8 0 12 -7 25 -15 28 -8 4 -12 11 -8 16 4 7 -6 8 -31 4 -32 -6
-36 -5 -36 14 0 11 -7 20 -15 20 -8 0 -17 11 -21 25 -3 14 -14 30 -23 36 -12
7 -13 12 -3 15 18 8 16 84 -3 84 -8 0 -15 5 -15 10 0 6 7 10 16 10 22 0 9 16
-29 35 -20 11 -62 18 -112 20 -87 2 -115 10 -115 30 0 19 33 24 157 24 112 0
163 7 163 21 0 4 16 10 35 13 40 7 59 22 67 55 4 14 2 22 -7 22 -7 0 -16 11
-19 25 -7 26 -31 34 -38 13 -3 -9 -9 -8 -22 5 -10 9 -22 17 -27 17 -5 0 -9 5
-9 10 0 6 15 10 33 10 32 0 32 1 29 40 -3 31 -8 40 -23 40 -14 0 -19 7 -19 25
0 14 -4 25 -10 25 -5 0 -10 7 -10 15 0 8 -7 15 -15 15 -11 0 -15 11 -14 43 l2
42 7 -40 7 -40 2 38 c1 34 3 37 31 37 28 0 30 2 30 39 0 37 -2 40 -32 43 -35
3 -52 28 -19 28 16 0 21 6 21 25 0 20 5 25 25 25 23 0 25 4 25 40 0 38 1 40
33 40 44 1 17 15 -45 24 -25 4 -52 14 -58 21 -7 8 -18 15 -26 15 -7 0 -20 7
-28 16 -9 8 -16 13 -16 9 0 -3 -10 1 -22 9 -12 9 -36 16 -53 16 -16 0 -61 10
-100 21 -38 11 -90 24 -115 29 -25 5 -65 17 -90 28 -25 11 -67 23 -95 27 -59
7 -251 50 -315 69 -25 8 -79 20 -120 26 -41 7 -100 19 -130 27 -30 9 -77 20
-105 25 -27 6 -65 16 -83 24 -18 8 -56 14 -85 14 -33 0 -67 8 -92 20 -22 11
-67 25 -100 29 -33 5 -85 18 -115 29 -30 11 -93 23 -140 27 -47 4 -103 15
-125 25 -22 10 -65 23 -95 28 -84 16 -131 29 -143 41 -18 18 -40 12 -72 -17z
m2258 -559 c-7 -2 -21 -2 -30 0 -10 3 -4 5 12 5 17 0 24 -2 18 -5z m-1683
-302 c27 -20 37 -55 21 -75 -7 -8 -3 -20 14 -41 36 -41 32 -78 -13 -126 -43
-46 -83 -59 -199 -63 -64 -3 -73 -1 -73 15 0 10 9 21 20 24 11 3 20 11 20 16
0 6 8 29 19 52 27 61 35 131 17 149 -17 18 -11 27 33 55 40 24 101 22 141 -6z
m296 -93 c11 -18 -27 -39 -65 -36 -48 4 -66 -25 -32 -53 l24 -20 -21 -20 c-36
-33 -26 -79 17 -79 25 -1 25 -1 7 -15 -11 -8 -35 -18 -53 -21 -66 -12 -95 65
-54 144 25 47 72 98 97 105 36 9 73 7 80 -5z m-576 -28 c-1 -23 -24 -30 -103
-31 -94 -2 -113 4 -82 27 14 10 43 14 102 12 46 -1 83 -5 83 -8z m170 -270
c27 -24 53 -26 70 -5 16 19 40 3 40 -26 0 -16 -8 -19 -43 -19 -24 0 -47 -4
-53 -10 -11 -11 -224 -1 -224 11 0 4 15 11 33 14 17 4 43 15 57 25 51 35 87
38 120 10z m1104 -26 c10 -26 -1 -31 -50 -24 -26 4 -118 5 -205 3 -103 -2
-159 0 -164 7 -3 6 3 10 17 10 74 1 314 13 317 16 2 2 21 4 42 4 24 0 39 -5
43 -16z m-1414 -22 c19 -8 -25 -11 -169 -11 -117 -1 -191 3 -185 8 5 5 18 11
29 13 40 8 301 0 325 -10z m834 8 c44 0 77 -2 74 -5 -8 -8 -450 -13 -468 -6
-17 7 226 19 280 14 19 -1 71 -3 114 -3z m88 -368 c-25 -69 -44 -199 -33 -221
5 -9 12 -35 16 -58 4 -24 11 -45 16 -49 5 -3 9 -14 9 -25 0 -30 -38 -21 -64
14 -31 42 -34 186 -6 252 11 25 20 54 20 64 0 22 54 105 58 91 3 -7 -5 -37
-16 -68z m805 -55 c-5 -96 -25 -157 -52 -157 -20 0 -28 35 -15 61 11 20 10 60
-4 104 -9 28 28 85 54 85 20 0 21 -4 17 -93z m-407 37 c8 -8 14 -30 15 -47 1
-18 5 -59 10 -92 6 -49 4 -63 -9 -74 -23 -19 -36 -5 -36 42 0 77 -11 118 -34
127 -27 10 -45 -20 -46 -77 0 -38 -19 -73 -40 -73 -4 0 -4 18 1 40 12 53 -2
90 -35 90 -49 0 -56 -8 -56 -70 0 -60 -16 -88 -45 -76 -11 4 -15 22 -15 76 0
54 -4 72 -15 76 -21 8 -19 20 7 44 28 26 42 25 68 -2 20 -22 21 -22 50 -4 26
15 36 16 66 6 32 -11 38 -10 57 9 25 25 40 26 57 5z m238 -64 c45 0 41 -26 -7
-46 -21 -8 -44 -27 -52 -42 -17 -32 -41 -62 -50 -62 -4 0 -7 16 -6 36 1 24 -5
41 -16 49 -25 18 -21 31 21 69 37 34 37 34 58 15 11 -10 34 -19 52 -19z m335
-141 c4 -16 -5 -35 -30 -65 -36 -45 -68 -59 -60 -26 3 9 10 38 17 65 11 42 16
47 40 47 20 0 29 -6 33 -21z m194 -281 c-2 -13 -4 -3 -4 22 0 25 2 35 4 23 2
-13 2 -33 0 -45z"/>
<path d="M4977 15614 c-12 -12 -8 -72 6 -77 9 -3 9 -7 0 -18 -6 -8 -13 -36
-15 -63 -3 -46 -1 -50 22 -56 36 -9 58 -1 80 30 20 28 20 28 -1 54 -11 14 -27
26 -35 26 -21 0 -17 28 7 40 14 8 19 19 17 38 -3 23 -8 27 -38 30 -20 2 -39 0
-43 -4z"/>
<path d="M779 16528 c-44 -37 -195 -299 -186 -322 3 -8 32 -30 63 -48 31 -18
77 -45 103 -60 25 -16 57 -33 71 -40 14 -6 32 -18 40 -25 9 -7 58 -34 109 -60
195 -101 228 -119 257 -141 46 -36 103 -72 184 -115 90 -47 209 -116 230 -133
8 -6 52 -31 98 -54 46 -23 86 -49 89 -56 3 -8 13 -14 22 -14 9 0 27 -9 41 -20
14 -11 30 -20 36 -20 5 0 19 -8 30 -17 24 -22 65 -46 120 -72 42 -19 75 -51
40 -38 -10 4 -30 10 -44 13 -15 4 -34 12 -42 20 -8 7 -27 15 -42 19 -15 4 -32
13 -39 21 -6 8 -16 14 -22 14 -5 0 -25 11 -43 25 -18 14 -37 25 -43 25 -5 0
-22 10 -38 23 -34 27 -47 34 -198 115 -66 36 -127 70 -135 77 -8 7 -37 24 -65
38 -27 14 -72 41 -100 61 -27 20 -54 36 -59 36 -5 0 -17 7 -26 15 -9 8 -65 40
-126 71 -60 31 -142 78 -182 105 -41 27 -79 49 -87 49 -7 0 -47 22 -89 50 -95
62 -149 90 -175 90 -20 0 -33 -18 -67 -90 -9 -19 -30 -55 -46 -79 -16 -25 -38
-65 -48 -90 -17 -44 -17 -52 1 -204 10 -87 22 -164 27 -170 5 -7 15 -42 23
-79 7 -38 16 -68 19 -68 4 0 10 -28 13 -63 8 -82 13 -94 45 -100 49 -10 1084
-6 1110 4 16 6 29 6 38 -2 8 -6 22 -8 31 -4 10 4 112 9 227 11 200 3 246 10
230 35 -9 15 23 10 36 -6 17 -20 46 -19 55 3 4 9 9 49 11 87 7 110 23 248 34
275 9 23 32 211 31 255 0 11 6 38 14 60 15 45 29 224 17 241 -4 7 -34 15 -67
19 -33 4 -77 14 -99 21 -21 8 -47 14 -58 14 -11 0 -34 6 -51 14 -28 12 -65 23
-89 26 -4 0 -29 7 -55 15 -27 8 -57 15 -68 15 -11 0 -32 6 -47 14 -14 8 -50
17 -80 21 -29 3 -87 17 -128 30 -41 13 -105 26 -142 29 -38 3 -77 10 -88 16
-12 6 -38 13 -58 14 -51 5 -116 19 -260 55 -105 27 -264 61 -283 61 -3 0 -12
-6 -20 -12z"/>
<path d="M0 16235 l0 -235 83 0 c45 0 100 -5 121 -11 54 -15 74 -1 111 73 17
34 47 90 68 125 21 35 35 68 32 74 -4 6 -39 26 -78 45 -39 19 -74 38 -77 43
-8 13 -97 55 -160 77 -30 10 -62 24 -71 31 -8 7 -19 13 -22 13 -4 0 -7 -106
-7 -235z"/>
<path d="M2417 16133 c-9 -18 -16 -70 -19 -148 -2 -71 -9 -130 -17 -144 -12
-21 -21 -98 -36 -311 -3 -36 -8 -81 -12 -100 -4 -19 -8 -42 -8 -50 -1 -8 -5
-38 -9 -67 -7 -44 -5 -54 13 -72 17 -17 28 -19 73 -14 46 5 171 6 683 2 83 -1
353 0 470 2 17 0 80 0 140 -1 61 0 138 3 172 8 34 5 90 5 125 1 35 -5 71 -6
80 -3 23 7 32 41 19 70 -21 45 -29 69 -45 139 -9 39 -24 99 -33 135 -8 36 -20
106 -27 155 l-12 90 -69 18 c-70 19 -140 33 -204 42 -19 2 -39 9 -45 15 -5 5
-28 10 -51 10 -40 1 -130 23 -215 55 -24 9 -53 14 -64 11 -11 -3 -54 6 -95 19
-42 13 -112 29 -156 35 -44 6 -93 15 -110 20 -124 35 -401 95 -492 107 -38 4
-43 2 -56 -24z"/>
<path d="M0 15552 l0 -310 58 5 c36 3 80 -1 120 -11 75 -19 133 -21 150 -4 15
15 16 54 2 63 -5 3 -10 29 -10 56 0 28 -7 60 -15 73 -9 13 -20 46 -25 72 -5
27 -14 69 -20 94 -6 25 -13 61 -16 80 -2 19 -10 59 -16 89 -13 60 -19 64 -118
80 -36 6 -75 14 -87 17 l-23 6 0 -310z"/>
<path d="M6880 15635 c0 -11 11 -15 40 -15 29 0 40 4 40 15 0 11 -11 15 -40
15 -29 0 -40 -4 -40 -15z"/>
<path d="M6880 15500 c0 -28 1 -29 30 -19 17 6 30 15 30 19 0 4 -13 13 -30 19
-29 10 -30 9 -30 -19z"/>
<path d="M0 14577 l0 -645 48 -12 c26 -6 57 -14 68 -17 15 -3 29 4 47 23 26
28 37 47 97 177 18 38 38 71 46 74 8 3 14 12 14 19 0 16 28 58 73 112 15 18
27 38 27 45 0 6 16 38 36 70 32 52 35 63 31 110 -8 87 -26 195 -35 214 -13 24
-32 108 -32 137 0 13 -7 42 -15 65 -8 23 -16 71 -19 106 -3 39 -12 79 -23 98
-17 29 -24 32 -68 33 -27 0 -50 5 -52 11 -2 6 -13 9 -24 6 -10 -3 -26 0 -34 7
-11 9 -22 9 -50 0 -35 -12 -64 -10 -112 5 l-23 7 0 -645z"/>
<path d="M2150 15203 c-26 -11 -54 -13 -115 -9 -44 4 -93 6 -110 5 -190 -6
-634 -12 -790 -10 -263 3 -597 -7 -608 -18 -8 -8 -7 -24 2 -59 18 -63 30 -124
37 -197 4 -33 10 -64 14 -70 16 -21 40 -125 40 -170 0 -109 99 -194 229 -195
24 0 64 -7 90 -15 72 -22 119 -33 221 -50 163 -26 274 -50 290 -60 18 -12 160
-45 277 -64 28 -5 68 -14 90 -21 78 -24 100 -29 206 -45 59 -9 114 -15 121
-12 9 4 13 26 13 74 0 38 5 78 11 89 6 11 7 26 3 33 -5 7 -5 25 0 40 10 32 27
169 38 318 5 62 16 136 24 165 7 29 13 73 11 97 -1 24 4 62 12 84 22 63 19 83
-17 96 -39 14 -45 13 -89 -6z m-1116 -229 c-35 -59 -43 -173 -18 -251 16 -51
16 -54 -1 -73 -24 -27 -36 -25 -69 9 -27 28 -28 31 -23 127 5 107 26 171 69
210 54 49 77 37 42 -22z m172 -19 c15 -23 17 -24 45 -10 17 9 52 15 86 14 32
-1 68 1 80 5 39 14 55 -19 57 -120 l1 -89 28 -3 c16 -2 31 -10 34 -17 7 -19
-37 -74 -60 -74 -15 -1 -17 4 -11 35 7 40 -7 58 -38 48 -13 -4 -18 0 -18 15 0
11 4 23 10 26 14 9 10 86 -7 113 -16 26 -65 28 -68 2 -1 -8 -6 -42 -10 -75 -7
-63 -18 -85 -42 -85 -11 0 -12 13 -7 65 8 74 -3 95 -45 95 -23 0 -28 -6 -39
-45 -7 -25 -12 -61 -12 -79 0 -38 -24 -69 -49 -64 -13 3 -15 14 -12 58 2 30 7
63 12 72 15 28 10 57 -11 70 -25 16 -25 22 2 48 29 27 54 25 74 -5z m817 -10
c24 -49 22 -141 -2 -182 -27 -43 -53 -73 -74 -84 -17 -9 -16 -7 2 30 12 22 21
51 21 64 0 12 5 28 10 33 7 7 2 29 -15 69 l-26 58 22 23 c30 32 42 30 62 -11z
m-179 -12 c13 -48 17 -101 7 -108 -18 -11 -12 -46 10 -64 l22 -18 -23 -21
c-13 -12 -35 -22 -48 -22 -22 0 -24 3 -17 33 3 17 9 55 11 84 5 46 3 53 -18
64 -36 20 -47 19 -68 -8 -13 -17 -20 -41 -20 -69 0 -51 -39 -108 -61 -87 -9 9
-9 19 1 43 15 36 15 119 0 134 -6 6 -5 15 6 28 13 13 26 16 59 11 24 -3 51 -1
61 6 30 17 72 13 78 -6z"/>
<path d="M2425 15200 c-82 -7 -78 -24 15 -73 41 -21 80 -43 88 -49 16 -14 100
-60 167 -93 28 -14 79 -44 115 -66 111 -71 204 -124 240 -139 19 -7 53 -25 74
-39 21 -14 46 -30 55 -36 9 -5 34 -21 56 -35 22 -15 59 -34 83 -45 23 -10 42
-21 42 -25 0 -4 18 -12 40 -19 21 -6 60 -28 86 -47 26 -20 88 -58 138 -83 50
-26 113 -62 140 -79 28 -18 54 -32 58 -32 5 0 32 -17 61 -37 38 -27 63 -37 92
-37 37 -1 41 2 67 49 16 28 35 66 44 85 9 19 31 52 49 73 19 21 46 68 61 103
26 61 26 68 15 122 -7 31 -17 71 -22 87 -12 33 -16 53 -29 140 -7 50 -26 133
-56 252 -8 29 -27 35 -77 24 -23 -5 -226 -7 -452 -4 -635 7 -1084 8 -1150 3z"/>
<path d="M2296 15143 c-4 -10 -9 -71 -12 -138 -3 -66 -11 -151 -19 -190 -7
-38 -16 -116 -20 -173 -4 -56 -11 -105 -16 -108 -5 -3 -9 -25 -9 -50 0 -42
-19 -141 -40 -209 -5 -17 -6 -44 -2 -60 8 -29 11 -30 87 -38 43 -4 84 -12 90
-17 7 -6 38 -14 71 -20 81 -13 163 -30 200 -41 17 -5 43 -9 58 -9 15 0 36 -4
46 -10 10 -5 51 -14 92 -20 72 -10 159 -28 268 -55 58 -14 117 -26 240 -50 41
-7 98 -21 125 -29 40 -12 94 -27 145 -41 31 -8 143 -15 160 -10 12 4 28 23 37
43 8 21 21 44 29 53 8 9 24 36 37 61 20 42 57 92 100 139 31 35 22 53 -39 74
-30 10 -65 29 -77 42 -12 12 -31 23 -42 23 -11 0 -44 18 -74 40 -29 22 -59 40
-66 40 -7 0 -36 16 -64 35 -28 19 -55 35 -61 35 -6 0 -27 11 -48 23 -42 27
-113 67 -187 106 -72 39 -96 54 -119 75 -12 10 -40 26 -62 36 -23 10 -43 23
-45 28 -4 9 -172 92 -188 92 -5 0 -11 4 -13 9 -4 11 -106 76 -198 126 -36 20
-85 49 -110 65 -25 16 -61 39 -80 50 -19 11 -44 26 -55 33 -98 62 -128 70
-139 40z"/>
<path d="M4295 14438 c-81 -100 -105 -135 -111 -162 -3 -16 -15 -39 -26 -50
-24 -27 -20 -67 9 -82 13 -6 31 -18 40 -26 10 -9 59 -37 108 -62 50 -25 99
-52 110 -59 11 -6 42 -26 70 -43 27 -18 73 -44 100 -59 28 -14 64 -35 80 -46
17 -10 41 -24 55 -29 13 -6 43 -26 65 -44 22 -18 56 -38 75 -46 19 -8 63 -33
97 -57 35 -24 67 -43 71 -43 13 0 74 -31 92 -46 14 -12 83 -50 145 -82 17 -8
74 -43 127 -78 53 -35 102 -64 108 -64 13 0 117 -67 126 -81 3 -5 12 -9 21 -9
9 0 38 -14 65 -31 39 -26 54 -30 83 -25 49 9 52 -23 8 -81 -33 -42 -41 -42
-39 4 1 36 -2 39 -54 65 -30 15 -62 36 -71 47 -8 10 -25 22 -37 25 -13 4 -46
23 -75 42 -28 19 -57 34 -64 34 -6 0 -18 6 -25 13 -7 6 -38 25 -68 40 -90 46
-212 116 -229 130 -15 14 -99 65 -219 135 -32 18 -80 44 -109 57 -28 13 -54
28 -57 34 -4 5 -19 16 -34 24 -15 7 -36 18 -47 24 -11 7 -27 14 -35 17 -8 3
-35 18 -60 34 -25 15 -60 36 -79 47 -18 11 -67 42 -109 69 -41 26 -123 72
-180 102 -118 60 -127 60 -162 -6 -30 -58 -60 -126 -60 -138 0 -7 -5 -12 -11
-12 -11 0 -69 -60 -69 -72 0 -9 -27 -43 -57 -73 -23 -22 -31 -59 -15 -69 13
-8 52 -195 52 -251 0 -19 4 -36 8 -39 5 -3 14 -31 21 -63 7 -32 17 -69 22 -83
5 -14 16 -59 23 -100 21 -106 43 -198 55 -229 6 -14 15 -57 20 -96 5 -38 15
-92 21 -120 36 -156 36 -155 103 -159 24 -2 52 -8 63 -14 10 -7 46 -16 79 -21
59 -10 108 -21 270 -63 44 -12 107 -24 140 -29 79 -10 207 -35 275 -54 30 -8
68 -15 85 -15 17 0 40 -7 51 -15 10 -8 32 -15 48 -15 40 0 141 -18 196 -35 25
-8 68 -19 95 -24 28 -6 70 -15 95 -20 25 -6 74 -13 110 -17 36 -3 69 -9 75
-12 5 -4 42 -12 80 -19 151 -25 240 -45 246 -54 3 -6 36 -14 73 -20 37 -5 95
-16 129 -24 157 -36 280 -58 367 -66 52 -4 123 -12 156 -17 59 -8 62 -7 89 19
25 25 27 35 31 123 l4 96 -25 0 c-23 0 -25 4 -25 45 0 37 -5 49 -34 77 -38 38
-37 58 5 58 29 0 29 0 29 59 0 80 5 91 46 91 19 0 34 5 34 10 0 6 -12 10 -27
10 -53 0 -72 11 -79 43 -5 22 -2 34 10 42 35 26 10 45 -59 46 -16 0 -60 0 -97
-1 -60 -1 -68 1 -68 18 0 21 49 61 89 72 18 5 25 13 24 27 -3 23 33 39 41 19
2 -6 5 -4 5 6 1 9 -12 20 -30 27 -29 10 -31 14 -25 43 3 18 17 43 30 54 29 25
29 26 27 127 -1 61 -4 77 -16 77 -11 0 -15 11 -15 40 0 22 -4 40 -10 40 -5 0
-10 18 -10 40 0 29 -4 40 -15 40 -24 0 -17 17 10 24 15 4 27 16 31 31 3 14 10
25 15 25 15 0 10 27 -5 33 -8 3 -22 17 -31 30 -14 22 -14 28 0 60 8 21 22 37
30 37 9 0 15 10 15 25 0 23 -4 25 -40 25 -29 0 -40 4 -40 15 0 9 9 15 25 15
22 0 25 4 25 38 0 26 -6 42 -20 52 -14 10 -16 17 -9 26 6 7 17 10 25 7 9 -3
14 2 14 16 0 28 18 27 22 -1 3 -21 3 -21 22 -3 12 12 15 20 7 23 -6 2 -8 8 -5
14 10 16 -29 37 -71 38 -57 0 -110 17 -144 45 -17 15 -42 25 -59 25 -17 0 -60
14 -96 30 -44 20 -89 33 -133 36 -38 4 -97 15 -132 25 -35 10 -81 19 -103 19
-21 0 -52 7 -67 15 -16 8 -31 12 -34 9 -3 -3 -22 2 -42 10 -21 9 -70 19 -109
22 -39 4 -79 11 -90 16 -10 6 -66 20 -125 33 -58 13 -124 28 -146 34 -22 6
-57 11 -77 11 -21 0 -38 4 -38 9 0 5 -24 12 -52 15 -29 3 -66 8 -83 11 -16 3
-52 9 -80 14 -27 5 -86 19 -130 32 -44 12 -96 24 -115 25 -19 2 -73 15 -120
30 -47 14 -119 30 -160 34 -41 5 -124 20 -185 34 -60 14 -110 26 -111 26 -1 0
-14 -15 -29 -32z m358 -723 c9 -8 19 -54 26 -117 12 -104 16 -129 27 -172 4
-17 -1 -30 -17 -45 -35 -32 -46 -26 -52 29 -3 27 -11 59 -17 70 l-11 21 -42
-23 c-24 -14 -50 -39 -61 -59 -22 -40 -54 -65 -66 -52 -5 4 -2 26 6 48 9 22
20 58 26 80 7 22 22 58 34 80 13 22 30 56 39 75 13 30 65 77 87 79 4 1 13 -6
21 -14z m257 -142 c0 -4 -10 -17 -21 -29 -25 -27 -19 -54 12 -54 21 0 21 -1 5
-19 -10 -11 -28 -21 -40 -23 -27 -4 -34 -43 -9 -56 19 -10 36 -9 66 3 26 11
22 -20 -5 -39 -32 -23 -127 -21 -144 2 -16 21 -18 82 -4 114 6 13 33 39 60 58
27 19 49 38 50 43 0 9 30 10 30 0z m-305 -319 c20 -15 41 -23 52 -20 22 7 44
-6 35 -21 -12 -18 -76 -53 -99 -53 -31 0 -53 10 -53 24 0 7 -16 17 -35 23 -29
9 -37 8 -43 -4 -5 -8 -18 -13 -28 -11 -17 3 -15 7 14 33 66 59 108 67 157 29z
m1047 -397 c-5 -7 -15 -55 -22 -108 -11 -90 -11 -98 9 -136 11 -23 32 -50 46
-61 30 -24 32 -47 5 -62 -29 -16 -55 -4 -88 38 -27 36 -28 40 -21 112 4 41 12
95 18 120 14 57 53 138 59 122 2 -7 0 -18 -6 -25z m913 -40 c4 -29 13 -62 21
-74 27 -43 11 -83 -33 -83 -26 0 -40 27 -50 97 -8 58 -29 75 -54 44 -11 -13
-19 -36 -19 -52 0 -31 -53 -100 -66 -86 -4 4 -3 31 3 61 7 41 6 61 -3 78 -13
25 -6 41 27 59 13 6 25 6 38 -3 17 -10 28 -9 63 3 24 9 48 14 55 12 6 -3 14
-28 18 -56z m-611 17 c8 -20 43 -17 81 6 31 19 65 18 65 -2 0 -5 -6 -21 -13
-36 -12 -23 -14 -46 -8 -99 0 -7 10 -13 21 -13 38 0 12 -44 -31 -54 -43 -10
-55 13 -39 81 11 52 11 58 -6 70 -38 28 -65 9 -71 -48 -5 -45 -37 -98 -51 -85
-4 4 -6 33 -5 64 2 40 -2 61 -13 73 -15 17 -14 20 12 42 29 26 48 26 58 1z
m-114 -34 c10 0 9 -5 -3 -18 -10 -10 -17 -25 -17 -33 0 -36 -23 -88 -45 -103
l-24 -16 4 50 c2 27 6 54 9 59 3 5 1 23 -5 40 -10 28 -9 34 7 46 17 12 22 11
40 -6 11 -10 26 -19 34 -19z m402 -145 c-2 -11 -12 -29 -23 -40 -19 -19 -19
-19 -19 16 0 40 7 51 30 46 9 -1 14 -11 12 -22z"/>
<path d="M4574 13632 c-6 -4 -15 -26 -19 -49 -6 -37 -4 -42 16 -48 39 -13 63
41 39 86 -12 20 -19 23 -36 11z"/>
<path d="M592 14354 c-12 -8 -22 -22 -22 -31 0 -9 -20 -46 -44 -82 -46 -71
-71 -111 -111 -181 -14 -25 -39 -67 -56 -95 -16 -27 -34 -59 -38 -71 -12 -28
-81 -136 -99 -153 -8 -8 -11 -23 -8 -35 3 -12 11 -52 16 -90 6 -38 15 -75 21
-82 6 -7 13 -41 16 -76 2 -35 9 -83 14 -108 6 -25 14 -67 19 -95 4 -27 13 -70
20 -95 6 -25 15 -67 19 -95 3 -27 11 -57 16 -65 9 -15 17 -55 35 -175 18 -122
29 -172 54 -239 14 -38 26 -70 26 -72 0 -6 88 -44 104 -44 9 0 27 -6 39 -14
12 -8 73 -19 136 -26 62 -6 148 -19 190 -30 42 -10 123 -26 181 -36 131 -21
249 -49 366 -85 17 -5 45 -9 62 -9 17 0 49 -7 69 -15 36 -14 109 -27 248 -43
33 -4 66 -11 74 -16 18 -11 68 -22 194 -41 54 -8 106 -19 116 -25 10 -5 52
-15 92 -21 41 -6 83 -18 94 -25 12 -9 46 -14 87 -14 36 0 79 -5 95 -11 15 -6
48 -14 73 -19 25 -4 110 -20 190 -34 80 -14 172 -33 205 -42 33 -8 83 -19 110
-24 28 -4 104 -20 170 -35 66 -14 130 -23 142 -20 31 7 93 66 93 87 0 19 116
198 137 211 7 4 13 17 13 27 0 11 9 29 20 40 11 11 20 23 20 26 0 3 11 19 25
36 14 16 25 36 25 44 0 8 15 35 34 61 18 27 45 72 59 102 26 55 26 55 -4 126
-5 11 -10 31 -13 45 -10 60 -58 267 -66 285 -14 32 -33 145 -26 152 3 3 0 16
-8 29 -8 12 -18 46 -21 75 -4 30 -12 72 -20 94 -7 22 -18 74 -25 115 -6 41
-16 83 -21 92 -5 10 -9 29 -9 44 0 14 -10 57 -22 95 -22 65 -25 69 -53 69 -16
0 -48 5 -70 11 -43 12 -153 35 -225 49 -64 11 -118 29 -125 40 -4 6 -33 10
-66 10 -62 0 -141 14 -171 31 -10 5 -31 9 -48 9 -16 0 -50 7 -75 16 -25 8 -58
17 -73 18 -15 2 -52 11 -82 19 -30 9 -82 19 -115 23 -33 4 -69 12 -80 19 -11
7 -40 13 -64 14 -25 1 -48 4 -52 7 -16 10 -155 44 -180 44 -15 0 -36 -8 -48
-17 -19 -16 -22 -35 -32 -158 -12 -171 -13 -179 -27 -285 -16 -114 -32 -297
-35 -395 -3 -72 -5 -80 -22 -80 -17 0 -20 7 -19 40 2 95 13 212 22 235 5 14
13 84 17 155 11 169 13 195 24 285 5 41 13 100 17 132 10 85 2 103 -51 118
-24 7 -57 10 -72 7 -15 -3 -43 1 -63 8 -19 7 -64 16 -99 19 -36 3 -75 13 -89
22 -13 8 -30 13 -38 10 -8 -3 -30 0 -47 8 -18 7 -59 16 -92 21 -33 4 -76 15
-95 25 -19 9 -66 20 -103 24 -38 4 -79 13 -90 20 -12 8 -51 16 -86 20 -35 3
-80 10 -100 16 -106 28 -171 42 -211 45 -49 5 -138 22 -184 36 -43 13 -79 11
-104 -7z m2053 -675 c4 -5 -1 -19 -11 -30 -14 -15 -31 -19 -84 -19 -85 0 -95
-9 -86 -88 3 -31 8 -84 11 -116 4 -40 12 -64 23 -72 16 -11 15 -14 -7 -38 -18
-19 -34 -26 -64 -26 -36 0 -39 2 -32 23 29 93 35 131 33 212 -1 51 3 98 9 110
22 38 190 74 208 44z m-275 -112 c0 -17 -32 -47 -50 -47 -9 0 -21 -5 -27 -11
-16 -16 -90 -1 -98 19 -11 30 31 49 106 49 41 0 69 -4 69 -10z m454 5 c9 -15
-10 -31 -49 -45 -51 -18 -54 -32 -11 -47 20 -6 36 -16 36 -21 0 -14 -57 -39
-90 -39 -37 0 -40 -24 -9 -64 16 -20 29 -26 59 -26 l39 0 -25 -27 c-22 -23
-34 -28 -76 -28 -64 0 -91 27 -77 77 4 18 11 49 14 68 11 70 164 192 189 152z
m-344 -351 c0 -5 14 -12 31 -16 44 -10 47 -31 8 -65 -42 -37 -57 -37 -84 -4
-18 23 -24 25 -42 15 -34 -17 -49 -14 -30 7 10 10 17 23 17 28 0 12 58 42 83
43 9 1 17 -3 17 -8z m979 -338 c43 -36 33 -182 -15 -230 -16 -17 -16 -18 -14
69 1 58 -2 72 -24 101 -29 38 -31 48 -14 65 17 17 42 15 67 -5z m-159 -109 c0
-122 -15 -163 -58 -164 -10 0 -13 18 -11 71 2 53 -2 74 -14 86 -15 15 -13 20
24 65 23 26 45 48 50 48 5 0 9 -48 9 -106z m-861 -90 c0 -76 -4 -115 -15 -136
-26 -51 -39 -29 -38 63 1 63 -3 87 -14 95 -12 8 -8 16 22 47 20 20 38 37 40
37 3 0 5 -48 5 -106z m426 76 c3 -5 9 -33 12 -62 3 -29 12 -60 19 -68 11 -13
8 -21 -20 -54 -38 -46 -56 -42 -56 12 0 43 -17 109 -29 117 -24 14 -67 -47
-55 -79 5 -13 -31 -56 -46 -56 -6 0 -10 24 -10 53 0 29 -5 58 -11 64 -8 8 -7
17 3 32 16 26 42 35 65 23 12 -7 27 -5 52 9 39 21 67 24 76 9z m-1224 -154
c-2 -91 0 -109 19 -146 12 -24 32 -52 44 -62 21 -18 21 -18 2 -33 -26 -20 -31
-19 -56 8 -49 51 -66 146 -49 267 6 40 28 85 37 75 4 -3 5 -53 3 -109z m1506
97 c8 -22 -102 -60 -127 -43 -13 8 -11 12 10 27 13 10 31 21 40 25 23 11 73 5
77 -9z m-1331 -27 c19 -10 33 -12 45 -5 22 12 79 12 79 0 0 -18 52 -22 69 -6
25 22 50 19 55 -7 3 -13 8 -36 11 -53 3 -16 9 -42 12 -57 3 -18 -1 -32 -16
-47 -32 -32 -41 -26 -41 33 0 52 -16 86 -40 86 -15 0 -40 -43 -40 -68 0 -28
-27 -82 -40 -82 -12 0 -13 20 -1 40 6 8 7 19 3 24 -3 6 -7 22 -8 35 -3 26 -28
51 -50 51 -23 0 -33 -27 -36 -95 -3 -62 -5 -70 -23 -70 -18 0 -20 8 -23 75 -2
41 -7 79 -12 84 -15 15 -12 37 7 58 19 22 15 21 49 4z m494 -28 c0 -26 -19
-39 -80 -58 -62 -19 -80 -19 -80 0 0 13 74 50 99 50 11 0 23 5 26 10 9 14 35
12 35 -2z m1090 -52 c0 -3 -4 -8 -10 -11 -5 -3 -10 -1 -10 4 0 6 5 11 10 11 6
0 10 -2 10 -4z m-820 -53 c-1 -25 -9 -48 -25 -68 -28 -33 -44 -29 -22 7 8 12
18 40 21 61 4 20 11 37 16 37 6 0 10 -17 10 -37z"/>
<path d="M6796 14326 c3 -9 11 -16 16 -16 13 0 5 23 -10 28 -7 2 -10 -2 -6
-12z"/>
<path d="M6830 14332 c0 -12 34 -42 48 -42 7 0 12 4 12 9 0 5 3 16 6 25 5 13
-1 16 -30 16 -20 0 -36 -4 -36 -8z"/>
<path d="M80 13391 c0 -5 7 -12 16 -15 14 -5 15 -4 4 9 -14 17 -20 19 -20 6z"/>
<path d="M155 13121 c5 -34 12 -49 18 -40 2 2 -3 20 -10 39 l-14 35 6 -34z"/>
<path d="M6823 13105 c0 -22 2 -30 4 -17 2 12 2 30 0 40 -3 9 -5 -1 -4 -23z"/>
<path d="M6785 12860 c-3 -5 -1 -10 4 -10 6 0 11 5 11 10 0 6 -2 10 -4 10 -3
0 -8 -4 -11 -10z"/>
<path d="M6860 12760 c0 -5 5 -10 11 -10 5 0 7 5 4 10 -3 6 -8 10 -11 10 -2 0
-4 -4 -4 -10z"/>
<path d="M6890 12525 c0 -52 1 -55 25 -55 24 0 25 3 25 55 0 52 -1 55 -25 55
-24 0 -25 -3 -25 -55z"/>
<path d="M6960 12220 c0 -22 5 -40 10 -40 6 0 10 18 10 40 0 22 -4 40 -10 40
-5 0 -10 -18 -10 -40z"/>
<path d="M7115 12090 c3 -5 8 -10 11 -10 2 0 4 5 4 10 0 6 -5 10 -11 10 -5 0
-7 -4 -4 -10z"/>
<path d="M6960 11460 c0 -5 5 -10 11 -10 5 0 7 5 4 10 -3 6 -8 10 -11 10 -2 0
-4 -4 -4 -10z"/>
<path d="M6930 11070 c0 -5 7 -10 15 -10 8 0 15 5 15 10 0 6 -7 10 -15 10 -8
0 -15 -4 -15 -10z"/>
<path d="M6374 10609 c-4 -13 -8 -26 -9 -29 -2 -9 -27 -85 -55 -165 -15 -44
-31 -92 -34 -107 l-6 -28 119 0 119 0 -13 43 c-7 23 -17 53 -23 67 -6 14 -25
70 -42 125 -36 112 -45 127 -56 94z"/>
<path d="M6773 10369 c-20 -7 -23 -15 -23 -69 0 -57 -13 -81 -23 -42 -3 11 -5
8 -6 -8 0 -15 3 -30 8 -35 5 -6 11 -21 14 -35 3 -18 5 -15 6 13 0 20 6 37 12
37 8 0 10 -13 6 -37 l-6 -38 18 22 c16 19 20 20 25 7 3 -9 6 -28 6 -44 0 -26
22 -46 38 -36 7 4 8 38 2 106 l-2 35 -8 -30 c-6 -22 -8 -9 -9 48 -1 59 -4 77
-15 77 -8 0 -16 8 -18 19 -2 15 -8 17 -25 10z m-6 -66 c-3 -10 -5 -4 -5 12 0
17 2 24 5 18 2 -7 2 -21 0 -30z"/>
<path d="M6710 10338 c0 -19 2 -20 10 -8 13 19 13 30 0 30 -5 0 -10 -10 -10
-22z"/>
<path d="M6784 10140 c-4 -22 -10 -37 -15 -34 -4 2 -3 -9 2 -26 14 -38 24 -40
14 -2 -6 26 -6 26 9 7 9 -12 15 -15 16 -7 0 8 5 10 13 6 7 -4 9 -3 4 2 -5 5
-14 9 -20 9 -8 0 -11 16 -10 43 2 53 -5 54 -13 2z"/>
<path d="M6907 9969 c-10 -11 -16 -23 -13 -26 8 -8 38 25 34 37 -2 6 -11 1
-21 -11z"/>
<path d="M350 9420 c0 -33 3 -40 20 -40 17 0 20 7 20 40 0 33 -3 40 -20 40
-17 0 -20 -7 -20 -40z"/>
<path d="M306 9081 c-4 -7 -5 -15 -2 -18 9 -9 19 4 14 18 -4 11 -6 11 -12 0z"/>
<path d="M0 6910 c0 -5 5 -10 10 -10 6 0 10 5 10 10 0 6 -4 10 -10 10 -5 0
-10 -4 -10 -10z"/>
<path d="M80 6476 c0 -14 -4 -28 -10 -31 -17 -10 -11 -25 10 -25 17 0 20 7 20
40 0 22 -4 40 -10 40 -5 0 -10 -11 -10 -24z"/>
<path d="M80 6140 c0 -29 4 -40 15 -40 11 0 15 11 15 40 0 29 -4 40 -15 40
-11 0 -15 -11 -15 -40z"/>
<path d="M80 5620 c0 -23 4 -30 20 -30 16 0 20 7 20 30 0 23 -4 30 -20 30 -16
0 -20 -7 -20 -30z"/>
<path d="M152 5620 c0 -19 2 -27 5 -17 2 9 2 25 0 35 -3 9 -5 1 -5 -18z"/>
<path d="M320 4915 c0 -11 11 -15 40 -15 29 0 40 4 40 15 0 11 -11 15 -40 15
-29 0 -40 -4 -40 -15z"/>
<path d="M378 4733 c7 -3 16 -2 19 1 4 3 -2 6 -13 5 -11 0 -14 -3 -6 -6z"/>
<path d="M370 4691 c0 -21 5 -31 15 -31 8 0 15 7 15 16 0 8 -7 22 -15 30 -13
14 -15 12 -15 -15z"/>
<path d="M320 3955 c0 -8 9 -15 20 -15 11 0 20 7 20 15 0 8 -9 15 -20 15 -11
0 -20 -7 -20 -15z"/>
<path d="M33 3687 c-33 -11 -33 -11 -33 -79 0 -65 1 -68 24 -68 13 0 29 -7 36
-15 7 -8 18 -15 24 -15 21 0 46 40 46 75 0 24 5 35 15 35 23 0 18 15 -16 49
-32 33 -44 35 -96 18z"/>
<path d="M380 1954 c-11 -12 -10 -18 3 -32 16 -15 17 -14 17 16 0 36 -2 38
-20 16z"/>
<path d="M690 816 c0 -2 7 -9 15 -16 12 -10 15 -10 15 4 0 9 -7 16 -15 16 -8
0 -15 -2 -15 -4z"/>
<path d="M640 244 c0 -17 22 -14 28 4 2 7 -3 12 -12 12 -9 0 -16 -7 -16 -16z"/>
</g>
</svg>
