<?xml version="1.0" standalone="no"?>
<!DOCTYPE svg PUBLIC "-//W3C//DTD SVG 20010904//EN"
 "http://www.w3.org/TR/2001/REC-SVG-20010904/DTD/svg10.dtd">
<svg version="1.0" xmlns="http://www.w3.org/2000/svg"
 width="140pt" height="200pt" viewBox="0 0 1275.000000 1651.000000"
 preserveAspectRatio="xMidYMid meet">

<g transform="translate(0.000000,1651.000000) scale(0.100000,-0.100000)"
fill="#000000" stroke="none">
<path d="M720 8395 l0 -7995 5655 0 5655 0 0 7995 0 7995 -5655 0 -5655 0 0
-7995z m10720 7965 c0 -5 -2 -10 -4 -10 -3 0 -8 5 -11 10 -3 6 -1 10 4 10 6 0
11 -4 11 -10z m35 -31 c11 -17 -1 -21 -15 -4 -8 9 -8 15 -2 15 6 0 14 -5 17
-11z m65 -64 c19 -19 32 -35 29 -35 -3 0 -20 16 -39 35 -19 19 -32 35 -29 35
3 0 20 -16 39 -35z m480 1 c0 -2 -7 -7 -16 -10 -8 -3 -12 -2 -9 4 6 10 25 14
25 6z m-50 -26 c-8 -5 -19 -10 -25 -10 -5 0 -3 5 5 10 8 5 20 10 25 10 6 0 3
-5 -5 -10z m-73 -26 c-3 -3 -12 -4 -19 -1 -8 3 -5 6 6 6 11 1 17 -2 13 -5z
m-42 -13 c-13 -11 -105 -51 -105 -45 0 5 91 51 105 53 6 1 6 -2 0 -8z m-141
-22 c14 -11 26 -30 26 -43 0 -27 -27 -66 -46 -66 -8 0 -19 -10 -25 -22 -8 -19
-9 -15 -5 17 4 26 2 35 -4 26 -7 -13 -11 -13 -25 -1 -13 11 -15 23 -11 51 4
25 2 39 -7 43 -6 3 -2 3 10 1 12 -3 24 -1 28 5 10 16 30 12 59 -11z m-67 -281
c-3 -8 -6 -5 -6 6 -1 11 2 17 5 13 3 -3 4 -12 1 -19z m-10 -60 c-3 -7 -5 -2
-5 12 0 14 2 19 5 13 2 -7 2 -19 0 -25z m-12 -68 c-4 -23 -9 -39 -11 -37 -3 2
-2 23 2 46 4 23 9 40 11 37 3 -3 2 -23 -2 -46z m-35 -200 l-11 -25 6 25 c2 14
5 34 6 45 2 19 2 19 6 0 2 -12 -1 -32 -7 -45z m26 -55 c10 -15 14 -36 11 -53
-4 -19 1 -34 16 -50 17 -18 18 -22 4 -16 -9 3 -17 10 -17 14 0 4 -9 10 -20 13
-11 3 -18 1 -14 -4 3 -5 -9 -9 -25 -9 -29 0 -36 8 -32 37 1 7 -25 0 -65 -18
-36 -17 -70 -29 -76 -27 -5 2 17 14 49 27 70 29 71 30 76 61 4 24 37 50 64 50
7 0 20 -11 29 -25z m-825 -72 c13 -16 12 -17 -3 -4 -17 13 -22 21 -14 21 2 0
10 -8 17 -17z m490 -88 c-40 -19 -79 -35 -85 -35 -16 1 126 69 144 69 8 0 -18
-15 -59 -34z m439 -22 c0 -10 -31 20 -42 41 -8 15 -3 13 16 -7 14 -15 26 -31
26 -34z m79 -64 c45 -53 35 -49 -19 7 -25 25 -38 42 -30 39 8 -4 30 -25 49
-46z m-702 15 c-27 -14 -51 -23 -54 -20 -6 6 74 44 92 45 6 0 -12 -11 -38 -25z
m833 -141 c0 -8 -9 0 -50 45 l-45 47 48 -45 c26 -24 47 -45 47 -47z m40 -28
c11 -13 10 -14 -4 -9 -9 3 -16 10 -16 15 0 13 6 11 20 -6z m50 -71 c0 -49 -2
-55 -15 -44 -24 20 -14 98 13 100 1 0 2 -25 2 -56z m-10 -196 c-18 -82 -23
-66 -8 23 7 40 14 65 16 55 2 -11 -2 -46 -8 -78z m-44 -258 c-8 -36 -14 -55
-15 -43 -1 29 21 131 26 118 2 -6 -3 -40 -11 -75z m-3323 -959 l3377 -1 0
-260 0 -260 -5640 0 c-3740 0 -5640 3 -5640 10 0 6 9 10 20 10 11 0 20 5 20
10 0 6 5 10 11 10 5 0 7 -4 4 -10 -4 -6 34 -10 107 -9 74 1 103 4 83 9 -24 6
-26 8 -7 9 19 1 22 7 22 41 0 22 -4 40 -10 40 -6 0 -10 47 -10 120 0 73 4 120
10 120 6 0 10 20 10 45 0 40 -3 45 -22 46 -21 1 -21 2 -3 6 33 8 42 23 13 23
-15 0 -28 4 -30 9 -1 5 -49 11 -105 13 l-103 4 0 -232 c0 -177 3 -234 13 -237
7 -3 5 -6 -5 -6 -17 -1 -18 17 -18 244 l0 245 1418 2 c779 2 1797 2 2262 2
465 -1 2365 -2 4223 -3z m-7846 -313 c-1 -51 -3 -12 -3 87 0 99 2 141 3 93 2
-48 2 -129 0 -180z m7441 -980 c26 -6 50 -16 55 -22 21 -30 -35 -181 -96 -261
-17 -22 -32 -42 -34 -44 -2 -2 -5 -2 -8 1 -3 2 6 42 20 88 30 101 31 153 5
205 -11 22 -20 41 -20 42 0 6 33 3 78 -9z m635 -70 l38 -11 -3 -94 c-3 -96
-17 -123 -30 -58 -27 129 -189 170 -265 66 -49 -66 -22 -149 76 -231 95 -80
189 -180 211 -224 31 -64 38 -165 16 -237 -41 -144 -216 -214 -395 -160 l-71
22 0 67 c0 85 10 172 20 172 4 0 13 -28 19 -62 13 -73 33 -104 87 -135 66 -38
151 -25 203 30 48 52 36 179 -23 239 -12 12 -62 59 -110 103 -107 98 -143 147
-163 227 -36 143 40 258 197 298 40 10 137 4 193 -12z m-3687 -19 c-3 -17 -6
-61 -6 -96 0 -45 -4 -63 -12 -61 -6 2 -13 17 -15 34 -8 57 -32 69 -148 72
l-105 4 0 -176 0 -177 113 7 c94 5 116 9 135 27 l22 20 0 -44 c0 -76 -13 -179
-21 -179 -5 0 -9 14 -9 30 0 19 -9 40 -25 55 -22 23 -32 25 -120 25 l-95 0 0
-179 c0 -227 -1 -225 127 -229 109 -4 146 14 163 78 18 67 33 49 25 -32 -8
-92 -12 -105 -32 -112 -23 -9 -523 5 -523 15 0 4 15 9 32 11 57 5 58 11 58
459 0 314 -3 409 -13 423 -7 9 -32 20 -55 23 -23 3 -42 10 -42 14 0 5 87 7
193 5 156 -3 288 2 351 13 5 0 6 -13 2 -30z m-892 5 c69 -18 96 -39 134 -104
56 -95 20 -256 -76 -340 -51 -45 -94 -60 -172 -59 -56 0 -51 10 14 24 16 3 44
22 62 42 105 115 73 324 -60 387 -40 19 -87 21 -104 4 -14 -14 -17 -663 -3
-781 8 -76 17 -87 73 -87 20 0 40 -4 43 -10 4 -7 -58 -10 -179 -10 -117 0
-186 4 -186 10 0 6 16 10 35 10 25 0 38 6 47 23 17 30 25 784 9 839 -11 34
-15 37 -56 44 -98 14 -35 24 156 24 151 0 217 -4 263 -16z m1630 -3 c50 -16
113 -83 127 -135 6 -23 9 -70 6 -106 -6 -73 -33 -129 -97 -200 -22 -25 -40
-47 -40 -50 0 -11 48 -82 126 -185 131 -176 194 -235 249 -235 19 0 37 -4 40
-10 9 -14 -193 -13 -236 1 -42 14 -93 70 -162 174 -28 44 -60 89 -69 99 -10
11 -18 24 -18 28 0 5 -12 25 -27 44 -26 32 -32 34 -87 34 l-58 0 3 -168 c5
-194 7 -202 75 -202 24 0 44 -4 44 -10 0 -6 -67 -10 -180 -10 -113 0 -180 4
-180 10 0 6 16 10 35 10 25 0 38 6 47 23 18 30 25 807 8 848 -12 28 -35 39
-83 39 -18 0 -26 4 -22 11 10 15 447 6 499 -10z m915 1 c55 -15 70 -24 105
-66 l41 -48 0 -97 c-1 -85 -4 -102 -28 -148 -16 -29 -31 -53 -35 -53 -4 0 -22
-18 -40 -40 -37 -45 -37 -49 27 -132 20 -25 56 -74 81 -107 25 -34 56 -76 70
-95 29 -38 94 -98 127 -115 12 -6 35 -11 52 -11 17 0 31 -4 31 -10 0 -13 -183
-13 -230 0 -49 14 -106 75 -194 210 -115 177 -107 170 -177 170 l-59 0 0 -150
c0 -109 4 -160 14 -185 14 -33 18 -35 60 -35 26 0 46 -4 46 -10 0 -6 -65 -10
-175 -10 -110 0 -175 4 -175 10 0 6 15 10 34 10 56 0 58 18 64 413 4 355 0
442 -21 472 -7 9 -32 19 -55 22 -23 3 -42 10 -42 14 0 5 93 9 208 8 161 0 221
-4 271 -17z m611 9 c0 -5 -9 -11 -20 -14 -12 -3 -20 -14 -20 -26 0 -18 27 -82
51 -121 5 -8 18 -33 29 -55 11 -22 24 -47 29 -55 11 -16 30 -54 55 -108 39
-83 39 -83 93 25 28 54 63 123 80 153 49 90 69 156 54 174 -8 9 -20 16 -27 16
-8 0 -14 5 -14 10 0 6 52 10 135 10 129 0 173 -11 101 -24 -44 -8 -104 -66
-129 -124 -6 -15 -16 -34 -23 -42 -12 -16 -66 -115 -136 -250 l-43 -85 -3
-175 c-3 -210 1 -223 68 -228 25 -2 49 -7 54 -13 6 -5 -61 -9 -177 -9 -118 0
-187 4 -187 10 0 6 15 10 34 10 52 0 61 33 61 220 l0 155 -37 76 c-21 42 -62
121 -93 174 -30 54 -55 99 -55 101 0 2 -15 27 -34 56 -48 77 -90 117 -125 124
-71 15 -21 24 124 24 85 0 155 -4 155 -9z m-3957 -1235 c33 -8 61 -17 64 -20
7 -7 4 -193 -4 -223 -7 -31 -23 -19 -23 17 0 16 -10 50 -22 74 -18 37 -32 50
-85 77 -53 27 -79 33 -147 37 -130 7 -217 -32 -277 -123 -56 -85 -63 -115 -64
-275 l0 -145 39 -78 c78 -158 201 -235 359 -225 40 3 90 13 112 22 43 18 82
67 92 117 7 34 21 47 29 26 8 -21 -25 -194 -39 -206 -39 -31 -262 -40 -392
-16 -249 48 -401 282 -363 558 29 213 148 342 363 396 54 14 286 5 358 -13z
m1992 -68 c-7 -89 -25 -148 -25 -81 0 67 -51 90 -202 92 l-58 1 0 -176 0 -176
114 4 c91 2 118 6 133 21 11 9 22 17 25 17 5 0 -1 -153 -8 -187 -7 -36 -21
-27 -28 18 -5 34 -12 42 -41 55 -20 8 -67 14 -115 14 l-80 0 0 -164 c0 -90 3
-177 6 -194 9 -43 43 -57 139 -57 98 0 128 16 146 75 20 68 32 47 24 -42 -4
-46 -9 -86 -11 -90 -7 -10 -544 -5 -544 4 0 5 11 8 25 8 52 0 62 26 70 171 11
201 3 705 -12 720 -6 6 -32 14 -57 16 -25 3 -46 10 -46 14 0 11 -18 10 255 9
127 0 244 4 260 9 17 5 31 10 33 10 2 1 0 -41 -3 -91z m507 -64 c37 -82 88
-193 113 -246 25 -53 45 -101 45 -105 0 -4 9 -26 20 -48 11 -22 34 -71 51
-109 l31 -68 28 58 c16 33 38 80 49 107 12 26 30 66 40 90 11 23 31 69 46 102
14 33 32 71 39 85 7 14 37 81 66 150 57 136 65 149 79 135 11 -11 37 -158 46
-260 3 -38 13 -104 20 -145 8 -41 21 -133 30 -205 23 -190 43 -287 64 -308 10
-10 37 -21 60 -24 22 -3 41 -10 41 -16 0 -10 -278 -2 -289 9 -3 3 1 9 8 13 14
9 8 77 -34 391 -8 58 -17 130 -21 160 l-7 55 -42 -90 c-41 -86 -52 -110 -98
-215 -11 -25 -28 -63 -38 -85 -10 -22 -35 -78 -55 -125 -37 -87 -61 -123 -74
-115 -11 7 -110 215 -110 230 0 5 -6 16 -13 24 -8 9 -22 36 -31 60 -9 24 -42
100 -73 169 -65 144 -65 144 -82 -29 -7 -63 -21 -173 -31 -246 -11 -72 -20
-136 -20 -142 0 -22 41 -51 70 -51 17 0 30 -4 30 -9 0 -6 -56 -10 -135 -10
-75 0 -135 5 -135 10 0 5 11 9 24 9 33 0 54 23 61 68 3 20 10 62 15 92 9 50
20 132 65 470 15 116 43 288 50 308 11 31 34 -3 97 -144z m2293 132 l70 -17
-3 -97 c-1 -53 -5 -107 -8 -120 -6 -29 -24 -19 -24 13 0 14 -10 45 -22 69 -31
64 -114 106 -226 113 -98 7 -150 -6 -214 -53 -91 -66 -136 -177 -137 -338 -2
-268 153 -454 381 -456 98 0 166 28 199 82 15 24 30 56 33 72 5 20 10 26 18
18 7 -7 5 -39 -6 -108 -10 -54 -18 -99 -19 -100 -1 -1 -30 -9 -63 -18 -84 -22
-247 -20 -351 2 -63 14 -98 29 -151 65 -74 50 -137 118 -148 161 -3 14 -10 29
-15 32 -28 17 -52 205 -38 297 33 213 143 336 354 393 65 18 276 12 370 -10z
m640 -8 c9 -18 32 -76 51 -128 19 -52 41 -111 49 -130 8 -19 21 -53 28 -75 31
-89 88 -241 97 -260 5 -11 26 -64 45 -117 53 -151 97 -208 157 -208 16 0 28
-4 28 -10 0 -13 -270 -13 -290 0 -10 6 -11 10 -2 10 6 0 12 8 12 18 0 18 -55
184 -84 254 l-15 36 -123 1 c-68 1 -129 -2 -135 -7 -15 -10 -59 -124 -81 -209
-18 -72 -9 -93 39 -93 16 0 29 -4 29 -9 0 -5 -65 -10 -150 -10 -89 0 -150 4
-150 9 0 6 14 10 30 10 61 0 92 40 146 190 43 121 61 169 100 270 20 52 44
118 54 145 16 47 95 258 119 318 14 36 26 34 46 -5z m-4817 3 c2 -6 -8 -11
-25 -11 -16 0 -38 -6 -49 -14 -18 -13 -19 -28 -19 -188 l0 -173 225 0 225 0 0
173 c0 196 -2 202 -77 202 -21 0 -38 5 -38 10 0 12 -9 11 192 12 115 1 163 -2
166 -10 2 -8 -9 -12 -31 -12 -62 0 -62 2 -65 -369 -2 -185 1 -376 6 -425 11
-102 22 -116 85 -116 21 0 36 -4 32 -9 -7 -12 -353 -12 -361 0 -3 5 7 9 23 9
15 0 34 4 42 9 21 13 29 94 30 289 l1 172 -230 0 -230 0 1 -172 c1 -267 10
-298 92 -298 21 0 36 -4 32 -9 -7 -12 -353 -12 -361 0 -3 5 8 9 25 9 22 0 35
7 48 27 17 25 18 62 18 441 0 398 -1 414 -19 428 -11 8 -37 14 -58 14 -34 0
-47 8 -34 21 2 2 82 3 177 3 120 -1 174 -5 177 -13z m3235 10 c4 -1 7 -5 7
-11 0 -5 -15 -10 -34 -10 -62 0 -61 9 -61 -444 0 -377 1 -414 18 -439 15 -23
25 -27 63 -27 26 0 43 -4 39 -10 -7 -12 -353 -11 -361 1 -3 5 7 9 23 9 71 1
73 10 73 471 0 386 -1 400 -20 419 -11 11 -33 20 -50 20 -28 0 -42 14 -20 22
8 2 295 2 323 -1z m2465 -10 c2 -7 -11 -11 -35 -11 -22 0 -44 -5 -51 -12 -9
-9 -12 -111 -12 -397 0 -213 3 -395 6 -406 8 -32 51 -45 148 -45 111 0 150 18
160 74 6 32 21 54 31 44 10 -10 -14 -171 -26 -179 -16 -10 -555 -6 -565 4 -4
4 7 7 24 7 17 0 37 7 45 15 21 21 30 201 25 563 -3 287 -4 304 -22 318 -11 8
-35 14 -53 14 -31 0 -46 14 -23 22 5 2 85 2 177 2 114 -1 168 -5 171 -13z
m548 -1160 c16 -5 42 -12 58 -16 28 -6 29 -7 23 -63 -5 -61 -39 -138 -91 -209
-47 -65 -59 -54 -30 27 28 80 32 180 9 220 -27 48 -20 57 31 41z m-7021 -148
c42 -49 84 -97 94 -108 26 -30 212 -235 236 -259 11 -12 43 -48 70 -80 28 -33
61 -71 75 -86 14 -15 41 -45 60 -66 l35 -39 3 60 c6 124 -14 580 -27 603 -9
17 -21 22 -51 22 -36 0 -63 14 -40 22 24 8 300 -4 295 -13 -4 -5 -18 -9 -33
-9 -57 0 -56 4 -63 -297 -4 -153 -7 -358 -8 -456 -1 -155 -3 -178 -17 -184
-18 -7 -18 -7 -199 192 -55 60 -118 128 -139 150 -41 41 -96 103 -169 189 -23
28 -52 60 -64 73 -12 12 -34 38 -49 58 -14 19 -30 35 -35 35 -5 0 -7 -28 -4
-62 2 -35 7 -170 10 -301 3 -130 11 -250 16 -266 11 -30 32 -41 82 -41 16 0
26 -4 22 -10 -7 -12 -315 -13 -315 -1 0 5 18 11 39 15 22 3 43 12 47 18 11 17
22 305 25 603 2 253 6 325 19 325 4 0 42 -39 85 -87z m1610 72 c44 -8 95 -15
113 -15 l32 0 0 -125 c0 -99 -3 -125 -14 -125 -8 0 -15 15 -19 40 -8 62 -41
98 -126 139 -71 34 -82 36 -171 36 -88 0 -100 -3 -157 -32 -114 -60 -163 -153
-171 -324 -13 -285 141 -484 385 -497 65 -4 88 -1 108 12 25 16 25 17 25 177
0 88 -5 169 -10 179 -6 12 -26 21 -55 26 -94 14 -39 24 130 24 163 0 218 -9
143 -24 -58 -11 -58 -12 -58 -211 0 -136 -3 -185 -13 -193 -7 -6 -50 -20 -95
-32 -181 -47 -396 -20 -524 66 -105 70 -153 141 -183 271 -49 212 25 429 182
536 119 81 287 106 478 72z m1159 -26 c15 -22 95 -115 131 -154 11 -12 81 -88
155 -171 73 -82 144 -160 156 -174 13 -14 53 -60 90 -102 36 -43 69 -78 73
-78 7 0 3 278 -7 503 -9 175 -10 177 -74 177 -21 0 -38 5 -38 10 0 6 59 10
156 10 101 0 153 -3 149 -10 -3 -5 -22 -10 -41 -10 -28 0 -36 -5 -45 -27 -7
-20 -26 -585 -29 -880 0 -21 -5 -33 -13 -33 -15 0 -92 77 -243 244 -54 60
-107 119 -119 131 -112 122 -181 201 -263 305 -11 14 -23 22 -27 18 -12 -12
11 -589 25 -625 10 -28 18 -33 56 -39 89 -13 40 -24 -111 -23 -149 0 -209 11
-123 22 22 3 44 11 49 18 12 20 18 149 24 543 3 203 8 373 11 378 7 11 40 -8
58 -33z m3945 20 c31 -11 33 -14 27 -48 -3 -20 -6 -62 -6 -93 0 -32 -4 -58
-10 -58 -5 0 -10 10 -10 21 0 30 -39 96 -68 115 -65 43 -156 34 -196 -19 -33
-43 -40 -76 -27 -125 9 -33 30 -58 109 -129 142 -129 169 -158 199 -216 22
-44 27 -65 27 -137 0 -69 -4 -92 -22 -125 -37 -68 -65 -94 -131 -120 -79 -33
-191 -36 -267 -8 l-49 19 -3 94 c-3 102 3 144 18 135 6 -3 10 -19 10 -35 0
-42 34 -114 65 -138 69 -54 160 -49 222 13 30 30 33 38 33 97 0 76 -27 126
-107 198 -27 25 -73 66 -102 91 -31 29 -65 73 -86 114 -30 57 -35 76 -35 133
1 157 113 248 295 238 44 -2 95 -10 114 -17z m-7154 -76 c-8 -100 -21 -127
-31 -65 -9 58 -32 70 -153 78 l-101 7 0 -177 0 -178 116 4 c100 3 118 6 130
22 7 11 16 17 19 15 8 -9 -8 -209 -17 -209 -4 0 -8 12 -8 28 -1 59 -47 81
-172 82 l-68 0 0 -185 c0 -169 2 -187 19 -204 41 -41 198 -39 244 2 14 12 28
39 31 60 4 20 12 37 18 37 12 0 3 -126 -12 -166 l-10 -24 -270 2 c-148 2 -270
6 -270 9 0 4 18 9 39 13 23 3 42 13 47 23 5 10 10 200 11 423 4 460 5 453 -65
458 -23 2 -42 7 -42 12 0 6 108 11 258 13 141 1 265 3 275 5 17 2 18 -4 12
-85z m4750 35 c-13 -121 -17 -140 -25 -132 -5 5 -10 22 -12 38 -5 48 -40 64
-150 72 l-98 7 0 -177 0 -178 116 4 c100 3 118 6 130 22 7 11 15 18 17 15 2
-2 2 -50 -1 -107 -3 -70 -8 -102 -16 -99 -6 2 -12 17 -14 34 -5 52 -29 64
-136 70 l-96 6 0 -182 c0 -104 4 -190 10 -201 12 -22 68 -40 125 -40 89 0 150
36 157 93 2 15 8 27 13 27 12 -1 8 -88 -6 -143 l-10 -37 -265 2 c-255 2 -319
8 -234 22 32 5 41 11 47 34 5 15 8 210 8 433 0 452 2 439 -66 439 -21 0 -41 4
-44 10 -4 6 88 11 257 13 145 1 271 3 281 5 16 2 17 -4 12 -50z m792 38 c-3
-7 -9 -50 -12 -95 -4 -44 -12 -81 -16 -81 -5 0 -9 14 -9 30 0 57 -34 77 -143
85 -52 4 -100 4 -106 1 -7 -5 -11 -65 -11 -177 l0 -169 109 0 c95 0 112 3 135
21 15 12 29 20 30 18 9 -9 -10 -214 -19 -212 -5 2 -11 19 -13 38 -5 54 -35 68
-145 69 l-92 1 -3 -162 c-3 -199 4 -226 70 -244 58 -15 154 -6 187 19 14 10
30 35 36 55 19 67 28 53 22 -35 -2 -47 -8 -91 -11 -97 -8 -13 -546 -11 -546 1
0 5 11 8 24 8 13 0 34 9 47 19 l24 19 0 422 c0 406 -1 422 -19 436 -11 8 -34
14 -52 14 -18 0 -36 4 -39 10 -4 6 86 11 252 13 142 1 269 3 282 5 16 1 22 -2
18 -12z m-2722 -5 c-6 -5 -26 -11 -45 -13 -27 -2 -36 -8 -41 -28 -11 -41 -10
-791 1 -831 11 -38 33 -49 97 -49 14 0 21 -4 18 -10 -8 -13 -365 -14 -365 -1
0 5 18 12 40 16 32 5 42 12 48 33 4 15 7 210 7 433 0 447 1 439 -61 439 -19 0
-34 5 -34 10 0 6 64 10 172 10 106 0 168 -4 163 -9z m3436 -1 c46 -8 60 -17
96 -56 94 -106 78 -270 -40 -391 -49 -51 -51 -45 64 -201 46 -62 94 -126 105
-142 43 -59 123 -118 170 -125 24 -3 42 -10 39 -16 -8 -13 -171 -11 -220 2
-55 16 -114 79 -221 239 l-90 135 -59 6 c-33 4 -64 4 -69 1 -5 -3 -6 -71 -3
-160 8 -182 14 -197 82 -207 90 -14 30 -25 -135 -25 -162 0 -224 10 -140 24
35 5 40 10 49 44 7 23 11 188 11 427 0 442 1 435 -70 435 -21 0 -42 5 -45 10
-8 13 403 13 476 0z m1659 -1530 c0 -7 -1482 -10 -4425 -10 -2943 0 -4425 3
-4425 10 0 7 1482 10 4425 10 2943 0 4425 -3 4425 -10z m-6136 -300 c8 -25 36
-103 61 -175 26 -71 53 -148 60 -170 25 -78 58 -134 84 -144 21 -8 13 -10 -42
-10 -41 -1 -66 3 -62 8 5 9 -22 106 -44 156 -5 11 -12 28 -15 38 -5 15 -16 17
-82 15 l-76 -3 -24 -75 c-29 -91 -31 -127 -6 -133 9 -3 -17 -5 -58 -4 -41 0
-65 2 -52 4 32 6 45 32 92 178 23 72 46 139 51 150 5 11 18 47 28 80 57 174
57 174 85 85z m2902 40 c95 -47 148 -138 147 -255 -2 -117 -70 -234 -158 -271
-52 -22 -180 -22 -227 0 -45 22 -89 70 -119 131 -19 41 -24 65 -23 135 0 74 4
92 28 138 71 133 221 185 352 122z m702 18 c53 -13 119 -56 150 -98 30 -40 55
-146 48 -200 -12 -88 -37 -142 -90 -196 -47 -46 -58 -52 -116 -62 -98 -18
-176 -1 -229 48 -23 22 -53 65 -68 96 -23 51 -25 65 -21 150 3 54 11 100 18
109 7 8 20 30 29 47 9 17 38 47 65 65 76 52 129 62 214 41z m-4428 -8 c0 -5
-9 -10 -20 -10 -26 0 -32 -26 -28 -130 l3 -85 145 0 145 0 3 87 c3 90 -7 128
-33 128 -8 0 -15 5 -15 10 0 6 32 10 75 10 71 0 99 -11 55 -23 -19 -5 -20 -13
-20 -254 0 -136 4 -253 8 -259 4 -7 18 -14 32 -17 14 -2 -15 -5 -65 -5 -59 0
-83 2 -69 8 27 11 34 46 34 176 l0 104 -150 0 -150 0 1 -112 c1 -142 6 -161
44 -169 17 -4 -9 -7 -60 -7 -53 0 -82 3 -70 7 19 8 20 20 25 217 6 266 3 308
-27 312 -13 2 -23 8 -23 13 0 5 36 9 80 9 47 0 80 -4 80 -10z m1371 -91 c46
-55 91 -108 99 -117 9 -10 58 -68 109 -129 52 -62 94 -113 95 -113 2 0 -10
435 -12 438 -1 1 -13 2 -27 2 -14 0 -25 4 -25 10 0 5 31 9 70 9 68 -1 91 -11
50 -22 -19 -5 -20 -14 -20 -272 0 -225 -2 -266 -14 -263 -12 3 -140 143 -239
262 -58 70 -84 101 -121 141 l-36 40 6 -195 c4 -107 10 -205 15 -217 4 -12 18
-23 31 -26 13 -2 -13 -5 -57 -5 -71 -2 -77 0 -55 11 l25 13 3 267 c1 147 6
267 10 267 5 0 46 -45 93 -101z m941 90 c152 -33 239 -167 208 -322 -16 -82
-40 -127 -95 -175 -35 -31 -58 -42 -103 -50 -65 -11 -319 -4 -285 9 28 10 33
49 33 287 0 211 -5 242 -40 242 -11 0 -20 4 -20 9 0 14 239 13 302 0z m660 2
c13 -5 36 -21 52 -34 26 -21 30 -31 30 -75 0 -40 -6 -58 -29 -87 -27 -37 -28
-38 -9 -52 75 -53 103 -108 89 -177 -10 -47 -53 -103 -87 -115 -37 -13 -264
-14 -232 -1 30 12 34 44 34 282 0 217 -5 248 -40 248 -11 0 -20 5 -20 10 0 13
180 13 212 1z m2028 0 c0 -5 -9 -11 -19 -14 -18 -4 -20 -16 -23 -118 -2 -63
-2 -116 -1 -118 3 -5 61 56 71 75 4 7 34 40 66 74 47 48 57 65 54 85 -5 25 -4
25 58 25 36 0 64 -4 64 -10 0 -5 -7 -10 -17 -10 -18 0 -79 -44 -104 -75 -9
-11 -44 -49 -78 -85 -33 -35 -61 -67 -61 -70 0 -9 90 -108 186 -206 51 -52 93
-86 115 -93 30 -9 26 -10 -34 -8 -66 3 -68 4 -120 55 -29 29 -85 91 -123 137
-38 46 -71 84 -74 84 -10 2 1 -244 11 -256 6 -6 20 -14 32 -16 12 -2 -16 -5
-63 -5 -60 -1 -78 2 -62 8 l22 9 -2 258 -3 258 -22 3 c-13 2 -23 8 -23 13 0 5
34 9 75 9 41 0 75 -4 75 -9z m1960 -811 c0 -7 -1480 -10 -4419 -10 -2936 0
-4422 3 -4426 10 -4 7 1472 10 4419 10 2944 0 4426 -3 4426 -10z m-5831 -446
c38 -49 23 -129 -33 -176 -12 -10 -30 -17 -41 -17 -19 0 -19 1 1 9 20 8 64 55
64 69 0 4 -15 5 -34 3 -42 -5 -61 23 -53 75 11 62 61 81 96 37z m2539 3 c19
-16 42 -70 42 -100 0 -32 -39 -88 -70 -99 l-25 -9 28 29 c51 53 44 152 -13
182 -69 37 -109 -125 -44 -185 24 -22 24 -22 1 -18 -32 7 -60 49 -65 103 -4
42 -1 50 32 84 31 34 40 38 67 32 18 -3 39 -12 47 -19z m-2209 -14 c0 -27 -1
-27 -9 -5 -6 15 -18 22 -35 22 -25 0 -25 0 -25 -94 0 -66 4 -96 13 -99 6 -3
-1 -6 -18 -6 l-30 -1 3 100 c3 97 3 100 -18 100 -13 0 -24 -8 -27 -20 -8 -29
-23 -25 -21 5 2 24 4 25 85 25 l83 0 -1 -27z m203 -17 c-4 -46 7 -58 44 -51
11 2 22 4 27 4 12 2 8 79 -5 84 -7 3 1 6 17 6 l30 1 0 -105 0 -105 -30 1 c-16
0 -24 3 -17 6 7 3 12 23 12 49 l0 44 -41 0 -41 0 4 -50 c3 -49 2 -50 -25 -50
-20 0 -26 4 -21 12 9 14 7 174 -1 189 -4 5 6 9 22 9 27 0 28 -2 25 -44z m628
22 c0 -20 -1 -20 -18 -5 -18 17 -81 24 -83 10 0 -5 -2 -16 -4 -27 -2 -10 -1
-24 2 -32 7 -20 60 -18 72 4 8 14 10 9 11 -22 0 -31 -3 -37 -12 -28 -7 7 -26
12 -43 12 -31 0 -32 -1 -31 -42 1 -42 2 -43 38 -46 27 -2 41 2 56 18 l19 21
-4 -26 c-5 -24 -8 -25 -81 -25 -59 0 -73 3 -64 12 7 7 12 43 12 93 0 50 -5 86
-12 93 -9 9 5 12 65 12 72 0 77 -1 77 -22z m306 -12 c46 -46 47 -91 3 -141
-30 -34 -34 -35 -98 -34 -36 0 -60 3 -53 6 8 3 12 33 12 98 0 65 -4 95 -12 98
-7 3 16 6 51 6 59 1 65 -1 97 -33z m246 25 c-10 -6 -13 -33 -10 -105 l3 -96
-27 0 c-23 0 -26 3 -20 19 4 11 5 58 2 105 l-5 86 35 0 c23 0 30 -3 22 -9z
m311 -11 c3 -11 2 -22 -3 -25 -4 -3 -10 4 -13 15 -3 12 -14 20 -27 20 -21 0
-21 -3 -18 -100 l3 -100 -30 1 c-16 0 -24 3 -17 6 8 3 12 33 12 99 0 92 -1 94
-23 94 -15 0 -28 -9 -35 -22 -10 -23 -11 -23 -11 5 l-1 27 79 0 c70 0 79 -2
84 -20z m210 13 c-9 -3 -13 -33 -13 -98 0 -65 4 -95 13 -98 6 -3 -1 -6 -18 -6
l-30 -1 3 96 c3 72 0 99 -10 105 -8 6 2 8 27 8 22 0 34 -3 28 -6z m585 -63
c24 -36 48 -66 53 -68 5 -2 9 23 9 57 0 47 -4 62 -17 70 -15 8 -11 10 17 10
19 0 29 -3 23 -6 -9 -3 -13 -35 -13 -106 l-1 -102 -22 27 c-47 58 -67 87 -67
96 0 5 -9 17 -21 28 l-21 19 4 -83 c3 -82 3 -82 -22 -82 -22 1 -23 2 -7 11 14
8 17 25 17 94 0 69 -3 86 -17 95 -15 9 -13 10 11 8 24 -2 38 -16 74 -68z
m-7047 -1232 c-1 -73 -4 -134 -7 -137 -2 -2 -4 60 -4 139 0 79 3 141 6 137 3
-3 5 -66 5 -139z m9139 137 c0 -9 -83 -45 -100 -44 -8 0 8 11 35 24 53 25 65
28 65 20z m-215 -90 c-39 -19 -84 -36 -100 -40 -17 -4 8 11 55 33 47 22 92 40
100 40 8 0 -17 -15 -55 -33z m-231 -60 c14 -14 18 -14 46 0 17 9 36 15 42 13
6 -2 -8 -12 -31 -22 -26 -12 -41 -26 -41 -37 0 -10 -14 -29 -31 -42 l-32 -25
-23 26 c-26 27 -30 52 -14 83 13 23 62 26 84 4z m-57 -172 c-3 -10 -5 -4 -5
12 0 17 2 24 5 18 2 -7 2 -21 0 -30z m1081 -35 c-3 -7 -14 -14 -26 -16 -16 -3
-20 1 -16 12 7 19 48 22 42 4z m-5609 -1821 c49 -33 71 -76 71 -142 0 -128
-79 -187 -245 -183 -52 2 -95 6 -95 11 0 4 7 7 15 7 22 0 26 32 23 180 -3 132
-3 135 -28 148 -22 11 -9 13 96 10 113 -3 123 -5 163 -31z m374 18 c45 -18 71
-52 87 -111 12 -41 11 -53 -6 -106 -16 -49 -27 -66 -63 -92 -88 -64 -217 -30
-256 67 -41 102 -2 205 95 249 27 12 107 8 143 -7z m259 -63 c38 -42 90 -101
118 -131 l50 -54 -1 84 c0 101 -10 164 -26 164 -6 0 -15 3 -19 8 -4 4 21 7 55
7 39 0 60 -4 56 -10 -3 -5 -13 -10 -21 -10 -12 0 -14 -28 -14 -164 0 -91 -4
-167 -8 -170 -5 -3 -44 34 -88 82 -43 47 -96 104 -116 127 l-37 40 -1 -102 c0
-110 5 -133 26 -133 8 0 14 -4 14 -8 0 -10 -97 -9 -107 1 -3 4 1 7 9 7 25 0
28 21 28 186 0 85 3 154 8 153 4 0 37 -35 74 -77z m483 35 c1 -23 11 -79 25
-124 20 -70 25 -80 35 -65 7 9 15 31 19 47 8 36 57 167 66 178 4 4 21 -32 39
-80 50 -136 53 -143 61 -148 4 -3 20 42 35 100 23 86 26 107 15 120 -11 13 -6
15 36 15 41 -1 46 -3 33 -13 -9 -7 -21 -28 -27 -47 -5 -19 -17 -55 -26 -80 -9
-25 -28 -85 -42 -133 -15 -49 -30 -85 -34 -80 -7 7 -38 85 -82 206 -14 35 -22
34 -36 -5 -44 -133 -72 -198 -83 -198 -5 0 -16 26 -25 58 -8 31 -24 81 -35
110 -10 29 -19 60 -19 68 0 23 -31 87 -50 101 -12 10 -5 12 40 13 l55 0 0 -43z
m864 37 c29 -6 31 -9 31 -53 -1 -45 -1 -46 -15 -20 -18 34 -86 62 -129 53 -18
-3 -45 -15 -60 -27 -37 -30 -48 -124 -21 -192 20 -55 74 -88 133 -83 l37 3 3
63 c3 57 1 63 -20 72 -17 6 -6 9 47 9 52 0 64 -3 48 -9 -21 -8 -23 -16 -23
-79 l0 -70 -42 -12 c-93 -25 -204 14 -239 83 -26 51 -25 136 2 182 18 32 52
61 89 78 19 9 118 10 159 2z m327 -30 c31 -38 30 -73 -4 -120 l-29 -40 33 -44
c57 -76 86 -100 122 -100 l32 0 0 158 c0 155 -1 159 -22 170 -18 8 -2 11 80
11 l102 1 0 -32 c0 -29 -1 -30 -18 -15 -10 10 -35 17 -55 17 l-37 0 0 -61 0
-61 50 4 50 3 -1 -40 c0 -36 -1 -38 -11 -17 -9 17 -20 22 -50 22 l-38 0 0 -59
c0 -82 5 -91 51 -91 28 0 42 6 53 22 l16 22 0 -24 c0 -49 -7 -51 -148 -45 -73
2 -140 9 -150 14 -9 5 -35 36 -58 68 -63 90 -102 85 -90 -11 6 -48 10 -56 28
-56 12 0 18 -3 14 -7 -10 -10 -126 -11 -126 -1 0 4 7 8 15 8 13 0 15 24 15
160 0 157 -1 161 -22 170 -17 7 5 9 76 7 96 -3 99 -4 122 -33z m580 20 c-3 -9
-6 -21 -6 -27 0 -8 -4 -7 -12 1 -7 7 -29 12 -50 12 l-38 0 0 -61 0 -61 50 4
50 3 -1 -40 c0 -34 -2 -37 -9 -17 -8 18 -17 22 -50 22 l-40 0 0 -59 c0 -82 5
-91 51 -91 28 0 42 6 55 23 12 16 15 17 10 4 -3 -10 -6 -27 -6 -38 0 -18 -7
-19 -100 -17 -55 2 -100 6 -100 11 0 4 7 7 15 7 13 0 15 24 15 160 0 157 0
161 -22 170 -16 6 10 9 86 9 95 1 107 -1 102 -15z m234 -116 l115 -130 3 68
c5 110 -6 174 -31 184 -16 7 -7 9 37 9 50 1 57 -1 44 -11 -16 -13 -27 -130
-28 -298 l0 -55 -82 90 c-46 49 -102 110 -124 134 l-41 45 4 -100 c5 -122 9
-144 28 -144 8 0 15 -4 15 -8 0 -4 -25 -8 -55 -8 -30 1 -55 4 -55 9 0 4 6 7
14 7 23 0 26 24 26 186 0 85 3 154 8 153 4 0 59 -59 122 -131z m-1590 -188 c0
-24 -26 -38 -42 -22 -16 16 -2 42 22 42 13 0 20 -7 20 -20z m-369 -258 c14
-37 1 -99 -24 -117 -64 -45 -129 14 -112 102 12 65 113 77 136 15z m-645 29
c-3 -5 -15 -7 -26 -4 -17 5 -20 0 -20 -26 0 -24 4 -31 20 -31 11 0 20 -4 20
-10 0 -5 -9 -10 -20 -10 -16 0 -20 -7 -20 -31 0 -28 3 -31 25 -27 17 4 25 1
25 -8 0 -9 -13 -14 -37 -14 l-38 0 0 85 0 85 38 0 c21 0 36 -4 33 -9z m186
-21 c23 -29 23 -67 -2 -107 -18 -30 -24 -33 -67 -33 l-48 0 0 86 0 86 49 -5
c36 -3 55 -11 68 -27z m103 -55 c0 -61 -3 -85 -12 -85 -10 0 -13 24 -13 85 0
61 3 85 13 85 9 0 12 -24 12 -85z m185 76 c0 -4 -11 -6 -25 -3 l-25 4 0 -81
c0 -65 -3 -81 -15 -81 -12 0 -15 15 -15 79 0 79 0 80 -27 84 -16 2 2 5 40 6
37 0 67 -3 67 -8z m311 -1 c23 -13 24 -26 5 -62 -13 -25 -12 -29 19 -62 18
-20 28 -36 22 -36 -7 0 -28 18 -48 40 -20 22 -31 40 -24 40 17 0 26 39 14 62
-5 10 -16 18 -24 18 -12 0 -15 -16 -15 -80 0 -44 -4 -80 -9 -80 -5 0 -11 38
-13 85 l-3 85 28 0 c16 0 37 -5 48 -10z m214 -75 c0 -110 -19 -107 -22 3 -1
58 2 82 10 82 8 0 12 -26 12 -85z m129 36 c20 -26 43 -54 52 -62 14 -12 16 -7
12 49 -1 34 0 62 5 62 4 0 7 -39 7 -87 l-1 -88 -20 28 c-12 15 -37 47 -56 69
l-35 42 4 -65 c2 -52 0 -65 -12 -66 -12 -1 -14 13 -12 83 2 46 7 84 12 84 5 0
24 -22 44 -49z m366 32 c0 -13 -3 -14 -12 -5 -7 7 -27 12 -45 12 -41 0 -59
-31 -49 -84 11 -56 72 -87 96 -48 10 15 10 15 8 -3 -2 -15 -12 -21 -40 -23
-29 -2 -41 2 -62 25 -34 36 -36 93 -4 123 29 26 108 29 108 3z m82 -18 l-4
-35 47 0 48 0 -6 35 c-4 26 -2 35 9 35 11 0 14 -18 14 -85 0 -66 -3 -85 -14
-85 -10 0 -12 11 -8 45 l5 45 -47 0 -48 0 3 -40 c2 -22 0 -40 -5 -40 -4 0 -9
36 -9 80 -1 50 2 80 8 80 7 0 9 -15 7 -35z m220 26 c-10 -6 -13 -29 -11 -81 1
-41 -2 -75 -7 -77 -5 -2 -9 35 -9 82 0 78 2 85 20 85 15 0 16 -3 7 -9z m148 0
c0 -4 -11 -6 -25 -3 -22 4 -25 1 -25 -27 0 -29 7 -36 38 -32 6 1 12 -3 12 -9
0 -5 -11 -10 -25 -10 -21 0 -25 -5 -25 -31 0 -29 2 -31 29 -27 21 3 28 1 24
-9 -4 -9 -18 -13 -40 -11 l-35 3 -1 83 -2 82 38 0 c20 0 37 -4 37 -9z m140 0
c0 -4 -11 -6 -25 -3 -23 4 -25 1 -25 -31 0 -30 3 -34 20 -30 11 3 20 0 20 -6
0 -6 -9 -11 -21 -11 -19 0 -21 -5 -17 -40 3 -31 0 -40 -12 -40 -12 0 -15 15
-15 85 l0 85 38 0 c20 0 37 -4 37 -9z m-1182 -78 c-10 -2 -26 -2 -35 0 -10 3
-2 5 17 5 19 0 27 -2 18 -5z m410 0 c-10 -2 -26 -2 -35 0 -10 3 -2 5 17 5 19
0 27 -2 18 -5z m-4302 -498 l18 -45 17 42 c11 29 23 44 38 46 18 3 21 -2 21
-31 0 -19 3 -55 6 -81 6 -42 5 -46 -15 -46 -18 0 -21 6 -22 43 l-1 42 -15 -42
c-17 -51 -39 -55 -57 -13 -14 33 -26 30 -26 -7 0 -14 -6 -23 -15 -23 -12 0
-15 13 -15 58 0 74 8 102 30 102 11 0 24 -16 36 -45z m4205 35 c15 0 19 -7 19
-36 l0 -37 -21 27 c-24 31 -59 34 -84 6 -23 -26 -10 -53 49 -103 72 -59 83
-141 26 -192 -23 -21 -78 -29 -112 -16 -24 9 -28 16 -28 51 0 22 5 40 10 40 6
0 10 -8 10 -17 0 -46 79 -73 100 -34 18 35 11 63 -28 100 -87 83 -103 137 -54
183 28 27 57 38 80 32 8 -2 22 -4 33 -4z m-2841 -126 c30 -69 57 -127 60 -129
3 -2 31 53 62 123 31 70 60 128 66 130 5 1 15 -44 21 -100 7 -57 17 -132 24
-168 11 -59 14 -65 38 -68 23 -3 30 3 48 41 11 24 21 50 21 58 0 8 4 19 10 25
5 5 16 30 24 54 37 111 53 154 62 157 5 2 24 -36 42 -85 19 -48 40 -100 47
-117 7 -16 18 -46 25 -65 17 -56 34 -72 72 -68 l33 3 3 158 c2 156 2 158 -20
167 -17 6 -1 9 60 9 87 1 134 -14 146 -44 12 -33 5 -73 -19 -109 -30 -44 -29
-39 -6 -68 72 -86 89 -102 116 -114 30 -13 30 -13 -21 -14 -47 0 -54 3 -83 38
-17 20 -41 52 -52 70 -14 24 -25 32 -42 30 -18 -2 -23 -10 -25 -42 -5 -57 5
-84 31 -89 12 -2 -35 -5 -105 -6 -121 -1 -128 0 -128 19 0 11 -7 38 -16 60
l-17 41 -50 -3 -50 -3 -15 -48 c-13 -42 -13 -50 -1 -58 9 -5 -21 -9 -82 -9
l-97 0 -7 93 c-11 142 -14 143 -69 18 -27 -61 -52 -111 -56 -111 -5 0 -13 12
-19 28 -6 15 -15 34 -20 42 -17 26 -61 128 -62 142 -1 38 -20 -45 -25 -117 -6
-76 -5 -83 12 -88 10 -3 -5 -5 -35 -6 -46 -1 -52 1 -39 12 18 13 42 132 54
260 4 47 11 77 18 77 6 0 36 -57 66 -126z m994 112 c-6 -15 54 -146 66 -146
13 0 72 130 66 145 -5 13 12 15 109 15 l115 0 -21 -21 c-19 -19 -20 -30 -17
-155 3 -148 6 -154 65 -154 22 0 37 7 47 22 16 22 16 22 16 -9 0 -18 -4 -34
-9 -38 -5 -3 -56 -2 -112 2 -70 4 -96 9 -81 14 21 8 22 14 22 153 0 79 -3 151
-6 160 -4 9 -18 16 -34 16 -30 0 -73 -41 -86 -82 -4 -13 -16 -35 -28 -51 -16
-23 -20 -43 -21 -110 0 -78 1 -82 23 -85 49 -7 10 -17 -54 -14 -50 3 -64 6
-51 13 25 15 24 132 -2 179 -11 19 -27 49 -35 66 -8 17 -28 45 -44 62 l-30 32
54 0 c42 0 52 -3 48 -14z m686 -17 c0 -28 -1 -29 -16 -15 -9 9 -32 16 -55 16
l-40 0 3 -57 3 -58 48 2 47 1 0 -34 0 -34 -21 21 c-13 13 -30 19 -47 17 -25
-3 -27 -6 -30 -60 -4 -75 9 -98 53 -98 24 0 39 7 51 23 16 22 16 22 10 -12 -3
-19 -8 -36 -10 -38 -2 -3 -48 -1 -103 3 -54 4 -91 9 -83 12 27 9 30 25 30 175
0 144 -1 148 -22 157 -16 6 8 9 80 9 l102 1 0 -31z m270 -1 c-1 -27 -2 -30
-11 -15 -7 12 -23 17 -55 17 l-45 0 3 -57 3 -58 48 0 47 0 -1 -35 c-1 -19 -3
-27 -6 -18 -5 19 -64 35 -83 23 -13 -8 -12 -111 2 -137 13 -26 74 -24 90 2 7
11 15 20 19 20 8 0 -2 -59 -12 -66 -5 -2 -49 -2 -100 2 -62 5 -86 10 -75 16
14 8 16 32 16 164 0 151 -1 155 -22 164 -16 6 8 9 80 9 l102 1 0 -32z m450 27
c0 -4 -57 -107 -97 -173 -12 -21 -31 -54 -42 -74 -11 -20 -25 -39 -31 -43 -26
-16 -4 -25 60 -25 57 0 74 4 91 21 l20 20 -3 -33 -3 -33 -122 -3 c-101 -2
-123 0 -123 11 0 8 7 20 15 27 8 6 17 22 21 33 4 12 14 33 24 47 9 14 40 64
68 113 l52 87 -66 0 c-58 0 -68 -3 -91 -27 l-26 -28 6 25 c4 14 7 33 7 43 0
15 12 17 120 17 66 0 120 -2 120 -5z m790 -14 c57 -29 80 -73 80 -148 0 -93
-33 -144 -114 -178 -88 -37 -194 17 -216 108 -13 51 -8 117 10 159 7 14 30 37
53 51 51 33 133 37 187 8z m238 8 c-16 -9 -18 -27 -18 -135 0 -125 0 -126 29
-155 34 -34 54 -36 97 -10 37 22 44 52 44 186 0 97 -4 110 -35 118 -11 2 9 5
45 5 36 0 58 -2 49 -5 -22 -5 -29 -45 -29 -165 0 -91 -2 -102 -26 -133 -48
-64 -136 -70 -190 -14 -28 30 -29 33 -34 162 -5 128 -6 132 -30 144 -22 11
-18 13 45 13 52 -1 66 -3 53 -11z m532 -21 c0 -29 -1 -30 -18 -15 -10 10 -35
17 -55 17 l-37 0 0 -150 c0 -147 1 -151 23 -160 16 -6 4 -9 -48 -9 -52 0 -66
2 -52 10 15 9 17 28 17 159 l0 150 -42 0 c-24 0 -49 -7 -60 -17 -19 -17 -22
-12 -12 25 6 21 10 22 145 22 l139 0 0 -32z m146 19 c-14 -10 -17 -25 -14 -72
l3 -60 80 0 80 0 3 44 c4 58 -4 88 -26 94 -9 3 15 5 53 5 39 0 63 -2 54 -5
-10 -2 -20 -14 -23 -26 -8 -29 -8 -236 0 -276 6 -27 10 -31 40 -31 38 0 40 3
85 125 12 33 28 74 35 90 7 17 20 51 29 78 9 26 20 47 23 47 8 0 34 -62 77
-180 41 -113 64 -158 83 -163 9 -3 -8 -5 -38 -6 -50 -1 -55 1 -57 22 0 12 -5
38 -10 57 -9 34 -10 35 -64 38 l-55 3 -13 -52 c-11 -43 -11 -53 0 -60 8 -5
-34 -9 -106 -9 -79 0 -115 4 -105 10 11 7 15 29 15 87 l0 78 -82 3 -83 3 0
-81 c0 -74 2 -81 23 -90 16 -6 3 -9 -48 -8 -38 0 -63 2 -54 5 24 6 29 33 29
178 0 132 -3 148 -30 158 -8 3 14 6 49 6 55 1 62 -1 47 -12z m814 -17 c11 -14
21 -34 23 -45 3 -22 -16 -70 -40 -97 -14 -15 -12 -21 18 -60 62 -81 92 -108
120 -108 34 0 39 23 39 186 0 116 -1 124 -22 138 -21 15 -15 16 83 16 89 0
111 -3 149 -22 68 -35 85 -66 85 -152 0 -63 -3 -77 -27 -108 -49 -64 -83 -73
-248 -70 -163 4 -158 2 -216 89 -26 40 -41 53 -60 53 -23 0 -24 -3 -24 -60 0
-54 3 -62 23 -70 16 -6 4 -9 -48 -9 -38 1 -63 3 -55 6 27 11 30 26 30 168 0
142 -3 157 -30 168 -8 4 29 6 83 4 92 -2 99 -4 117 -27z m-6096 -6 c22 -8 20
-24 -3 -24 -24 0 -45 -25 -37 -45 3 -8 17 -15 32 -15 32 0 28 -23 -5 -28 -53
-8 -83 71 -39 102 25 18 30 19 52 10z m-155 -153 c20 -13 3 -34 -23 -27 -25 6
-40 -2 -49 -27 -10 -27 10 -57 36 -56 17 1 18 2 5 6 -18 5 -24 28 -10 36 4 3
19 3 35 0 22 -4 27 -11 27 -34 0 -31 -23 -49 -64 -49 -39 0 -66 33 -66 80 0
27 7 47 20 60 21 21 65 26 89 11z m101 -45 c0 -8 -7 -16 -15 -20 -10 -3 -15
-19 -15 -46 0 -33 -3 -40 -20 -40 -18 0 -20 7 -20 60 l0 60 35 0 c23 0 35 -5
35 -14z m94 -2 c3 -9 6 -35 6 -59 l0 -44 -41 2 c-56 3 -75 30 -40 58 12 10 27
16 32 13 5 -3 9 -1 9 5 0 5 -10 11 -22 13 -12 2 -23 9 -26 16 -6 19 74 16 82
-4z m51 -16 l7 -33 11 33 c13 41 40 39 47 -3 l6 -30 7 33 c4 19 13 32 22 32
18 0 19 -28 3 -81 -14 -47 -44 -54 -55 -12 l-6 28 -10 -28 c-13 -41 -37 -30
-53 23 -17 57 -17 70 0 70 7 0 17 -15 21 -32z m3573 -47 c20 -12 10 -46 -14
-49 -25 -4 -40 24 -23 44 13 16 19 17 37 5z m-3888 -101 c0 -25 4 -30 25 -30
21 0 25 5 25 31 0 24 4 30 18 27 14 -3 18 -16 20 -81 3 -72 2 -77 -17 -77 -17
0 -21 6 -21 35 0 31 -3 35 -25 35 -22 0 -25 -4 -25 -36 0 -28 -3 -35 -17 -32
-15 3 -19 16 -21 67 -3 73 1 91 23 91 10 0 15 -10 15 -30z m138 7 c2 -10 -3
-17 -12 -17 -18 0 -29 16 -21 31 9 14 29 6 33 -14z m60 -60 c3 -72 1 -77 -18
-77 -18 0 -20 6 -20 81 0 71 2 80 18 77 14 -3 17 -16 20 -81z m62 3 c0 -73 -2
-80 -20 -80 -18 0 -20 7 -20 80 0 73 2 80 20 80 18 0 20 -7 20 -80z m-120 -30
c0 -43 -3 -50 -20 -50 -17 0 -20 7 -20 50 0 43 3 50 20 50 17 0 20 -7 20 -50z
m3273 -82 c9 -11 17 -33 17 -50 0 -34 -26 -88 -42 -88 -6 0 -4 8 5 18 17 19
23 76 11 107 -4 10 -21 24 -38 32 l-31 14 30 -6 c17 -3 38 -15 48 -27z m196
16 c11 -11 -7 -10 -34 3 l-30 14 30 -6 c16 -4 32 -9 34 -11z m1348 10 c-3 -3
-12 -4 -19 -1 -8 3 -5 6 6 6 11 1 17 -2 13 -5z m-2016 -71 c12 -38 26 -74 32
-80 7 -9 5 -13 -6 -13 -9 0 -18 12 -22 30 -5 25 -12 30 -35 30 -23 0 -30 -5
-35 -30 -4 -16 -11 -30 -16 -30 -5 0 -5 9 0 23 5 12 19 48 31 80 12 31 24 57
25 57 2 0 13 -30 26 -67z m102 47 c-4 -14 5 -30 26 -52 33 -34 39 -59 17 -77
-11 -9 -12 -6 -8 16 4 20 -1 31 -21 47 -29 24 -42 86 -18 86 5 0 7 -9 4 -20z
m130 -3 c-3 -17 4 -29 26 -46 30 -24 37 -44 25 -75 -10 -26 -22 -18 -16 10 3
19 -2 32 -22 50 -24 23 -34 62 -19 77 10 11 11 9 6 -16z m136 -6 c-26 -36 -20
-73 18 -113 25 -26 25 -27 4 -21 -36 9 -54 47 -48 99 2 26 11 50 18 55 27 17
29 9 8 -20z m207 16 c-13 -10 -17 -24 -14 -61 2 -40 8 -53 31 -70 27 -20 30
-20 57 -4 21 12 27 13 24 3 -15 -37 -98 -25 -120 18 -24 45 -5 127 29 127 6 0
3 -6 -7 -13z m180 -67 c0 -60 -3 -80 -13 -80 -10 0 -13 21 -13 80 0 57 4 80
13 80 8 0 12 -23 13 -80z m134 54 c0 -8 11 -41 24 -74 20 -48 22 -60 10 -60
-8 0 -17 13 -20 30 -5 23 -12 30 -30 30 -19 0 -26 -7 -30 -30 -4 -16 -12 -30
-19 -30 -9 0 -6 16 9 54 14 36 22 48 24 35 2 -10 10 -19 19 -19 10 0 13 6 9
16 -3 9 -6 22 -6 30 0 9 -4 12 -10 9 -11 -7 -14 18 -4 28 10 9 24 -2 24 -19z
m168 19 c-28 -4 -28 -5 -28 -79 0 -43 -4 -74 -10 -74 -6 0 -10 31 -10 74 0 74
0 75 -27 79 -16 2 1 4 37 4 36 0 53 -2 38 -4z m94 -28 c-4 -32 -2 -35 22 -35
14 0 26 -4 26 -9 0 -4 -12 -6 -26 -3 -24 4 -25 2 -22 -29 3 -30 6 -34 31 -34
15 1 27 -3 27 -7 0 -4 -16 -8 -35 -8 l-35 0 0 80 c0 44 4 80 8 80 4 0 6 -16 4
-35z m256 28 c-23 -4 -28 -9 -28 -34 0 -22 5 -29 19 -29 11 0 23 -5 26 -10 4
-7 -2 -9 -19 -4 -24 6 -26 4 -26 -31 0 -36 1 -37 29 -33 17 2 28 1 25 -4 -3
-4 -22 -8 -42 -8 l-37 0 3 80 4 80 36 -1 c30 -2 32 -3 10 -6z m202 -13 c39
-39 19 -140 -27 -140 -15 0 -14 2 4 15 29 20 36 58 19 100 -13 31 -19 35 -51
35 l-37 0 4 -75 c2 -55 0 -75 -9 -75 -9 0 -13 23 -13 80 l0 80 45 0 c32 0 51
-6 65 -20z m110 -60 c0 -57 -4 -80 -12 -80 -9 0 -13 23 -13 80 0 57 4 80 13
80 8 0 12 -23 12 -80z m157 73 l-29 -4 4 -75 c2 -54 0 -74 -9 -74 -9 0 -13 22
-13 74 0 74 0 75 -27 79 -16 2 1 4 37 4 36 0 52 -2 37 -4z m90 -11 c-25 -27
-22 -91 5 -119 19 -20 19 -23 4 -23 -41 0 -56 109 -19 145 21 21 29 19 10 -3z
m97 2 c23 -22 21 -106 -1 -126 -37 -31 -47 -31 -20 1 32 39 35 78 6 115 -22
28 -11 36 15 10z m98 -20 c-3 -24 0 -39 9 -45 12 -7 12 -9 0 -9 -9 0 -12 -10
-9 -35 2 -20 0 -35 -7 -35 -6 0 -10 31 -10 80 0 49 4 80 10 80 7 0 9 -15 7
-36z m58 21 c12 -14 11 -30 -4 -65 -4 -9 5 -28 23 -48 18 -19 24 -32 16 -32
-14 0 -65 55 -65 70 0 5 5 12 10 15 16 10 11 53 -7 64 -16 9 -16 10 -2 11 9 0
22 -7 29 -15z m-5135 -6 c4 -6 -2 -13 -14 -16 -27 -7 -27 -19 2 -28 l22 -8
-22 -4 c-28 -5 -30 -23 -3 -23 11 0 20 -5 20 -11 0 -6 -14 -9 -32 -7 -30 3
-33 6 -36 42 -2 21 -1 44 2 52 6 16 52 19 61 3z m85 -50 c0 -27 -4 -49 -9 -49
-5 0 -16 -3 -25 -6 -23 -9 -42 37 -27 65 7 11 18 21 26 21 8 0 15 7 15 16 0 8
5 12 10 9 6 -3 10 -28 10 -56z m266 36 c12 -12 12 -18 2 -35 -11 -17 -11 -22
2 -30 11 -7 12 -12 3 -21 -6 -6 -16 -9 -21 -5 -19 11 -24 106 -5 106 2 0 11
-7 19 -15z m54 5 c0 -5 -7 -10 -15 -10 -8 0 -15 5 -15 10 0 6 7 10 15 10 8 0
15 -4 15 -10z m-261 -91 c-22 -13 -49 9 -49 41 0 17 5 30 10 30 6 0 10 -11 10
-25 0 -14 5 -25 10 -25 6 0 10 11 10 23 0 40 15 41 18 1 2 -22 -2 -40 -9 -45z
m89 64 c2 -8 -5 -13 -17 -13 -12 0 -21 -6 -21 -15 0 -8 9 -15 20 -15 23 0 27
-18 5 -26 -35 -14 -61 46 -33 74 15 15 40 12 46 -5z m60 5 c19 -19 15 -65 -5
-70 -10 -3 -24 -3 -30 -1 -18 6 -16 43 2 43 8 0 15 4 15 10 0 5 -7 7 -15 4
-15 -6 -21 7 -8 19 10 11 28 8 41 -5z m173 2 c10 -6 19 -19 19 -30 0 -19 -25
-50 -40 -50 -5 0 -16 7 -24 16 -9 8 -16 11 -16 5 0 -6 -7 -11 -15 -11 -10 0
-15 11 -15 35 0 40 16 46 30 13 9 -23 9 -23 9 -1 1 18 9 27 29 32 2 1 12 -4
23 -9z m83 -1 c2 -2 7 -19 11 -36 5 -26 3 -33 -9 -33 -10 0 -16 9 -16 25 0 14
-4 25 -10 25 -5 0 -10 -11 -10 -25 0 -14 -4 -25 -10 -25 -5 0 -10 18 -10 39 0
36 2 39 25 36 14 -1 27 -4 29 -6z m2460 -94 c3 -8 1 -15 -4 -15 -6 0 -10 7
-10 15 0 8 2 15 4 15 2 0 6 -7 10 -15z m131 -5 c3 -5 1 -10 -4 -10 -6 0 -11 5
-11 10 0 6 2 10 4 10 3 0 8 -4 11 -10z"/>
<path d="M11650 16165 c-7 -9 -8 -15 -2 -15 5 0 12 7 16 15 3 8 4 15 2 15 -2
0 -9 -7 -16 -15z"/>
<path d="M11686 16166 c3 -9 10 -16 14 -16 17 0 20 -34 4 -51 -10 -11 -13 -19
-8 -19 5 0 15 9 22 20 13 22 6 46 -23 70 -13 11 -15 10 -9 -4z"/>
<path d="M11636 16115 c4 -8 8 -15 10 -15 2 0 4 7 4 15 0 8 -4 15 -10 15 -5 0
-7 -7 -4 -15z"/>
<path d="M11576 15522 c-4 -7 -1 -12 8 -12 17 0 31 -34 20 -51 -4 -8 -3 -9 4
-5 17 10 15 30 -6 57 -13 15 -21 19 -26 11z"/>
<path d="M11555 15430 c3 -5 8 -10 11 -10 2 0 4 5 4 10 0 6 -5 10 -11 10 -5 0
-7 -4 -4 -10z"/>
<path d="M12004 13370 c0 -135 2 -190 3 -122 2 67 2 177 0 245 -1 67 -3 12 -3
-123z"/>
<path d="M4210 13460 c-24 -24 -24 -30 -6 -55 12 -17 11 -22 -6 -46 -16 -21
-18 -31 -9 -47 15 -27 48 -37 76 -22 45 24 35 80 -20 110 -36 20 -40 54 -7 58
19 3 22 -1 22 -28 0 -21 4 -30 13 -28 19 7 20 44 2 62 -22 21 -41 20 -65 -4z
m49 -104 c19 -34 -1 -71 -29 -56 -22 12 -26 50 -8 68 17 17 23 15 37 -12z"/>
<path d="M4530 13470 c0 -5 7 -7 15 -4 12 5 15 -4 15 -45 0 -28 5 -51 10 -51
6 0 10 23 10 51 0 47 1 50 21 44 15 -5 19 -4 15 4 -9 14 -86 15 -86 1z"/>
<path d="M4665 13425 c0 -30 3 -55 8 -55 4 0 7 11 7 25 0 20 5 25 25 25 20 0
25 -5 25 -25 0 -14 5 -25 10 -25 6 0 10 25 10 55 0 30 -4 55 -10 55 -5 0 -10
-11 -10 -25 0 -20 -5 -25 -25 -25 -20 0 -25 5 -25 25 0 14 -3 25 -7 25 -5 0
-8 -25 -8 -55z"/>
<path d="M6378 13466 c-26 -20 -22 -53 13 -97 17 -22 28 -46 25 -54 -7 -18
-37 -20 -55 -2 -10 10 -12 8 -9 -8 4 -26 50 -32 72 -10 25 26 20 68 -14 103
-34 36 -37 50 -14 59 11 4 22 -1 31 -13 14 -18 14 -18 11 6 -4 29 -34 37 -60
16z"/>
<path d="M7400 13468 c0 -4 5 -8 11 -8 7 0 10 -29 7 -89 l-3 -88 51 -2 c43 -1
57 3 83 25 26 22 31 33 31 69 0 69 -28 94 -112 98 -38 2 -68 0 -68 -5z m98
-19 c42 -14 62 -71 41 -115 -12 -24 -21 -29 -49 -29 l-35 0 -3 64 c-3 58 1 91
11 91 2 0 18 -5 35 -11z"/>
<path d="M7655 13381 l0 -99 33 0 c17 0 32 4 32 9 0 5 -4 9 -10 9 -15 0 -13
157 3 163 6 3 2 6 -10 6 -12 1 -27 3 -35 6 -10 4 -13 -15 -13 -94z"/>
<path d="M7781 13452 c0 -15 3 -21 6 -14 2 6 16 12 29 12 23 0 24 -2 24 -75 0
-43 -4 -75 -10 -75 -5 0 -10 -4 -10 -9 0 -5 18 -9 40 -9 22 0 40 3 40 9 0 5
-7 9 -15 9 -12 0 -15 15 -15 75 0 66 2 75 18 75 10 0 23 -5 30 -12 9 -9 12 -6
12 13 0 24 -2 25 -75 26 l-75 1 1 -26z"/>
<path d="M8164 13446 c-45 -45 -47 -92 -4 -136 39 -40 81 -40 121 -1 16 16 30
37 30 45 1 9 2 22 3 29 3 20 -22 65 -46 81 -35 25 -67 19 -104 -18z m95 -12
c25 -32 27 -90 4 -116 -20 -22 -42 -23 -71 -2 -18 12 -22 25 -22 68 0 28 5 57
12 64 20 20 55 13 77 -14z"/>
<path d="M8397 13473 c-4 -3 -7 -44 -7 -90 0 -52 -4 -83 -11 -83 -5 0 -8 -4
-5 -8 6 -10 52 -9 48 1 -11 27 -13 40 -10 78 l3 43 54 -67 c30 -37 58 -67 62
-67 4 0 9 42 11 94 3 92 2 95 -20 99 -18 3 -22 1 -17 -11 3 -8 8 -43 12 -76
l6 -61 -31 42 c-17 22 -36 44 -42 48 -6 4 -20 20 -29 36 -10 16 -21 26 -24 22z"/>
<path d="M1000 13350 c0 -73 4 -120 10 -120 6 0 10 47 10 120 0 73 -4 120 -10
120 -6 0 -10 -47 -10 -120z"/>
<path d="M4380 13439 c0 -21 8 -37 24 -50 34 -27 42 -56 21 -79 -14 -15 -22
-17 -37 -9 -16 9 -19 8 -16 -3 8 -23 43 -20 67 5 16 18 22 34 19 58 -2 28 -8
35 -35 43 -23 6 -33 15 -33 29 0 16 5 19 35 15 24 -3 35 0 35 9 0 8 -14 13
-40 13 -38 0 -40 -1 -40 -31z"/>
<path d="M4945 13393 c-16 -43 -35 -84 -43 -90 -14 -11 -13 -13 6 -13 15 0 22
6 22 18 0 24 19 42 46 42 17 0 24 -8 29 -30 5 -24 12 -30 31 -30 l25 0 -19 28
c-11 15 -27 52 -37 82 -10 30 -21 59 -25 63 -4 5 -20 -27 -35 -70z m45 -25 c0
-4 -9 -8 -21 -8 -15 0 -19 4 -15 16 3 9 6 21 6 27 1 13 30 -22 30 -35z"/>
<path d="M5128 13382 c-3 -79 -1 -92 13 -92 14 0 15 8 7 56 -5 31 -6 59 -2 63
3 3 18 -9 33 -28 14 -19 40 -49 58 -67 l32 -32 3 94 c3 89 2 94 -17 93 -11 0
-14 -3 -7 -6 8 -3 12 -27 12 -71 l-1 -67 -18 25 c-11 14 -39 47 -64 75 l-45
50 -4 -93z"/>
<path d="M5378 13381 c-3 -82 -1 -91 15 -91 13 0 16 4 9 18 -11 22 -16 102 -7
102 4 0 34 -28 65 -62 l58 -63 4 93 c3 87 2 92 -17 91 -11 0 -14 -3 -7 -6 8
-3 12 -27 12 -71 -1 -65 -1 -66 -18 -44 -9 12 -38 45 -64 74 l-47 51 -3 -92z"/>
<path d="M5629 13452 c5 -10 9 -51 8 -90 -2 -66 0 -72 18 -72 19 0 20 7 20 90
l0 90 -28 0 c-24 0 -26 -3 -18 -18z"/>
<path d="M5760 13433 c10 -21 26 -62 36 -90 10 -29 22 -53 26 -53 5 0 8 1 8 3
0 4 37 101 54 140 16 36 16 37 -4 37 -12 0 -17 -5 -14 -14 3 -8 -2 -28 -10
-45 -9 -16 -16 -39 -16 -51 0 -38 -19 -20 -34 34 -9 30 -16 59 -16 65 0 6 -11
11 -24 11 l-24 0 18 -37z"/>
<path d="M5968 13461 c10 -6 13 -30 10 -90 l-3 -82 44 3 c29 2 46 8 49 18 4
12 2 13 -9 3 -7 -7 -21 -13 -31 -13 -14 0 -18 8 -18 41 0 39 2 41 25 37 16 -3
25 -1 25 7 0 8 -9 10 -25 7 -23 -4 -25 -1 -25 32 0 29 4 36 19 36 11 0 22 -6
24 -12 3 -8 6 -6 6 5 1 14 -8 17 -51 17 -33 0 -48 -4 -40 -9z"/>
<path d="M6155 13378 l0 -94 30 5 c17 2 24 6 18 8 -7 3 -13 18 -13 34 0 38 20
37 45 -4 13 -20 30 -33 46 -35 25 -3 25 -1 -16 42 -23 26 -50 46 -59 46 -12 0
-16 10 -16 40 0 22 4 40 8 40 17 0 32 -25 32 -52 0 -36 17 -36 26 -1 10 39 -7
58 -57 61 l-44 3 0 -93z"/>
<path d="M6564 13445 c-12 -47 -53 -140 -63 -143 -20 -7 -11 -17 14 -17 16 0
23 5 20 13 -9 23 7 42 36 42 22 0 30 -6 35 -24 3 -13 15 -27 27 -30 31 -8 39
2 17 24 -11 11 -29 51 -41 90 -22 74 -35 86 -45 45z m26 -72 c0 -7 -7 -13 -15
-13 -15 0 -21 31 -8 43 8 8 23 -12 23 -30z"/>
<path d="M6725 13460 c6 -10 9 -136 3 -159 -2 -8 7 -14 23 -15 25 -1 26 1 21
36 -6 48 9 49 37 4 22 -35 59 -52 75 -36 7 7 4 10 -6 10 -10 0 -29 16 -44 35
-25 33 -26 37 -10 54 37 40 8 81 -58 81 -28 0 -45 -4 -41 -10z m83 -48 c-2
-16 -10 -28 -20 -30 -15 -3 -18 4 -18 38 0 38 1 40 21 30 14 -8 19 -19 17 -38z"/>
<path d="M6932 13424 c26 -39 30 -52 26 -93 -5 -47 -4 -48 24 -48 28 0 37 10
18 22 -18 11 -11 55 17 103 15 26 32 50 38 54 5 4 0 8 -12 8 -13 0 -23 -6 -23
-12 0 -7 -9 -26 -20 -43 l-19 -30 -18 43 c-13 31 -24 42 -40 42 -22 0 -22 -1
9 -46z"/>
<path d="M7227 13458 c12 -20 13 -141 1 -155 -13 -16 3 -22 57 -20 30 2 41 7
43 20 3 15 0 17 -15 9 -28 -15 -43 -3 -43 34 0 35 16 44 37 23 8 -8 13 -8 17
0 9 14 -2 32 -17 30 -29 -4 -37 3 -37 31 0 34 -1 34 34 20 21 -7 26 -6 26 5 0
11 -13 15 -56 15 -42 0 -53 -3 -47 -12z"/>
<path d="M7998 13458 c5 -7 9 -49 8 -94 l-1 -81 28 -1 c15 0 27 4 27 9 0 5 -5
9 -11 9 -7 0 -9 29 -7 85 l3 85 -29 0 c-21 0 -26 -3 -18 -12z"/>
<path d="M5680 11996 c0 -244 -7 -226 95 -226 59 0 65 2 94 35 33 38 61 118
61 177 0 50 -34 145 -62 176 -32 33 -82 52 -139 52 l-49 0 0 -214z"/>
<path d="M6610 11996 c0 -245 -8 -226 100 -226 63 0 84 14 120 74 20 33 24 54
24 126 1 157 -63 240 -186 240 l-58 0 0 -214z"/>
<path d="M8861 10763 c-7 -15 -28 -75 -47 -133 -19 -58 -39 -113 -44 -122 -20
-35 -11 -38 100 -38 l110 0 -6 28 c-4 15 -13 45 -21 67 -8 22 -23 65 -33 95
-11 30 -25 72 -33 93 l-14 37 -12 -27z"/>
<path d="M8943 9720 c-23 -9 -23 -11 -23 -208 0 -159 3 -202 14 -211 22 -18
111 -25 145 -11 92 38 127 218 65 341 -36 72 -135 116 -201 89z"/>
<path d="M4607 7812 c-45 -135 -47 -127 28 -127 36 0 65 2 65 5 0 8 -60 194
-64 197 -1 2 -14 -32 -29 -75z"/>
<path d="M7373 7959 c-89 -44 -118 -111 -111 -249 6 -94 21 -135 72 -188 44
-47 77 -62 139 -62 104 0 171 78 184 213 12 130 -35 237 -122 281 -61 31 -106
33 -162 5z"/>
<path d="M8140 7969 c-110 -44 -157 -185 -114 -340 29 -103 107 -169 199 -169
52 0 77 10 118 49 48 44 67 102 67 201 0 80 -3 94 -32 152 -29 55 -40 67 -87
91 -56 28 -107 33 -151 16z"/>
<path d="M5980 7955 c-9 -11 -11 -72 -9 -241 4 -253 2 -246 80 -259 91 -16
194 34 238 114 20 36 24 58 24 125 1 71 -3 88 -28 134 -37 69 -82 107 -147
127 -67 19 -142 20 -158 0z"/>
<path d="M6730 7865 l0 -105 40 0 c58 0 80 26 80 94 0 71 -34 116 -86 116
l-34 0 0 -105z"/>
<path d="M6730 7611 c0 -147 2 -151 78 -151 57 0 92 42 92 112 0 88 -48 147
-132 163 l-38 7 0 -131z"/>
<path d="M4922 6738 c-16 -16 -15 -83 2 -97 7 -6 21 -9 30 -5 21 8 22 77 0 98
-19 19 -17 19 -32 4z"/>
<path d="M6340 6645 l0 -95 29 0 c67 0 98 114 46 165 -13 14 -36 25 -50 25
l-25 0 0 -95z"/>
<path d="M4680 3266 c0 -160 -2 -156 71 -156 75 0 111 34 125 118 4 25 -1 53
-14 87 -15 41 -27 54 -63 73 -24 12 -60 22 -81 22 l-38 0 0 -144z"/>
<path d="M5087 3402 c-31 -19 -47 -65 -46 -132 1 -65 21 -112 59 -137 72 -50
146 -15 161 76 14 90 -9 158 -64 191 -39 24 -73 25 -110 2z"/>
<path d="M7040 3335 c0 -81 8 -93 53 -81 25 6 47 43 47 80 0 37 -37 76 -71 76
l-29 0 0 -75z"/>
<path d="M5912 2878 c-7 -7 -12 -31 -12 -55 0 -70 55 -107 93 -65 22 24 22 95
1 116 -18 19 -65 21 -82 4z"/>
<path d="M5472 2818 c3 -66 5 -73 25 -76 32 -5 63 31 63 73 0 42 -29 75 -65
75 -26 0 -26 -1 -23 -72z"/>
<path d="M4473 2323 c-9 -3 -13 -28 -13 -78 0 -66 2 -73 22 -78 46 -13 73 25
66 94 -2 25 -11 37 -33 50 -16 9 -36 15 -42 12z"/>
<path d="M4157 2200 c-9 -26 -17 -50 -17 -54 0 -3 16 -6 35 -6 38 0 40 5 25
62 -15 53 -24 53 -43 -2z"/>
<path d="M6791 2316 c-36 -20 -50 -55 -51 -124 0 -75 24 -129 68 -154 58 -34
121 -14 141 44 16 45 13 131 -4 176 -25 60 -99 88 -154 58z"/>
<path d="M8245 2198 c-8 -28 -15 -53 -15 -55 0 -2 17 -3 39 -3 l38 0 -15 55
c-8 30 -19 55 -23 55 -5 0 -15 -23 -24 -52z"/>
<path d="M8563 2323 c-9 -3 -13 -28 -13 -78 0 -63 3 -75 19 -80 41 -13 71 23
71 83 0 48 -41 87 -77 75z"/>
<path d="M8898 2322 c-16 -3 -18 -18 -18 -147 0 -158 -1 -155 66 -155 70 0
114 41 129 121 8 44 -23 127 -56 151 -27 19 -94 36 -121 30z"/>
<path d="M2560 2050 c0 -5 5 -10 10 -10 6 0 10 5 10 10 0 6 -4 10 -10 10 -5 0
-10 -4 -10 -10z"/>
<path d="M5256 1752 c-4 -13 -5 -26 -2 -29 10 -11 18 4 14 29 l-4 23 -8 -23z"/>
<path d="M2416 1743 c-12 -12 -6 -33 9 -33 8 0 15 6 15 14 0 17 -14 28 -24 19z"/>
<path d="M2810 1725 c0 -8 5 -15 10 -15 6 0 10 7 10 15 0 8 -4 15 -10 15 -5 0
-10 -7 -10 -15z"/>
</g>
</svg>
